<?xml version="1.0" encoding="UTF-8"?>
<svg xmlns="http://www.w3.org/2000/svg" xmlns:xlink="http://www.w3.org/1999/xlink" width="300pt" height="200pt" viewBox="0 0 300 200" version="1.1">
<defs>
<clipPath id="clip1">
  <path d="M 175 4.558594 L 176 4.558594 L 176 144 L 175 144 Z M 175 4.558594 "/>
</clipPath>
<clipPath id="clip2">
  <path d="M 62.398438 133 L 288 133 L 288 135 L 62.398438 135 Z M 62.398438 133 "/>
</clipPath>
<clipPath id="clip3">
  <path d="M 62.398438 39 L 288 39 L 288 142 L 62.398438 142 Z M 62.398438 39 "/>
</clipPath>
<clipPath id="clip4">
  <path d="M 62.398438 78 L 288 78 L 288 142 L 62.398438 142 Z M 62.398438 78 "/>
</clipPath>
<clipPath id="clip5">
  <path d="M 62.398438 98 L 288 98 L 288 142 L 62.398438 142 Z M 62.398438 98 "/>
</clipPath>
<clipPath id="clip6">
  <path d="M 134.160156 54 L 154.320312 54 L 154.320312 56 L 134.160156 56 Z M 134.160156 54 "/>
</clipPath>
<clipPath id="clip7">
  <path d="M 134.160156 34 L 154.320312 34 L 154.320312 36 L 134.160156 36 Z M 134.160156 34 "/>
</clipPath>
<clipPath id="clip8">
  <path d="M 134.160156 14 L 154.320312 14 L 154.320312 17 L 134.160156 17 Z M 134.160156 14 "/>
</clipPath>
</defs>
<g id="surface22">
<g clip-path="url(#clip1)" clip-rule="nonzero">
<path style="fill:none;stroke-width:0.2;stroke-linecap:butt;stroke-linejoin:miter;stroke:rgb(50.000763%,50.000763%,50.000763%);stroke-opacity:0.4;stroke-miterlimit:3.25;" d="M 175.226562 143.976562 L 175.226562 4.796875 "/>
</g>
<g clip-path="url(#clip2)" clip-rule="nonzero">
<path style="fill:none;stroke-width:0.2;stroke-linecap:butt;stroke-linejoin:miter;stroke:rgb(50.000763%,50.000763%,50.000763%);stroke-opacity:0.4;stroke-miterlimit:3.25;" d="M 62.625 133.964844 L 287.828125 133.964844 "/>
</g>
<path style="fill:none;stroke-width:1.351198;stroke-linecap:butt;stroke-linejoin:miter;stroke:rgb(0%,0%,0%);stroke-opacity:0.7;stroke-miterlimit:3.25;" d="M 175.226562 133.964844 L 175.246094 133.949219 L 175.261719 133.933594 L 175.300781 133.902344 L 175.371094 133.839844 L 175.519531 133.714844 L 175.808594 133.46875 L 176.390625 132.972656 L 177.65625 131.898438 L 178.832031 130.894531 L 179.988281 129.914062 L 181.242188 128.847656 L 182.414062 127.851562 L 183.683594 126.773438 L 184.925781 125.714844 L 186.089844 124.726562 L 187.347656 123.65625 L 188.523438 122.65625 L 189.675781 121.675781 L 190.925781 120.609375 L 192.09375 119.617188 L 193.359375 118.542969 L 194.601562 117.484375 L 195.757812 116.5 L 197.015625 115.433594 L 198.1875 114.4375 L 199.457031 113.355469 L 200.707031 112.292969 L 201.871094 111.304688 L 203.132812 110.230469 L 204.308594 109.230469 L 205.464844 108.25 L 206.714844 107.183594 L 207.886719 106.1875 L 209.152344 105.109375 L 210.398438 104.054688 L 211.558594 103.066406 L 212.816406 101.996094 L 213.988281 100.996094 L 215.140625 100.019531 L 216.390625 98.957031 L 217.554688 97.964844 L 218.820312 96.890625 L 220 95.886719 L 221.15625 94.902344 L 222.410156 93.835938 L 223.582031 92.839844 L 224.851562 91.757812 L 226.097656 90.699219 L 227.261719 89.710938 L 228.519531 88.640625 L 229.695312 87.640625 L 230.851562 86.65625 L 232.101562 85.59375 L 233.269531 84.601562 L 233.289062 84.582031 L 233.308594 84.566406 L 233.351562 84.53125 L 233.433594 84.460938 L 233.59375 84.324219 L 233.921875 84.046875 L 233.941406 84.027344 L 233.960938 84.011719 L 234.003906 83.976562 L 234.085938 83.90625 L 234.246094 83.769531 L 234.269531 83.75 L 234.289062 83.734375 L 234.328125 83.699219 L 234.410156 83.628906 L 234.449219 83.597656 L 234.492188 83.5625 L 234.511719 83.542969 L 234.53125 83.527344 L 234.554688 83.507812 L 234.574219 83.492188 "/>
<path style="fill:none;stroke-width:1.351198;stroke-linecap:square;stroke-linejoin:miter;stroke:rgb(0%,0%,0%);stroke-opacity:0.7;stroke-miterlimit:3.25;" d="M 175.226562 133.949219 L 175.25 132.238281 L 175.273438 131.523438 L 175.296875 130.976562 L 175.324219 130.515625 L 175.347656 130.105469 L 175.371094 129.738281 L 175.417969 129.085938 L 175.441406 128.789062 L 175.46875 128.507812 L 175.515625 127.988281 L 175.613281 127.0625 L 175.636719 126.851562 L 175.660156 126.644531 L 175.707031 126.25 L 175.804688 125.511719 L 175.996094 124.207031 L 176.019531 124.054688 L 176.042969 123.90625 L 176.09375 123.613281 L 176.1875 123.054688 L 176.382812 122.011719 L 176.765625 120.164062 L 176.792969 120.046875 L 176.816406 119.933594 L 176.871094 119.703125 L 176.972656 119.257812 L 177.183594 118.40625 L 177.601562 116.828125 L 177.625 116.734375 L 177.652344 116.640625 L 177.703125 116.457031 L 177.808594 116.089844 L 178.015625 115.382812 L 178.433594 114.042969 L 178.460938 113.964844 L 178.53125 113.742188 L 178.628906 113.445312 L 178.824219 112.867188 L 179.214844 111.753906 L 179.992188 109.679688 L 181.519531 106.058594 L 183.175781 102.601562 L 184.722656 99.6875 L 186.398438 96.785156 L 188.046875 94.140625 L 189.582031 91.824219 L 191.246094 89.449219 L 192.796875 87.339844 L 194.320312 85.359375 L 195.972656 83.300781 L 197.515625 81.453125 L 199.1875 79.519531 L 200.828125 77.6875 L 202.359375 76.027344 L 204.019531 74.28125 L 205.570312 72.699219 L 207.246094 71.027344 L 208.894531 69.425781 L 210.433594 67.96875 L 212.101562 66.425781 L 213.65625 65.015625 L 215.183594 63.660156 L 216.839844 62.214844 L 218.382812 60.898438 L 220.058594 59.492188 L 221.703125 58.140625 L 223.234375 56.898438 L 224.898438 55.578125 L 226.449219 54.359375 L 227.96875 53.1875 L 229.621094 51.933594 L 231.160156 50.78125 L 232.832031 49.546875 L 234.390625 48.414062 L 235.917969 47.3125 L 237.578125 46.136719 L 239.125 45.054688 L 240.800781 43.894531 L 242.449219 42.773438 L 243.984375 41.738281 L 245.652344 40.625 L 247.207031 39.601562 L 248.730469 38.609375 L 250.382812 37.539062 L 251.925781 36.554688 L 251.980469 36.523438 L 252.035156 36.488281 L 252.140625 36.417969 L 252.355469 36.28125 L 252.789062 36.011719 L 252.816406 35.992188 L 252.839844 35.976562 L 252.894531 35.941406 L 253.003906 35.875 L 253.21875 35.738281 L 253.273438 35.707031 L 253.324219 35.671875 L 253.433594 35.605469 L 253.460938 35.585938 L 253.488281 35.570312 L 253.542969 35.535156 L 253.566406 35.519531 L 253.59375 35.503906 L 253.621094 35.484375 L 253.648438 35.46875 "/>
<path style="fill:none;stroke-width:1.351198;stroke-linecap:square;stroke-linejoin:miter;stroke:rgb(0%,0%,0%);stroke-opacity:0.7;stroke-miterlimit:3.25;" d="M 94.683594 36.90625 L 94.710938 36.964844 L 94.734375 37.023438 L 94.785156 37.144531 L 94.882812 37.382812 L 95.078125 37.855469 L 95.476562 38.800781 L 96.265625 40.679688 L 97.980469 44.683594 L 99.578125 48.34375 L 101.148438 51.859375 L 102.851562 55.589844 L 104.4375 58.992188 L 106.160156 62.59375 L 107.851562 66.042969 L 109.425781 69.183594 L 111.136719 72.507812 L 112.730469 75.527344 L 114.296875 78.417969 L 115.992188 81.46875 L 117.578125 84.238281 L 119.292969 87.15625 L 120.980469 89.933594 L 122.550781 92.449219 L 124.253906 95.09375 L 125.847656 97.480469 L 127.570312 99.984375 L 129.265625 102.355469 L 130.84375 104.492188 L 132.554688 106.71875 L 134.152344 108.722656 L 135.722656 110.613281 L 137.421875 112.578125 L 139.007812 114.335938 L 140.726562 116.15625 L 142.414062 117.855469 L 143.988281 119.363281 L 145.699219 120.917969 L 147.292969 122.289062 L 148.855469 123.558594 L 150.550781 124.851562 L 152.132812 125.984375 L 153.847656 127.125 L 155.449219 128.109375 L 157.019531 129.003906 L 158.722656 129.886719 L 160.3125 130.636719 L 162.03125 131.359375 L 163.722656 131.984375 L 165.300781 132.488281 L 165.410156 132.519531 L 165.515625 132.550781 L 165.730469 132.613281 L 166.15625 132.734375 L 167.011719 132.953125 L 167.035156 132.960938 L 167.0625 132.964844 L 167.113281 132.976562 L 167.210938 133.003906 L 167.410156 133.050781 L 167.808594 133.140625 L 167.835938 133.144531 L 167.859375 133.152344 L 167.910156 133.164062 L 168.011719 133.183594 L 168.210938 133.226562 L 168.609375 133.308594 L 168.65625 133.316406 L 168.707031 133.328125 L 168.804688 133.347656 L 169.390625 133.453125 L 169.414062 133.457031 L 169.441406 133.460938 L 169.488281 133.472656 L 169.78125 133.519531 L 170.175781 133.582031 L 170.199219 133.585938 L 170.28125 133.597656 L 170.597656 133.644531 L 171.023438 133.699219 L 171.078125 133.707031 L 171.128906 133.710938 L 171.234375 133.726562 L 171.449219 133.75 L 171.871094 133.796875 L 171.898438 133.796875 L 171.921875 133.800781 L 171.972656 133.804688 L 172.070312 133.816406 L 172.269531 133.832031 L 172.292969 133.835938 L 172.316406 133.835938 L 172.367188 133.839844 L 172.46875 133.851562 L 172.664062 133.867188 L 172.691406 133.867188 L 172.714844 133.871094 L 172.765625 133.871094 L 172.863281 133.878906 L 173.0625 133.894531 L 173.085938 133.894531 L 173.109375 133.898438 L 173.160156 133.898438 L 173.257812 133.90625 L 173.457031 133.917969 L 173.511719 133.917969 L 173.566406 133.921875 L 173.679688 133.929688 L 173.734375 133.929688 L 173.789062 133.933594 L 173.898438 133.9375 L 173.925781 133.9375 L 173.953125 133.941406 L 174.011719 133.941406 L 174.121094 133.945312 L 174.175781 133.945312 L 174.230469 133.949219 L 174.34375 133.953125 L 174.453125 133.953125 L 174.480469 133.957031 L 174.617188 133.957031 L 174.671875 133.960938 L 174.976562 133.960938 L 175.003906 133.964844 L 175.226562 133.964844 "/>
<g clip-path="url(#clip3)" clip-rule="nonzero">
<path style="fill:none;stroke-width:1.6;stroke-linecap:butt;stroke-linejoin:miter;stroke:rgb(90.000763%,36.00061%,5.400168%);stroke-opacity:1;stroke-miterlimit:3.25;" d="M 69.25 46.699219 L 71.371094 46.71875 L 73.488281 46.777344 L 75.609375 46.878906 L 77.726562 47.019531 L 79.847656 47.199219 L 81.96875 47.421875 L 84.085938 47.683594 L 86.207031 47.984375 L 88.324219 48.328125 L 90.445312 48.710938 L 92.566406 49.136719 L 94.683594 49.605469 L 96.804688 50.117188 L 98.921875 50.667969 L 101.042969 51.265625 L 103.164062 51.90625 L 105.28125 52.589844 L 107.402344 53.320312 L 109.519531 54.09375 L 111.640625 54.917969 L 113.761719 55.785156 L 115.878906 56.707031 L 118 57.675781 L 120.117188 58.695312 L 122.238281 59.765625 L 124.359375 60.894531 L 126.476562 62.078125 L 128.597656 63.316406 L 130.714844 64.621094 L 132.835938 65.984375 L 134.957031 67.417969 L 137.074219 68.917969 L 139.195312 70.492188 L 141.3125 72.144531 L 143.433594 73.878906 L 145.554688 75.707031 L 147.671875 77.628906 L 149.792969 79.660156 L 151.910156 81.804688 L 154.03125 84.082031 L 156.152344 86.507812 L 158.269531 89.097656 L 160.390625 91.890625 L 162.507812 94.921875 L 164.628906 98.246094 L 166.75 101.957031 L 168.867188 106.195312 L 170.988281 111.257812 L 173.105469 117.890625 L 175.226562 133.964844 L 177.347656 117.890625 L 179.464844 111.257812 L 181.585938 106.195312 L 183.703125 101.957031 L 185.824219 98.246094 L 187.945312 94.921875 L 190.0625 91.890625 L 192.183594 89.097656 L 194.300781 86.507812 L 196.421875 84.082031 L 198.542969 81.804688 L 200.660156 79.660156 L 202.78125 77.628906 L 204.898438 75.707031 L 207.019531 73.878906 L 209.140625 72.144531 L 211.257812 70.492188 L 213.378906 68.917969 L 215.496094 67.417969 L 217.617188 65.984375 L 219.738281 64.621094 L 221.855469 63.316406 L 223.976562 62.078125 L 226.09375 60.894531 L 228.214844 59.765625 L 230.335938 58.695312 L 232.453125 57.675781 L 234.574219 56.707031 L 236.691406 55.785156 L 238.8125 54.917969 L 240.933594 54.09375 L 243.050781 53.320312 L 245.171875 52.589844 L 247.289062 51.90625 L 249.410156 51.265625 L 251.53125 50.667969 L 253.648438 50.117188 L 255.769531 49.605469 L 257.886719 49.136719 L 260.007812 48.710938 L 262.128906 48.328125 L 264.246094 47.984375 L 266.367188 47.683594 L 268.484375 47.421875 L 270.605469 47.199219 L 272.726562 47.019531 L 274.84375 46.878906 L 276.964844 46.777344 L 279.082031 46.71875 L 281.203125 46.699219 "/>
</g>
<g clip-path="url(#clip4)" clip-rule="nonzero">
<path style="fill:none;stroke-width:1.6;stroke-linecap:butt;stroke-linejoin:miter;stroke:rgb(36.525521%,42.780194%,75.829709%);stroke-opacity:1;stroke-miterlimit:3.25;" d="M 69.25 85.558594 L 71.371094 85.578125 L 73.488281 85.640625 L 75.609375 85.738281 L 77.726562 85.878906 L 79.847656 86.058594 L 81.96875 86.277344 L 84.085938 86.539062 L 86.207031 86.835938 L 88.324219 87.175781 L 90.445312 87.554688 L 92.566406 87.972656 L 94.683594 88.429688 L 96.804688 88.925781 L 98.921875 89.460938 L 101.042969 90.035156 L 103.164062 90.652344 L 105.28125 91.304688 L 107.402344 91.996094 L 109.519531 92.726562 L 111.640625 93.496094 L 113.761719 94.304688 L 115.878906 95.152344 L 118 96.035156 L 120.117188 96.957031 L 122.238281 97.917969 L 124.359375 98.917969 L 126.476562 99.957031 L 128.597656 101.03125 L 130.714844 102.140625 L 132.835938 103.289062 L 134.957031 104.476562 L 137.074219 105.699219 L 139.195312 106.960938 L 141.3125 108.257812 L 143.433594 109.59375 L 145.554688 110.964844 L 147.671875 112.371094 L 149.792969 113.816406 L 151.910156 115.296875 L 154.03125 116.8125 L 156.152344 118.367188 L 158.269531 119.953125 L 160.390625 121.582031 L 162.507812 123.242188 L 164.628906 124.9375 L 166.75 126.671875 L 168.867188 128.441406 L 170.988281 130.246094 L 173.105469 132.085938 L 175.226562 133.964844 L 177.347656 132.085938 L 179.464844 130.246094 L 181.585938 128.441406 L 183.703125 126.671875 L 185.824219 124.9375 L 187.945312 123.242188 L 190.0625 121.582031 L 192.183594 119.953125 L 194.300781 118.367188 L 196.421875 116.8125 L 198.542969 115.296875 L 200.660156 113.816406 L 202.78125 112.371094 L 204.898438 110.964844 L 207.019531 109.59375 L 209.140625 108.257812 L 211.257812 106.960938 L 213.378906 105.699219 L 215.496094 104.476562 L 217.617188 103.289062 L 219.738281 102.140625 L 221.855469 101.03125 L 223.976562 99.957031 L 226.09375 98.917969 L 228.214844 97.917969 L 230.335938 96.957031 L 232.453125 96.035156 L 234.574219 95.152344 L 236.691406 94.304688 L 238.8125 93.496094 L 240.933594 92.726562 L 243.050781 91.996094 L 245.171875 91.304688 L 247.289062 90.652344 L 249.410156 90.035156 L 251.53125 89.460938 L 253.648438 88.925781 L 255.769531 88.429688 L 257.886719 87.972656 L 260.007812 87.554688 L 262.128906 87.175781 L 264.246094 86.835938 L 266.367188 86.539062 L 268.484375 86.277344 L 270.605469 86.058594 L 272.726562 85.878906 L 274.84375 85.738281 L 276.964844 85.640625 L 279.082031 85.578125 L 281.203125 85.558594 "/>
</g>
<g clip-path="url(#clip5)" clip-rule="nonzero">
<path style="fill:none;stroke-width:1.6;stroke-linecap:butt;stroke-linejoin:miter;stroke:rgb(94.51133%,59.389639%,0%);stroke-opacity:1;stroke-miterlimit:3.25;" d="M 69.25 105.503906 L 71.371094 105.523438 L 73.488281 105.578125 L 75.609375 105.675781 L 77.726562 105.808594 L 79.847656 105.976562 L 81.96875 106.183594 L 84.085938 106.429688 L 86.207031 106.710938 L 88.324219 107.027344 L 90.445312 107.378906 L 92.566406 107.765625 L 94.683594 108.1875 L 96.804688 108.644531 L 98.921875 109.132812 L 101.042969 109.652344 L 103.164062 110.203125 L 105.28125 110.785156 L 107.402344 111.394531 L 109.519531 112.03125 L 111.640625 112.695312 L 113.761719 113.386719 L 115.878906 114.097656 L 118 114.835938 L 120.117188 115.589844 L 122.238281 116.367188 L 124.359375 117.160156 L 126.476562 117.96875 L 128.597656 118.792969 L 130.714844 119.628906 L 132.835938 120.472656 L 134.957031 121.324219 L 137.074219 122.179688 L 139.195312 123.035156 L 141.3125 123.894531 L 143.433594 124.75 L 145.554688 125.59375 L 147.671875 126.433594 L 149.792969 127.257812 L 151.910156 128.0625 L 154.03125 128.847656 L 156.152344 129.601562 L 158.269531 130.328125 L 160.390625 131.015625 L 162.507812 131.65625 L 164.628906 132.246094 L 166.75 132.773438 L 168.867188 133.230469 L 170.988281 133.597656 L 173.105469 133.855469 L 175.226562 133.964844 L 177.347656 133.855469 L 179.464844 133.597656 L 181.585938 133.230469 L 183.703125 132.773438 L 185.824219 132.246094 L 187.945312 131.65625 L 190.0625 131.015625 L 192.183594 130.328125 L 194.300781 129.601562 L 196.421875 128.847656 L 198.542969 128.0625 L 200.660156 127.257812 L 202.78125 126.433594 L 204.898438 125.59375 L 207.019531 124.75 L 209.140625 123.894531 L 211.257812 123.035156 L 213.378906 122.179688 L 215.496094 121.324219 L 217.617188 120.472656 L 219.738281 119.628906 L 221.855469 118.792969 L 223.976562 117.96875 L 226.09375 117.160156 L 228.214844 116.367188 L 230.335938 115.589844 L 232.453125 114.835938 L 234.574219 114.097656 L 236.691406 113.386719 L 238.8125 112.695312 L 240.933594 112.03125 L 243.050781 111.394531 L 245.171875 110.785156 L 247.289062 110.203125 L 249.410156 109.652344 L 251.53125 109.132812 L 253.648438 108.644531 L 255.769531 108.1875 L 257.886719 107.765625 L 260.007812 107.378906 L 262.128906 107.027344 L 264.246094 106.710938 L 266.367188 106.429688 L 268.484375 106.183594 L 270.605469 105.976562 L 272.726562 105.808594 L 274.84375 105.675781 L 276.964844 105.578125 L 279.082031 105.523438 L 281.203125 105.503906 "/>
</g>
<g clip-path="url(#clip6)" clip-rule="nonzero">
<path style="fill:none;stroke-width:1.6;stroke-linecap:butt;stroke-linejoin:miter;stroke:rgb(90.000763%,36.00061%,5.400168%);stroke-opacity:1;stroke-miterlimit:3.25;" d="M 135.027344 55.003906 L 153.425781 55.003906 "/>
</g>
<path style=" stroke:none;fill-rule:evenodd;fill:rgb(0%,0%,0%);fill-opacity:1;" d="M 170.417969 51.3125 C 170.417969 51.027344 170.183594 50.867188 169.949219 50.867188 C 169.433594 50.867188 169.308594 51.347656 169.273438 51.472656 C 168.214844 55.210938 165.769531 57.429688 163.390625 58.214844 L 165.160156 51.046875 C 165.160156 50.972656 165.105469 50.867188 164.964844 50.867188 C 164.839844 50.867188 163.15625 51.027344 162.890625 51.046875 C 162.691406 51.0625 162.515625 51.082031 162.515625 51.402344 C 162.515625 51.582031 162.65625 51.582031 162.90625 51.582031 C 163.75 51.582031 163.800781 51.707031 163.800781 51.902344 C 163.800781 51.976562 163.765625 52.1875 163.75 52.261719 L 162.175781 58.574219 C 162.175781 58.644531 162.226562 58.75 162.351562 58.75 L 162.726562 58.75 C 162.976562 58.75 165.695312 58.109375 167.789062 55.960938 C 170.09375 53.585938 170.417969 51.382812 170.417969 51.3125 Z M 170.417969 51.3125 "/>
<path style=" stroke:none;fill-rule:evenodd;fill:rgb(0%,0%,0%);fill-opacity:1;" d="M 188.058594 52.707031 C 188.058594 52.386719 187.753906 52.386719 187.449219 52.386719 L 177.457031 52.386719 C 177.152344 52.386719 176.847656 52.386719 176.847656 52.707031 C 176.847656 53.011719 177.117188 53.011719 177.386719 53.011719 L 187.523438 53.011719 C 187.789062 53.011719 188.058594 53.011719 188.058594 52.707031 Z M 188.058594 55.875 C 188.058594 55.570312 187.789062 55.570312 187.523438 55.570312 L 177.386719 55.570312 C 177.117188 55.570312 176.847656 55.570312 176.847656 55.875 C 176.847656 56.195312 177.152344 56.195312 177.457031 56.195312 L 187.449219 56.195312 C 187.753906 56.195312 188.058594 56.195312 188.058594 55.875 Z M 188.058594 55.875 "/>
<path style=" stroke:none;fill-rule:evenodd;fill:rgb(0%,0%,0%);fill-opacity:1;" d="M 201.523438 55.65625 C 201.523438 53.921875 200.09375 52.671875 198.394531 52.476562 C 199.753906 52.1875 201.058594 50.972656 201.058594 49.347656 C 201.058594 47.953125 199.644531 46.933594 198.035156 46.933594 C 196.410156 46.933594 194.980469 47.933594 194.980469 49.363281 C 194.980469 49.992188 195.445312 50.097656 195.675781 50.097656 C 196.054688 50.097656 196.375 49.867188 196.375 49.398438 C 196.375 48.933594 196.054688 48.703125 195.675781 48.703125 C 195.605469 48.703125 195.515625 48.703125 195.445312 48.738281 C 195.964844 47.558594 197.375 47.34375 198 47.34375 C 198.628906 47.34375 199.808594 47.648438 199.808594 49.363281 C 199.808594 49.867188 199.734375 50.757812 199.128906 51.546875 C 198.589844 52.242188 197.984375 52.277344 197.394531 52.332031 C 197.304688 52.332031 196.894531 52.367188 196.820312 52.367188 C 196.695312 52.386719 196.625 52.40625 196.625 52.53125 C 196.625 52.65625 196.640625 52.671875 197 52.671875 L 197.875 52.671875 C 199.46875 52.671875 200.164062 54.046875 200.164062 55.640625 C 200.164062 57.785156 199.019531 58.609375 197.984375 58.609375 C 197.035156 58.609375 195.5 58.144531 195.015625 56.765625 C 195.105469 56.804688 195.195312 56.804688 195.285156 56.804688 C 195.710938 56.804688 196.035156 56.515625 196.035156 56.050781 C 196.035156 55.53125 195.640625 55.300781 195.285156 55.300781 C 194.980469 55.300781 194.515625 55.445312 194.515625 56.105469 C 194.515625 57.75 196.125 59.039062 198.019531 59.039062 C 200.003906 59.039062 201.523438 57.484375 201.523438 55.65625 Z M 201.523438 55.65625 "/>
<path style=" stroke:none;fill-rule:evenodd;fill:rgb(0%,0%,0%);fill-opacity:1;" d="M 205.414062 57.894531 C 205.414062 57.375 204.984375 57.015625 204.554688 57.015625 C 204.035156 57.015625 203.679688 57.445312 203.679688 57.875 C 203.679688 58.394531 204.109375 58.75 204.539062 58.75 C 205.058594 58.75 205.414062 58.320312 205.414062 57.894531 Z M 205.414062 57.894531 "/>
<path style=" stroke:none;fill-rule:evenodd;fill:rgb(0%,0%,0%);fill-opacity:1;" d="M 214.480469 55.140625 C 214.480469 52.992188 213.085938 51.332031 211.351562 51.332031 C 210.441406 51.332031 209.671875 51.671875 209.0625 52.3125 L 209.0625 48.289062 C 209.242188 48.363281 209.972656 48.59375 210.726562 48.59375 C 212.386719 48.59375 213.300781 47.703125 213.820312 47.183594 C 213.820312 47.039062 213.820312 46.949219 213.710938 46.949219 C 213.710938 46.949219 213.660156 46.949219 213.515625 47.023438 C 212.890625 47.292969 212.15625 47.503906 211.261719 47.503906 C 210.726562 47.503906 209.921875 47.433594 209.042969 47.039062 C 208.847656 46.949219 208.792969 46.949219 208.792969 46.949219 C 208.707031 46.949219 208.6875 46.96875 208.6875 47.328125 L 208.6875 52.511719 C 208.6875 52.832031 208.6875 52.921875 208.867188 52.921875 C 208.957031 52.921875 208.992188 52.886719 209.082031 52.761719 C 209.652344 51.957031 210.441406 51.617188 211.332031 51.617188 C 211.957031 51.617188 213.300781 52.011719 213.300781 55.070312 C 213.300781 55.640625 213.300781 56.679688 212.761719 57.5 C 212.316406 58.234375 211.621094 58.609375 210.851562 58.609375 C 209.671875 58.609375 208.472656 57.785156 208.152344 56.410156 C 208.222656 56.425781 208.363281 56.460938 208.4375 56.460938 C 208.667969 56.460938 209.117188 56.335938 209.117188 55.78125 C 209.117188 55.300781 208.777344 55.101562 208.4375 55.101562 C 208.027344 55.101562 207.757812 55.355469 207.757812 55.855469 C 207.757812 57.410156 208.992188 59.039062 210.886719 59.039062 C 212.730469 59.039062 214.480469 57.445312 214.480469 55.140625 Z M 214.480469 55.140625 "/>
<g clip-path="url(#clip7)" clip-rule="nonzero">
<path style="fill:none;stroke-width:1.6;stroke-linecap:butt;stroke-linejoin:miter;stroke:rgb(36.525521%,42.780194%,75.829709%);stroke-opacity:1;stroke-miterlimit:3.25;" d="M 135.027344 35.121094 L 153.425781 35.121094 "/>
</g>
<path style=" stroke:none;fill-rule:evenodd;fill:rgb(0%,0%,0%);fill-opacity:1;" d="M 170.417969 31.429688 C 170.417969 31.144531 170.183594 30.984375 169.949219 30.984375 C 169.433594 30.984375 169.308594 31.464844 169.273438 31.589844 C 168.214844 35.328125 165.769531 37.546875 163.390625 38.332031 L 165.160156 31.164062 C 165.160156 31.089844 165.105469 30.984375 164.964844 30.984375 C 164.839844 30.984375 163.15625 31.144531 162.890625 31.164062 C 162.691406 31.179688 162.515625 31.199219 162.515625 31.519531 C 162.515625 31.699219 162.65625 31.699219 162.90625 31.699219 C 163.75 31.699219 163.800781 31.824219 163.800781 32.019531 C 163.800781 32.09375 163.765625 32.304688 163.75 32.378906 L 162.175781 38.691406 C 162.175781 38.761719 162.226562 38.867188 162.351562 38.867188 L 162.726562 38.867188 C 162.976562 38.867188 165.695312 38.226562 167.789062 36.078125 C 170.09375 33.703125 170.417969 31.5 170.417969 31.429688 Z M 170.417969 31.429688 "/>
<path style=" stroke:none;fill-rule:evenodd;fill:rgb(0%,0%,0%);fill-opacity:1;" d="M 188.058594 32.824219 C 188.058594 32.503906 187.753906 32.503906 187.449219 32.503906 L 177.457031 32.503906 C 177.152344 32.503906 176.847656 32.503906 176.847656 32.824219 C 176.847656 33.128906 177.117188 33.128906 177.386719 33.128906 L 187.523438 33.128906 C 187.789062 33.128906 188.058594 33.128906 188.058594 32.824219 Z M 188.058594 35.992188 C 188.058594 35.6875 187.789062 35.6875 187.523438 35.6875 L 177.386719 35.6875 C 177.117188 35.6875 176.847656 35.6875 176.847656 35.992188 C 176.847656 36.3125 177.152344 36.3125 177.457031 36.3125 L 187.449219 36.3125 C 187.753906 36.3125 188.058594 36.3125 188.058594 35.992188 Z M 188.058594 35.992188 "/>
<path style=" stroke:none;fill-rule:evenodd;fill:rgb(0%,0%,0%);fill-opacity:1;" d="M 201.753906 35.828125 L 201.753906 35.363281 L 199.933594 35.363281 L 199.933594 27.300781 C 199.933594 26.925781 199.914062 26.90625 199.59375 26.90625 L 194.28125 35.363281 L 194.28125 35.828125 L 198.894531 35.828125 L 198.894531 37.582031 C 198.894531 38.226562 198.859375 38.402344 197.609375 38.402344 L 197.269531 38.402344 L 197.269531 38.867188 C 197.839844 38.832031 198.804688 38.832031 199.414062 38.832031 C 200.019531 38.832031 200.988281 38.832031 201.558594 38.867188 L 201.558594 38.402344 L 201.21875 38.402344 C 199.96875 38.402344 199.933594 38.226562 199.933594 37.582031 L 199.933594 35.828125 Z M 198.949219 35.363281 L 194.640625 35.363281 L 198.949219 28.480469 Z M 198.949219 35.363281 "/>
<g clip-path="url(#clip8)" clip-rule="nonzero">
<path style="fill:none;stroke-width:1.6;stroke-linecap:butt;stroke-linejoin:miter;stroke:rgb(94.51133%,59.389639%,0%);stroke-opacity:1;stroke-miterlimit:3.25;" d="M 135.027344 15.238281 L 153.425781 15.238281 "/>
</g>
<path style=" stroke:none;fill-rule:evenodd;fill:rgb(0%,0%,0%);fill-opacity:1;" d="M 170.417969 11.546875 C 170.417969 11.261719 170.183594 11.101562 169.949219 11.101562 C 169.433594 11.101562 169.308594 11.582031 169.273438 11.707031 C 168.214844 15.445312 165.769531 17.660156 163.390625 18.449219 L 165.160156 11.28125 C 165.160156 11.207031 165.105469 11.101562 164.964844 11.101562 C 164.839844 11.101562 163.15625 11.261719 162.890625 11.28125 C 162.691406 11.296875 162.515625 11.316406 162.515625 11.636719 C 162.515625 11.816406 162.65625 11.816406 162.90625 11.816406 C 163.75 11.816406 163.800781 11.941406 163.800781 12.136719 C 163.800781 12.210938 163.765625 12.421875 163.75 12.496094 L 162.175781 18.808594 C 162.175781 18.878906 162.226562 18.984375 162.351562 18.984375 L 162.726562 18.984375 C 162.976562 18.984375 165.695312 18.339844 167.789062 16.195312 C 170.09375 13.820312 170.417969 11.617188 170.417969 11.546875 Z M 170.417969 11.546875 "/>
<path style=" stroke:none;fill-rule:evenodd;fill:rgb(0%,0%,0%);fill-opacity:1;" d="M 188.058594 12.941406 C 188.058594 12.621094 187.753906 12.621094 187.449219 12.621094 L 177.457031 12.621094 C 177.152344 12.621094 176.847656 12.621094 176.847656 12.941406 C 176.847656 13.246094 177.117188 13.246094 177.386719 13.246094 L 187.523438 13.246094 C 187.789062 13.246094 188.058594 13.246094 188.058594 12.941406 Z M 188.058594 16.105469 C 188.058594 15.800781 187.789062 15.800781 187.523438 15.800781 L 177.386719 15.800781 C 177.117188 15.800781 176.847656 15.800781 176.847656 16.105469 C 176.847656 16.429688 177.152344 16.429688 177.457031 16.429688 L 187.449219 16.429688 C 187.753906 16.429688 188.058594 16.429688 188.058594 16.105469 Z M 188.058594 16.105469 "/>
<path style=" stroke:none;fill-rule:evenodd;fill:rgb(0%,0%,0%);fill-opacity:1;" d="M 201.378906 15.371094 C 201.378906 13.226562 199.984375 11.566406 198.25 11.566406 C 197.339844 11.566406 196.570312 11.90625 195.964844 12.546875 L 195.964844 8.523438 C 196.140625 8.597656 196.875 8.828125 197.625 8.828125 C 199.289062 8.828125 200.199219 7.9375 200.71875 7.417969 C 200.71875 7.273438 200.71875 7.183594 200.613281 7.183594 C 200.613281 7.183594 200.558594 7.183594 200.414062 7.257812 C 199.789062 7.523438 199.054688 7.738281 198.160156 7.738281 C 197.625 7.738281 196.820312 7.667969 195.945312 7.273438 C 195.75 7.183594 195.695312 7.183594 195.695312 7.183594 C 195.605469 7.183594 195.585938 7.203125 195.585938 7.5625 L 195.585938 12.746094 C 195.585938 13.066406 195.585938 13.15625 195.765625 13.15625 C 195.855469 13.15625 195.890625 13.121094 195.980469 12.996094 C 196.554688 12.191406 197.339844 11.851562 198.234375 11.851562 C 198.859375 11.851562 200.199219 12.246094 200.199219 15.300781 C 200.199219 15.875 200.199219 16.910156 199.664062 17.734375 C 199.214844 18.464844 198.519531 18.839844 197.75 18.839844 C 196.570312 18.839844 195.375 18.019531 195.050781 16.644531 C 195.125 16.660156 195.265625 16.695312 195.335938 16.695312 C 195.570312 16.695312 196.015625 16.570312 196.015625 16.015625 C 196.015625 15.535156 195.675781 15.335938 195.335938 15.335938 C 194.925781 15.335938 194.65625 15.589844 194.65625 16.089844 C 194.65625 17.644531 195.890625 19.269531 197.789062 19.269531 C 199.628906 19.269531 201.378906 17.679688 201.378906 15.371094 Z M 201.378906 15.371094 "/>
<path style="fill:none;stroke-width:0.5;stroke-linecap:square;stroke-linejoin:miter;stroke:rgb(40%,40%,40%);stroke-opacity:1;stroke-miterlimit:3.25;" d="M 287.828125 143.976562 L 62.625 143.976562 "/>
<path style="fill:none;stroke-width:0.5;stroke-linecap:square;stroke-linejoin:miter;stroke:rgb(40%,40%,40%);stroke-opacity:1;stroke-miterlimit:3.25;" d="M 62.625 143.976562 L 62.625 4.796875 "/>
<path style="fill:none;stroke-width:0.5;stroke-linecap:square;stroke-linejoin:miter;stroke:rgb(40%,40%,40%);stroke-opacity:1;stroke-miterlimit:3.25;" d="M 62.625 4.796875 L 287.828125 4.796875 "/>
<path style="fill:none;stroke-width:0.5;stroke-linecap:square;stroke-linejoin:miter;stroke:rgb(40%,40%,40%);stroke-opacity:1;stroke-miterlimit:3.25;" d="M 287.828125 4.796875 L 287.828125 143.976562 "/>
<path style="fill:none;stroke-width:0.5;stroke-linecap:butt;stroke-linejoin:miter;stroke:rgb(40%,40%,40%);stroke-opacity:1;stroke-miterlimit:3.25;" d="M 90.445312 143.976562 L 90.445312 141.324219 "/>
<path style=" stroke:none;fill-rule:evenodd;fill:rgb(0%,0%,0%);fill-opacity:1;" d="M 85.21875 158.515625 C 85.21875 158.160156 84.878906 158.160156 84.628906 158.160156 L 74.886719 158.160156 C 74.636719 158.160156 74.296875 158.160156 74.296875 158.515625 C 74.296875 158.875 74.636719 158.875 74.886719 158.875 L 84.628906 158.875 C 84.878906 158.875 85.21875 158.875 85.21875 158.515625 Z M 85.21875 158.515625 "/>
<path style=" stroke:none;fill-rule:evenodd;fill:rgb(0%,0%,0%);fill-opacity:1;" d="M 94.21875 157.246094 C 94.21875 156.15625 94.203125 154.296875 93.449219 152.867188 C 92.789062 151.617188 91.734375 151.167969 90.804688 151.167969 C 89.945312 151.167969 88.855469 151.5625 88.175781 152.847656 C 87.460938 154.191406 87.390625 155.851562 87.390625 157.246094 C 87.390625 158.265625 87.40625 159.820312 87.960938 161.179688 C 88.730469 163.023438 90.105469 163.273438 90.804688 163.273438 C 91.628906 163.273438 92.878906 162.933594 93.613281 161.234375 C 94.148438 160 94.21875 158.550781 94.21875 157.246094 Z M 93.074219 157.050781 C 93.074219 158.214844 93.074219 159.644531 92.863281 160.699219 C 92.484375 162.648438 91.429688 162.988281 90.804688 162.988281 C 89.660156 162.988281 88.980469 162.003906 88.730469 160.644531 C 88.535156 159.589844 88.535156 158.050781 88.535156 157.050781 C 88.535156 155.675781 88.535156 154.53125 88.765625 153.4375 C 89.105469 151.917969 90.105469 151.453125 90.804688 151.453125 C 91.539062 151.453125 92.484375 151.9375 92.824219 153.402344 C 93.058594 154.421875 93.074219 155.621094 93.074219 157.050781 Z M 93.074219 157.050781 "/>
<path style=" stroke:none;fill-rule:evenodd;fill:rgb(0%,0%,0%);fill-opacity:1;" d="M 98.300781 162.128906 C 98.300781 161.609375 97.871094 161.253906 97.441406 161.253906 C 96.921875 161.253906 96.566406 161.683594 96.566406 162.109375 C 96.566406 162.628906 96.996094 162.988281 97.425781 162.988281 C 97.941406 162.988281 98.300781 162.558594 98.300781 162.128906 Z M 98.300781 162.128906 "/>
<path style=" stroke:none;fill-rule:evenodd;fill:rgb(0%,0%,0%);fill-opacity:1;" d="M 107.640625 159.949219 L 107.640625 159.480469 L 105.816406 159.480469 L 105.816406 151.417969 C 105.816406 151.042969 105.800781 151.023438 105.476562 151.023438 L 100.167969 159.480469 L 100.167969 159.949219 L 104.78125 159.949219 L 104.78125 161.699219 C 104.78125 162.34375 104.742188 162.519531 103.492188 162.519531 L 103.152344 162.519531 L 103.152344 162.988281 C 103.726562 162.949219 104.691406 162.949219 105.296875 162.949219 C 105.90625 162.949219 106.871094 162.949219 107.441406 162.988281 L 107.441406 162.519531 L 107.105469 162.519531 C 105.851562 162.519531 105.816406 162.34375 105.816406 161.699219 L 105.816406 159.949219 Z M 104.835938 159.480469 L 100.523438 159.480469 L 104.835938 152.597656 Z M 104.835938 159.480469 "/>
<path style="fill:none;stroke-width:0.5;stroke-linecap:butt;stroke-linejoin:miter;stroke:rgb(40%,40%,40%);stroke-opacity:1;stroke-miterlimit:3.25;" d="M 132.835938 143.976562 L 132.835938 141.324219 "/>
<path style=" stroke:none;fill-rule:evenodd;fill:rgb(0%,0%,0%);fill-opacity:1;" d="M 127.609375 158.515625 C 127.609375 158.160156 127.269531 158.160156 127.019531 158.160156 L 117.277344 158.160156 C 117.027344 158.160156 116.6875 158.160156 116.6875 158.515625 C 116.6875 158.875 117.027344 158.875 117.277344 158.875 L 127.019531 158.875 C 127.269531 158.875 127.609375 158.875 127.609375 158.515625 Z M 127.609375 158.515625 "/>
<path style=" stroke:none;fill-rule:evenodd;fill:rgb(0%,0%,0%);fill-opacity:1;" d="M 136.609375 157.246094 C 136.609375 156.15625 136.59375 154.296875 135.839844 152.867188 C 135.179688 151.617188 134.125 151.167969 133.195312 151.167969 C 132.335938 151.167969 131.246094 151.5625 130.566406 152.847656 C 129.851562 154.191406 129.78125 155.851562 129.78125 157.246094 C 129.78125 158.265625 129.796875 159.820312 130.351562 161.179688 C 131.121094 163.023438 132.496094 163.273438 133.195312 163.273438 C 134.019531 163.273438 135.269531 162.933594 136.003906 161.234375 C 136.539062 160 136.609375 158.550781 136.609375 157.246094 Z M 135.464844 157.050781 C 135.464844 158.214844 135.464844 159.644531 135.253906 160.699219 C 134.875 162.648438 133.820312 162.988281 133.195312 162.988281 C 132.050781 162.988281 131.371094 162.003906 131.121094 160.644531 C 130.925781 159.589844 130.925781 158.050781 130.925781 157.050781 C 130.925781 155.675781 130.925781 154.53125 131.15625 153.4375 C 131.496094 151.917969 132.496094 151.453125 133.195312 151.453125 C 133.929688 151.453125 134.875 151.9375 135.214844 153.402344 C 135.449219 154.421875 135.464844 155.621094 135.464844 157.050781 Z M 135.464844 157.050781 "/>
<path style=" stroke:none;fill-rule:evenodd;fill:rgb(0%,0%,0%);fill-opacity:1;" d="M 140.691406 162.128906 C 140.691406 161.609375 140.261719 161.253906 139.832031 161.253906 C 139.3125 161.253906 138.957031 161.683594 138.957031 162.109375 C 138.957031 162.628906 139.386719 162.988281 139.8125 162.988281 C 140.332031 162.988281 140.691406 162.558594 140.691406 162.128906 Z M 140.691406 162.128906 "/>
<path style=" stroke:none;fill-rule:evenodd;fill:rgb(0%,0%,0%);fill-opacity:1;" d="M 149.65625 160.214844 L 149.332031 160.214844 C 149.15625 161.484375 149.011719 161.699219 148.941406 161.808594 C 148.851562 161.949219 147.5625 161.949219 147.3125 161.949219 L 143.882812 161.949219 L 147.296875 158.515625 C 148.386719 157.480469 149.65625 156.261719 149.65625 154.492188 C 149.65625 152.382812 147.972656 151.167969 146.097656 151.167969 C 144.132812 151.167969 142.933594 152.902344 142.933594 154.511719 C 142.933594 155.210938 143.453125 155.296875 143.664062 155.296875 C 143.84375 155.296875 144.382812 155.191406 144.382812 154.566406 C 144.382812 154.011719 143.917969 153.851562 143.664062 153.851562 C 143.558594 153.851562 143.453125 153.867188 143.378906 153.90625 C 143.71875 152.382812 144.757812 151.632812 145.847656 151.632812 C 147.402344 151.632812 148.421875 152.867188 148.421875 154.492188 C 148.421875 156.050781 147.511719 157.390625 146.492188 158.550781 L 142.933594 162.574219 L 142.933594 162.988281 L 149.226562 162.988281 Z M 149.65625 160.214844 "/>
<path style="fill:none;stroke-width:0.5;stroke-linecap:butt;stroke-linejoin:miter;stroke:rgb(40%,40%,40%);stroke-opacity:1;stroke-miterlimit:3.25;" d="M 175.226562 143.976562 L 175.226562 141.324219 "/>
<path style=" stroke:none;fill-rule:evenodd;fill:rgb(0%,0%,0%);fill-opacity:1;" d="M 178.625 157.246094 C 178.625 156.15625 178.609375 154.296875 177.855469 152.867188 C 177.195312 151.613281 176.140625 151.167969 175.210938 151.167969 C 174.351562 151.167969 173.261719 151.5625 172.582031 152.847656 C 171.867188 154.1875 171.796875 155.851562 171.796875 157.246094 C 171.796875 158.265625 171.8125 159.820312 172.367188 161.175781 C 173.136719 163.019531 174.511719 163.269531 175.210938 163.269531 C 176.035156 163.269531 177.285156 162.929688 178.015625 161.230469 C 178.554688 159.996094 178.625 158.550781 178.625 157.246094 Z M 177.480469 157.050781 C 177.480469 158.210938 177.480469 159.640625 177.265625 160.695312 C 176.890625 162.644531 175.835938 162.984375 175.210938 162.984375 C 174.066406 162.984375 173.386719 162 173.136719 160.640625 C 172.941406 159.585938 172.941406 158.050781 172.941406 157.050781 C 172.941406 155.671875 172.941406 154.527344 173.171875 153.4375 C 173.511719 151.917969 174.511719 151.453125 175.210938 151.453125 C 175.945312 151.453125 176.890625 151.9375 177.230469 153.402344 C 177.460938 154.421875 177.480469 155.617188 177.480469 157.050781 Z M 177.480469 157.050781 "/>
<path style="fill:none;stroke-width:0.5;stroke-linecap:butt;stroke-linejoin:miter;stroke:rgb(40%,40%,40%);stroke-opacity:1;stroke-miterlimit:3.25;" d="M 217.617188 143.976562 L 217.617188 141.324219 "/>
<path style=" stroke:none;fill-rule:evenodd;fill:rgb(0%,0%,0%);fill-opacity:1;" d="M 214.464844 157.25 C 214.464844 156.15625 214.449219 154.296875 213.699219 152.867188 C 213.035156 151.617188 211.980469 151.167969 211.050781 151.167969 C 210.195312 151.167969 209.101562 151.5625 208.421875 152.847656 C 207.710938 154.191406 207.636719 155.851562 207.636719 157.25 C 207.636719 158.265625 207.65625 159.820312 208.210938 161.179688 C 208.976562 163.023438 210.355469 163.273438 211.050781 163.273438 C 211.875 163.273438 213.125 162.933594 213.859375 161.234375 C 214.394531 160 214.464844 158.554688 214.464844 157.25 Z M 213.324219 157.050781 C 213.324219 158.214844 213.324219 159.644531 213.109375 160.699219 C 212.730469 162.648438 211.675781 162.988281 211.050781 162.988281 C 209.90625 162.988281 209.226562 162.003906 208.976562 160.644531 C 208.78125 159.589844 208.78125 158.054688 208.78125 157.050781 C 208.78125 155.675781 208.78125 154.53125 209.015625 153.4375 C 209.351562 151.917969 210.355469 151.453125 211.050781 151.453125 C 211.785156 151.453125 212.730469 151.9375 213.074219 153.402344 C 213.304688 154.421875 213.324219 155.621094 213.324219 157.050781 Z M 213.324219 157.050781 "/>
<path style=" stroke:none;fill-rule:evenodd;fill:rgb(0%,0%,0%);fill-opacity:1;" d="M 218.449219 162.128906 C 218.449219 161.609375 218.019531 161.253906 217.589844 161.253906 C 217.070312 161.253906 216.714844 161.683594 216.714844 162.109375 C 216.714844 162.628906 217.140625 162.988281 217.570312 162.988281 C 218.089844 162.988281 218.449219 162.558594 218.449219 162.128906 Z M 218.449219 162.128906 "/>
<path style=" stroke:none;fill-rule:evenodd;fill:rgb(0%,0%,0%);fill-opacity:1;" d="M 227.511719 160.214844 L 227.191406 160.214844 C 227.011719 161.484375 226.867188 161.699219 226.796875 161.808594 C 226.707031 161.949219 225.421875 161.949219 225.171875 161.949219 L 221.738281 161.949219 L 225.152344 158.515625 C 226.242188 157.480469 227.511719 156.265625 227.511719 154.492188 C 227.511719 152.382812 225.832031 151.167969 223.957031 151.167969 C 221.988281 151.167969 220.789062 152.902344 220.789062 154.511719 C 220.789062 155.210938 221.308594 155.296875 221.523438 155.296875 C 221.703125 155.296875 222.238281 155.191406 222.238281 154.566406 C 222.238281 154.011719 221.773438 153.851562 221.523438 153.851562 C 221.417969 153.851562 221.308594 153.867188 221.238281 153.90625 C 221.578125 152.382812 222.613281 151.632812 223.707031 151.632812 C 225.257812 151.632812 226.277344 152.867188 226.277344 154.492188 C 226.277344 156.050781 225.367188 157.390625 224.347656 158.554688 L 220.789062 162.574219 L 220.789062 162.988281 L 227.082031 162.988281 Z M 227.511719 160.214844 "/>
<path style="fill:none;stroke-width:0.5;stroke-linecap:butt;stroke-linejoin:miter;stroke:rgb(40%,40%,40%);stroke-opacity:1;stroke-miterlimit:3.25;" d="M 260.007812 143.976562 L 260.007812 141.324219 "/>
<path style=" stroke:none;fill-rule:evenodd;fill:rgb(0%,0%,0%);fill-opacity:1;" d="M 256.855469 157.25 C 256.855469 156.15625 256.839844 154.296875 256.089844 152.867188 C 255.425781 151.617188 254.371094 151.167969 253.441406 151.167969 C 252.582031 151.167969 251.492188 151.5625 250.8125 152.847656 C 250.101562 154.191406 250.027344 155.851562 250.027344 157.25 C 250.027344 158.265625 250.046875 159.820312 250.601562 161.179688 C 251.367188 163.023438 252.746094 163.273438 253.441406 163.273438 C 254.265625 163.273438 255.515625 162.933594 256.25 161.234375 C 256.785156 160 256.855469 158.554688 256.855469 157.25 Z M 255.714844 157.050781 C 255.714844 158.214844 255.714844 159.644531 255.5 160.699219 C 255.121094 162.648438 254.066406 162.988281 253.441406 162.988281 C 252.296875 162.988281 251.617188 162.003906 251.367188 160.644531 C 251.171875 159.589844 251.171875 158.054688 251.171875 157.050781 C 251.171875 155.675781 251.171875 154.53125 251.402344 153.4375 C 251.742188 151.917969 252.746094 151.453125 253.441406 151.453125 C 254.175781 151.453125 255.121094 151.9375 255.464844 153.402344 C 255.695312 154.421875 255.714844 155.621094 255.714844 157.050781 Z M 255.714844 157.050781 "/>
<path style=" stroke:none;fill-rule:evenodd;fill:rgb(0%,0%,0%);fill-opacity:1;" d="M 260.839844 162.128906 C 260.839844 161.609375 260.410156 161.253906 259.980469 161.253906 C 259.460938 161.253906 259.105469 161.683594 259.105469 162.109375 C 259.105469 162.628906 259.53125 162.988281 259.960938 162.988281 C 260.480469 162.988281 260.839844 162.558594 260.839844 162.128906 Z M 260.839844 162.128906 "/>
<path style=" stroke:none;fill-rule:evenodd;fill:rgb(0%,0%,0%);fill-opacity:1;" d="M 270.277344 159.949219 L 270.277344 159.484375 L 268.453125 159.484375 L 268.453125 151.417969 C 268.453125 151.042969 268.4375 151.023438 268.117188 151.023438 L 262.804688 159.484375 L 262.804688 159.949219 L 267.417969 159.949219 L 267.417969 161.699219 C 267.417969 162.34375 267.382812 162.519531 266.128906 162.519531 L 265.792969 162.519531 L 265.792969 162.988281 C 266.363281 162.949219 267.328125 162.949219 267.9375 162.949219 C 268.542969 162.949219 269.507812 162.949219 270.082031 162.988281 L 270.082031 162.519531 L 269.742188 162.519531 C 268.492188 162.519531 268.453125 162.34375 268.453125 161.699219 L 268.453125 159.949219 Z M 267.472656 159.484375 L 263.164062 159.484375 L 267.472656 152.597656 Z M 267.472656 159.484375 "/>
<path style="fill:none;stroke-width:0.5;stroke-linecap:butt;stroke-linejoin:miter;stroke:rgb(40%,40%,40%);stroke-opacity:1;stroke-miterlimit:3.25;" d="M 62.625 133.964844 L 65.28125 133.964844 "/>
<path style=" stroke:none;fill-rule:evenodd;fill:rgb(0%,0%,0%);fill-opacity:1;" d="M 57.917969 132.480469 C 57.917969 131.390625 57.898438 129.53125 57.148438 128.101562 C 56.488281 126.847656 55.433594 126.402344 54.503906 126.402344 C 53.644531 126.402344 52.554688 126.796875 51.875 128.082031 C 51.160156 129.421875 51.089844 131.085938 51.089844 132.480469 C 51.089844 133.5 51.105469 135.050781 51.660156 136.410156 C 52.429688 138.253906 53.804688 138.503906 54.503906 138.503906 C 55.324219 138.503906 56.578125 138.164062 57.308594 136.464844 C 57.847656 135.230469 57.917969 133.785156 57.917969 132.480469 Z M 56.773438 132.285156 C 56.773438 133.445312 56.773438 134.875 56.558594 135.929688 C 56.183594 137.878906 55.128906 138.21875 54.503906 138.21875 C 53.359375 138.21875 52.679688 137.234375 52.429688 135.875 C 52.230469 134.820312 52.230469 133.285156 52.230469 132.285156 C 52.230469 130.90625 52.230469 129.761719 52.464844 128.671875 C 52.804688 127.152344 53.804688 126.6875 54.503906 126.6875 C 55.234375 126.6875 56.183594 127.171875 56.523438 128.636719 C 56.753906 129.65625 56.773438 130.851562 56.773438 132.285156 Z M 56.773438 132.285156 "/>
<path style="fill:none;stroke-width:0.5;stroke-linecap:butt;stroke-linejoin:miter;stroke:rgb(40%,40%,40%);stroke-opacity:1;stroke-miterlimit:3.25;" d="M 62.625 103.410156 L 65.28125 103.410156 "/>
<path style=" stroke:none;fill-rule:evenodd;fill:rgb(0%,0%,0%);fill-opacity:1;" d="M 49.050781 107.667969 L 49.050781 107.203125 L 48.515625 107.203125 C 46.976562 107.203125 46.941406 107.007812 46.941406 106.363281 L 46.941406 96.242188 C 46.941406 95.863281 46.925781 95.847656 46.671875 95.847656 C 45.976562 96.6875 44.921875 96.957031 43.921875 96.992188 C 43.867188 96.992188 43.777344 96.992188 43.757812 97.027344 C 43.742188 97.0625 43.742188 97.097656 43.742188 97.472656 C 44.296875 97.472656 45.226562 97.367188 45.941406 96.9375 L 45.941406 106.363281 C 45.941406 106.988281 45.90625 107.203125 44.367188 107.203125 L 43.832031 107.203125 L 43.832031 107.667969 L 46.441406 107.632812 Z M 49.050781 107.667969 "/>
<path style=" stroke:none;fill-rule:evenodd;fill:rgb(0%,0%,0%);fill-opacity:1;" d="M 57.894531 101.925781 C 57.894531 100.835938 57.878906 98.976562 57.128906 97.546875 C 56.464844 96.292969 55.410156 95.847656 54.480469 95.847656 C 53.621094 95.847656 52.53125 96.242188 51.851562 97.527344 C 51.136719 98.871094 51.066406 100.53125 51.066406 101.925781 C 51.066406 102.945312 51.082031 104.5 51.636719 105.859375 C 52.40625 107.703125 53.785156 107.953125 54.480469 107.953125 C 55.304688 107.953125 56.554688 107.613281 57.289062 105.914062 C 57.824219 104.679688 57.894531 103.230469 57.894531 101.925781 Z M 56.753906 101.730469 C 56.753906 102.894531 56.753906 104.324219 56.539062 105.378906 C 56.160156 107.328125 55.105469 107.667969 54.480469 107.667969 C 53.335938 107.667969 52.65625 106.683594 52.40625 105.324219 C 52.210938 104.269531 52.210938 102.730469 52.210938 101.730469 C 52.210938 100.355469 52.210938 99.207031 52.441406 98.117188 C 52.78125 96.597656 53.785156 96.132812 54.480469 96.132812 C 55.214844 96.132812 56.160156 96.617188 56.503906 98.082031 C 56.734375 99.101562 56.753906 100.300781 56.753906 101.730469 Z M 56.753906 101.730469 "/>
<path style="fill:none;stroke-width:0.5;stroke-linecap:butt;stroke-linejoin:miter;stroke:rgb(40%,40%,40%);stroke-opacity:1;stroke-miterlimit:3.25;" d="M 62.625 72.859375 L 65.28125 72.859375 "/>
<path style=" stroke:none;fill-rule:evenodd;fill:rgb(0%,0%,0%);fill-opacity:1;" d="M 49.640625 74.34375 L 49.320312 74.34375 C 49.140625 75.613281 49 75.828125 48.925781 75.933594 C 48.835938 76.078125 47.550781 76.078125 47.300781 76.078125 L 43.867188 76.078125 L 47.28125 72.644531 C 48.371094 71.605469 49.640625 70.390625 49.640625 68.621094 C 49.640625 66.511719 47.960938 65.296875 46.085938 65.296875 C 44.117188 65.296875 42.917969 67.03125 42.917969 68.640625 C 42.917969 69.335938 43.4375 69.425781 43.652344 69.425781 C 43.832031 69.425781 44.367188 69.320312 44.367188 68.691406 C 44.367188 68.136719 43.902344 67.976562 43.652344 67.976562 C 43.546875 67.976562 43.4375 67.996094 43.367188 68.03125 C 43.707031 66.511719 44.742188 65.757812 45.835938 65.757812 C 47.390625 65.757812 48.40625 66.992188 48.40625 68.621094 C 48.40625 70.175781 47.496094 71.519531 46.476562 72.679688 L 42.917969 76.703125 L 42.917969 77.113281 L 49.210938 77.113281 Z M 49.640625 74.34375 "/>
<path style=" stroke:none;fill-rule:evenodd;fill:rgb(0%,0%,0%);fill-opacity:1;" d="M 57.894531 71.375 C 57.894531 70.285156 57.878906 68.425781 57.128906 66.992188 C 56.464844 65.742188 55.410156 65.296875 54.480469 65.296875 C 53.621094 65.296875 52.53125 65.6875 51.851562 66.976562 C 51.136719 68.316406 51.066406 69.980469 51.066406 71.375 C 51.066406 72.394531 51.082031 73.949219 51.636719 75.308594 C 52.40625 77.152344 53.785156 77.402344 54.480469 77.402344 C 55.304688 77.402344 56.554688 77.0625 57.289062 75.363281 C 57.824219 74.128906 57.894531 72.679688 57.894531 71.375 Z M 56.753906 71.179688 C 56.753906 72.339844 56.753906 73.769531 56.539062 74.824219 C 56.160156 76.777344 55.105469 77.113281 54.480469 77.113281 C 53.335938 77.113281 52.65625 76.132812 52.40625 74.773438 C 52.210938 73.71875 52.210938 72.179688 52.210938 71.179688 C 52.210938 69.800781 52.210938 68.65625 52.441406 67.566406 C 52.78125 66.046875 53.785156 65.582031 54.480469 65.582031 C 55.214844 65.582031 56.160156 66.0625 56.503906 67.53125 C 56.734375 68.550781 56.753906 69.746094 56.753906 71.179688 Z M 56.753906 71.179688 "/>
<path style="fill:none;stroke-width:0.5;stroke-linecap:butt;stroke-linejoin:miter;stroke:rgb(40%,40%,40%);stroke-opacity:1;stroke-miterlimit:3.25;" d="M 62.625 42.308594 L 65.28125 42.308594 "/>
<path style=" stroke:none;fill-rule:evenodd;fill:rgb(0%,0%,0%);fill-opacity:1;" d="M 49.785156 43.46875 C 49.785156 41.734375 48.355469 40.484375 46.65625 40.285156 C 48.015625 40 49.320312 38.785156 49.320312 37.15625 C 49.320312 35.761719 47.90625 34.742188 46.296875 34.742188 C 44.671875 34.742188 43.242188 35.746094 43.242188 37.175781 C 43.242188 37.800781 43.707031 37.90625 43.9375 37.90625 C 44.3125 37.90625 44.636719 37.675781 44.636719 37.210938 C 44.636719 36.746094 44.3125 36.515625 43.9375 36.515625 C 43.867188 36.515625 43.777344 36.515625 43.707031 36.550781 C 44.226562 35.367188 45.636719 35.15625 46.261719 35.15625 C 46.890625 35.15625 48.070312 35.460938 48.070312 37.175781 C 48.070312 37.675781 47.996094 38.570312 47.390625 39.355469 C 46.851562 40.054688 46.246094 40.089844 45.65625 40.144531 C 45.566406 40.144531 45.15625 40.179688 45.082031 40.179688 C 44.957031 40.195312 44.886719 40.214844 44.886719 40.339844 C 44.886719 40.464844 44.902344 40.484375 45.261719 40.484375 L 46.136719 40.484375 C 47.730469 40.484375 48.425781 41.859375 48.425781 43.453125 C 48.425781 45.597656 47.28125 46.417969 46.246094 46.417969 C 45.296875 46.417969 43.757812 45.957031 43.277344 44.578125 C 43.367188 44.613281 43.453125 44.613281 43.546875 44.613281 C 43.972656 44.613281 44.296875 44.328125 44.296875 43.863281 C 44.296875 43.34375 43.902344 43.109375 43.546875 43.109375 C 43.242188 43.109375 42.777344 43.253906 42.777344 43.917969 C 42.777344 45.5625 44.386719 46.847656 46.28125 46.847656 C 48.265625 46.847656 49.785156 45.292969 49.785156 43.46875 Z M 49.785156 43.46875 "/>
<path style=" stroke:none;fill-rule:evenodd;fill:rgb(0%,0%,0%);fill-opacity:1;" d="M 57.894531 40.824219 C 57.894531 39.734375 57.878906 37.871094 57.128906 36.441406 C 56.464844 35.191406 55.410156 34.742188 54.480469 34.742188 C 53.621094 34.742188 52.53125 35.136719 51.851562 36.421875 C 51.136719 37.765625 51.066406 39.429688 51.066406 40.824219 C 51.066406 41.84375 51.082031 43.398438 51.636719 44.757812 C 52.40625 46.597656 53.785156 46.847656 54.480469 46.847656 C 55.304688 46.847656 56.554688 46.511719 57.289062 44.8125 C 57.824219 43.578125 57.894531 42.128906 57.894531 40.824219 Z M 56.753906 40.625 C 56.753906 41.789062 56.753906 43.21875 56.539062 44.273438 C 56.160156 46.222656 55.105469 46.5625 54.480469 46.5625 C 53.335938 46.5625 52.65625 45.582031 52.40625 44.222656 C 52.210938 43.164062 52.210938 41.628906 52.210938 40.625 C 52.210938 39.25 52.210938 38.105469 52.441406 37.015625 C 52.78125 35.492188 53.785156 35.03125 54.480469 35.03125 C 55.214844 35.03125 56.160156 35.511719 56.503906 36.976562 C 56.734375 37.996094 56.753906 39.195312 56.753906 40.625 Z M 56.753906 40.625 "/>
<path style="fill:none;stroke-width:0.5;stroke-linecap:butt;stroke-linejoin:miter;stroke:rgb(40%,40%,40%);stroke-opacity:1;stroke-miterlimit:3.25;" d="M 62.625 11.757812 L 65.28125 11.757812 "/>
<path style=" stroke:none;fill-rule:evenodd;fill:rgb(0%,0%,0%);fill-opacity:1;" d="M 50.015625 12.972656 L 50.015625 12.507812 L 48.195312 12.507812 L 48.195312 4.441406 C 48.195312 4.066406 48.175781 4.046875 47.855469 4.046875 L 42.542969 12.507812 L 42.542969 12.972656 L 47.15625 12.972656 L 47.15625 14.722656 C 47.15625 15.367188 47.121094 15.546875 45.867188 15.546875 L 45.53125 15.546875 L 45.53125 16.011719 C 46.101562 15.976562 47.066406 15.976562 47.675781 15.976562 C 48.28125 15.976562 49.25 15.976562 49.820312 16.011719 L 49.820312 15.546875 L 49.480469 15.546875 C 48.230469 15.546875 48.195312 15.367188 48.195312 14.722656 L 48.195312 12.972656 Z M 47.210938 12.507812 L 42.902344 12.507812 L 47.210938 5.621094 Z M 47.210938 12.507812 "/>
<path style=" stroke:none;fill-rule:evenodd;fill:rgb(0%,0%,0%);fill-opacity:1;" d="M 57.894531 10.273438 C 57.894531 9.179688 57.878906 7.320312 57.128906 5.890625 C 56.464844 4.636719 55.410156 4.191406 54.480469 4.191406 C 53.621094 4.191406 52.53125 4.585938 51.851562 5.871094 C 51.136719 7.214844 51.066406 8.875 51.066406 10.273438 C 51.066406 11.289062 51.082031 12.84375 51.636719 14.203125 C 52.40625 16.046875 53.785156 16.296875 54.480469 16.296875 C 55.304688 16.296875 56.554688 15.957031 57.289062 14.257812 C 57.824219 13.023438 57.894531 11.578125 57.894531 10.273438 Z M 56.753906 10.074219 C 56.753906 11.238281 56.753906 12.667969 56.539062 13.722656 C 56.160156 15.671875 55.105469 16.011719 54.480469 16.011719 C 53.335938 16.011719 52.65625 15.027344 52.40625 13.667969 C 52.210938 12.613281 52.210938 11.078125 52.210938 10.074219 C 52.210938 8.699219 52.210938 7.554688 52.441406 6.460938 C 52.78125 4.941406 53.785156 4.476562 54.480469 4.476562 C 55.214844 4.476562 56.160156 4.960938 56.503906 6.425781 C 56.734375 7.445312 56.753906 8.644531 56.753906 10.074219 Z M 56.753906 10.074219 "/>
<path style=" stroke:none;fill-rule:evenodd;fill:rgb(0%,0%,0%);fill-opacity:1;" d="M 175.925781 189.941406 C 175.925781 189.851562 175.851562 189.78125 175.746094 189.78125 C 175.585938 189.78125 175.566406 189.851562 175.496094 190.136719 C 175.246094 191.066406 174.871094 192.320312 173.957031 192.320312 C 173.597656 192.320312 173.367188 192.140625 173.367188 191.460938 C 173.367188 191.121094 173.4375 190.726562 173.511719 190.457031 C 173.582031 190.136719 173.582031 190.117188 173.582031 189.90625 C 173.582031 188.847656 172.632812 188.261719 170.992188 188.046875 C 171.632812 187.652344 172.277344 186.953125 172.527344 186.6875 C 173.546875 185.542969 174.242188 184.96875 175.066406 184.96875 C 175.476562 184.96875 175.585938 185.078125 175.710938 185.183594 C 175.046875 185.253906 174.796875 185.722656 174.796875 186.078125 C 174.796875 186.507812 175.136719 186.652344 175.386719 186.652344 C 175.871094 186.652344 176.300781 186.238281 176.300781 185.667969 C 176.300781 185.148438 175.886719 184.613281 175.082031 184.613281 C 174.101562 184.613281 173.296875 185.308594 172.027344 186.738281 C 171.847656 186.953125 171.1875 187.632812 170.523438 187.886719 L 172.367188 180.535156 C 172.382812 180.464844 172.417969 180.355469 172.417969 180.269531 C 172.417969 180.089844 172.207031 180.089844 172.207031 180.089844 L 171.222656 180.175781 C 170.917969 180.195312 170.648438 180.230469 170.328125 180.25 C 169.898438 180.285156 169.773438 180.300781 169.773438 180.625 C 169.773438 180.804688 169.953125 180.804688 170.132812 180.804688 C 171.042969 180.804688 171.042969 180.964844 171.042969 181.144531 C 171.042969 181.214844 171.042969 181.25 170.953125 181.574219 L 168.398438 191.800781 C 168.324219 192.066406 168.324219 192.101562 168.324219 192.210938 C 168.324219 192.605469 168.628906 192.675781 168.808594 192.675781 C 169.308594 192.675781 169.414062 192.28125 169.558594 191.726562 C 169.71875 191.066406 169.648438 191.316406 170.398438 188.386719 C 171.6875 188.527344 172.457031 189.0625 172.457031 189.921875 C 172.457031 190.03125 172.457031 190.101562 172.402344 190.367188 C 172.332031 190.636719 172.332031 190.851562 172.332031 190.941406 C 172.332031 191.976562 173.011719 192.675781 173.921875 192.675781 C 174.746094 192.675781 175.171875 191.925781 175.316406 191.675781 C 175.691406 191.011719 175.925781 190.011719 175.925781 189.941406 Z M 175.925781 189.941406 "/>
<path style=" stroke:none;fill-rule:evenodd;fill:rgb(0%,0%,0%);fill-opacity:1;" d="M 181.578125 195.195312 L 181.578125 194.832031 L 181.191406 194.832031 C 180.089844 194.832031 180.050781 194.683594 180.050781 194.230469 L 180.050781 187.164062 C 180.050781 186.878906 180.050781 186.863281 179.800781 186.863281 C 179.5 187.203125 178.871094 187.667969 177.582031 187.667969 L 177.582031 188.027344 C 177.871094 188.027344 178.496094 188.027344 179.183594 187.703125 L 179.183594 194.230469 C 179.183594 194.683594 179.148438 194.832031 178.046875 194.832031 L 177.65625 194.832031 L 177.65625 195.195312 C 177.996094 195.171875 179.210938 195.171875 179.625 195.171875 C 180.039062 195.171875 181.242188 195.171875 181.578125 195.195312 Z M 181.578125 195.195312 "/>
<path style=" stroke:none;fill-rule:evenodd;fill:rgb(0%,0%,0%);fill-opacity:1;" d="M 17.851562 116.226562 L 17.851562 112.757812 C 17.851562 112.453125 17.851562 112.257812 17.636719 112.257812 C 17.40625 112.257812 17.40625 112.472656 17.40625 112.8125 L 17.40625 116.117188 C 16.957031 115.992188 16.921875 115.992188 16.476562 115.886719 C 16.152344 115.796875 15.527344 115.636719 15.492188 115.636719 C 15.328125 115.636719 15.277344 115.742188 15.277344 115.886719 C 15.277344 116.226562 15.421875 117.640625 15.457031 118.070312 C 15.472656 118.210938 15.492188 118.40625 15.832031 118.40625 C 16.027344 118.40625 16.027344 118.230469 16.027344 117.976562 C 16.027344 117.121094 16.152344 117.085938 16.332031 117.085938 C 16.457031 117.085938 17.046875 117.246094 17.40625 117.335938 L 17.40625 118.335938 C 17.40625 118.695312 17.40625 118.890625 17.636719 118.890625 C 17.851562 118.890625 17.851562 118.730469 17.851562 118.390625 L 17.851562 117.441406 L 26.96875 119.730469 C 27.238281 119.804688 27.273438 119.804688 27.382812 119.804688 C 27.773438 119.804688 27.882812 119.5 27.882812 119.285156 C 27.882812 118.945312 27.632812 118.695312 27.398438 118.621094 C 27.3125 118.585938 26.507812 118.390625 26.058594 118.28125 L 24.46875 117.871094 C 24.199219 117.816406 23.519531 117.640625 23.25 117.585938 C 22.964844 117.496094 22.410156 117.371094 22.359375 117.351562 C 22.054688 117.210938 20.175781 116.242188 20.175781 114.457031 C 20.175781 113.667969 20.820312 113.492188 21.410156 113.492188 C 22.519531 113.492188 24.699219 114.3125 25.523438 114.632812 C 25.808594 114.742188 26.058594 114.832031 26.398438 114.832031 C 27.328125 114.832031 27.882812 114.171875 27.882812 113.367188 C 27.882812 111.648438 25.234375 111.023438 25.128906 111.023438 C 24.949219 111.023438 24.949219 111.183594 24.949219 111.238281 C 24.949219 111.417969 25.003906 111.417969 25.273438 111.507812 C 27.09375 112.023438 27.488281 112.828125 27.488281 113.3125 C 27.488281 113.652344 27.273438 113.757812 26.898438 113.757812 C 26.453125 113.757812 25.953125 113.5625 25.648438 113.453125 C 24.859375 113.152344 22.714844 112.347656 21.714844 112.347656 C 20.40625 112.347656 19.78125 113.167969 19.78125 114.402344 C 19.78125 114.957031 19.90625 116.03125 21.140625 117.046875 Z M 17.851562 116.226562 "/>
<path style=" stroke:none;fill-rule:evenodd;fill:rgb(0%,0%,0%);fill-opacity:1;" d="M 23.394531 97.914062 C 22.625 97.714844 21.714844 97.484375 20.980469 97.484375 C 20.550781 97.484375 20.175781 97.574219 19.945312 97.804688 C 19.855469 97.914062 19.800781 98.054688 19.800781 98.199219 C 19.800781 98.394531 19.890625 98.589844 20.050781 98.753906 C 20.210938 98.914062 20.40625 99.003906 20.585938 99.003906 C 20.730469 99.003906 20.875 98.949219 20.980469 98.84375 C 21.375 98.414062 21.945312 98.199219 22.589844 98.199219 C 22.820312 98.199219 23.074219 98.234375 23.324219 98.289062 C 24.984375 98.699219 26.703125 99.699219 26.703125 101.148438 C 26.703125 102.1875 25.953125 102.757812 24.949219 102.882812 C 24.449219 102.667969 23.914062 102.488281 23.394531 102.363281 C 23.234375 102.328125 23.054688 102.292969 22.894531 102.292969 C 22.679688 102.292969 22.519531 102.363281 22.519531 102.578125 C 22.519531 102.898438 22.945312 103.042969 23.324219 103.132812 C 23.859375 103.277344 24.394531 103.367188 24.914062 103.382812 C 25.933594 103.972656 26.703125 104.832031 26.703125 105.851562 C 26.703125 106.921875 25.808594 107.390625 24.679688 107.390625 C 24.269531 107.390625 23.84375 107.316406 23.394531 107.210938 C 22.320312 106.941406 21.304688 106.335938 20.335938 105.636719 C 20.265625 105.601562 20.210938 105.582031 20.140625 105.582031 C 20.050781 105.582031 19.960938 105.617188 19.90625 105.707031 C 19.890625 105.761719 19.890625 105.832031 19.890625 105.832031 C 19.890625 105.941406 19.945312 106.046875 20.03125 106.117188 C 21.070312 106.851562 22.195312 107.316406 23.324219 107.601562 C 24.039062 107.78125 24.753906 107.871094 25.398438 107.871094 C 26.792969 107.871094 27.863281 107.390625 27.863281 106.066406 C 27.863281 104.921875 27.023438 104.007812 25.878906 103.328125 C 27.042969 103.167969 27.863281 102.578125 27.863281 101.363281 C 27.863281 99.519531 25.558594 98.449219 23.394531 97.914062 Z M 23.394531 97.914062 "/>
<path style=" stroke:none;fill-rule:evenodd;fill:rgb(0%,0%,0%);fill-opacity:1;" d="M 32.046875 91.015625 C 32.046875 91.015625 31.996094 91.015625 31.941406 91.070312 C 31.101562 91.890625 28.8125 94.089844 23.234375 94.089844 C 17.65625 94.089844 15.382812 91.925781 14.492188 91.050781 C 14.492188 91.050781 14.4375 91.015625 14.382812 91.015625 C 14.328125 91.015625 14.292969 91.070312 14.292969 91.140625 C 14.292969 91.335938 15.617188 92.855469 17.582031 93.734375 C 19.570312 94.628906 21.5 94.878906 23.214844 94.878906 C 24.503906 94.878906 26.683594 94.753906 28.992188 93.679688 C 30.851562 92.820312 32.15625 91.355469 32.15625 91.140625 C 32.15625 91.050781 32.121094 91.015625 32.046875 91.015625 Z M 32.046875 91.015625 "/>
<path style=" stroke:none;fill-rule:evenodd;fill:rgb(0%,0%,0%);fill-opacity:1;" d="M 25.039062 79.996094 C 24.789062 79.996094 24.789062 80.265625 24.789062 80.425781 C 24.789062 80.746094 24.824219 80.78125 25.148438 80.871094 C 25.664062 81.015625 27.1875 81.441406 27.1875 82.355469 C 27.1875 82.640625 27.023438 82.820312 26.488281 82.820312 C 26.308594 82.820312 25.96875 82.785156 25.558594 82.675781 C 25.359375 82.621094 25.234375 82.621094 25.109375 82.621094 C 23.589844 82.621094 23.304688 84.429688 23.179688 85.714844 C 23.054688 85.539062 22.769531 85.109375 21.820312 84.125 C 20.460938 82.746094 20.246094 81.996094 20.246094 81.460938 C 20.246094 81.121094 20.460938 80.996094 20.460938 80.996094 C 20.585938 81.890625 21.304688 82.230469 21.75 82.230469 C 22.140625 82.230469 22.570312 81.925781 22.570312 81.335938 C 22.570312 80.996094 22.339844 80.046875 21.070312 80.046875 C 20.140625 80.046875 19.601562 80.640625 19.601562 81.40625 C 19.601562 82.496094 20.390625 83.480469 21.410156 84.535156 C 21.605469 84.714844 22.429688 85.574219 22.804688 86.253906 L 15.902344 84.535156 C 15.652344 84.464844 15.597656 84.464844 15.597656 84.464844 C 15.367188 84.464844 15.277344 84.660156 15.277344 84.859375 C 15.277344 84.929688 15.277344 84.949219 15.296875 84.984375 L 15.402344 87.289062 C 15.421875 87.539062 15.4375 87.863281 15.9375 87.863281 C 16.261719 87.863281 16.261719 87.523438 16.261719 87.398438 C 16.261719 87.199219 16.261719 86.878906 16.296875 86.644531 L 26.613281 89.222656 C 26.683594 89.238281 26.953125 89.292969 27.023438 89.292969 C 27.453125 89.292969 27.828125 88.953125 27.828125 88.433594 C 27.828125 88.113281 27.667969 87.59375 27.113281 87.34375 L 23.84375 86.519531 C 23.878906 86.183594 24.09375 84.625 25.183594 84.625 C 25.308594 84.625 25.359375 84.625 25.558594 84.679688 C 25.789062 84.734375 25.808594 84.734375 25.988281 84.734375 C 27.148438 84.734375 27.828125 83.625 27.828125 82.445312 C 27.828125 80.65625 25.183594 79.996094 25.039062 79.996094 Z M 25.039062 79.996094 "/>
<path style=" stroke:none;fill-rule:evenodd;fill:rgb(0%,0%,0%);fill-opacity:1;" d="M 23.234375 74.285156 C 21.945312 74.285156 19.765625 74.410156 17.457031 75.484375 C 15.597656 76.339844 14.292969 77.808594 14.292969 78.023438 C 14.292969 78.074219 14.3125 78.148438 14.398438 78.148438 C 14.398438 78.148438 14.453125 78.128906 14.492188 78.109375 C 15.382812 77.253906 17.65625 75.070312 23.214844 75.070312 C 28.796875 75.070312 31.066406 77.234375 31.960938 78.109375 C 31.996094 78.128906 32.046875 78.148438 32.046875 78.148438 C 32.136719 78.148438 32.15625 78.074219 32.15625 78.023438 C 32.15625 77.824219 30.832031 76.304688 28.867188 75.429688 C 26.882812 74.535156 24.949219 74.285156 23.234375 74.285156 Z M 23.234375 74.285156 "/>
<path style=" stroke:none;fill-rule:evenodd;fill:rgb(0%,0%,0%);fill-opacity:1;" d="M 14.617188 64.910156 C 14.398438 64.910156 14.277344 65.085938 14.277344 65.230469 C 14.277344 65.320312 14.277344 65.480469 14.667969 65.625 L 31.492188 71.613281 L 31.816406 71.722656 C 32.03125 71.722656 32.15625 71.542969 32.15625 71.398438 C 32.15625 71.292969 32.136719 71.132812 31.761719 71.007812 L 14.9375 65.015625 Z M 14.617188 64.910156 "/>
<path style=" stroke:none;fill-rule:evenodd;fill:rgb(0%,0%,0%);fill-opacity:1;" d="M 32.046875 58.417969 C 32.046875 58.417969 31.996094 58.417969 31.941406 58.472656 C 31.101562 59.292969 28.8125 61.492188 23.234375 61.492188 C 17.65625 61.492188 15.382812 59.328125 14.492188 58.453125 C 14.492188 58.453125 14.4375 58.417969 14.382812 58.417969 C 14.328125 58.417969 14.292969 58.472656 14.292969 58.542969 C 14.292969 58.738281 15.617188 60.257812 17.582031 61.136719 C 19.570312 62.027344 21.5 62.277344 23.214844 62.277344 C 24.503906 62.277344 26.683594 62.152344 28.992188 61.082031 C 30.851562 60.222656 32.15625 58.757812 32.15625 58.542969 C 32.15625 58.453125 32.121094 58.417969 32.046875 58.417969 Z M 32.046875 58.417969 "/>
<path style=" stroke:none;fill-rule:evenodd;fill:rgb(0%,0%,0%);fill-opacity:1;" d="M 15.671875 46.519531 C 15.472656 46.519531 15.472656 46.679688 15.472656 46.753906 C 15.472656 47.058594 15.507812 47.394531 15.507812 47.71875 L 15.507812 48.703125 L 15.472656 50.988281 C 15.472656 51.152344 15.472656 51.367188 15.796875 51.367188 C 15.972656 51.367188 15.992188 51.222656 15.992188 51.222656 L 15.992188 50.777344 C 15.992188 49.34375 16.132812 49.34375 16.402344 49.34375 C 16.402344 49.34375 16.546875 49.34375 16.832031 49.417969 L 25.003906 51.472656 C 26.828125 51.9375 27.703125 53.136719 27.703125 53.996094 C 27.703125 54.601562 27.417969 55.460938 26.46875 55.675781 C 26.488281 55.605469 26.507812 55.515625 26.507812 55.441406 C 26.507812 54.851562 25.988281 54.386719 25.46875 54.386719 C 25.183594 54.386719 24.808594 54.566406 24.808594 55.101562 C 24.808594 55.425781 24.984375 56.175781 26.148438 56.175781 C 27.273438 56.175781 28.0625 55.246094 28.0625 53.957031 C 28.0625 52.332031 26.828125 50.578125 25.128906 50.148438 L 16.707031 48.039062 C 16.171875 47.898438 15.992188 47.863281 15.992188 46.984375 C 15.992188 46.699219 15.992188 46.519531 15.671875 46.519531 Z M 15.671875 46.519531 "/>
<path style=" stroke:none;fill-rule:evenodd;fill:rgb(0%,0%,0%);fill-opacity:1;" d="M 23.589844 36.53125 C 22.839844 36.53125 22.179688 36.710938 21.515625 37.390625 C 21.140625 37.765625 21.050781 38.089844 20.625 39.734375 C 20.300781 40.933594 20.246094 41.09375 19.960938 41.414062 C 19.65625 41.71875 19.226562 41.953125 18.621094 41.953125 C 17.117188 41.953125 15.582031 40.429688 15.582031 38.734375 C 15.582031 36.980469 16.652344 36.15625 18.351562 36.15625 C 18.816406 36.15625 19.300781 36.246094 19.371094 36.246094 C 19.53125 36.246094 19.53125 36.105469 19.53125 36.050781 C 19.53125 35.890625 19.476562 35.871094 19.191406 35.800781 L 15.257812 34.835938 C 15.097656 34.835938 15.097656 34.996094 15.097656 34.996094 C 15.097656 35.066406 15.117188 35.085938 15.382812 35.300781 L 16.457031 36.15625 C 15.296875 36.75 15.097656 37.929688 15.097656 38.679688 C 15.097656 40.949219 17.171875 43.003906 19.191406 43.003906 C 20.535156 43.003906 21.320312 42.199219 21.625 41.324219 C 21.695312 41.128906 21.980469 40.074219 22.109375 39.539062 C 22.359375 38.625 22.429688 38.394531 22.820312 38.015625 C 22.914062 37.945312 23.324219 37.589844 24.164062 37.589844 C 25.828125 37.589844 27.542969 39.125 27.542969 40.914062 C 27.542969 42.378906 26.917969 44.007812 24.914062 44.007812 C 24.574219 44.007812 24.144531 43.933594 23.96875 43.882812 C 23.914062 43.882812 23.789062 43.863281 23.789062 43.863281 C 23.71875 43.863281 23.625 43.898438 23.625 44.042969 C 23.625 44.203125 23.664062 44.222656 23.96875 44.292969 L 27.632812 45.207031 L 27.898438 45.277344 C 28.0625 45.277344 28.0625 45.097656 28.0625 45.097656 C 28.0625 45.027344 28.042969 45.007812 27.773438 44.792969 L 26.703125 43.972656 C 27.347656 43.542969 28.0625 42.613281 28.0625 40.949219 C 28.0625 38.644531 25.828125 36.53125 23.589844 36.53125 Z M 23.589844 36.53125 "/>
<path style=" stroke:none;fill-rule:evenodd;fill:rgb(0%,0%,0%);fill-opacity:1;" d="M 23.234375 29.6875 C 21.945312 29.6875 19.765625 29.8125 17.457031 30.882812 C 15.597656 31.742188 14.292969 33.210938 14.292969 33.421875 C 14.292969 33.476562 14.3125 33.546875 14.398438 33.546875 C 14.398438 33.546875 14.453125 33.53125 14.492188 33.511719 C 15.382812 32.65625 17.65625 30.472656 23.214844 30.472656 C 28.796875 30.472656 31.066406 32.636719 31.960938 33.511719 C 31.996094 33.53125 32.046875 33.546875 32.046875 33.546875 C 32.136719 33.546875 32.15625 33.476562 32.15625 33.421875 C 32.15625 33.226562 30.832031 31.707031 28.867188 30.832031 C 26.882812 29.9375 24.949219 29.6875 23.234375 29.6875 Z M 23.234375 29.6875 "/>
<path style=" stroke:none;fill-rule:evenodd;fill:rgb(0%,0%,0%);fill-opacity:1;" d="M 83.570312 25.441406 C 83.570312 25.066406 83.480469 24.867188 83.320312 24.867188 C 83.140625 24.867188 83.085938 25.152344 83.066406 25.332031 C 82.976562 27.175781 81.691406 28.03125 80.601562 28.03125 C 79.472656 28.03125 78.742188 27.386719 77.417969 26.207031 C 76.273438 25.191406 75.488281 24.847656 74.644531 24.847656 C 72.785156 24.847656 71.679688 26.746094 71.679688 28.441406 C 71.679688 28.871094 71.804688 29.015625 71.929688 29.015625 C 72.125 29.015625 72.179688 28.660156 72.179688 28.605469 C 72.269531 26.53125 73.699219 25.851562 74.644531 25.851562 C 75.773438 25.851562 76.507812 26.496094 77.828125 27.675781 C 78.972656 28.695312 79.757812 29.035156 80.601562 29.035156 C 82.460938 29.035156 83.570312 27.136719 83.570312 25.441406 Z M 83.570312 25.441406 "/>
<path style=" stroke:none;fill-rule:evenodd;fill:rgb(0%,0%,0%);fill-opacity:1;" d="M 98.15625 28.855469 C 98.15625 28.765625 98.085938 28.695312 97.980469 28.695312 C 97.820312 28.695312 97.800781 28.765625 97.726562 29.050781 C 97.476562 29.980469 97.101562 31.234375 96.191406 31.234375 C 95.832031 31.234375 95.601562 31.054688 95.601562 30.375 C 95.601562 30.035156 95.671875 29.640625 95.742188 29.371094 C 95.816406 29.050781 95.816406 29.035156 95.816406 28.820312 C 95.816406 27.761719 94.867188 27.175781 93.222656 26.960938 C 93.867188 26.566406 94.507812 25.867188 94.761719 25.601562 C 95.78125 24.457031 96.476562 23.882812 97.300781 23.882812 C 97.710938 23.882812 97.820312 23.992188 97.945312 24.101562 C 97.28125 24.171875 97.03125 24.636719 97.03125 24.992188 C 97.03125 25.421875 97.371094 25.566406 97.621094 25.566406 C 98.105469 25.566406 98.53125 25.152344 98.53125 24.582031 C 98.53125 24.0625 98.121094 23.527344 97.316406 23.527344 C 96.335938 23.527344 95.53125 24.226562 94.257812 25.652344 C 94.082031 25.867188 93.417969 26.546875 92.757812 26.800781 L 94.601562 19.449219 C 94.617188 19.378906 94.652344 19.273438 94.652344 19.183594 C 94.652344 19.003906 94.4375 19.003906 94.4375 19.003906 L 93.457031 19.09375 C 93.152344 19.109375 92.882812 19.148438 92.5625 19.164062 C 92.132812 19.199219 92.007812 19.21875 92.007812 19.539062 C 92.007812 19.71875 92.1875 19.71875 92.363281 19.71875 C 93.277344 19.71875 93.277344 19.878906 93.277344 20.058594 C 93.277344 20.128906 93.277344 20.164062 93.1875 20.488281 L 90.628906 30.714844 C 90.558594 30.980469 90.558594 31.019531 90.558594 31.125 C 90.558594 31.519531 90.863281 31.589844 91.042969 31.589844 C 91.542969 31.589844 91.648438 31.199219 91.792969 30.644531 C 91.953125 29.980469 91.882812 30.230469 92.632812 27.300781 C 93.921875 27.441406 94.6875 27.980469 94.6875 28.835938 C 94.6875 28.945312 94.6875 29.015625 94.636719 29.285156 C 94.5625 29.550781 94.5625 29.765625 94.5625 29.855469 C 94.5625 30.894531 95.242188 31.589844 96.15625 31.589844 C 96.976562 31.589844 97.40625 30.839844 97.550781 30.589844 C 97.925781 29.925781 98.15625 28.925781 98.15625 28.855469 Z M 98.15625 28.855469 "/>
<path style=" stroke:none;fill-rule:evenodd;fill:rgb(0%,0%,0%);fill-opacity:1;" d="M 104.886719 21.90625 L 104.613281 21.90625 C 104.574219 22.121094 104.472656 22.808594 104.347656 23.007812 C 104.261719 23.125 103.546875 23.125 103.171875 23.125 L 100.851562 23.125 C 101.191406 22.835938 101.957031 22.03125 102.28125 21.730469 C 104.1875 19.976562 104.886719 19.324219 104.886719 18.085938 C 104.886719 16.644531 103.746094 15.679688 102.292969 15.679688 C 100.839844 15.679688 99.988281 16.917969 99.988281 17.996094 C 99.988281 18.636719 100.539062 18.636719 100.578125 18.636719 C 100.839844 18.636719 101.167969 18.449219 101.167969 18.046875 C 101.167969 17.695312 100.929688 17.457031 100.578125 17.457031 C 100.464844 17.457031 100.441406 17.457031 100.402344 17.46875 C 100.640625 16.621094 101.316406 16.042969 102.128906 16.042969 C 103.195312 16.042969 103.847656 16.933594 103.847656 18.085938 C 103.847656 19.148438 103.234375 20.078125 102.519531 20.878906 L 99.988281 23.710938 L 99.988281 24.011719 L 104.5625 24.011719 Z M 104.886719 21.90625 "/>
<path style=" stroke:none;fill-rule:evenodd;fill:rgb(0%,0%,0%);fill-opacity:1;" d="M 103.910156 35.910156 L 103.910156 35.546875 L 103.523438 35.546875 C 102.421875 35.546875 102.382812 35.398438 102.382812 34.945312 L 102.382812 27.878906 C 102.382812 27.589844 102.382812 27.578125 102.132812 27.578125 C 101.832031 27.917969 101.207031 28.378906 99.914062 28.378906 L 99.914062 28.742188 C 100.203125 28.742188 100.828125 28.742188 101.519531 28.417969 L 101.519531 34.945312 C 101.519531 35.398438 101.480469 35.546875 100.378906 35.546875 L 99.992188 35.546875 L 99.992188 35.910156 C 100.328125 35.886719 101.542969 35.886719 101.957031 35.886719 C 102.371094 35.886719 103.574219 35.886719 103.910156 35.910156 Z M 103.910156 35.910156 "/>
<path style=" stroke:none;fill-rule:evenodd;fill:rgb(0%,0%,0%);fill-opacity:1;" d="M 242.347656 23.75 C 242.347656 23.375 242.257812 23.179688 242.097656 23.179688 C 241.917969 23.179688 241.863281 23.464844 241.84375 23.640625 C 241.753906 25.484375 240.46875 26.34375 239.378906 26.34375 C 238.25 26.34375 237.519531 25.699219 236.195312 24.519531 C 235.050781 23.5 234.261719 23.160156 233.421875 23.160156 C 231.5625 23.160156 230.457031 25.054688 230.457031 26.753906 C 230.457031 27.183594 230.582031 27.328125 230.707031 27.328125 C 230.902344 27.328125 230.957031 26.96875 230.957031 26.914062 C 231.042969 24.839844 232.476562 24.160156 233.421875 24.160156 C 234.550781 24.160156 235.285156 24.804688 236.605469 25.984375 C 237.75 27.003906 238.535156 27.34375 239.378906 27.34375 C 241.238281 27.34375 242.347656 25.449219 242.347656 23.75 Z M 242.347656 23.75 "/>
<path style=" stroke:none;fill-rule:evenodd;fill:rgb(0%,0%,0%);fill-opacity:1;" d="M 255.933594 33.863281 C 256.488281 33.863281 256.507812 33.84375 256.6875 33.507812 L 266.464844 13.085938 C 266.59375 12.851562 266.59375 12.816406 266.59375 12.765625 C 266.59375 12.566406 266.449219 12.40625 266.234375 12.40625 C 266 12.40625 265.929688 12.566406 265.839844 12.765625 L 256.613281 32.003906 L 252.804688 23.132812 L 250.320312 25.046875 L 250.589844 25.335938 L 251.859375 24.367188 Z M 255.933594 33.863281 "/>
<path style="fill:none;stroke-width:0.716987;stroke-linecap:square;stroke-linejoin:miter;stroke:rgb(0%,0%,0%);stroke-opacity:1;stroke-miterlimit:10;" d="M 266.3125 12.804688 L 282.085938 12.804688 "/>
<path style=" stroke:none;fill-rule:evenodd;fill:rgb(0%,0%,0%);fill-opacity:1;" d="M 274.9375 27.164062 C 274.9375 27.074219 274.863281 27.003906 274.757812 27.003906 C 274.597656 27.003906 274.578125 27.074219 274.507812 27.359375 C 274.257812 28.292969 273.882812 29.542969 272.96875 29.542969 C 272.609375 29.542969 272.378906 29.363281 272.378906 28.683594 C 272.378906 28.34375 272.449219 27.953125 272.523438 27.683594 C 272.59375 27.359375 272.59375 27.34375 272.59375 27.128906 C 272.59375 26.074219 271.644531 25.484375 270 25.269531 C 270.644531 24.875 271.289062 24.179688 271.539062 23.910156 C 272.558594 22.765625 273.253906 22.195312 274.078125 22.195312 C 274.488281 22.195312 274.597656 22.300781 274.722656 22.410156 C 274.058594 22.480469 273.808594 22.945312 273.808594 23.304688 C 273.808594 23.730469 274.148438 23.875 274.398438 23.875 C 274.882812 23.875 275.3125 23.464844 275.3125 22.890625 C 275.3125 22.375 274.898438 21.835938 274.09375 21.835938 C 273.113281 21.835938 272.308594 22.535156 271.039062 23.964844 C 270.859375 24.179688 270.195312 24.859375 269.535156 25.109375 L 271.378906 17.757812 C 271.394531 17.6875 271.429688 17.582031 271.429688 17.492188 C 271.429688 17.3125 271.21875 17.3125 271.21875 17.3125 L 270.234375 17.402344 C 269.929688 17.421875 269.660156 17.457031 269.339844 17.472656 C 268.910156 17.507812 268.785156 17.527344 268.785156 17.847656 C 268.785156 18.027344 268.964844 18.027344 269.140625 18.027344 C 270.054688 18.027344 270.054688 18.1875 270.054688 18.367188 C 270.054688 18.4375 270.054688 18.476562 269.964844 18.796875 L 267.40625 29.023438 C 267.335938 29.292969 267.335938 29.328125 267.335938 29.4375 C 267.335938 29.828125 267.640625 29.898438 267.820312 29.898438 C 268.320312 29.898438 268.425781 29.507812 268.570312 28.953125 C 268.730469 28.292969 268.660156 28.542969 269.410156 25.609375 C 270.699219 25.753906 271.46875 26.289062 271.46875 27.148438 C 271.46875 27.253906 271.46875 27.328125 271.414062 27.59375 C 271.34375 27.863281 271.34375 28.078125 271.34375 28.164062 C 271.34375 29.203125 272.023438 29.898438 272.933594 29.898438 C 273.757812 29.898438 274.183594 29.148438 274.328125 28.898438 C 274.703125 28.238281 274.9375 27.234375 274.9375 27.164062 Z M 274.9375 27.164062 "/>
<path style=" stroke:none;fill-rule:evenodd;fill:rgb(0%,0%,0%);fill-opacity:1;" d="M 280.589844 32.421875 L 280.589844 32.058594 L 280.203125 32.058594 C 279.101562 32.058594 279.0625 31.90625 279.0625 31.457031 L 279.0625 24.390625 C 279.0625 24.101562 279.0625 24.085938 278.8125 24.085938 C 278.511719 24.425781 277.882812 24.890625 276.59375 24.890625 L 276.59375 25.253906 C 276.882812 25.253906 277.507812 25.253906 278.195312 24.929688 L 278.195312 31.457031 C 278.195312 31.90625 278.160156 32.058594 277.058594 32.058594 L 276.667969 32.058594 L 276.667969 32.421875 C 277.007812 32.398438 278.222656 32.398438 278.636719 32.398438 C 279.050781 32.398438 280.253906 32.398438 280.589844 32.421875 Z M 280.589844 32.421875 "/>
<path style=" stroke:none;fill-rule:evenodd;fill:rgb(0%,0%,0%);fill-opacity:1;" d="M 238.59375 77.253906 C 238.59375 76.878906 238.503906 76.679688 238.34375 76.679688 C 238.164062 76.679688 238.109375 76.96875 238.09375 77.144531 C 238.003906 78.988281 236.714844 79.84375 235.625 79.84375 C 234.5 79.84375 233.765625 79.203125 232.441406 78.023438 C 231.300781 77.003906 230.511719 76.664062 229.671875 76.664062 C 227.8125 76.664062 226.703125 78.558594 226.703125 80.257812 C 226.703125 80.6875 226.828125 80.828125 226.953125 80.828125 C 227.152344 80.828125 227.203125 80.472656 227.203125 80.417969 C 227.292969 78.34375 228.722656 77.664062 229.671875 77.664062 C 230.796875 77.664062 231.53125 78.308594 232.855469 79.488281 C 234 80.507812 234.785156 80.847656 235.625 80.847656 C 237.484375 80.847656 238.59375 78.953125 238.59375 77.253906 Z M 238.59375 77.253906 "/>
<path style=" stroke:none;fill-rule:evenodd;fill:rgb(0%,0%,0%);fill-opacity:1;" d="M 253.183594 80.667969 C 253.183594 80.578125 253.113281 80.507812 253.003906 80.507812 C 252.84375 80.507812 252.824219 80.578125 252.753906 80.863281 C 252.503906 81.796875 252.128906 83.046875 251.214844 83.046875 C 250.859375 83.046875 250.628906 82.867188 250.628906 82.1875 C 250.628906 81.847656 250.699219 81.453125 250.769531 81.1875 C 250.839844 80.863281 250.839844 80.847656 250.839844 80.632812 C 250.839844 79.578125 249.894531 78.988281 248.25 78.773438 C 248.890625 78.378906 249.535156 77.679688 249.785156 77.414062 C 250.804688 76.269531 251.503906 75.699219 252.324219 75.699219 C 252.738281 75.699219 252.84375 75.804688 252.96875 75.914062 C 252.308594 75.984375 252.058594 76.449219 252.058594 76.804688 C 252.058594 77.234375 252.394531 77.378906 252.648438 77.378906 C 253.128906 77.378906 253.558594 76.96875 253.558594 76.394531 C 253.558594 75.878906 253.148438 75.339844 252.34375 75.339844 C 251.359375 75.339844 250.554688 76.039062 249.285156 77.46875 C 249.105469 77.679688 248.445312 78.359375 247.785156 78.613281 L 249.625 71.261719 C 249.644531 71.191406 249.679688 71.085938 249.679688 70.996094 C 249.679688 70.816406 249.464844 70.816406 249.464844 70.816406 L 248.480469 70.90625 C 248.175781 70.925781 247.910156 70.960938 247.585938 70.976562 C 247.15625 71.011719 247.03125 71.03125 247.03125 71.351562 C 247.03125 71.53125 247.210938 71.53125 247.390625 71.53125 C 248.300781 71.53125 248.300781 71.691406 248.300781 71.871094 C 248.300781 71.941406 248.300781 71.980469 248.214844 72.300781 L 245.65625 82.527344 C 245.585938 82.796875 245.585938 82.832031 245.585938 82.9375 C 245.585938 83.332031 245.890625 83.402344 246.066406 83.402344 C 246.566406 83.402344 246.675781 83.011719 246.816406 82.457031 C 246.980469 81.796875 246.90625 82.046875 247.660156 79.113281 C 248.945312 79.257812 249.714844 79.792969 249.714844 80.648438 C 249.714844 80.757812 249.714844 80.828125 249.660156 81.097656 C 249.589844 81.367188 249.589844 81.578125 249.589844 81.667969 C 249.589844 82.707031 250.269531 83.402344 251.179688 83.402344 C 252.003906 83.402344 252.433594 82.652344 252.574219 82.402344 C 252.949219 81.742188 253.183594 80.738281 253.183594 80.667969 Z M 253.183594 80.667969 "/>
<path style=" stroke:none;fill-rule:evenodd;fill:rgb(0%,0%,0%);fill-opacity:1;" d="M 258.9375 85.925781 L 258.9375 85.5625 L 258.550781 85.5625 C 257.449219 85.5625 257.410156 85.410156 257.410156 84.960938 L 257.410156 77.890625 C 257.410156 77.605469 257.410156 77.589844 257.160156 77.589844 C 256.859375 77.929688 256.230469 78.394531 254.941406 78.394531 L 254.941406 78.757812 C 255.230469 78.757812 255.855469 78.757812 256.542969 78.429688 L 256.542969 84.960938 C 256.542969 85.410156 256.507812 85.5625 255.40625 85.5625 L 255.015625 85.5625 L 255.015625 85.925781 C 255.355469 85.898438 256.570312 85.898438 256.984375 85.898438 C 257.398438 85.898438 258.601562 85.898438 258.9375 85.925781 Z M 258.9375 85.925781 "/>
</g>
</svg>
