<?xml version="1.0" encoding="UTF-8"?>
<svg xmlns="http://www.w3.org/2000/svg" xmlns:xlink="http://www.w3.org/1999/xlink" width="360pt" height="234pt" viewBox="0 0 360 234" version="1.1">
<defs>
<clipPath id="clip1">
  <path d="M 205 2.878906 L 206 2.878906 L 206 178.078125 L 205 178.078125 Z M 205 2.878906 "/>
</clipPath>
<clipPath id="clip2">
  <path d="M 63.601562 165 L 346.800781 165 L 346.800781 166 L 63.601562 166 Z M 63.601562 165 "/>
</clipPath>
<clipPath id="clip3">
  <path d="M 64 47 L 346.800781 47 L 346.800781 174 L 64 174 Z M 64 47 "/>
</clipPath>
<clipPath id="clip4">
  <path d="M 64 96 L 346.800781 96 L 346.800781 174 L 64 174 Z M 64 96 "/>
</clipPath>
<clipPath id="clip5">
  <path d="M 64 121 L 346.800781 121 L 346.800781 174 L 64 174 Z M 64 121 "/>
</clipPath>
<clipPath id="clip6">
  <path d="M 164.160156 22 L 184.320312 22 L 184.320312 25 L 164.160156 25 Z M 164.160156 22 "/>
</clipPath>
<clipPath id="clip7">
  <path d="M 164.160156 55 L 184.320312 55 L 184.320312 58 L 164.160156 58 Z M 164.160156 55 "/>
</clipPath>
<clipPath id="clip8">
  <path d="M 164.160156 88 L 184.320312 88 L 184.320312 91 L 164.160156 91 Z M 164.160156 88 "/>
</clipPath>
</defs>
<g id="surface86">
<rect x="0" y="0" width="360" height="234" style="fill:rgb(100%,100%,100%);fill-opacity:1;stroke:none;"/>
<g clip-path="url(#clip1)" clip-rule="nonzero">
<path style="fill:none;stroke-width:0.2;stroke-linecap:butt;stroke-linejoin:miter;stroke:rgb(50.000763%,50.000763%,50.000763%);stroke-opacity:0.4;stroke-miterlimit:3.25;" d="M 205.226562 177.976562 L 205.226562 3.007812 "/>
</g>
<g clip-path="url(#clip2)" clip-rule="nonzero">
<path style="fill:none;stroke-width:0.2;stroke-linecap:butt;stroke-linejoin:miter;stroke:rgb(50.000763%,50.000763%,50.000763%);stroke-opacity:0.4;stroke-miterlimit:3.25;" d="M 63.671875 165.386719 L 346.78125 165.386719 "/>
</g>
<path style="fill:none;stroke-width:1.698649;stroke-linecap:butt;stroke-linejoin:miter;stroke:rgb(0%,0%,0%);stroke-opacity:0.7;stroke-miterlimit:3.25;" d="M 205.226562 165.386719 L 205.25 165.367188 L 205.273438 165.351562 L 205.316406 165.3125 L 205.410156 165.234375 L 205.59375 165.078125 L 205.957031 164.765625 L 206.691406 164.144531 L 208.277344 162.792969 L 209.761719 161.53125 L 211.214844 160.296875 L 212.789062 158.957031 L 214.261719 157.703125 L 215.855469 156.347656 L 217.421875 155.015625 L 218.882812 153.773438 L 220.464844 152.429688 L 221.945312 151.171875 L 223.394531 149.9375 L 224.964844 148.601562 L 226.433594 147.355469 L 228.023438 146 L 229.582031 144.675781 L 231.039062 143.4375 L 232.617188 142.09375 L 234.09375 140.839844 L 235.691406 139.480469 L 237.257812 138.148438 L 238.71875 136.902344 L 240.304688 135.554688 L 241.789062 134.296875 L 243.238281 133.058594 L 244.8125 131.722656 L 246.285156 130.472656 L 247.875 129.117188 L 249.441406 127.785156 L 250.898438 126.546875 L 252.480469 125.199219 L 253.957031 123.945312 L 255.40625 122.714844 L 256.976562 121.378906 L 258.441406 120.132812 L 260.03125 118.78125 L 261.511719 117.519531 L 262.96875 116.28125 L 264.542969 114.941406 L 266.015625 113.6875 L 267.613281 112.332031 L 269.179688 111 L 270.640625 109.757812 L 272.222656 108.410156 L 273.703125 107.152344 L 275.152344 105.917969 L 276.726562 104.582031 L 278.195312 103.332031 L 278.21875 103.308594 L 278.246094 103.289062 L 278.296875 103.246094 L 278.398438 103.15625 L 278.605469 102.984375 L 279.015625 102.636719 L 279.039062 102.613281 L 279.066406 102.589844 L 279.21875 102.460938 L 279.425781 102.285156 L 279.449219 102.265625 L 279.476562 102.242188 L 279.628906 102.113281 L 279.65625 102.089844 L 279.679688 102.070312 L 279.730469 102.023438 L 279.757812 102.003906 L 279.78125 101.980469 L 279.808594 101.960938 L 279.832031 101.9375 "/>
<path style="fill:none;stroke-width:1.698649;stroke-linecap:square;stroke-linejoin:miter;stroke:rgb(0%,0%,0%);stroke-opacity:0.7;stroke-miterlimit:3.25;" d="M 205.226562 165.371094 L 205.257812 163.21875 L 205.285156 162.320312 L 205.316406 161.632812 L 205.347656 161.050781 L 205.378906 160.539062 L 205.40625 160.078125 L 205.46875 159.253906 L 205.5 158.882812 L 205.527344 158.53125 L 205.589844 157.875 L 205.710938 156.714844 L 205.742188 156.449219 L 205.769531 156.1875 L 205.832031 155.691406 L 205.953125 154.765625 L 206.195312 153.121094 L 206.222656 152.929688 L 206.316406 152.378906 L 206.4375 151.675781 L 206.679688 150.363281 L 207.160156 148.039062 L 207.195312 147.894531 L 207.226562 147.75 L 207.292969 147.460938 L 207.425781 146.902344 L 207.6875 145.832031 L 208.210938 143.847656 L 208.242188 143.726562 L 208.277344 143.609375 L 208.339844 143.378906 L 208.472656 142.917969 L 208.734375 142.03125 L 209.257812 140.34375 L 209.382812 139.96875 L 209.503906 139.59375 L 209.75 138.867188 L 210.238281 137.46875 L 211.21875 134.863281 L 213.140625 130.308594 L 215.222656 125.960938 L 217.167969 122.296875 L 219.273438 118.648438 L 221.34375 115.328125 L 223.273438 112.414062 L 225.363281 109.425781 L 227.316406 106.777344 L 229.230469 104.289062 L 231.308594 101.699219 L 233.25 99.375 L 235.351562 96.945312 L 237.414062 94.640625 L 239.335938 92.554688 L 241.421875 90.359375 L 243.371094 88.367188 L 245.480469 86.265625 L 247.554688 84.253906 L 249.488281 82.425781 L 251.582031 80.480469 L 253.539062 78.707031 L 255.457031 77.003906 L 257.539062 75.191406 L 259.480469 73.535156 L 261.585938 71.769531 L 263.652344 70.066406 L 265.578125 68.507812 L 267.667969 66.84375 L 269.621094 65.316406 L 271.535156 63.839844 L 273.609375 62.265625 L 275.546875 60.816406 L 277.644531 59.265625 L 279.605469 57.839844 L 281.527344 56.457031 L 283.609375 54.980469 L 285.558594 53.617188 L 287.664062 52.160156 L 289.734375 50.75 L 291.664062 49.445312 L 293.757812 48.050781 L 295.714844 46.761719 L 297.628906 45.511719 L 299.710938 44.171875 L 301.648438 42.933594 L 301.683594 42.910156 L 301.71875 42.890625 L 301.785156 42.847656 L 301.921875 42.761719 L 302.730469 42.246094 L 302.765625 42.226562 L 302.800781 42.203125 L 302.867188 42.164062 L 303.003906 42.078125 L 303.273438 41.90625 L 303.308594 41.886719 L 303.339844 41.863281 L 303.410156 41.820312 L 303.542969 41.734375 L 303.613281 41.695312 L 303.679688 41.652344 L 303.714844 41.628906 L 303.746094 41.609375 L 303.78125 41.585938 L 303.816406 41.566406 "/>
<path style="fill:none;stroke-width:1.698649;stroke-linecap:square;stroke-linejoin:miter;stroke:rgb(0%,0%,0%);stroke-opacity:0.7;stroke-miterlimit:3.25;" d="M 103.972656 43.375 L 104.097656 43.671875 L 104.222656 43.972656 L 104.46875 44.566406 L 104.96875 45.757812 L 105.960938 48.117188 L 108.117188 53.152344 L 110.128906 57.753906 L 112.101562 62.171875 L 114.238281 66.859375 L 116.238281 71.136719 L 118.398438 75.667969 L 120.523438 80.003906 L 122.507812 83.953125 L 124.65625 88.128906 L 126.660156 91.925781 L 128.628906 95.558594 L 130.761719 99.394531 L 132.753906 102.878906 L 134.910156 106.542969 L 137.03125 110.039062 L 139.003906 113.199219 L 141.148438 116.523438 L 143.148438 119.523438 L 145.316406 122.671875 L 147.445312 125.652344 L 149.429688 128.335938 L 151.582031 131.140625 L 153.59375 133.65625 L 155.5625 136.03125 L 157.699219 138.503906 L 159.695312 140.714844 L 161.855469 143 L 163.976562 145.140625 L 165.957031 147.035156 L 168.105469 148.988281 L 170.109375 150.710938 L 172.074219 152.308594 L 174.203125 153.933594 L 176.191406 155.355469 L 178.347656 156.789062 L 180.363281 158.03125 L 182.335938 159.152344 L 184.476562 160.265625 L 186.476562 161.203125 L 188.640625 162.113281 L 190.765625 162.898438 L 192.75 163.535156 L 192.78125 163.546875 L 192.816406 163.554688 L 192.882812 163.574219 L 193.019531 163.613281 L 193.285156 163.691406 L 193.824219 163.839844 L 194.898438 164.121094 L 194.929688 164.128906 L 194.960938 164.132812 L 195.023438 164.148438 L 195.152344 164.179688 L 195.902344 164.355469 L 195.933594 164.359375 L 196.027344 164.382812 L 196.152344 164.410156 L 196.40625 164.460938 L 196.90625 164.566406 L 196.9375 164.570312 L 196.96875 164.578125 L 197.03125 164.589844 L 197.152344 164.613281 L 197.398438 164.660156 L 197.890625 164.75 L 197.953125 164.757812 L 198.015625 164.769531 L 198.136719 164.789062 L 198.382812 164.832031 L 198.875 164.910156 L 198.910156 164.914062 L 198.941406 164.917969 L 199.007812 164.929688 L 199.140625 164.949219 L 199.410156 164.984375 L 199.941406 165.054688 L 199.976562 165.058594 L 200.007812 165.066406 L 200.074219 165.074219 L 200.210938 165.089844 L 200.476562 165.121094 L 201.011719 165.175781 L 201.074219 165.183594 L 201.132812 165.1875 L 201.257812 165.203125 L 201.507812 165.222656 L 201.570312 165.230469 L 201.632812 165.234375 L 201.757812 165.246094 L 202.007812 165.265625 L 202.039062 165.265625 L 202.070312 165.269531 L 202.128906 165.273438 L 202.253906 165.285156 L 202.503906 165.300781 L 202.535156 165.300781 L 202.566406 165.304688 L 202.753906 165.316406 L 203.003906 165.328125 L 203.039062 165.332031 L 203.070312 165.332031 L 203.28125 165.34375 L 203.316406 165.34375 L 203.351562 165.347656 L 203.417969 165.351562 L 203.558594 165.355469 L 203.59375 165.355469 L 203.628906 165.359375 L 203.699219 165.359375 L 203.835938 165.367188 L 203.90625 165.367188 L 203.976562 165.371094 L 204.113281 165.375 L 204.183594 165.375 L 204.253906 165.378906 L 204.390625 165.378906 L 204.425781 165.382812 L 204.601562 165.382812 L 204.671875 165.386719 L 205.226562 165.386719 "/>
<g clip-path="url(#clip3)" clip-rule="nonzero">
<path style="fill:none;stroke-width:1.698649;stroke-linecap:butt;stroke-linejoin:miter;stroke:rgb(90.000763%,36.00061%,5.400168%);stroke-opacity:1;stroke-miterlimit:3.25;" d="M 72 55.683594 L 74.664062 55.710938 L 77.328125 55.785156 L 79.992188 55.910156 L 82.65625 56.085938 L 85.320312 56.3125 L 87.988281 56.59375 L 90.652344 56.921875 L 93.316406 57.300781 L 95.980469 57.730469 L 98.644531 58.214844 L 101.308594 58.75 L 103.972656 59.339844 L 106.636719 59.980469 L 109.304688 60.675781 L 111.96875 61.425781 L 114.632812 62.230469 L 117.296875 63.089844 L 119.960938 64.007812 L 122.625 64.980469 L 125.289062 66.015625 L 127.953125 67.109375 L 130.621094 68.265625 L 133.285156 69.480469 L 135.949219 70.765625 L 138.613281 72.113281 L 141.277344 73.527344 L 143.941406 75.015625 L 146.605469 76.578125 L 149.269531 78.214844 L 151.9375 79.929688 L 154.601562 81.730469 L 157.265625 83.617188 L 159.929688 85.59375 L 162.59375 87.671875 L 165.257812 89.855469 L 167.921875 92.152344 L 170.585938 94.570312 L 173.253906 97.121094 L 175.917969 99.816406 L 178.582031 102.679688 L 181.246094 105.726562 L 183.910156 108.988281 L 186.574219 112.496094 L 189.238281 116.304688 L 191.902344 120.488281 L 194.566406 125.148438 L 197.234375 130.480469 L 199.898438 136.847656 L 202.5625 145.183594 L 205.226562 165.386719 L 207.890625 145.183594 L 210.554688 136.847656 L 213.21875 130.480469 L 215.882812 125.148438 L 218.550781 120.488281 L 221.214844 116.304688 L 223.878906 112.496094 L 226.542969 108.988281 L 229.207031 105.726562 L 231.871094 102.679688 L 234.535156 99.816406 L 237.199219 97.121094 L 239.867188 94.570312 L 242.53125 92.152344 L 245.195312 89.855469 L 247.859375 87.671875 L 250.523438 85.59375 L 253.1875 83.617188 L 255.851562 81.730469 L 258.515625 79.929688 L 261.183594 78.214844 L 263.847656 76.578125 L 266.511719 75.015625 L 269.175781 73.527344 L 271.839844 72.113281 L 274.503906 70.765625 L 277.167969 69.480469 L 279.832031 68.265625 L 282.5 67.109375 L 285.164062 66.015625 L 287.828125 64.980469 L 290.492188 64.007812 L 293.15625 63.089844 L 295.820312 62.230469 L 298.484375 61.425781 L 301.148438 60.675781 L 303.816406 59.980469 L 306.480469 59.339844 L 309.144531 58.75 L 311.808594 58.214844 L 314.472656 57.730469 L 317.136719 57.300781 L 319.800781 56.921875 L 322.464844 56.59375 L 325.132812 56.3125 L 327.796875 56.085938 L 330.460938 55.910156 L 333.125 55.785156 L 335.789062 55.710938 L 338.453125 55.683594 "/>
</g>
<g clip-path="url(#clip4)" clip-rule="nonzero">
<path style="fill:none;stroke-width:1.698649;stroke-linecap:butt;stroke-linejoin:miter;stroke:rgb(36.525521%,42.780194%,75.829709%);stroke-opacity:1;stroke-miterlimit:3.25;" d="M 72 104.539062 L 74.664062 104.5625 L 77.328125 104.636719 L 79.992188 104.765625 L 82.65625 104.941406 L 85.320312 105.164062 L 87.988281 105.441406 L 90.652344 105.765625 L 93.316406 106.144531 L 95.980469 106.570312 L 98.644531 107.042969 L 101.308594 107.570312 L 103.972656 108.144531 L 106.636719 108.769531 L 109.304688 109.441406 L 111.96875 110.164062 L 114.632812 110.9375 L 117.296875 111.757812 L 119.960938 112.628906 L 122.625 113.546875 L 125.289062 114.515625 L 127.953125 115.53125 L 130.621094 116.597656 L 133.285156 117.707031 L 135.949219 118.867188 L 138.613281 120.078125 L 141.277344 121.332031 L 143.941406 122.636719 L 146.605469 123.984375 L 149.269531 125.382812 L 151.9375 126.828125 L 154.601562 128.320312 L 157.265625 129.859375 L 159.929688 131.441406 L 162.59375 133.074219 L 165.257812 134.75 L 167.921875 136.476562 L 170.585938 138.246094 L 173.253906 140.058594 L 175.917969 141.921875 L 178.582031 143.828125 L 181.246094 145.78125 L 183.910156 147.777344 L 186.574219 149.820312 L 189.238281 151.910156 L 191.902344 154.042969 L 194.566406 156.222656 L 197.234375 158.445312 L 199.898438 160.714844 L 202.5625 163.03125 L 205.226562 165.386719 L 207.890625 163.03125 L 210.554688 160.714844 L 213.21875 158.445312 L 215.882812 156.222656 L 218.550781 154.042969 L 221.214844 151.910156 L 223.878906 149.820312 L 226.542969 147.777344 L 229.207031 145.78125 L 231.871094 143.828125 L 234.535156 141.921875 L 237.199219 140.058594 L 239.867188 138.246094 L 242.53125 136.476562 L 245.195312 134.75 L 247.859375 133.074219 L 250.523438 131.441406 L 253.1875 129.859375 L 255.851562 128.320312 L 258.515625 126.828125 L 261.183594 125.382812 L 263.847656 123.984375 L 266.511719 122.636719 L 269.175781 121.332031 L 271.839844 120.078125 L 274.503906 118.867188 L 277.167969 117.707031 L 279.832031 116.597656 L 282.5 115.53125 L 285.164062 114.515625 L 287.828125 113.546875 L 290.492188 112.628906 L 293.15625 111.757812 L 295.820312 110.9375 L 298.484375 110.164062 L 301.148438 109.441406 L 303.816406 108.769531 L 306.480469 108.144531 L 309.144531 107.570312 L 311.808594 107.042969 L 314.472656 106.570312 L 317.136719 106.144531 L 319.800781 105.765625 L 322.464844 105.441406 L 325.132812 105.164062 L 327.796875 104.941406 L 330.460938 104.765625 L 333.125 104.636719 L 335.789062 104.5625 L 338.453125 104.539062 "/>
</g>
<g clip-path="url(#clip5)" clip-rule="nonzero">
<path style="fill:none;stroke-width:1.698649;stroke-linecap:butt;stroke-linejoin:miter;stroke:rgb(94.51133%,59.389639%,0%);stroke-opacity:1;stroke-miterlimit:3.25;" d="M 72 129.609375 L 74.664062 129.632812 L 77.328125 129.703125 L 79.992188 129.824219 L 82.65625 129.992188 L 85.320312 130.207031 L 87.988281 130.464844 L 90.652344 130.773438 L 93.316406 131.125 L 95.980469 131.527344 L 98.644531 131.96875 L 101.308594 132.457031 L 103.972656 132.988281 L 106.636719 133.558594 L 109.304688 134.171875 L 111.96875 134.828125 L 114.632812 135.519531 L 117.296875 136.25 L 119.960938 137.015625 L 122.625 137.816406 L 125.289062 138.652344 L 127.953125 139.519531 L 130.621094 140.417969 L 133.285156 141.339844 L 135.949219 142.292969 L 138.613281 143.269531 L 141.277344 144.265625 L 143.941406 145.28125 L 146.605469 146.316406 L 149.269531 147.367188 L 151.9375 148.425781 L 154.601562 149.496094 L 162.59375 152.730469 L 165.257812 153.804688 L 167.921875 154.867188 L 170.585938 155.921875 L 173.253906 156.957031 L 175.917969 157.96875 L 178.582031 158.957031 L 181.246094 159.90625 L 183.910156 160.820312 L 186.574219 161.683594 L 189.238281 162.488281 L 191.902344 163.230469 L 194.566406 163.894531 L 197.234375 164.464844 L 199.898438 164.925781 L 202.5625 165.25 L 205.226562 165.386719 L 207.890625 165.25 L 210.554688 164.925781 L 213.21875 164.464844 L 215.882812 163.894531 L 218.550781 163.230469 L 221.214844 162.488281 L 223.878906 161.683594 L 226.542969 160.820312 L 229.207031 159.90625 L 231.871094 158.957031 L 234.535156 157.96875 L 237.199219 156.957031 L 239.867188 155.921875 L 242.53125 154.867188 L 245.195312 153.804688 L 247.859375 152.730469 L 255.851562 149.496094 L 258.515625 148.425781 L 261.183594 147.367188 L 263.847656 146.316406 L 266.511719 145.28125 L 269.175781 144.265625 L 271.839844 143.269531 L 274.503906 142.292969 L 277.167969 141.339844 L 279.832031 140.417969 L 282.5 139.519531 L 285.164062 138.652344 L 287.828125 137.816406 L 290.492188 137.015625 L 293.15625 136.25 L 295.820312 135.519531 L 298.484375 134.828125 L 301.148438 134.171875 L 303.816406 133.558594 L 306.480469 132.988281 L 309.144531 132.457031 L 311.808594 131.96875 L 314.472656 131.527344 L 317.136719 131.125 L 319.800781 130.773438 L 322.464844 130.464844 L 325.132812 130.207031 L 327.796875 129.992188 L 330.460938 129.824219 L 333.125 129.703125 L 335.789062 129.632812 L 338.453125 129.609375 "/>
</g>
<g clip-path="url(#clip6)" clip-rule="nonzero">
<path style="fill:none;stroke-width:1.949458;stroke-linecap:butt;stroke-linejoin:miter;stroke:rgb(90.000763%,36.00061%,5.400168%);stroke-opacity:1;stroke-miterlimit:3.25;" d="M 165.203125 23.644531 L 183.25 23.644531 "/>
</g>
<path style=" stroke:none;fill-rule:evenodd;fill:rgb(0%,0%,0%);fill-opacity:1;" d="M 200.417969 19.953125 C 200.417969 19.667969 200.183594 19.507812 199.949219 19.507812 C 199.433594 19.507812 199.308594 19.988281 199.273438 20.113281 C 198.214844 23.851562 195.769531 26.070312 193.390625 26.855469 L 195.160156 19.6875 C 195.160156 19.613281 195.105469 19.507812 194.964844 19.507812 C 194.839844 19.507812 193.15625 19.667969 192.890625 19.6875 C 192.691406 19.703125 192.515625 19.722656 192.515625 20.042969 C 192.515625 20.222656 192.65625 20.222656 192.90625 20.222656 C 193.75 20.222656 193.800781 20.347656 193.800781 20.542969 C 193.800781 20.617188 193.765625 20.828125 193.75 20.902344 L 192.175781 27.214844 C 192.175781 27.285156 192.226562 27.390625 192.351562 27.390625 L 192.726562 27.390625 C 192.976562 27.390625 195.695312 26.75 197.789062 24.601562 C 200.09375 22.226562 200.417969 20.027344 200.417969 19.953125 Z M 200.417969 19.953125 "/>
<path style=" stroke:none;fill-rule:evenodd;fill:rgb(0%,0%,0%);fill-opacity:1;" d="M 218.058594 21.347656 C 218.058594 21.027344 217.753906 21.027344 217.449219 21.027344 L 207.457031 21.027344 C 207.152344 21.027344 206.847656 21.027344 206.847656 21.347656 C 206.847656 21.652344 207.117188 21.652344 207.386719 21.652344 L 217.523438 21.652344 C 217.789062 21.652344 218.058594 21.652344 218.058594 21.347656 Z M 218.058594 24.515625 C 218.058594 24.210938 217.789062 24.210938 217.523438 24.210938 L 207.386719 24.210938 C 207.117188 24.210938 206.847656 24.210938 206.847656 24.515625 C 206.847656 24.835938 207.152344 24.835938 207.457031 24.835938 L 217.449219 24.835938 C 217.753906 24.835938 218.058594 24.835938 218.058594 24.515625 Z M 218.058594 24.515625 "/>
<path style=" stroke:none;fill-rule:evenodd;fill:rgb(0%,0%,0%);fill-opacity:1;" d="M 231.523438 24.296875 C 231.523438 22.5625 230.09375 21.3125 228.394531 21.117188 C 229.753906 20.828125 231.058594 19.613281 231.058594 17.988281 C 231.058594 16.59375 229.644531 15.574219 228.035156 15.574219 C 226.410156 15.574219 224.980469 16.574219 224.980469 18.003906 C 224.980469 18.632812 225.445312 18.738281 225.675781 18.738281 C 226.054688 18.738281 226.375 18.507812 226.375 18.042969 C 226.375 17.574219 226.054688 17.34375 225.675781 17.34375 C 225.605469 17.34375 225.515625 17.34375 225.445312 17.378906 C 225.964844 16.199219 227.375 15.984375 228 15.984375 C 228.628906 15.984375 229.808594 16.289062 229.808594 18.003906 C 229.808594 18.507812 229.734375 19.402344 229.128906 20.1875 C 228.589844 20.886719 227.984375 20.917969 227.394531 20.972656 C 227.304688 20.972656 226.894531 21.007812 226.820312 21.007812 C 226.695312 21.027344 226.625 21.046875 226.625 21.171875 C 226.625 21.296875 226.640625 21.3125 227 21.3125 L 227.875 21.3125 C 229.46875 21.3125 230.164062 22.6875 230.164062 24.28125 C 230.164062 26.425781 229.019531 27.25 227.984375 27.25 C 227.035156 27.25 225.5 26.785156 225.015625 25.40625 C 225.105469 25.445312 225.195312 25.445312 225.285156 25.445312 C 225.710938 25.445312 226.035156 25.15625 226.035156 24.691406 C 226.035156 24.171875 225.640625 23.941406 225.285156 23.941406 C 224.980469 23.941406 224.515625 24.085938 224.515625 24.746094 C 224.515625 26.390625 226.125 27.679688 228.019531 27.679688 C 230.003906 27.679688 231.523438 26.125 231.523438 24.296875 Z M 231.523438 24.296875 "/>
<path style=" stroke:none;fill-rule:evenodd;fill:rgb(0%,0%,0%);fill-opacity:1;" d="M 235.414062 26.535156 C 235.414062 26.015625 234.984375 25.65625 234.554688 25.65625 C 234.035156 25.65625 233.679688 26.085938 233.679688 26.515625 C 233.679688 27.035156 234.109375 27.390625 234.539062 27.390625 C 235.058594 27.390625 235.414062 26.960938 235.414062 26.535156 Z M 235.414062 26.535156 "/>
<path style=" stroke:none;fill-rule:evenodd;fill:rgb(0%,0%,0%);fill-opacity:1;" d="M 244.480469 23.78125 C 244.480469 21.632812 243.085938 19.972656 241.351562 19.972656 C 240.441406 19.972656 239.671875 20.3125 239.0625 20.953125 L 239.0625 16.933594 C 239.242188 17.003906 239.972656 17.238281 240.726562 17.238281 C 242.386719 17.238281 243.300781 16.34375 243.820312 15.824219 C 243.820312 15.679688 243.820312 15.589844 243.710938 15.589844 C 243.710938 15.589844 243.660156 15.589844 243.515625 15.664062 C 242.890625 15.933594 242.15625 16.144531 241.261719 16.144531 C 240.726562 16.144531 239.921875 16.074219 239.042969 15.679688 C 238.847656 15.589844 238.792969 15.589844 238.792969 15.589844 C 238.707031 15.589844 238.6875 15.609375 238.6875 15.96875 L 238.6875 21.152344 C 238.6875 21.472656 238.6875 21.5625 238.867188 21.5625 C 238.957031 21.5625 238.992188 21.527344 239.082031 21.402344 C 239.652344 20.597656 240.441406 20.257812 241.332031 20.257812 C 241.957031 20.257812 243.300781 20.652344 243.300781 23.710938 C 243.300781 24.28125 243.300781 25.320312 242.761719 26.140625 C 242.316406 26.875 241.621094 27.25 240.851562 27.25 C 239.671875 27.25 238.472656 26.425781 238.152344 25.050781 C 238.222656 25.066406 238.363281 25.101562 238.4375 25.101562 C 238.667969 25.101562 239.117188 24.976562 239.117188 24.421875 C 239.117188 23.941406 238.777344 23.742188 238.4375 23.742188 C 238.027344 23.742188 237.757812 23.996094 237.757812 24.496094 C 237.757812 26.050781 238.992188 27.679688 240.886719 27.679688 C 242.730469 27.679688 244.480469 26.085938 244.480469 23.78125 Z M 244.480469 23.78125 "/>
<g clip-path="url(#clip7)" clip-rule="nonzero">
<path style="fill:none;stroke-width:1.949458;stroke-linecap:butt;stroke-linejoin:miter;stroke:rgb(36.525521%,42.780194%,75.829709%);stroke-opacity:1;stroke-miterlimit:3.25;" d="M 165.203125 56.753906 L 183.25 56.753906 "/>
</g>
<path style=" stroke:none;fill-rule:evenodd;fill:rgb(0%,0%,0%);fill-opacity:1;" d="M 200.414062 53.066406 C 200.414062 52.78125 200.183594 52.617188 199.949219 52.617188 C 199.433594 52.617188 199.308594 53.101562 199.273438 53.226562 C 198.214844 56.964844 195.769531 59.179688 193.390625 59.96875 L 195.160156 52.796875 C 195.160156 52.726562 195.105469 52.617188 194.964844 52.617188 C 194.839844 52.617188 193.15625 52.78125 192.890625 52.796875 C 192.691406 52.816406 192.515625 52.835938 192.515625 53.15625 C 192.515625 53.335938 192.65625 53.335938 192.90625 53.335938 C 193.746094 53.335938 193.800781 53.460938 193.800781 53.65625 C 193.800781 53.726562 193.765625 53.941406 193.746094 54.015625 L 192.175781 60.324219 C 192.175781 60.394531 192.226562 60.503906 192.351562 60.503906 L 192.726562 60.503906 C 192.976562 60.503906 195.695312 59.859375 197.789062 57.714844 C 200.09375 55.335938 200.414062 53.136719 200.414062 53.066406 Z M 200.414062 53.066406 "/>
<path style=" stroke:none;fill-rule:evenodd;fill:rgb(0%,0%,0%);fill-opacity:1;" d="M 218.058594 54.460938 C 218.058594 54.140625 217.753906 54.140625 217.449219 54.140625 L 207.453125 54.140625 C 207.152344 54.140625 206.847656 54.140625 206.847656 54.460938 C 206.847656 54.765625 207.117188 54.765625 207.382812 54.765625 L 217.519531 54.765625 C 217.789062 54.765625 218.058594 54.765625 218.058594 54.460938 Z M 218.058594 57.625 C 218.058594 57.320312 217.789062 57.320312 217.519531 57.320312 L 207.382812 57.320312 C 207.117188 57.320312 206.847656 57.320312 206.847656 57.625 C 206.847656 57.949219 207.152344 57.949219 207.453125 57.949219 L 217.449219 57.949219 C 217.753906 57.949219 218.058594 57.949219 218.058594 57.625 Z M 218.058594 57.625 "/>
<path style=" stroke:none;fill-rule:evenodd;fill:rgb(0%,0%,0%);fill-opacity:1;" d="M 231.753906 57.464844 L 231.753906 57 L 229.929688 57 L 229.929688 48.9375 C 229.929688 48.5625 229.914062 48.542969 229.589844 48.542969 L 224.28125 57 L 224.28125 57.464844 L 228.894531 57.464844 L 228.894531 59.214844 C 228.894531 59.859375 228.855469 60.039062 227.605469 60.039062 L 227.265625 60.039062 L 227.265625 60.503906 C 227.839844 60.46875 228.804688 60.46875 229.410156 60.46875 C 230.019531 60.46875 230.984375 60.46875 231.554688 60.503906 L 231.554688 60.039062 L 231.21875 60.039062 C 229.964844 60.039062 229.929688 59.859375 229.929688 59.214844 L 229.929688 57.464844 Z M 228.949219 57 L 224.636719 57 L 228.949219 50.117188 Z M 228.949219 57 "/>
<g clip-path="url(#clip8)" clip-rule="nonzero">
<path style="fill:none;stroke-width:1.949458;stroke-linecap:butt;stroke-linejoin:miter;stroke:rgb(94.51133%,59.389639%,0%);stroke-opacity:1;stroke-miterlimit:3.25;" d="M 165.203125 89.867188 L 183.25 89.867188 "/>
</g>
<path style=" stroke:none;fill-rule:evenodd;fill:rgb(0%,0%,0%);fill-opacity:1;" d="M 200.414062 86.175781 C 200.414062 85.890625 200.183594 85.730469 199.949219 85.730469 C 199.433594 85.730469 199.308594 86.214844 199.273438 86.339844 C 198.214844 90.074219 195.769531 92.292969 193.390625 93.078125 L 195.160156 85.910156 C 195.160156 85.839844 195.105469 85.730469 194.964844 85.730469 C 194.839844 85.730469 193.15625 85.890625 192.890625 85.910156 C 192.691406 85.925781 192.515625 85.945312 192.515625 86.269531 C 192.515625 86.445312 192.65625 86.445312 192.90625 86.445312 C 193.746094 86.445312 193.800781 86.570312 193.800781 86.769531 C 193.800781 86.839844 193.765625 87.054688 193.746094 87.125 L 192.175781 93.4375 C 192.175781 93.507812 192.226562 93.617188 192.351562 93.617188 L 192.726562 93.617188 C 192.976562 93.617188 195.695312 92.972656 197.789062 90.828125 C 200.09375 88.449219 200.414062 86.25 200.414062 86.175781 Z M 200.414062 86.175781 "/>
<path style=" stroke:none;fill-rule:evenodd;fill:rgb(0%,0%,0%);fill-opacity:1;" d="M 218.058594 87.574219 C 218.058594 87.25 217.753906 87.25 217.449219 87.25 L 207.453125 87.25 C 207.152344 87.25 206.847656 87.25 206.847656 87.574219 C 206.847656 87.878906 207.117188 87.878906 207.382812 87.878906 L 217.519531 87.878906 C 217.789062 87.878906 218.058594 87.878906 218.058594 87.574219 Z M 218.058594 90.738281 C 218.058594 90.433594 217.789062 90.433594 217.519531 90.433594 L 207.382812 90.433594 C 207.117188 90.433594 206.847656 90.433594 206.847656 90.738281 C 206.847656 91.058594 207.152344 91.058594 207.453125 91.058594 L 217.449219 91.058594 C 217.753906 91.058594 218.058594 91.058594 218.058594 90.738281 Z M 218.058594 90.738281 "/>
<path style=" stroke:none;fill-rule:evenodd;fill:rgb(0%,0%,0%);fill-opacity:1;" d="M 231.378906 90.003906 C 231.378906 87.859375 229.984375 86.195312 228.25 86.195312 C 227.339844 86.195312 226.570312 86.535156 225.960938 87.179688 L 225.960938 83.15625 C 226.140625 83.226562 226.871094 83.460938 227.625 83.460938 C 229.285156 83.460938 230.199219 82.566406 230.71875 82.046875 C 230.71875 81.90625 230.71875 81.816406 230.609375 81.816406 C 230.609375 81.816406 230.554688 81.816406 230.414062 81.886719 C 229.789062 82.15625 229.054688 82.371094 228.160156 82.371094 C 227.625 82.371094 226.820312 82.296875 225.941406 81.90625 C 225.746094 81.816406 225.691406 81.816406 225.691406 81.816406 C 225.605469 81.816406 225.585938 81.835938 225.585938 82.191406 L 225.585938 87.375 C 225.585938 87.699219 225.585938 87.785156 225.765625 87.785156 C 225.855469 87.785156 225.890625 87.75 225.980469 87.625 C 226.550781 86.820312 227.339844 86.480469 228.230469 86.480469 C 228.855469 86.480469 230.199219 86.875 230.199219 89.933594 C 230.199219 90.503906 230.199219 91.542969 229.660156 92.363281 C 229.214844 93.097656 228.519531 93.472656 227.75 93.472656 C 226.570312 93.472656 225.371094 92.648438 225.050781 91.273438 C 225.121094 91.289062 225.261719 91.328125 225.335938 91.328125 C 225.566406 91.328125 226.015625 91.203125 226.015625 90.648438 C 226.015625 90.164062 225.675781 89.96875 225.335938 89.96875 C 224.925781 89.96875 224.65625 90.21875 224.65625 90.71875 C 224.65625 92.273438 225.890625 93.902344 227.785156 93.902344 C 229.625 93.902344 231.378906 92.3125 231.378906 90.003906 Z M 231.378906 90.003906 "/>
<path style="fill:none;stroke-width:0.5;stroke-linecap:square;stroke-linejoin:miter;stroke:rgb(40%,40%,40%);stroke-opacity:1;stroke-miterlimit:3.25;" d="M 346.78125 177.976562 L 63.671875 177.976562 "/>
<path style="fill:none;stroke-width:0.5;stroke-linecap:square;stroke-linejoin:miter;stroke:rgb(40%,40%,40%);stroke-opacity:1;stroke-miterlimit:3.25;" d="M 63.671875 177.976562 L 63.671875 3.007812 "/>
<path style="fill:none;stroke-width:0.5;stroke-linecap:square;stroke-linejoin:miter;stroke:rgb(40%,40%,40%);stroke-opacity:1;stroke-miterlimit:3.25;" d="M 63.671875 3.007812 L 346.78125 3.007812 "/>
<path style="fill:none;stroke-width:0.5;stroke-linecap:square;stroke-linejoin:miter;stroke:rgb(40%,40%,40%);stroke-opacity:1;stroke-miterlimit:3.25;" d="M 346.78125 3.007812 L 346.78125 177.976562 "/>
<path style="fill:none;stroke-width:0.5;stroke-linecap:butt;stroke-linejoin:miter;stroke:rgb(40%,40%,40%);stroke-opacity:1;stroke-miterlimit:3.25;" d="M 98.644531 177.976562 L 98.644531 174.640625 "/>
<path style=" stroke:none;fill-rule:evenodd;fill:rgb(0%,0%,0%);fill-opacity:1;" d="M 93.417969 192.515625 C 93.417969 192.160156 93.078125 192.160156 92.828125 192.160156 L 83.085938 192.160156 C 82.835938 192.160156 82.496094 192.160156 82.496094 192.515625 C 82.496094 192.875 82.835938 192.875 83.085938 192.875 L 92.828125 192.875 C 93.078125 192.875 93.417969 192.875 93.417969 192.515625 Z M 93.417969 192.515625 "/>
<path style=" stroke:none;fill-rule:evenodd;fill:rgb(0%,0%,0%);fill-opacity:1;" d="M 102.417969 191.246094 C 102.417969 190.15625 102.402344 188.296875 101.648438 186.867188 C 100.988281 185.617188 99.933594 185.167969 99.003906 185.167969 C 98.144531 185.167969 97.054688 185.5625 96.375 186.847656 C 95.660156 188.191406 95.589844 189.851562 95.589844 191.246094 C 95.589844 192.265625 95.605469 193.820312 96.160156 195.179688 C 96.929688 197.023438 98.304688 197.273438 99.003906 197.273438 C 99.828125 197.273438 101.078125 196.933594 101.8125 195.234375 C 102.347656 194 102.417969 192.550781 102.417969 191.246094 Z M 101.273438 191.050781 C 101.273438 192.214844 101.273438 193.644531 101.0625 194.699219 C 100.683594 196.648438 99.628906 196.988281 99.003906 196.988281 C 97.859375 196.988281 97.179688 196.003906 96.929688 194.644531 C 96.734375 193.589844 96.734375 192.050781 96.734375 191.050781 C 96.734375 189.675781 96.734375 188.53125 96.964844 187.4375 C 97.304688 185.917969 98.304688 185.453125 99.003906 185.453125 C 99.738281 185.453125 100.683594 185.9375 101.023438 187.402344 C 101.257812 188.421875 101.273438 189.621094 101.273438 191.050781 Z M 101.273438 191.050781 "/>
<path style=" stroke:none;fill-rule:evenodd;fill:rgb(0%,0%,0%);fill-opacity:1;" d="M 106.5 196.128906 C 106.5 195.609375 106.070312 195.253906 105.640625 195.253906 C 105.121094 195.253906 104.765625 195.683594 104.765625 196.109375 C 104.765625 196.628906 105.195312 196.988281 105.621094 196.988281 C 106.140625 196.988281 106.5 196.558594 106.5 196.128906 Z M 106.5 196.128906 "/>
<path style=" stroke:none;fill-rule:evenodd;fill:rgb(0%,0%,0%);fill-opacity:1;" d="M 115.839844 193.949219 L 115.839844 193.480469 L 114.015625 193.480469 L 114.015625 185.417969 C 114.015625 185.042969 114 185.023438 113.675781 185.023438 L 108.367188 193.480469 L 108.367188 193.949219 L 112.980469 193.949219 L 112.980469 195.699219 C 112.980469 196.34375 112.941406 196.519531 111.691406 196.519531 L 111.351562 196.519531 L 111.351562 196.988281 C 111.925781 196.949219 112.890625 196.949219 113.496094 196.949219 C 114.105469 196.949219 115.070312 196.949219 115.640625 196.988281 L 115.640625 196.519531 L 115.304688 196.519531 C 114.050781 196.519531 114.015625 196.34375 114.015625 195.699219 L 114.015625 193.949219 Z M 113.035156 193.480469 L 108.722656 193.480469 L 113.035156 186.597656 Z M 113.035156 193.480469 "/>
<path style="fill:none;stroke-width:0.5;stroke-linecap:butt;stroke-linejoin:miter;stroke:rgb(40%,40%,40%);stroke-opacity:1;stroke-miterlimit:3.25;" d="M 151.9375 177.976562 L 151.9375 174.640625 "/>
<path style=" stroke:none;fill-rule:evenodd;fill:rgb(0%,0%,0%);fill-opacity:1;" d="M 146.710938 192.515625 C 146.710938 192.160156 146.371094 192.160156 146.121094 192.160156 L 136.375 192.160156 C 136.125 192.160156 135.785156 192.160156 135.785156 192.515625 C 135.785156 192.875 136.125 192.875 136.375 192.875 L 146.121094 192.875 C 146.371094 192.875 146.710938 192.875 146.710938 192.515625 Z M 146.710938 192.515625 "/>
<path style=" stroke:none;fill-rule:evenodd;fill:rgb(0%,0%,0%);fill-opacity:1;" d="M 155.710938 191.246094 C 155.710938 190.15625 155.691406 188.296875 154.941406 186.867188 C 154.28125 185.617188 153.226562 185.167969 152.296875 185.167969 C 151.4375 185.167969 150.347656 185.5625 149.667969 186.847656 C 148.953125 188.191406 148.878906 189.851562 148.878906 191.246094 C 148.878906 192.265625 148.898438 193.820312 149.453125 195.179688 C 150.222656 197.023438 151.597656 197.273438 152.296875 197.273438 C 153.117188 197.273438 154.367188 196.933594 155.101562 195.234375 C 155.640625 194 155.710938 192.550781 155.710938 191.246094 Z M 154.566406 191.050781 C 154.566406 192.214844 154.566406 193.644531 154.351562 194.699219 C 153.976562 196.648438 152.921875 196.988281 152.296875 196.988281 C 151.152344 196.988281 150.472656 196.003906 150.222656 194.644531 C 150.023438 193.589844 150.023438 192.050781 150.023438 191.050781 C 150.023438 189.675781 150.023438 188.53125 150.257812 187.4375 C 150.597656 185.917969 151.597656 185.453125 152.296875 185.453125 C 153.027344 185.453125 153.976562 185.9375 154.316406 187.402344 C 154.546875 188.421875 154.566406 189.621094 154.566406 191.050781 Z M 154.566406 191.050781 "/>
<path style=" stroke:none;fill-rule:evenodd;fill:rgb(0%,0%,0%);fill-opacity:1;" d="M 159.789062 196.128906 C 159.789062 195.609375 159.359375 195.253906 158.929688 195.253906 C 158.414062 195.253906 158.054688 195.683594 158.054688 196.109375 C 158.054688 196.628906 158.484375 196.988281 158.914062 196.988281 C 159.433594 196.988281 159.789062 196.558594 159.789062 196.128906 Z M 159.789062 196.128906 "/>
<path style=" stroke:none;fill-rule:evenodd;fill:rgb(0%,0%,0%);fill-opacity:1;" d="M 168.753906 194.214844 L 168.433594 194.214844 C 168.253906 195.484375 168.113281 195.699219 168.039062 195.808594 C 167.949219 195.949219 166.664062 195.949219 166.414062 195.949219 L 162.980469 195.949219 L 166.394531 192.515625 C 167.484375 191.480469 168.753906 190.261719 168.753906 188.492188 C 168.753906 186.382812 167.074219 185.167969 165.199219 185.167969 C 163.230469 185.167969 162.03125 186.902344 162.03125 188.511719 C 162.03125 189.210938 162.550781 189.296875 162.765625 189.296875 C 162.945312 189.296875 163.480469 189.191406 163.480469 188.566406 C 163.480469 188.011719 163.015625 187.851562 162.765625 187.851562 C 162.660156 187.851562 162.550781 187.867188 162.480469 187.90625 C 162.820312 186.382812 163.855469 185.632812 164.949219 185.632812 C 166.503906 185.632812 167.519531 186.867188 167.519531 188.492188 C 167.519531 190.050781 166.609375 191.390625 165.589844 192.550781 L 162.03125 196.574219 L 162.03125 196.988281 L 168.324219 196.988281 Z M 168.753906 194.214844 "/>
<path style="fill:none;stroke-width:0.5;stroke-linecap:butt;stroke-linejoin:miter;stroke:rgb(40%,40%,40%);stroke-opacity:1;stroke-miterlimit:3.25;" d="M 205.226562 177.976562 L 205.226562 174.640625 "/>
<path style=" stroke:none;fill-rule:evenodd;fill:rgb(0%,0%,0%);fill-opacity:1;" d="M 208.625 191.246094 C 208.625 190.15625 208.609375 188.296875 207.855469 186.867188 C 207.195312 185.613281 206.140625 185.167969 205.210938 185.167969 C 204.351562 185.167969 203.261719 185.5625 202.582031 186.847656 C 201.867188 188.1875 201.796875 189.851562 201.796875 191.246094 C 201.796875 192.265625 201.8125 193.820312 202.367188 195.175781 C 203.136719 197.019531 204.511719 197.269531 205.210938 197.269531 C 206.035156 197.269531 207.285156 196.929688 208.015625 195.230469 C 208.554688 193.996094 208.625 192.550781 208.625 191.246094 Z M 207.480469 191.050781 C 207.480469 192.210938 207.480469 193.640625 207.265625 194.695312 C 206.890625 196.644531 205.835938 196.984375 205.210938 196.984375 C 204.066406 196.984375 203.386719 196 203.136719 194.640625 C 202.941406 193.585938 202.941406 192.050781 202.941406 191.050781 C 202.941406 189.671875 202.941406 188.527344 203.171875 187.4375 C 203.511719 185.917969 204.511719 185.453125 205.210938 185.453125 C 205.945312 185.453125 206.890625 185.9375 207.230469 187.402344 C 207.460938 188.421875 207.480469 189.617188 207.480469 191.050781 Z M 207.480469 191.050781 "/>
<path style="fill:none;stroke-width:0.5;stroke-linecap:butt;stroke-linejoin:miter;stroke:rgb(40%,40%,40%);stroke-opacity:1;stroke-miterlimit:3.25;" d="M 258.515625 177.976562 L 258.515625 174.640625 "/>
<path style=" stroke:none;fill-rule:evenodd;fill:rgb(0%,0%,0%);fill-opacity:1;" d="M 255.367188 191.25 C 255.367188 190.15625 255.351562 188.296875 254.597656 186.867188 C 253.9375 185.617188 252.882812 185.167969 251.953125 185.167969 C 251.09375 185.167969 250.003906 185.5625 249.324219 186.847656 C 248.609375 188.191406 248.539062 189.851562 248.539062 191.25 C 248.539062 192.265625 248.554688 193.820312 249.109375 195.179688 C 249.878906 197.023438 251.253906 197.273438 251.953125 197.273438 C 252.773438 197.273438 254.027344 196.933594 254.757812 195.234375 C 255.296875 194 255.367188 192.554688 255.367188 191.25 Z M 254.222656 191.050781 C 254.222656 192.214844 254.222656 193.644531 254.007812 194.699219 C 253.632812 196.648438 252.578125 196.988281 251.953125 196.988281 C 250.808594 196.988281 250.128906 196.003906 249.878906 194.644531 C 249.679688 193.589844 249.679688 192.054688 249.679688 191.050781 C 249.679688 189.675781 249.679688 188.53125 249.914062 187.4375 C 250.253906 185.917969 251.253906 185.453125 251.953125 185.453125 C 252.6875 185.453125 253.632812 185.9375 253.972656 187.402344 C 254.203125 188.421875 254.222656 189.621094 254.222656 191.050781 Z M 254.222656 191.050781 "/>
<path style=" stroke:none;fill-rule:evenodd;fill:rgb(0%,0%,0%);fill-opacity:1;" d="M 259.347656 196.128906 C 259.347656 195.609375 258.917969 195.253906 258.488281 195.253906 C 257.96875 195.253906 257.613281 195.683594 257.613281 196.109375 C 257.613281 196.628906 258.042969 196.988281 258.472656 196.988281 C 258.992188 196.988281 259.347656 196.558594 259.347656 196.128906 Z M 259.347656 196.128906 "/>
<path style=" stroke:none;fill-rule:evenodd;fill:rgb(0%,0%,0%);fill-opacity:1;" d="M 268.414062 194.214844 L 268.089844 194.214844 C 267.914062 195.484375 267.769531 195.699219 267.699219 195.808594 C 267.609375 195.949219 266.320312 195.949219 266.070312 195.949219 L 262.636719 195.949219 L 266.050781 192.515625 C 267.144531 191.480469 268.414062 190.265625 268.414062 188.492188 C 268.414062 186.382812 266.730469 185.167969 264.855469 185.167969 C 262.886719 185.167969 261.691406 186.902344 261.691406 188.511719 C 261.691406 189.210938 262.207031 189.296875 262.421875 189.296875 C 262.601562 189.296875 263.136719 189.191406 263.136719 188.566406 C 263.136719 188.011719 262.675781 187.851562 262.421875 187.851562 C 262.316406 187.851562 262.207031 187.867188 262.136719 187.90625 C 262.476562 186.382812 263.511719 185.632812 264.605469 185.632812 C 266.160156 185.632812 267.179688 186.867188 267.179688 188.492188 C 267.179688 190.050781 266.269531 191.390625 265.246094 192.554688 L 261.691406 196.574219 L 261.691406 196.988281 L 267.984375 196.988281 Z M 268.414062 194.214844 "/>
<path style="fill:none;stroke-width:0.5;stroke-linecap:butt;stroke-linejoin:miter;stroke:rgb(40%,40%,40%);stroke-opacity:1;stroke-miterlimit:3.25;" d="M 311.808594 177.976562 L 311.808594 174.640625 "/>
<path style=" stroke:none;fill-rule:evenodd;fill:rgb(0%,0%,0%);fill-opacity:1;" d="M 308.65625 191.25 C 308.65625 190.15625 308.640625 188.296875 307.890625 186.867188 C 307.226562 185.617188 306.171875 185.167969 305.242188 185.167969 C 304.386719 185.167969 303.292969 185.5625 302.613281 186.847656 C 301.902344 188.191406 301.828125 189.851562 301.828125 191.25 C 301.828125 192.265625 301.847656 193.820312 302.402344 195.179688 C 303.167969 197.023438 304.546875 197.273438 305.242188 197.273438 C 306.066406 197.273438 307.316406 196.933594 308.050781 195.234375 C 308.585938 194 308.65625 192.554688 308.65625 191.25 Z M 307.515625 191.050781 C 307.515625 192.214844 307.515625 193.644531 307.300781 194.699219 C 306.921875 196.648438 305.867188 196.988281 305.242188 196.988281 C 304.097656 196.988281 303.417969 196.003906 303.167969 194.644531 C 302.972656 193.589844 302.972656 192.054688 302.972656 191.050781 C 302.972656 189.675781 302.972656 188.53125 303.207031 187.4375 C 303.542969 185.917969 304.546875 185.453125 305.242188 185.453125 C 305.976562 185.453125 306.921875 185.9375 307.265625 187.402344 C 307.496094 188.421875 307.515625 189.621094 307.515625 191.050781 Z M 307.515625 191.050781 "/>
<path style=" stroke:none;fill-rule:evenodd;fill:rgb(0%,0%,0%);fill-opacity:1;" d="M 312.640625 196.128906 C 312.640625 195.609375 312.210938 195.253906 311.78125 195.253906 C 311.261719 195.253906 310.90625 195.683594 310.90625 196.109375 C 310.90625 196.628906 311.332031 196.988281 311.761719 196.988281 C 312.28125 196.988281 312.640625 196.558594 312.640625 196.128906 Z M 312.640625 196.128906 "/>
<path style=" stroke:none;fill-rule:evenodd;fill:rgb(0%,0%,0%);fill-opacity:1;" d="M 322.078125 193.949219 L 322.078125 193.484375 L 320.253906 193.484375 L 320.253906 185.417969 C 320.253906 185.042969 320.238281 185.023438 319.917969 185.023438 L 314.605469 193.484375 L 314.605469 193.949219 L 319.21875 193.949219 L 319.21875 195.699219 C 319.21875 196.34375 319.183594 196.519531 317.929688 196.519531 L 317.59375 196.519531 L 317.59375 196.988281 C 318.164062 196.949219 319.128906 196.949219 319.738281 196.949219 C 320.34375 196.949219 321.308594 196.949219 321.882812 196.988281 L 321.882812 196.519531 L 321.542969 196.519531 C 320.292969 196.519531 320.253906 196.34375 320.253906 195.699219 L 320.253906 193.949219 Z M 319.273438 193.484375 L 314.964844 193.484375 L 319.273438 186.597656 Z M 319.273438 193.484375 "/>
<path style="fill:none;stroke-width:0.5;stroke-linecap:butt;stroke-linejoin:miter;stroke:rgb(40%,40%,40%);stroke-opacity:1;stroke-miterlimit:3.25;" d="M 63.671875 165.386719 L 67.011719 165.386719 "/>
<path style=" stroke:none;fill-rule:evenodd;fill:rgb(0%,0%,0%);fill-opacity:1;" d="M 58.960938 163.90625 C 58.960938 162.816406 58.945312 160.953125 58.195312 159.523438 C 57.53125 158.273438 56.480469 157.828125 55.550781 157.828125 C 54.691406 157.828125 53.601562 158.222656 52.921875 159.507812 C 52.207031 160.847656 52.132812 162.511719 52.132812 163.90625 C 52.132812 164.921875 52.152344 166.476562 52.707031 167.835938 C 53.476562 169.679688 54.851562 169.929688 55.550781 169.929688 C 56.371094 169.929688 57.621094 169.589844 58.355469 167.890625 C 58.890625 166.65625 58.960938 165.210938 58.960938 163.90625 Z M 57.820312 163.707031 C 57.820312 164.871094 57.820312 166.300781 57.605469 167.355469 C 57.226562 169.304688 56.175781 169.640625 55.550781 169.640625 C 54.40625 169.640625 53.726562 168.660156 53.476562 167.300781 C 53.277344 166.246094 53.277344 164.710938 53.277344 163.707031 C 53.277344 162.332031 53.277344 161.1875 53.511719 160.097656 C 53.851562 158.578125 54.851562 158.113281 55.550781 158.113281 C 56.28125 158.113281 57.226562 158.59375 57.570312 160.0625 C 57.800781 161.078125 57.820312 162.277344 57.820312 163.707031 Z M 57.820312 163.707031 "/>
<path style="fill:none;stroke-width:0.5;stroke-linecap:butt;stroke-linejoin:miter;stroke:rgb(40%,40%,40%);stroke-opacity:1;stroke-miterlimit:3.25;" d="M 63.671875 126.980469 L 67.011719 126.980469 "/>
<path style=" stroke:none;fill-rule:evenodd;fill:rgb(0%,0%,0%);fill-opacity:1;" d="M 50.097656 131.234375 L 50.097656 130.769531 L 49.5625 130.769531 C 48.023438 130.769531 47.988281 130.574219 47.988281 129.929688 L 47.988281 119.808594 C 47.988281 119.433594 47.96875 119.417969 47.71875 119.417969 C 47.023438 120.257812 45.96875 120.523438 44.964844 120.558594 C 44.914062 120.558594 44.820312 120.558594 44.804688 120.597656 C 44.789062 120.632812 44.789062 120.667969 44.789062 121.042969 C 45.339844 121.042969 46.269531 120.933594 46.984375 120.507812 L 46.984375 129.929688 C 46.984375 130.554688 46.949219 130.769531 45.414062 130.769531 L 44.875 130.769531 L 44.875 131.234375 L 47.488281 131.199219 Z M 50.097656 131.234375 "/>
<path style=" stroke:none;fill-rule:evenodd;fill:rgb(0%,0%,0%);fill-opacity:1;" d="M 58.941406 125.496094 C 58.941406 124.40625 58.925781 122.542969 58.171875 121.113281 C 57.511719 119.863281 56.457031 119.417969 55.527344 119.417969 C 54.667969 119.417969 53.578125 119.808594 52.898438 121.097656 C 52.183594 122.4375 52.113281 124.101562 52.113281 125.496094 C 52.113281 126.515625 52.128906 128.070312 52.683594 129.429688 C 53.453125 131.273438 54.828125 131.523438 55.527344 131.523438 C 56.347656 131.523438 57.601562 131.183594 58.332031 129.484375 C 58.871094 128.25 58.941406 126.800781 58.941406 125.496094 Z M 57.796875 125.300781 C 57.796875 126.460938 57.796875 127.890625 57.582031 128.945312 C 57.207031 130.898438 56.152344 131.234375 55.527344 131.234375 C 54.382812 131.234375 53.703125 130.253906 53.453125 128.894531 C 53.253906 127.839844 53.253906 126.300781 53.253906 125.300781 C 53.253906 123.921875 53.253906 122.777344 53.488281 121.6875 C 53.828125 120.167969 54.828125 119.703125 55.527344 119.703125 C 56.261719 119.703125 57.207031 120.183594 57.546875 121.652344 C 57.777344 122.667969 57.796875 123.867188 57.796875 125.300781 Z M 57.796875 125.300781 "/>
<path style="fill:none;stroke-width:0.5;stroke-linecap:butt;stroke-linejoin:miter;stroke:rgb(40%,40%,40%);stroke-opacity:1;stroke-miterlimit:3.25;" d="M 63.671875 88.570312 L 67.011719 88.570312 "/>
<path style=" stroke:none;fill-rule:evenodd;fill:rgb(0%,0%,0%);fill-opacity:1;" d="M 50.6875 90.054688 L 50.367188 90.054688 C 50.1875 91.324219 50.042969 91.539062 49.972656 91.648438 C 49.882812 91.789062 48.59375 91.789062 48.34375 91.789062 L 44.914062 91.789062 L 48.328125 88.355469 C 49.417969 87.320312 50.6875 86.105469 50.6875 84.332031 C 50.6875 82.222656 49.007812 81.007812 47.128906 81.007812 C 45.164062 81.007812 43.964844 82.742188 43.964844 84.351562 C 43.964844 85.050781 44.484375 85.136719 44.695312 85.136719 C 44.875 85.136719 45.414062 85.03125 45.414062 84.40625 C 45.414062 83.851562 44.949219 83.6875 44.695312 83.6875 C 44.589844 83.6875 44.484375 83.707031 44.410156 83.742188 C 44.75 82.222656 45.789062 81.472656 46.878906 81.472656 C 48.433594 81.472656 49.453125 82.707031 49.453125 84.332031 C 49.453125 85.890625 48.542969 87.230469 47.523438 88.394531 L 43.964844 92.417969 L 43.964844 92.828125 L 50.257812 92.828125 Z M 50.6875 90.054688 "/>
<path style=" stroke:none;fill-rule:evenodd;fill:rgb(0%,0%,0%);fill-opacity:1;" d="M 58.941406 87.089844 C 58.941406 85.996094 58.925781 84.136719 58.171875 82.707031 C 57.511719 81.453125 56.457031 81.007812 55.527344 81.007812 C 54.667969 81.007812 53.578125 81.402344 52.898438 82.6875 C 52.183594 84.03125 52.113281 85.691406 52.113281 87.089844 C 52.113281 88.105469 52.128906 89.660156 52.683594 91.019531 C 53.453125 92.863281 54.828125 93.113281 55.527344 93.113281 C 56.347656 93.113281 57.601562 92.773438 58.332031 91.074219 C 58.871094 89.839844 58.941406 88.394531 58.941406 87.089844 Z M 57.796875 86.890625 C 57.796875 88.054688 57.796875 89.484375 57.582031 90.539062 C 57.207031 92.488281 56.152344 92.828125 55.527344 92.828125 C 54.382812 92.828125 53.703125 91.84375 53.453125 90.484375 C 53.253906 89.429688 53.253906 87.894531 53.253906 86.890625 C 53.253906 85.515625 53.253906 84.371094 53.488281 83.277344 C 53.828125 81.757812 54.828125 81.292969 55.527344 81.292969 C 56.261719 81.292969 57.207031 81.777344 57.546875 83.242188 C 57.777344 84.261719 57.796875 85.460938 57.796875 86.890625 Z M 57.796875 86.890625 "/>
<path style="fill:none;stroke-width:0.5;stroke-linecap:butt;stroke-linejoin:miter;stroke:rgb(40%,40%,40%);stroke-opacity:1;stroke-miterlimit:3.25;" d="M 63.671875 50.164062 L 67.011719 50.164062 "/>
<path style=" stroke:none;fill-rule:evenodd;fill:rgb(0%,0%,0%);fill-opacity:1;" d="M 50.832031 51.324219 C 50.832031 49.589844 49.402344 48.339844 47.703125 48.140625 C 49.0625 47.855469 50.367188 46.640625 50.367188 45.015625 C 50.367188 43.617188 48.953125 42.601562 47.34375 42.601562 C 45.71875 42.601562 44.285156 43.601562 44.285156 45.03125 C 44.285156 45.65625 44.75 45.765625 44.984375 45.765625 C 45.359375 45.765625 45.679688 45.53125 45.679688 45.066406 C 45.679688 44.601562 45.359375 44.371094 44.984375 44.371094 C 44.914062 44.371094 44.820312 44.371094 44.75 44.40625 C 45.269531 43.226562 46.683594 43.011719 47.308594 43.011719 C 47.933594 43.011719 49.113281 43.316406 49.113281 45.03125 C 49.113281 45.53125 49.042969 46.425781 48.433594 47.210938 C 47.898438 47.910156 47.289062 47.945312 46.699219 48 C 46.609375 48 46.199219 48.035156 46.128906 48.035156 C 46.003906 48.054688 45.929688 48.070312 45.929688 48.195312 C 45.929688 48.320312 45.949219 48.339844 46.304688 48.339844 L 47.183594 48.339844 C 48.773438 48.339844 49.472656 49.714844 49.472656 51.308594 C 49.472656 53.453125 48.328125 54.277344 47.289062 54.277344 C 46.34375 54.277344 44.804688 53.8125 44.320312 52.433594 C 44.410156 52.472656 44.5 52.472656 44.589844 52.472656 C 45.019531 52.472656 45.339844 52.183594 45.339844 51.71875 C 45.339844 51.199219 44.949219 50.96875 44.589844 50.96875 C 44.285156 50.96875 43.820312 51.113281 43.820312 51.773438 C 43.820312 53.417969 45.429688 54.707031 47.328125 54.707031 C 49.3125 54.707031 50.832031 53.152344 50.832031 51.324219 Z M 50.832031 51.324219 "/>
<path style=" stroke:none;fill-rule:evenodd;fill:rgb(0%,0%,0%);fill-opacity:1;" d="M 58.941406 48.679688 C 58.941406 47.589844 58.925781 45.726562 58.171875 44.296875 C 57.511719 43.046875 56.457031 42.601562 55.527344 42.601562 C 54.667969 42.601562 53.578125 42.992188 52.898438 44.28125 C 52.183594 45.621094 52.113281 47.285156 52.113281 48.679688 C 52.113281 49.699219 52.128906 51.253906 52.683594 52.613281 C 53.453125 54.457031 54.828125 54.707031 55.527344 54.707031 C 56.347656 54.707031 57.601562 54.367188 58.332031 52.667969 C 58.871094 51.433594 58.941406 49.984375 58.941406 48.679688 Z M 57.796875 48.484375 C 57.796875 49.644531 57.796875 51.074219 57.582031 52.128906 C 57.207031 54.082031 56.152344 54.417969 55.527344 54.417969 C 54.382812 54.417969 53.703125 53.4375 53.453125 52.078125 C 53.253906 51.023438 53.253906 49.484375 53.253906 48.484375 C 53.253906 47.105469 53.253906 45.960938 53.488281 44.871094 C 53.828125 43.351562 54.828125 42.886719 55.527344 42.886719 C 56.261719 42.886719 57.207031 43.367188 57.546875 44.835938 C 57.777344 45.851562 57.796875 47.050781 57.796875 48.484375 Z M 57.796875 48.484375 "/>
<path style="fill:none;stroke-width:0.5;stroke-linecap:butt;stroke-linejoin:miter;stroke:rgb(40%,40%,40%);stroke-opacity:1;stroke-miterlimit:3.25;" d="M 63.671875 11.757812 L 67.011719 11.757812 "/>
<path style=" stroke:none;fill-rule:evenodd;fill:rgb(0%,0%,0%);fill-opacity:1;" d="M 51.0625 12.972656 L 51.0625 12.507812 L 49.238281 12.507812 L 49.238281 4.441406 C 49.238281 4.066406 49.222656 4.046875 48.898438 4.046875 L 43.589844 12.507812 L 43.589844 12.972656 L 48.203125 12.972656 L 48.203125 14.722656 C 48.203125 15.367188 48.164062 15.546875 46.914062 15.546875 L 46.574219 15.546875 L 46.574219 16.011719 C 47.148438 15.976562 48.113281 15.976562 48.71875 15.976562 C 49.328125 15.976562 50.292969 15.976562 50.867188 16.011719 L 50.867188 15.546875 L 50.527344 15.546875 C 49.277344 15.546875 49.238281 15.367188 49.238281 14.722656 L 49.238281 12.972656 Z M 48.257812 12.507812 L 43.945312 12.507812 L 48.257812 5.621094 Z M 48.257812 12.507812 "/>
<path style=" stroke:none;fill-rule:evenodd;fill:rgb(0%,0%,0%);fill-opacity:1;" d="M 58.941406 10.273438 C 58.941406 9.179688 58.925781 7.320312 58.171875 5.890625 C 57.511719 4.636719 56.457031 4.191406 55.527344 4.191406 C 54.667969 4.191406 53.578125 4.585938 52.898438 5.871094 C 52.183594 7.214844 52.113281 8.875 52.113281 10.273438 C 52.113281 11.289062 52.128906 12.84375 52.683594 14.203125 C 53.453125 16.046875 54.828125 16.296875 55.527344 16.296875 C 56.347656 16.296875 57.601562 15.957031 58.332031 14.257812 C 58.871094 13.023438 58.941406 11.578125 58.941406 10.273438 Z M 57.796875 10.074219 C 57.796875 11.238281 57.796875 12.667969 57.582031 13.722656 C 57.207031 15.671875 56.152344 16.011719 55.527344 16.011719 C 54.382812 16.011719 53.703125 15.027344 53.453125 13.667969 C 53.253906 12.613281 53.253906 11.078125 53.253906 10.074219 C 53.253906 8.699219 53.253906 7.554688 53.488281 6.460938 C 53.828125 4.941406 54.828125 4.476562 55.527344 4.476562 C 56.261719 4.476562 57.207031 4.960938 57.546875 6.425781 C 57.777344 7.445312 57.796875 8.644531 57.796875 10.074219 Z M 57.796875 10.074219 "/>
<path style=" stroke:none;fill-rule:evenodd;fill:rgb(0%,0%,0%);fill-opacity:1;" d="M 205.925781 223.941406 C 205.925781 223.851562 205.851562 223.78125 205.746094 223.78125 C 205.585938 223.78125 205.566406 223.851562 205.496094 224.136719 C 205.246094 225.066406 204.871094 226.320312 203.957031 226.320312 C 203.597656 226.320312 203.367188 226.140625 203.367188 225.460938 C 203.367188 225.121094 203.4375 224.726562 203.511719 224.457031 C 203.582031 224.136719 203.582031 224.117188 203.582031 223.90625 C 203.582031 222.847656 202.632812 222.261719 200.992188 222.046875 C 201.632812 221.652344 202.277344 220.953125 202.527344 220.6875 C 203.546875 219.542969 204.242188 218.96875 205.066406 218.96875 C 205.476562 218.96875 205.585938 219.078125 205.710938 219.183594 C 205.046875 219.253906 204.796875 219.722656 204.796875 220.078125 C 204.796875 220.507812 205.136719 220.652344 205.386719 220.652344 C 205.871094 220.652344 206.300781 220.238281 206.300781 219.667969 C 206.300781 219.148438 205.886719 218.613281 205.082031 218.613281 C 204.101562 218.613281 203.296875 219.308594 202.027344 220.738281 C 201.847656 220.953125 201.1875 221.632812 200.523438 221.886719 L 202.367188 214.535156 C 202.382812 214.464844 202.417969 214.355469 202.417969 214.269531 C 202.417969 214.089844 202.207031 214.089844 202.207031 214.089844 L 201.222656 214.175781 C 200.917969 214.195312 200.648438 214.230469 200.328125 214.25 C 199.898438 214.285156 199.773438 214.300781 199.773438 214.625 C 199.773438 214.804688 199.953125 214.804688 200.132812 214.804688 C 201.042969 214.804688 201.042969 214.964844 201.042969 215.144531 C 201.042969 215.214844 201.042969 215.25 200.953125 215.574219 L 198.398438 225.800781 C 198.324219 226.066406 198.324219 226.101562 198.324219 226.210938 C 198.324219 226.605469 198.628906 226.675781 198.808594 226.675781 C 199.308594 226.675781 199.414062 226.28125 199.558594 225.726562 C 199.71875 225.066406 199.648438 225.316406 200.398438 222.386719 C 201.6875 222.527344 202.457031 223.0625 202.457031 223.921875 C 202.457031 224.03125 202.457031 224.101562 202.402344 224.367188 C 202.332031 224.636719 202.332031 224.851562 202.332031 224.941406 C 202.332031 225.976562 203.011719 226.675781 203.921875 226.675781 C 204.746094 226.675781 205.171875 225.925781 205.316406 225.675781 C 205.691406 225.011719 205.925781 224.011719 205.925781 223.941406 Z M 205.925781 223.941406 "/>
<path style=" stroke:none;fill-rule:evenodd;fill:rgb(0%,0%,0%);fill-opacity:1;" d="M 211.578125 229.195312 L 211.578125 228.832031 L 211.191406 228.832031 C 210.089844 228.832031 210.050781 228.683594 210.050781 228.230469 L 210.050781 221.164062 C 210.050781 220.878906 210.050781 220.863281 209.800781 220.863281 C 209.5 221.203125 208.871094 221.667969 207.582031 221.667969 L 207.582031 222.027344 C 207.871094 222.027344 208.496094 222.027344 209.183594 221.703125 L 209.183594 228.230469 C 209.183594 228.683594 209.148438 228.832031 208.046875 228.832031 L 207.65625 228.832031 L 207.65625 229.195312 C 207.996094 229.171875 209.210938 229.171875 209.625 229.171875 C 210.039062 229.171875 211.242188 229.171875 211.578125 229.195312 Z M 211.578125 229.195312 "/>
<path style=" stroke:none;fill-rule:evenodd;fill:rgb(0%,0%,0%);fill-opacity:1;" d="M 18.898438 132.332031 L 18.898438 128.863281 C 18.898438 128.558594 18.898438 128.363281 18.683594 128.363281 C 18.449219 128.363281 18.449219 128.578125 18.449219 128.917969 L 18.449219 132.222656 C 18.003906 132.097656 17.96875 132.097656 17.519531 131.992188 C 17.199219 131.902344 16.574219 131.742188 16.535156 131.742188 C 16.375 131.742188 16.324219 131.847656 16.324219 131.992188 C 16.324219 132.332031 16.464844 133.742188 16.503906 134.171875 C 16.519531 134.316406 16.535156 134.511719 16.878906 134.511719 C 17.074219 134.511719 17.074219 134.335938 17.074219 134.082031 C 17.074219 133.226562 17.199219 133.1875 17.378906 133.1875 C 17.503906 133.1875 18.09375 133.351562 18.449219 133.4375 L 18.449219 134.441406 C 18.449219 134.796875 18.449219 134.996094 18.683594 134.996094 C 18.898438 134.996094 18.898438 134.835938 18.898438 134.496094 L 18.898438 133.546875 L 28.015625 135.835938 C 28.285156 135.90625 28.320312 135.90625 28.425781 135.90625 C 28.820312 135.90625 28.929688 135.601562 28.929688 135.390625 C 28.929688 135.046875 28.679688 134.796875 28.445312 134.726562 C 28.355469 134.691406 27.550781 134.496094 27.105469 134.386719 L 25.511719 133.976562 C 25.242188 133.921875 24.566406 133.742188 24.296875 133.691406 C 24.011719 133.601562 23.457031 133.476562 23.402344 133.457031 C 23.097656 133.3125 21.222656 132.347656 21.222656 130.5625 C 21.222656 129.773438 21.867188 129.597656 22.457031 129.597656 C 23.566406 129.597656 25.746094 130.417969 26.566406 130.738281 C 26.851562 130.847656 27.105469 130.9375 27.445312 130.9375 C 28.375 130.9375 28.929688 130.277344 28.929688 129.472656 C 28.929688 127.753906 26.28125 127.128906 26.175781 127.128906 C 25.996094 127.128906 25.996094 127.289062 25.996094 127.34375 C 25.996094 127.523438 26.046875 127.523438 26.316406 127.613281 C 28.140625 128.128906 28.535156 128.933594 28.535156 129.417969 C 28.535156 129.757812 28.320312 129.863281 27.945312 129.863281 C 27.496094 129.863281 26.996094 129.667969 26.691406 129.558594 C 25.90625 129.257812 23.761719 128.453125 22.761719 128.453125 C 21.453125 128.453125 20.828125 129.273438 20.828125 130.507812 C 20.828125 131.0625 20.953125 132.132812 22.1875 133.152344 Z M 18.898438 132.332031 "/>
<path style=" stroke:none;fill-rule:evenodd;fill:rgb(0%,0%,0%);fill-opacity:1;" d="M 24.441406 114.019531 C 23.671875 113.820312 22.761719 113.589844 22.027344 113.589844 C 21.597656 113.589844 21.222656 113.675781 20.988281 113.910156 C 20.902344 114.019531 20.847656 114.160156 20.847656 114.304688 C 20.847656 114.5 20.9375 114.695312 21.097656 114.855469 C 21.257812 115.019531 21.453125 115.109375 21.632812 115.109375 C 21.777344 115.109375 21.917969 115.054688 22.027344 114.949219 C 22.417969 114.519531 22.992188 114.304688 23.636719 114.304688 C 23.867188 114.304688 24.121094 114.339844 24.367188 114.394531 C 26.03125 114.804688 27.75 115.804688 27.75 117.253906 C 27.75 118.292969 26.996094 118.863281 25.996094 118.988281 C 25.496094 118.773438 24.957031 118.59375 24.441406 118.46875 C 24.28125 118.433594 24.101562 118.398438 23.941406 118.398438 C 23.726562 118.398438 23.566406 118.46875 23.566406 118.683594 C 23.566406 119.003906 23.992188 119.148438 24.367188 119.238281 C 24.90625 119.382812 25.441406 119.472656 25.960938 119.488281 C 26.980469 120.078125 27.75 120.9375 27.75 121.957031 C 27.75 123.027344 26.851562 123.496094 25.726562 123.496094 C 25.316406 123.496094 24.886719 123.421875 24.441406 123.316406 C 23.367188 123.046875 22.347656 122.441406 21.382812 121.742188 C 21.3125 121.707031 21.257812 121.6875 21.1875 121.6875 C 21.097656 121.6875 21.007812 121.722656 20.953125 121.8125 C 20.9375 121.867188 20.9375 121.9375 20.9375 121.9375 C 20.9375 122.046875 20.988281 122.152344 21.078125 122.222656 C 22.117188 122.957031 23.242188 123.421875 24.367188 123.707031 C 25.082031 123.886719 25.796875 123.976562 26.441406 123.976562 C 27.835938 123.976562 28.910156 123.496094 28.910156 122.171875 C 28.910156 121.027344 28.070312 120.113281 26.925781 119.433594 C 28.085938 119.273438 28.910156 118.683594 28.910156 117.46875 C 28.910156 115.625 26.601562 114.554688 24.441406 114.019531 Z M 24.441406 114.019531 "/>
<path style=" stroke:none;fill-rule:evenodd;fill:rgb(0%,0%,0%);fill-opacity:1;" d="M 33.09375 107.121094 C 33.09375 107.121094 33.039062 107.121094 32.988281 107.175781 C 32.148438 107.996094 29.859375 110.195312 24.28125 110.195312 C 18.699219 110.195312 16.429688 108.03125 15.535156 107.15625 C 15.535156 107.15625 15.480469 107.121094 15.429688 107.121094 C 15.375 107.121094 15.339844 107.175781 15.339844 107.246094 C 15.339844 107.441406 16.664062 108.960938 18.628906 109.839844 C 20.613281 110.734375 22.546875 110.984375 24.261719 110.984375 C 25.546875 110.984375 27.730469 110.859375 30.035156 109.785156 C 31.898438 108.925781 33.203125 107.460938 33.203125 107.246094 C 33.203125 107.15625 33.164062 107.121094 33.09375 107.121094 Z M 33.09375 107.121094 "/>
<path style=" stroke:none;fill-rule:evenodd;fill:rgb(0%,0%,0%);fill-opacity:1;" d="M 26.085938 96.101562 C 25.835938 96.101562 25.835938 96.367188 25.835938 96.53125 C 25.835938 96.851562 25.871094 96.886719 26.191406 96.976562 C 26.710938 97.117188 28.230469 97.546875 28.230469 98.460938 C 28.230469 98.746094 28.070312 98.925781 27.53125 98.925781 C 27.355469 98.925781 27.015625 98.890625 26.601562 98.78125 C 26.40625 98.726562 26.28125 98.726562 26.15625 98.726562 C 24.636719 98.726562 24.351562 100.535156 24.226562 101.820312 C 24.101562 101.644531 23.816406 101.214844 22.867188 100.230469 C 21.507812 98.851562 21.292969 98.101562 21.292969 97.566406 C 21.292969 97.226562 21.507812 97.101562 21.507812 97.101562 C 21.632812 97.996094 22.347656 98.335938 22.796875 98.335938 C 23.1875 98.335938 23.617188 98.03125 23.617188 97.441406 C 23.617188 97.101562 23.386719 96.152344 22.117188 96.152344 C 21.1875 96.152344 20.648438 96.742188 20.648438 97.511719 C 20.648438 98.601562 21.4375 99.585938 22.457031 100.640625 C 22.652344 100.820312 23.476562 101.679688 23.851562 102.359375 L 16.949219 100.640625 C 16.699219 100.570312 16.644531 100.570312 16.644531 100.570312 C 16.410156 100.570312 16.324219 100.765625 16.324219 100.964844 C 16.324219 101.035156 16.324219 101.054688 16.339844 101.089844 L 16.449219 103.394531 C 16.464844 103.644531 16.484375 103.96875 16.984375 103.96875 C 17.308594 103.96875 17.308594 103.628906 17.308594 103.503906 C 17.308594 103.304688 17.308594 102.984375 17.339844 102.75 L 27.65625 105.328125 C 27.730469 105.34375 28 105.398438 28.070312 105.398438 C 28.5 105.398438 28.875 105.058594 28.875 104.539062 C 28.875 104.21875 28.714844 103.699219 28.160156 103.449219 L 24.886719 102.625 C 24.921875 102.289062 25.136719 100.730469 26.226562 100.730469 C 26.351562 100.730469 26.40625 100.730469 26.601562 100.785156 C 26.835938 100.839844 26.851562 100.839844 27.03125 100.839844 C 28.195312 100.839844 28.875 99.730469 28.875 98.550781 C 28.875 96.761719 26.226562 96.101562 26.085938 96.101562 Z M 26.085938 96.101562 "/>
<path style=" stroke:none;fill-rule:evenodd;fill:rgb(0%,0%,0%);fill-opacity:1;" d="M 24.28125 90.390625 C 22.992188 90.390625 20.808594 90.515625 18.503906 91.589844 C 16.644531 92.445312 15.339844 93.914062 15.339844 94.125 C 15.339844 94.179688 15.355469 94.25 15.445312 94.25 C 15.445312 94.25 15.5 94.234375 15.535156 94.214844 C 16.429688 93.359375 18.699219 91.175781 24.261719 91.175781 C 29.839844 91.175781 32.109375 93.339844 33.003906 94.214844 C 33.039062 94.234375 33.09375 94.25 33.09375 94.25 C 33.183594 94.25 33.203125 94.179688 33.203125 94.125 C 33.203125 93.929688 31.878906 92.410156 29.910156 91.535156 C 27.925781 90.640625 25.996094 90.390625 24.28125 90.390625 Z M 24.28125 90.390625 "/>
<path style=" stroke:none;fill-rule:evenodd;fill:rgb(0%,0%,0%);fill-opacity:1;" d="M 15.660156 81.015625 C 15.445312 81.015625 15.320312 81.191406 15.320312 81.335938 C 15.320312 81.425781 15.320312 81.585938 15.714844 81.730469 L 32.539062 87.71875 L 32.859375 87.828125 C 33.078125 87.828125 33.203125 87.648438 33.203125 87.503906 C 33.203125 87.398438 33.183594 87.238281 32.808594 87.113281 L 15.984375 81.121094 Z M 15.660156 81.015625 "/>
<path style=" stroke:none;fill-rule:evenodd;fill:rgb(0%,0%,0%);fill-opacity:1;" d="M 33.09375 74.519531 C 33.09375 74.519531 33.039062 74.519531 32.988281 74.574219 C 32.148438 75.398438 29.859375 77.597656 24.28125 77.597656 C 18.699219 77.597656 16.429688 75.433594 15.535156 74.558594 C 15.535156 74.558594 15.480469 74.519531 15.429688 74.519531 C 15.375 74.519531 15.339844 74.574219 15.339844 74.644531 C 15.339844 74.84375 16.664062 76.363281 18.628906 77.238281 C 20.613281 78.132812 22.546875 78.382812 24.261719 78.382812 C 25.546875 78.382812 27.730469 78.257812 30.035156 77.183594 C 31.898438 76.328125 33.203125 74.863281 33.203125 74.644531 C 33.203125 74.558594 33.164062 74.519531 33.09375 74.519531 Z M 33.09375 74.519531 "/>
<path style=" stroke:none;fill-rule:evenodd;fill:rgb(0%,0%,0%);fill-opacity:1;" d="M 16.714844 62.625 C 16.519531 62.625 16.519531 62.785156 16.519531 62.859375 C 16.519531 63.164062 16.554688 63.5 16.554688 63.824219 L 16.554688 64.808594 L 16.519531 67.09375 C 16.519531 67.257812 16.519531 67.472656 16.839844 67.472656 C 17.019531 67.472656 17.039062 67.328125 17.039062 67.328125 L 17.039062 66.882812 C 17.039062 65.449219 17.179688 65.449219 17.449219 65.449219 C 17.449219 65.449219 17.59375 65.449219 17.878906 65.523438 L 26.046875 67.578125 C 27.875 68.042969 28.75 69.242188 28.75 70.101562 C 28.75 70.707031 28.460938 71.566406 27.515625 71.78125 C 27.53125 71.710938 27.550781 71.621094 27.550781 71.546875 C 27.550781 70.957031 27.03125 70.492188 26.515625 70.492188 C 26.226562 70.492188 25.851562 70.671875 25.851562 71.207031 C 25.851562 71.53125 26.03125 72.28125 27.195312 72.28125 C 28.320312 72.28125 29.105469 71.351562 29.105469 70.0625 C 29.105469 68.4375 27.875 66.683594 26.175781 66.253906 L 17.753906 64.144531 C 17.214844 64.003906 17.039062 63.96875 17.039062 63.089844 C 17.039062 62.804688 17.039062 62.625 16.714844 62.625 Z M 16.714844 62.625 "/>
<path style=" stroke:none;fill-rule:evenodd;fill:rgb(0%,0%,0%);fill-opacity:1;" d="M 24.636719 52.636719 C 23.886719 52.636719 23.222656 52.816406 22.5625 53.496094 C 22.1875 53.871094 22.097656 54.195312 21.667969 55.839844 C 21.347656 57.039062 21.292969 57.199219 21.007812 57.519531 C 20.703125 57.824219 20.273438 58.054688 19.667969 58.054688 C 18.164062 58.054688 16.628906 56.535156 16.628906 54.835938 C 16.628906 53.085938 17.699219 52.261719 19.398438 52.261719 C 19.863281 52.261719 20.347656 52.351562 20.417969 52.351562 C 20.578125 52.351562 20.578125 52.210938 20.578125 52.15625 C 20.578125 51.996094 20.523438 51.976562 20.238281 51.90625 L 16.304688 50.941406 C 16.144531 50.941406 16.144531 51.101562 16.144531 51.101562 C 16.144531 51.171875 16.160156 51.191406 16.429688 51.40625 L 17.503906 52.261719 C 16.339844 52.855469 16.144531 54.03125 16.144531 54.785156 C 16.144531 57.054688 18.21875 59.109375 20.238281 59.109375 C 21.582031 59.109375 22.367188 58.304688 22.671875 57.429688 C 22.742188 57.234375 23.027344 56.179688 23.152344 55.640625 C 23.402344 54.730469 23.476562 54.5 23.867188 54.121094 C 23.957031 54.050781 24.367188 53.695312 25.210938 53.695312 C 26.871094 53.695312 28.585938 55.230469 28.585938 57.019531 C 28.585938 58.484375 27.960938 60.113281 25.960938 60.113281 C 25.621094 60.113281 25.191406 60.039062 25.011719 59.988281 C 24.957031 59.988281 24.832031 59.96875 24.832031 59.96875 C 24.761719 59.96875 24.671875 60.003906 24.671875 60.148438 C 24.671875 60.308594 24.707031 60.328125 25.011719 60.398438 L 28.679688 61.3125 L 28.945312 61.382812 C 29.105469 61.382812 29.105469 61.203125 29.105469 61.203125 C 29.105469 61.132812 29.089844 61.113281 28.820312 60.898438 L 27.75 60.078125 C 28.390625 59.648438 29.105469 58.71875 29.105469 57.054688 C 29.105469 54.75 26.871094 52.636719 24.636719 52.636719 Z M 24.636719 52.636719 "/>
<path style=" stroke:none;fill-rule:evenodd;fill:rgb(0%,0%,0%);fill-opacity:1;" d="M 24.28125 45.792969 C 22.992188 45.792969 20.808594 45.917969 18.503906 46.988281 C 16.644531 47.847656 15.339844 49.316406 15.339844 49.527344 C 15.339844 49.582031 15.355469 49.652344 15.445312 49.652344 C 15.445312 49.652344 15.5 49.636719 15.535156 49.617188 C 16.429688 48.761719 18.699219 46.578125 24.261719 46.578125 C 29.839844 46.578125 32.109375 48.742188 33.003906 49.617188 C 33.039062 49.636719 33.09375 49.652344 33.09375 49.652344 C 33.183594 49.652344 33.203125 49.582031 33.203125 49.527344 C 33.203125 49.332031 31.878906 47.8125 29.910156 46.9375 C 27.925781 46.042969 25.996094 45.792969 24.28125 45.792969 Z M 24.28125 45.792969 "/>
<path style=" stroke:none;fill-rule:evenodd;fill:rgb(0%,0%,0%);fill-opacity:1;" d="M 91.222656 29.367188 C 91.222656 28.992188 91.132812 28.796875 90.972656 28.796875 C 90.792969 28.796875 90.738281 29.082031 90.722656 29.261719 C 90.632812 31.101562 89.34375 31.960938 88.253906 31.960938 C 87.128906 31.960938 86.394531 31.316406 85.070312 30.136719 C 83.929688 29.117188 83.140625 28.777344 82.300781 28.777344 C 80.441406 28.777344 79.332031 30.671875 79.332031 32.371094 C 79.332031 32.800781 79.457031 32.945312 79.582031 32.945312 C 79.78125 32.945312 79.832031 32.585938 79.832031 32.53125 C 79.921875 30.457031 81.351562 29.777344 82.300781 29.777344 C 83.425781 29.777344 84.160156 30.421875 85.484375 31.601562 C 86.628906 32.621094 87.414062 32.960938 88.253906 32.960938 C 90.113281 32.960938 91.222656 31.066406 91.222656 29.367188 Z M 91.222656 29.367188 "/>
<path style=" stroke:none;fill-rule:evenodd;fill:rgb(0%,0%,0%);fill-opacity:1;" d="M 105.8125 32.785156 C 105.8125 32.691406 105.738281 32.621094 105.632812 32.621094 C 105.472656 32.621094 105.453125 32.691406 105.382812 32.980469 C 105.132812 33.910156 104.757812 35.160156 103.84375 35.160156 C 103.488281 35.160156 103.257812 34.980469 103.257812 34.300781 C 103.257812 33.964844 103.328125 33.570312 103.398438 33.300781 C 103.46875 32.980469 103.46875 32.960938 103.46875 32.746094 C 103.46875 31.691406 102.523438 31.101562 100.878906 30.886719 C 101.519531 30.496094 102.164062 29.796875 102.414062 29.527344 C 103.433594 28.382812 104.128906 27.8125 104.953125 27.8125 C 105.363281 27.8125 105.472656 27.921875 105.597656 28.027344 C 104.933594 28.097656 104.683594 28.5625 104.683594 28.921875 C 104.683594 29.347656 105.023438 29.492188 105.277344 29.492188 C 105.757812 29.492188 106.1875 29.082031 106.1875 28.511719 C 106.1875 27.992188 105.777344 27.453125 104.972656 27.453125 C 103.988281 27.453125 103.183594 28.152344 101.914062 29.582031 C 101.734375 29.796875 101.074219 30.476562 100.414062 30.726562 L 102.253906 23.378906 C 102.273438 23.304688 102.308594 23.199219 102.308594 23.109375 C 102.308594 22.929688 102.09375 22.929688 102.09375 22.929688 L 101.109375 23.019531 C 100.804688 23.039062 100.539062 23.074219 100.214844 23.09375 C 99.785156 23.128906 99.660156 23.144531 99.660156 23.46875 C 99.660156 23.648438 99.839844 23.648438 100.019531 23.648438 C 100.929688 23.648438 100.929688 23.808594 100.929688 23.984375 C 100.929688 24.058594 100.929688 24.09375 100.84375 24.414062 L 98.285156 34.644531 C 98.210938 34.910156 98.210938 34.945312 98.210938 35.054688 C 98.210938 35.449219 98.515625 35.519531 98.695312 35.519531 C 99.195312 35.519531 99.304688 35.125 99.445312 34.570312 C 99.609375 33.910156 99.535156 34.160156 100.289062 31.226562 C 101.574219 31.371094 102.34375 31.90625 102.34375 32.765625 C 102.34375 32.871094 102.34375 32.945312 102.289062 33.210938 C 102.21875 33.480469 102.21875 33.695312 102.21875 33.785156 C 102.21875 34.820312 102.898438 35.519531 103.808594 35.519531 C 104.632812 35.519531 105.058594 34.769531 105.203125 34.519531 C 105.578125 33.855469 105.8125 32.855469 105.8125 32.785156 Z M 105.8125 32.785156 "/>
<path style=" stroke:none;fill-rule:evenodd;fill:rgb(0%,0%,0%);fill-opacity:1;" d="M 112.542969 25.835938 L 112.265625 25.835938 C 112.226562 26.046875 112.128906 26.738281 112.003906 26.9375 C 111.914062 27.050781 111.203125 27.050781 110.824219 27.050781 L 108.507812 27.050781 C 108.847656 26.761719 109.609375 25.960938 109.9375 25.660156 C 111.839844 23.90625 112.542969 23.253906 112.542969 22.011719 C 112.542969 20.570312 111.402344 19.605469 109.949219 19.605469 C 108.496094 19.605469 107.644531 20.847656 107.644531 21.925781 C 107.644531 22.5625 108.195312 22.5625 108.230469 22.5625 C 108.496094 22.5625 108.820312 22.375 108.820312 21.976562 C 108.820312 21.625 108.582031 21.386719 108.230469 21.386719 C 108.121094 21.386719 108.09375 21.386719 108.058594 21.398438 C 108.292969 20.546875 108.972656 19.972656 109.785156 19.972656 C 110.851562 19.972656 111.5 20.859375 111.5 22.011719 C 111.5 23.078125 110.886719 24.007812 110.175781 24.808594 L 107.644531 27.640625 L 107.644531 27.941406 L 112.214844 27.941406 Z M 112.542969 25.835938 "/>
<path style=" stroke:none;fill-rule:evenodd;fill:rgb(0%,0%,0%);fill-opacity:1;" d="M 111.566406 39.839844 L 111.566406 39.476562 L 111.179688 39.476562 C 110.074219 39.476562 110.039062 39.324219 110.039062 38.875 L 110.039062 31.808594 C 110.039062 31.519531 110.039062 31.503906 109.785156 31.503906 C 109.488281 31.84375 108.859375 32.308594 107.570312 32.308594 L 107.570312 32.671875 C 107.855469 32.671875 108.484375 32.671875 109.171875 32.347656 L 109.171875 38.875 C 109.171875 39.324219 109.136719 39.476562 108.035156 39.476562 L 107.644531 39.476562 L 107.644531 39.839844 C 107.984375 39.8125 109.199219 39.8125 109.613281 39.8125 C 110.027344 39.8125 111.226562 39.8125 111.566406 39.839844 Z M 111.566406 39.839844 "/>
<path style=" stroke:none;fill-rule:evenodd;fill:rgb(0%,0%,0%);fill-opacity:1;" d="M 298.386719 30.734375 C 298.386719 30.359375 298.296875 30.160156 298.136719 30.160156 C 297.957031 30.160156 297.902344 30.445312 297.882812 30.625 C 297.796875 32.46875 296.507812 33.324219 295.417969 33.324219 C 294.289062 33.324219 293.558594 32.679688 292.234375 31.5 C 291.089844 30.484375 290.304688 30.140625 289.460938 30.140625 C 287.601562 30.140625 286.496094 32.039062 286.496094 33.734375 C 286.496094 34.164062 286.621094 34.308594 286.746094 34.308594 C 286.941406 34.308594 286.996094 33.953125 286.996094 33.898438 C 287.085938 31.824219 288.515625 31.144531 289.460938 31.144531 C 290.589844 31.144531 291.324219 31.789062 292.644531 32.96875 C 293.789062 33.988281 294.578125 34.328125 295.417969 34.328125 C 297.277344 34.328125 298.386719 32.429688 298.386719 30.734375 Z M 298.386719 30.734375 "/>
<path style=" stroke:none;fill-rule:evenodd;fill:rgb(0%,0%,0%);fill-opacity:1;" d="M 311.976562 40.847656 C 312.53125 40.847656 312.546875 40.828125 312.726562 40.488281 L 322.503906 20.070312 C 322.632812 19.835938 322.632812 19.800781 322.632812 19.746094 C 322.632812 19.550781 322.488281 19.390625 322.273438 19.390625 C 322.042969 19.390625 321.96875 19.550781 321.878906 19.746094 L 312.65625 38.984375 L 308.84375 30.117188 L 306.359375 32.03125 L 306.628906 32.316406 L 307.898438 31.351562 Z M 311.976562 40.847656 "/>
<path style="fill:none;stroke-width:0.716987;stroke-linecap:square;stroke-linejoin:miter;stroke:rgb(0%,0%,0%);stroke-opacity:1;stroke-miterlimit:10;" d="M 322.351562 19.789062 L 338.128906 19.789062 "/>
<path style=" stroke:none;fill-rule:evenodd;fill:rgb(0%,0%,0%);fill-opacity:1;" d="M 330.976562 34.148438 C 330.976562 34.058594 330.902344 33.988281 330.796875 33.988281 C 330.636719 33.988281 330.617188 34.058594 330.546875 34.34375 C 330.296875 35.273438 329.921875 36.527344 329.007812 36.527344 C 328.652344 36.527344 328.417969 36.347656 328.417969 35.667969 C 328.417969 35.328125 328.488281 34.933594 328.5625 34.664062 C 328.632812 34.34375 328.632812 34.328125 328.632812 34.113281 C 328.632812 33.054688 327.683594 32.46875 326.042969 32.253906 C 326.683594 31.859375 327.328125 31.160156 327.578125 30.894531 C 328.597656 29.75 329.292969 29.175781 330.117188 29.175781 C 330.527344 29.175781 330.636719 29.285156 330.761719 29.390625 C 330.097656 29.460938 329.847656 29.929688 329.847656 30.285156 C 329.847656 30.714844 330.1875 30.859375 330.441406 30.859375 C 330.921875 30.859375 331.351562 30.445312 331.351562 29.875 C 331.351562 29.355469 330.941406 28.820312 330.136719 28.820312 C 329.152344 28.820312 328.347656 29.515625 327.078125 30.945312 C 326.898438 31.160156 326.238281 31.839844 325.574219 32.09375 L 327.417969 24.742188 C 327.433594 24.671875 327.472656 24.566406 327.472656 24.476562 C 327.472656 24.296875 327.257812 24.296875 327.257812 24.296875 L 326.273438 24.386719 C 325.96875 24.402344 325.699219 24.441406 325.378906 24.457031 C 324.949219 24.492188 324.824219 24.511719 324.824219 24.832031 C 324.824219 25.011719 325.003906 25.011719 325.183594 25.011719 C 326.09375 25.011719 326.09375 25.171875 326.09375 25.351562 C 326.09375 25.421875 326.09375 25.457031 326.003906 25.78125 L 323.449219 36.007812 C 323.375 36.273438 323.375 36.3125 323.375 36.417969 C 323.375 36.8125 323.679688 36.882812 323.859375 36.882812 C 324.359375 36.882812 324.464844 36.492188 324.609375 35.9375 C 324.769531 35.273438 324.699219 35.523438 325.449219 32.59375 C 326.738281 32.734375 327.507812 33.273438 327.507812 34.128906 C 327.507812 34.238281 327.507812 34.308594 327.453125 34.578125 C 327.382812 34.84375 327.382812 35.058594 327.382812 35.148438 C 327.382812 36.1875 328.0625 36.882812 328.972656 36.882812 C 329.796875 36.882812 330.222656 36.132812 330.367188 35.882812 C 330.742188 35.21875 330.976562 34.21875 330.976562 34.148438 Z M 330.976562 34.148438 "/>
<path style=" stroke:none;fill-rule:evenodd;fill:rgb(0%,0%,0%);fill-opacity:1;" d="M 336.628906 39.40625 L 336.628906 39.039062 L 336.242188 39.039062 C 335.140625 39.039062 335.101562 38.890625 335.101562 38.4375 L 335.101562 31.371094 C 335.101562 31.085938 335.101562 31.070312 334.851562 31.070312 C 334.550781 31.410156 333.925781 31.875 332.632812 31.875 L 332.632812 32.234375 C 332.921875 32.234375 333.546875 32.234375 334.238281 31.910156 L 334.238281 38.4375 C 334.238281 38.890625 334.199219 39.039062 333.097656 39.039062 L 332.707031 39.039062 L 332.707031 39.40625 C 333.046875 39.378906 334.261719 39.378906 334.675781 39.378906 C 335.089844 39.378906 336.292969 39.378906 336.628906 39.40625 Z M 336.628906 39.40625 "/>
<path style=" stroke:none;fill-rule:evenodd;fill:rgb(0%,0%,0%);fill-opacity:1;" d="M 286.035156 94.535156 C 286.035156 94.160156 285.945312 93.964844 285.785156 93.964844 C 285.605469 93.964844 285.550781 94.25 285.53125 94.429688 C 285.445312 96.269531 284.15625 97.128906 283.066406 97.128906 C 281.941406 97.128906 281.207031 96.484375 279.882812 95.304688 C 278.738281 94.285156 277.953125 93.945312 277.113281 93.945312 C 275.253906 93.945312 274.144531 95.839844 274.144531 97.539062 C 274.144531 97.96875 274.269531 98.113281 274.394531 98.113281 C 274.589844 98.113281 274.644531 97.753906 274.644531 97.699219 C 274.734375 95.628906 276.164062 94.949219 277.113281 94.949219 C 278.238281 94.949219 278.972656 95.589844 280.292969 96.769531 C 281.441406 97.792969 282.226562 98.128906 283.066406 98.128906 C 284.925781 98.128906 286.035156 96.234375 286.035156 94.535156 Z M 286.035156 94.535156 "/>
<path style=" stroke:none;fill-rule:evenodd;fill:rgb(0%,0%,0%);fill-opacity:1;" d="M 300.625 97.953125 C 300.625 97.863281 300.550781 97.792969 300.445312 97.792969 C 300.285156 97.792969 300.265625 97.863281 300.195312 98.148438 C 299.945312 99.078125 299.570312 100.332031 298.65625 100.332031 C 298.300781 100.332031 298.066406 100.152344 298.066406 99.472656 C 298.066406 99.132812 298.136719 98.738281 298.210938 98.46875 C 298.28125 98.148438 298.28125 98.128906 298.28125 97.917969 C 298.28125 96.859375 297.332031 96.269531 295.691406 96.058594 C 296.332031 95.664062 296.976562 94.964844 297.226562 94.699219 C 298.246094 93.554688 298.941406 92.980469 299.765625 92.980469 C 300.175781 92.980469 300.285156 93.089844 300.410156 93.195312 C 299.746094 93.265625 299.496094 93.734375 299.496094 94.089844 C 299.496094 94.519531 299.835938 94.660156 300.089844 94.660156 C 300.570312 94.660156 301 94.25 301 93.679688 C 301 93.160156 300.589844 92.625 299.785156 92.625 C 298.800781 92.625 297.996094 93.320312 296.726562 94.75 C 296.546875 94.964844 295.886719 95.644531 295.222656 95.894531 L 297.066406 88.546875 C 297.082031 88.476562 297.121094 88.367188 297.121094 88.28125 C 297.121094 88.101562 296.90625 88.101562 296.90625 88.101562 L 295.921875 88.1875 C 295.617188 88.207031 295.347656 88.242188 295.027344 88.261719 C 294.597656 88.296875 294.472656 88.3125 294.472656 88.636719 C 294.472656 88.816406 294.652344 88.816406 294.832031 88.816406 C 295.742188 88.816406 295.742188 88.976562 295.742188 89.15625 C 295.742188 89.226562 295.742188 89.261719 295.652344 89.585938 L 293.097656 99.8125 C 293.023438 100.078125 293.023438 100.113281 293.023438 100.222656 C 293.023438 100.617188 293.328125 100.6875 293.507812 100.6875 C 294.007812 100.6875 294.117188 100.292969 294.257812 99.738281 C 294.421875 99.078125 294.347656 99.328125 295.097656 96.394531 C 296.386719 96.539062 297.15625 97.074219 297.15625 97.933594 C 297.15625 98.042969 297.15625 98.113281 297.101562 98.378906 C 297.03125 98.648438 297.03125 98.863281 297.03125 98.953125 C 297.03125 99.988281 297.710938 100.6875 298.621094 100.6875 C 299.445312 100.6875 299.871094 99.9375 300.015625 99.6875 C 300.390625 99.023438 300.625 98.023438 300.625 97.953125 Z M 300.625 97.953125 "/>
<path style=" stroke:none;fill-rule:evenodd;fill:rgb(0%,0%,0%);fill-opacity:1;" d="M 306.378906 103.207031 L 306.378906 102.84375 L 305.992188 102.84375 C 304.886719 102.84375 304.851562 102.695312 304.851562 102.242188 L 304.851562 95.175781 C 304.851562 94.886719 304.851562 94.875 304.597656 94.875 C 304.300781 95.214844 303.671875 95.675781 302.382812 95.675781 L 302.382812 96.039062 C 302.667969 96.039062 303.296875 96.039062 303.984375 95.714844 L 303.984375 102.242188 C 303.984375 102.695312 303.949219 102.84375 302.847656 102.84375 L 302.457031 102.84375 L 302.457031 103.207031 C 302.796875 103.183594 304.011719 103.183594 304.425781 103.183594 C 304.839844 103.183594 306.042969 103.183594 306.378906 103.207031 Z M 306.378906 103.207031 "/>
</g>
</svg>
