<?xml version="1.0" encoding="UTF-8"?>
<svg xmlns="http://www.w3.org/2000/svg" xmlns:xlink="http://www.w3.org/1999/xlink" width="400pt" height="260pt" viewBox="0 0 400 260" version="1.1">
<defs>
<clipPath id="clip1">
  <path d="M 225 1.441406 L 226 1.441406 L 226 204 L 225 204 Z M 225 1.441406 "/>
</clipPath>
<clipPath id="clip2">
  <path d="M 61.441406 189 L 389.039062 189 L 389.039062 190 L 61.441406 190 Z M 61.441406 189 "/>
</clipPath>
<clipPath id="clip3">
  <path d="M 184.078125 21 L 204.238281 21 L 204.238281 24 L 184.078125 24 Z M 184.078125 21 "/>
</clipPath>
<clipPath id="clip4">
  <path d="M 184.078125 54 L 204.238281 54 L 204.238281 57 L 184.078125 57 Z M 184.078125 54 "/>
</clipPath>
<clipPath id="clip5">
  <path d="M 184.078125 87 L 204.238281 87 L 204.238281 90 L 184.078125 90 Z M 184.078125 87 "/>
</clipPath>
</defs>
<g id="surface76">
<rect x="0" y="0" width="400" height="260" style="fill:rgb(100%,100%,100%);fill-opacity:1;stroke:none;"/>
<g clip-path="url(#clip1)" clip-rule="nonzero">
<path style="fill:none;stroke-width:0.2;stroke-linecap:butt;stroke-linejoin:miter;stroke:rgb(50.000763%,50.000763%,50.000763%);stroke-opacity:0.4;stroke-miterlimit:3.25;" d="M 225.226562 203.976562 L 225.226562 1.640625 "/>
</g>
<g clip-path="url(#clip2)" clip-rule="nonzero">
<path style="fill:none;stroke-width:0.2;stroke-linecap:butt;stroke-linejoin:miter;stroke:rgb(50.000763%,50.000763%,50.000763%);stroke-opacity:0.4;stroke-miterlimit:3.25;" d="M 61.53125 189.417969 L 388.921875 189.417969 "/>
</g>
<path style="fill:none;stroke-width:1.964348;stroke-linecap:butt;stroke-linejoin:miter;stroke:rgb(0%,0%,0%);stroke-opacity:0.7;stroke-miterlimit:3.25;" d="M 225.226562 189.417969 L 225.253906 189.398438 L 225.28125 189.375 L 225.332031 189.328125 L 225.648438 189.058594 L 226.074219 188.699219 L 226.921875 187.980469 L 228.757812 186.417969 L 230.46875 184.960938 L 232.152344 183.53125 L 233.972656 181.980469 L 235.675781 180.53125 L 237.519531 178.964844 L 239.328125 177.425781 L 241.019531 175.988281 L 242.847656 174.433594 L 244.558594 172.976562 L 246.234375 171.554688 L 248.050781 170.007812 L 249.75 168.5625 L 251.589844 167 L 253.394531 165.464844 L 255.078125 164.03125 L 256.902344 162.480469 L 258.609375 161.03125 L 260.453125 159.460938 L 262.269531 157.917969 L 263.960938 156.480469 L 265.792969 154.917969 L 267.507812 153.460938 L 269.183594 152.035156 L 271.007812 150.484375 L 272.707031 149.039062 L 274.546875 147.472656 L 276.355469 145.9375 L 278.042969 144.5 L 279.871094 142.945312 L 281.578125 141.492188 L 283.253906 140.070312 L 285.070312 138.523438 L 286.765625 137.085938 L 288.601562 135.523438 L 290.316406 134.0625 L 292 132.632812 L 293.824219 131.082031 L 295.527344 129.632812 L 297.371094 128.0625 L 299.183594 126.523438 L 300.871094 125.085938 L 302.703125 123.527344 L 304.414062 122.074219 L 306.089844 120.648438 L 307.910156 119.101562 L 309.609375 117.65625 L 309.636719 117.632812 L 309.667969 117.605469 L 309.84375 117.453125 L 310.082031 117.253906 L 310.554688 116.851562 L 310.585938 116.824219 L 310.617188 116.800781 L 310.792969 116.648438 L 311.03125 116.449219 L 311.058594 116.421875 L 311.089844 116.398438 L 311.265625 116.246094 L 311.296875 116.21875 L 311.324219 116.195312 L 311.386719 116.144531 L 311.414062 116.121094 L 311.445312 116.09375 L 311.472656 116.070312 L 311.503906 116.042969 "/>
<path style="fill:none;stroke-width:1.964348;stroke-linecap:square;stroke-linejoin:miter;stroke:rgb(0%,0%,0%);stroke-opacity:0.7;stroke-miterlimit:3.25;" d="M 225.226562 189.398438 L 225.261719 186.910156 L 225.296875 185.871094 L 225.332031 185.074219 L 225.367188 184.402344 L 225.402344 183.8125 L 225.4375 183.277344 L 225.507812 182.328125 L 225.542969 181.894531 L 225.578125 181.488281 L 225.644531 180.734375 L 225.785156 179.390625 L 225.820312 179.078125 L 225.855469 178.78125 L 225.925781 178.203125 L 226.066406 177.132812 L 226.34375 175.234375 L 226.414062 174.796875 L 226.484375 174.375 L 226.625 173.558594 L 226.90625 172.046875 L 227.464844 169.359375 L 227.503906 169.1875 L 227.539062 169.019531 L 227.617188 168.691406 L 227.769531 168.042969 L 228.070312 166.800781 L 228.675781 164.507812 L 228.753906 164.234375 L 228.828125 163.964844 L 228.980469 163.4375 L 229.285156 162.40625 L 229.890625 160.457031 L 229.960938 160.238281 L 230.03125 160.023438 L 230.171875 159.589844 L 230.457031 158.75 L 231.023438 157.132812 L 232.15625 154.117188 L 234.375 148.855469 L 236.785156 143.824219 L 239.035156 139.589844 L 241.46875 135.371094 L 243.863281 131.527344 L 246.09375 128.160156 L 248.515625 124.703125 L 250.773438 121.636719 L 252.988281 118.761719 L 255.390625 115.769531 L 257.632812 113.078125 L 260.0625 110.269531 L 262.445312 107.605469 L 264.671875 105.195312 L 267.085938 102.65625 L 269.335938 100.351562 L 271.777344 97.921875 L 274.175781 95.597656 L 276.410156 93.476562 L 278.832031 91.230469 L 281.097656 89.179688 L 283.3125 87.210938 L 285.722656 85.113281 L 287.96875 83.195312 L 290.402344 81.15625 L 292.789062 79.1875 L 295.019531 77.386719 L 297.4375 75.460938 L 299.691406 73.695312 L 301.90625 71.988281 L 304.304688 70.164062 L 306.542969 68.488281 L 308.972656 66.695312 L 311.238281 65.046875 L 313.460938 63.449219 L 315.871094 61.742188 L 318.121094 60.167969 L 320.558594 58.480469 L 322.953125 56.847656 L 325.1875 55.339844 L 327.609375 53.726562 L 329.867188 52.238281 L 332.082031 50.792969 L 334.488281 49.242188 L 336.730469 47.808594 L 336.808594 47.761719 L 336.886719 47.710938 L 337.042969 47.613281 L 337.359375 47.414062 L 337.984375 47.015625 L 338.0625 46.96875 L 338.140625 46.917969 L 338.296875 46.820312 L 338.609375 46.621094 L 338.6875 46.574219 L 338.765625 46.523438 L 338.921875 46.425781 L 338.960938 46.402344 L 339 46.375 L 339.078125 46.328125 L 339.117188 46.300781 L 339.234375 46.230469 "/>
<path style="fill:none;stroke-width:1.964348;stroke-linecap:square;stroke-linejoin:miter;stroke:rgb(0%,0%,0%);stroke-opacity:0.7;stroke-miterlimit:3.25;" d="M 108.136719 48.320312 L 108.207031 48.492188 L 108.28125 48.664062 L 108.421875 49.011719 L 108.710938 49.699219 L 109.285156 51.074219 L 110.433594 53.804688 L 112.925781 59.628906 L 115.253906 64.949219 L 117.535156 70.058594 L 120.007812 75.480469 L 122.316406 80.425781 L 124.820312 85.664062 L 127.277344 90.679688 L 129.566406 95.246094 L 132.050781 100.074219 L 134.371094 104.46875 L 136.648438 108.667969 L 139.113281 113.105469 L 141.417969 117.128906 L 143.914062 121.371094 L 146.363281 125.410156 L 148.648438 129.066406 L 151.125 132.910156 L 153.4375 136.382812 L 155.945312 140.019531 L 158.40625 143.46875 L 160.703125 146.570312 L 163.191406 149.8125 L 165.515625 152.726562 L 167.792969 155.472656 L 170.265625 158.332031 L 172.570312 160.886719 L 175.070312 163.53125 L 177.527344 166.003906 L 179.816406 168.195312 L 182.296875 170.453125 L 184.613281 172.445312 L 186.886719 174.292969 L 189.351562 176.175781 L 191.652344 177.816406 L 194.144531 179.476562 L 196.472656 180.910156 L 198.753906 182.207031 L 201.230469 183.492188 L 203.542969 184.578125 L 206.046875 185.632812 L 208.503906 186.542969 L 210.796875 187.277344 L 210.953125 187.324219 L 211.109375 187.367188 L 211.417969 187.457031 L 212.039062 187.628906 L 213.285156 187.953125 L 213.355469 187.96875 L 213.429688 187.988281 L 213.574219 188.023438 L 213.863281 188.089844 L 214.445312 188.222656 L 214.515625 188.238281 L 214.589844 188.253906 L 215.023438 188.347656 L 215.605469 188.464844 L 215.746094 188.496094 L 215.890625 188.523438 L 216.175781 188.574219 L 216.742188 188.679688 L 216.777344 188.683594 L 216.816406 188.691406 L 217.027344 188.726562 L 217.3125 188.773438 L 217.882812 188.863281 L 217.921875 188.871094 L 217.957031 188.875 L 218.191406 188.910156 L 218.5 188.953125 L 219.117188 189.035156 L 219.15625 189.039062 L 219.191406 189.042969 L 219.269531 189.054688 L 219.425781 189.074219 L 219.734375 189.109375 L 220.351562 189.175781 L 220.421875 189.183594 L 220.496094 189.1875 L 220.636719 189.203125 L 220.925781 189.230469 L 220.960938 189.230469 L 221 189.234375 L 221.070312 189.242188 L 221.503906 189.277344 L 221.539062 189.28125 L 221.574219 189.28125 L 221.648438 189.289062 L 221.789062 189.296875 L 222.078125 189.316406 L 222.113281 189.320312 L 222.152344 189.320312 L 222.222656 189.328125 L 222.65625 189.351562 L 222.695312 189.351562 L 222.734375 189.355469 L 222.816406 189.359375 L 222.976562 189.367188 L 223.015625 189.367188 L 223.054688 189.371094 L 223.136719 189.375 L 223.296875 189.382812 L 223.378906 189.382812 L 223.457031 189.386719 L 223.617188 189.394531 L 223.699219 189.394531 L 223.78125 189.398438 L 223.941406 189.402344 L 223.980469 189.402344 L 224.019531 189.40625 L 224.183594 189.40625 L 224.261719 189.410156 L 224.34375 189.410156 L 224.421875 189.414062 L 224.625 189.414062 L 224.664062 189.417969 L 225.226562 189.417969 "/>
<path style="fill:none;stroke-width:1.964348;stroke-linecap:butt;stroke-linejoin:miter;stroke:rgb(90.000763%,36.00061%,5.400168%);stroke-opacity:1;stroke-miterlimit:3.25;" d="M 71.160156 62.554688 L 74.242188 62.585938 L 77.324219 62.671875 L 80.402344 62.816406 L 83.484375 63.019531 L 86.566406 63.285156 L 89.648438 63.605469 L 92.730469 63.984375 L 95.8125 64.425781 L 98.890625 64.921875 L 101.972656 65.480469 L 105.054688 66.101562 L 108.136719 66.78125 L 111.21875 67.523438 L 114.296875 68.328125 L 117.378906 69.195312 L 120.460938 70.125 L 123.542969 71.121094 L 126.625 72.179688 L 129.707031 73.308594 L 132.785156 74.503906 L 135.867188 75.769531 L 138.949219 77.101562 L 142.03125 78.511719 L 145.113281 79.992188 L 148.191406 81.554688 L 151.273438 83.191406 L 154.355469 84.910156 L 157.4375 86.714844 L 160.519531 88.609375 L 163.601562 90.59375 L 166.679688 92.675781 L 169.761719 94.855469 L 172.84375 97.144531 L 175.925781 99.546875 L 179.007812 102.070312 L 182.089844 104.726562 L 185.167969 107.523438 L 188.25 110.472656 L 191.332031 113.59375 L 194.414062 116.902344 L 197.496094 120.425781 L 200.574219 124.195312 L 203.65625 128.253906 L 206.738281 132.660156 L 209.820312 137.492188 L 212.902344 142.886719 L 215.984375 149.050781 L 219.0625 156.410156 L 222.144531 166.054688 L 225.226562 189.417969 L 228.308594 166.054688 L 231.390625 156.410156 L 234.46875 149.050781 L 237.550781 142.886719 L 240.632812 137.492188 L 243.714844 132.660156 L 246.796875 128.253906 L 249.878906 124.195312 L 252.957031 120.425781 L 256.039062 116.902344 L 259.121094 113.59375 L 262.203125 110.472656 L 265.285156 107.523438 L 268.363281 104.726562 L 271.445312 102.070312 L 274.527344 99.546875 L 277.609375 97.144531 L 280.691406 94.855469 L 283.773438 92.675781 L 286.851562 90.59375 L 289.933594 88.609375 L 293.015625 86.714844 L 296.097656 84.910156 L 299.179688 83.191406 L 302.261719 81.554688 L 305.339844 79.992188 L 308.421875 78.511719 L 311.503906 77.101562 L 314.585938 75.769531 L 317.667969 74.503906 L 320.746094 73.308594 L 323.828125 72.179688 L 326.910156 71.121094 L 329.992188 70.125 L 333.074219 69.195312 L 336.15625 68.328125 L 339.234375 67.523438 L 342.316406 66.78125 L 345.398438 66.101562 L 348.480469 65.480469 L 351.5625 64.921875 L 354.640625 64.425781 L 357.722656 63.984375 L 360.804688 63.605469 L 363.886719 63.285156 L 366.96875 63.019531 L 370.050781 62.816406 L 373.128906 62.671875 L 376.210938 62.585938 L 379.292969 62.554688 "/>
<path style="fill:none;stroke-width:1.964348;stroke-linecap:butt;stroke-linejoin:miter;stroke:rgb(36.525521%,42.780194%,75.829709%);stroke-opacity:1;stroke-miterlimit:3.25;" d="M 71.160156 119.050781 L 74.242188 119.078125 L 77.324219 119.167969 L 80.402344 119.3125 L 83.484375 119.515625 L 86.566406 119.777344 L 89.648438 120.09375 L 92.730469 120.472656 L 95.8125 120.90625 L 98.890625 121.398438 L 101.972656 121.949219 L 105.054688 122.554688 L 108.136719 123.222656 L 111.21875 123.945312 L 114.296875 124.722656 L 117.378906 125.558594 L 120.460938 126.453125 L 123.542969 127.402344 L 126.625 128.40625 L 129.707031 129.46875 L 132.785156 130.589844 L 135.867188 131.765625 L 138.949219 132.996094 L 142.03125 134.28125 L 145.113281 135.621094 L 148.191406 137.019531 L 151.273438 138.472656 L 154.355469 139.980469 L 157.4375 141.539062 L 160.519531 143.15625 L 163.601562 144.828125 L 166.679688 146.550781 L 169.761719 148.332031 L 172.84375 150.164062 L 175.925781 152.050781 L 179.007812 153.988281 L 182.089844 155.984375 L 185.167969 158.027344 L 188.25 160.128906 L 191.332031 162.28125 L 194.414062 164.484375 L 197.496094 166.742188 L 200.574219 169.054688 L 203.65625 171.417969 L 206.738281 173.832031 L 209.820312 176.300781 L 212.902344 178.820312 L 215.984375 181.390625 L 219.0625 184.015625 L 222.144531 186.691406 L 225.226562 189.417969 L 228.308594 186.691406 L 231.390625 184.015625 L 234.46875 181.390625 L 237.550781 178.820312 L 240.632812 176.300781 L 243.714844 173.832031 L 246.796875 171.417969 L 249.878906 169.054688 L 252.957031 166.742188 L 256.039062 164.484375 L 259.121094 162.28125 L 262.203125 160.128906 L 265.285156 158.027344 L 268.363281 155.984375 L 271.445312 153.988281 L 274.527344 152.050781 L 277.609375 150.164062 L 280.691406 148.332031 L 283.773438 146.550781 L 286.851562 144.828125 L 289.933594 143.15625 L 293.015625 141.539062 L 296.097656 139.980469 L 299.179688 138.472656 L 302.261719 137.019531 L 305.339844 135.621094 L 308.421875 134.28125 L 311.503906 132.996094 L 314.585938 131.765625 L 317.667969 130.589844 L 320.746094 129.46875 L 323.828125 128.40625 L 326.910156 127.402344 L 329.992188 126.453125 L 333.074219 125.558594 L 336.15625 124.722656 L 339.234375 123.945312 L 342.316406 123.222656 L 345.398438 122.554688 L 348.480469 121.949219 L 351.5625 121.398438 L 354.640625 120.90625 L 357.722656 120.472656 L 360.804688 120.09375 L 363.886719 119.777344 L 366.96875 119.515625 L 370.050781 119.3125 L 373.128906 119.167969 L 376.210938 119.078125 L 379.292969 119.050781 "/>
<path style="fill:none;stroke-width:1.964348;stroke-linecap:butt;stroke-linejoin:miter;stroke:rgb(94.51133%,59.389639%,0%);stroke-opacity:1;stroke-miterlimit:3.25;" d="M 71.160156 148.042969 L 74.242188 148.070312 L 77.324219 148.152344 L 80.402344 148.292969 L 83.484375 148.484375 L 86.566406 148.734375 L 89.648438 149.035156 L 92.730469 149.390625 L 95.8125 149.796875 L 98.890625 150.257812 L 101.972656 150.773438 L 105.054688 151.335938 L 108.136719 151.949219 L 111.21875 152.609375 L 114.296875 153.320312 L 117.378906 154.078125 L 120.460938 154.878906 L 123.542969 155.722656 L 126.625 156.609375 L 129.707031 157.535156 L 132.785156 158.5 L 135.867188 159.503906 L 138.949219 160.539062 L 142.03125 161.609375 L 145.113281 162.710938 L 148.191406 163.839844 L 151.273438 164.992188 L 154.355469 166.167969 L 157.4375 167.363281 L 160.519531 168.578125 L 163.601562 169.804688 L 166.679688 171.042969 L 169.761719 172.285156 L 172.84375 173.535156 L 175.925781 174.78125 L 179.007812 176.023438 L 182.089844 177.253906 L 185.167969 178.472656 L 188.25 179.667969 L 191.332031 180.839844 L 194.414062 181.980469 L 197.496094 183.082031 L 200.574219 184.132812 L 203.65625 185.132812 L 206.738281 186.066406 L 209.820312 186.921875 L 212.902344 187.691406 L 215.984375 188.351562 L 219.0625 188.886719 L 222.144531 189.261719 L 225.226562 189.417969 L 228.308594 189.261719 L 231.390625 188.886719 L 234.46875 188.351562 L 237.550781 187.691406 L 240.632812 186.921875 L 243.714844 186.066406 L 246.796875 185.132812 L 249.878906 184.132812 L 252.957031 183.082031 L 256.039062 181.980469 L 259.121094 180.839844 L 262.203125 179.667969 L 265.285156 178.472656 L 268.363281 177.253906 L 271.445312 176.023438 L 274.527344 174.78125 L 277.609375 173.535156 L 280.691406 172.285156 L 283.773438 171.042969 L 286.851562 169.804688 L 289.933594 168.578125 L 293.015625 167.363281 L 296.097656 166.167969 L 299.179688 164.992188 L 302.261719 163.839844 L 305.339844 162.710938 L 308.421875 161.609375 L 311.503906 160.539062 L 314.585938 159.503906 L 317.667969 158.5 L 320.746094 157.535156 L 323.828125 156.609375 L 326.910156 155.722656 L 329.992188 154.878906 L 333.074219 154.078125 L 336.15625 153.320312 L 339.234375 152.609375 L 342.316406 151.949219 L 345.398438 151.335938 L 348.480469 150.773438 L 351.5625 150.257812 L 354.640625 149.796875 L 357.722656 149.390625 L 360.804688 149.035156 L 363.886719 148.734375 L 366.96875 148.484375 L 370.050781 148.292969 L 373.128906 148.152344 L 376.210938 148.070312 L 379.292969 148.042969 "/>
<g clip-path="url(#clip3)" clip-rule="nonzero">
<path style="fill:none;stroke-width:1.949458;stroke-linecap:butt;stroke-linejoin:miter;stroke:rgb(90.000763%,36.00061%,5.400168%);stroke-opacity:1;stroke-miterlimit:3.25;" d="M 185.203125 22.546875 L 203.25 22.546875 "/>
</g>
<path style=" stroke:none;fill-rule:evenodd;fill:rgb(0%,0%,0%);fill-opacity:1;" d="M 220.417969 18.859375 C 220.417969 18.574219 220.183594 18.410156 219.949219 18.410156 C 219.433594 18.410156 219.308594 18.894531 219.273438 19.019531 C 218.214844 22.757812 215.769531 24.972656 213.390625 25.761719 L 215.160156 18.589844 C 215.160156 18.519531 215.105469 18.410156 214.964844 18.410156 C 214.839844 18.410156 213.15625 18.574219 212.890625 18.589844 C 212.691406 18.609375 212.515625 18.628906 212.515625 18.949219 C 212.515625 19.128906 212.65625 19.128906 212.90625 19.128906 C 213.75 19.128906 213.800781 19.253906 213.800781 19.449219 C 213.800781 19.519531 213.765625 19.734375 213.75 19.808594 L 212.175781 26.121094 C 212.175781 26.191406 212.226562 26.296875 212.351562 26.296875 L 212.726562 26.296875 C 212.976562 26.296875 215.695312 25.652344 217.789062 23.507812 C 220.09375 21.128906 220.417969 18.929688 220.417969 18.859375 Z M 220.417969 18.859375 "/>
<path style=" stroke:none;fill-rule:evenodd;fill:rgb(0%,0%,0%);fill-opacity:1;" d="M 238.058594 20.253906 C 238.058594 19.933594 237.753906 19.933594 237.449219 19.933594 L 227.457031 19.933594 C 227.152344 19.933594 226.847656 19.933594 226.847656 20.253906 C 226.847656 20.558594 227.117188 20.558594 227.386719 20.558594 L 237.523438 20.558594 C 237.789062 20.558594 238.058594 20.558594 238.058594 20.253906 Z M 238.058594 23.417969 C 238.058594 23.113281 237.789062 23.113281 237.523438 23.113281 L 227.386719 23.113281 C 227.117188 23.113281 226.847656 23.113281 226.847656 23.417969 C 226.847656 23.742188 227.152344 23.742188 227.457031 23.742188 L 237.449219 23.742188 C 237.753906 23.742188 238.058594 23.742188 238.058594 23.417969 Z M 238.058594 23.417969 "/>
<path style=" stroke:none;fill-rule:evenodd;fill:rgb(0%,0%,0%);fill-opacity:1;" d="M 251.523438 23.203125 C 251.523438 21.46875 250.09375 20.21875 248.394531 20.019531 C 249.753906 19.734375 251.058594 18.519531 251.058594 16.894531 C 251.058594 15.5 249.644531 14.480469 248.035156 14.480469 C 246.410156 14.480469 244.980469 15.480469 244.980469 16.910156 C 244.980469 17.535156 245.445312 17.644531 245.675781 17.644531 C 246.054688 17.644531 246.375 17.410156 246.375 16.945312 C 246.375 16.480469 246.054688 16.25 245.675781 16.25 C 245.605469 16.25 245.515625 16.25 245.445312 16.285156 C 245.964844 15.105469 247.375 14.890625 248 14.890625 C 248.628906 14.890625 249.808594 15.195312 249.808594 16.910156 C 249.808594 17.410156 249.734375 18.304688 249.128906 19.089844 C 248.589844 19.789062 247.984375 19.824219 247.394531 19.878906 C 247.304688 19.878906 246.894531 19.914062 246.820312 19.914062 C 246.695312 19.933594 246.625 19.949219 246.625 20.074219 C 246.625 20.199219 246.640625 20.21875 247 20.21875 L 247.875 20.21875 C 249.46875 20.21875 250.164062 21.59375 250.164062 23.1875 C 250.164062 25.332031 249.019531 26.152344 247.984375 26.152344 C 247.035156 26.152344 245.5 25.691406 245.015625 24.3125 C 245.105469 24.347656 245.195312 24.347656 245.285156 24.347656 C 245.710938 24.347656 246.035156 24.0625 246.035156 23.597656 C 246.035156 23.078125 245.640625 22.847656 245.285156 22.847656 C 244.980469 22.847656 244.515625 22.988281 244.515625 23.652344 C 244.515625 25.296875 246.125 26.582031 248.019531 26.582031 C 250.003906 26.582031 251.523438 25.027344 251.523438 23.203125 Z M 251.523438 23.203125 "/>
<path style=" stroke:none;fill-rule:evenodd;fill:rgb(0%,0%,0%);fill-opacity:1;" d="M 255.414062 25.441406 C 255.414062 24.921875 254.984375 24.5625 254.554688 24.5625 C 254.035156 24.5625 253.679688 24.992188 253.679688 25.421875 C 253.679688 25.941406 254.109375 26.296875 254.539062 26.296875 C 255.058594 26.296875 255.414062 25.867188 255.414062 25.441406 Z M 255.414062 25.441406 "/>
<path style=" stroke:none;fill-rule:evenodd;fill:rgb(0%,0%,0%);fill-opacity:1;" d="M 264.480469 22.683594 C 264.480469 20.539062 263.085938 18.878906 261.351562 18.878906 C 260.441406 18.878906 259.671875 19.214844 259.0625 19.859375 L 259.0625 15.835938 C 259.242188 15.910156 259.972656 16.140625 260.726562 16.140625 C 262.386719 16.140625 263.300781 15.25 263.820312 14.730469 C 263.820312 14.585938 263.820312 14.496094 263.710938 14.496094 C 263.710938 14.496094 263.660156 14.496094 263.515625 14.570312 C 262.890625 14.835938 262.15625 15.050781 261.261719 15.050781 C 260.726562 15.050781 259.921875 14.980469 259.042969 14.585938 C 258.847656 14.496094 258.792969 14.496094 258.792969 14.496094 C 258.707031 14.496094 258.6875 14.515625 258.6875 14.875 L 258.6875 20.058594 C 258.6875 20.378906 258.6875 20.46875 258.867188 20.46875 C 258.957031 20.46875 258.992188 20.433594 259.082031 20.308594 C 259.652344 19.503906 260.441406 19.164062 261.332031 19.164062 C 261.957031 19.164062 263.300781 19.558594 263.300781 22.613281 C 263.300781 23.1875 263.300781 24.222656 262.761719 25.046875 C 262.316406 25.777344 261.621094 26.152344 260.851562 26.152344 C 259.671875 26.152344 258.472656 25.332031 258.152344 23.957031 C 258.222656 23.972656 258.363281 24.007812 258.4375 24.007812 C 258.667969 24.007812 259.117188 23.882812 259.117188 23.328125 C 259.117188 22.847656 258.777344 22.648438 258.4375 22.648438 C 258.027344 22.648438 257.757812 22.902344 257.757812 23.402344 C 257.757812 24.957031 258.992188 26.582031 260.886719 26.582031 C 262.730469 26.582031 264.480469 24.992188 264.480469 22.683594 Z M 264.480469 22.683594 "/>
<g clip-path="url(#clip4)" clip-rule="nonzero">
<path style="fill:none;stroke-width:1.949458;stroke-linecap:butt;stroke-linejoin:miter;stroke:rgb(36.525521%,42.780194%,75.829709%);stroke-opacity:1;stroke-miterlimit:3.25;" d="M 185.203125 55.660156 L 203.25 55.660156 "/>
</g>
<path style=" stroke:none;fill-rule:evenodd;fill:rgb(0%,0%,0%);fill-opacity:1;" d="M 220.414062 51.972656 C 220.414062 51.683594 220.183594 51.523438 219.949219 51.523438 C 219.433594 51.523438 219.308594 52.007812 219.273438 52.132812 C 218.214844 55.867188 215.769531 58.085938 213.390625 58.875 L 215.160156 51.703125 C 215.160156 51.632812 215.105469 51.523438 214.964844 51.523438 C 214.839844 51.523438 213.15625 51.683594 212.890625 51.703125 C 212.691406 51.722656 212.515625 51.738281 212.515625 52.0625 C 212.515625 52.238281 212.65625 52.238281 212.90625 52.238281 C 213.746094 52.238281 213.800781 52.363281 213.800781 52.5625 C 213.800781 52.632812 213.765625 52.847656 213.746094 52.917969 L 212.175781 59.230469 C 212.175781 59.300781 212.226562 59.410156 212.351562 59.410156 L 212.726562 59.410156 C 212.976562 59.410156 215.695312 58.765625 217.789062 56.621094 C 220.09375 54.242188 220.414062 52.042969 220.414062 51.972656 Z M 220.414062 51.972656 "/>
<path style=" stroke:none;fill-rule:evenodd;fill:rgb(0%,0%,0%);fill-opacity:1;" d="M 238.058594 53.367188 C 238.058594 53.042969 237.753906 53.042969 237.449219 53.042969 L 227.453125 53.042969 C 227.152344 53.042969 226.847656 53.042969 226.847656 53.367188 C 226.847656 53.671875 227.117188 53.671875 227.382812 53.671875 L 237.519531 53.671875 C 237.789062 53.671875 238.058594 53.671875 238.058594 53.367188 Z M 238.058594 56.53125 C 238.058594 56.226562 237.789062 56.226562 237.519531 56.226562 L 227.382812 56.226562 C 227.117188 56.226562 226.847656 56.226562 226.847656 56.53125 C 226.847656 56.851562 227.152344 56.851562 227.453125 56.851562 L 237.449219 56.851562 C 237.753906 56.851562 238.058594 56.851562 238.058594 56.53125 Z M 238.058594 56.53125 "/>
<path style=" stroke:none;fill-rule:evenodd;fill:rgb(0%,0%,0%);fill-opacity:1;" d="M 251.753906 56.371094 L 251.753906 55.90625 L 249.929688 55.90625 L 249.929688 47.839844 C 249.929688 47.464844 249.914062 47.449219 249.589844 47.449219 L 244.28125 55.90625 L 244.28125 56.371094 L 248.894531 56.371094 L 248.894531 58.121094 C 248.894531 58.765625 248.855469 58.945312 247.605469 58.945312 L 247.265625 58.945312 L 247.265625 59.410156 C 247.839844 59.375 248.804688 59.375 249.410156 59.375 C 250.019531 59.375 250.984375 59.375 251.554688 59.410156 L 251.554688 58.945312 L 251.21875 58.945312 C 249.964844 58.945312 249.929688 58.765625 249.929688 58.121094 L 249.929688 56.371094 Z M 248.949219 55.90625 L 244.636719 55.90625 L 248.949219 49.019531 Z M 248.949219 55.90625 "/>
<g clip-path="url(#clip5)" clip-rule="nonzero">
<path style="fill:none;stroke-width:1.949458;stroke-linecap:butt;stroke-linejoin:miter;stroke:rgb(94.51133%,59.389639%,0%);stroke-opacity:1;stroke-miterlimit:3.25;" d="M 185.203125 88.773438 L 203.25 88.773438 "/>
</g>
<path style=" stroke:none;fill-rule:evenodd;fill:rgb(0%,0%,0%);fill-opacity:1;" d="M 220.414062 85.082031 C 220.414062 84.796875 220.183594 84.636719 219.949219 84.636719 C 219.433594 84.636719 219.308594 85.117188 219.273438 85.242188 C 218.214844 88.980469 215.769531 91.199219 213.390625 91.984375 L 215.160156 84.816406 C 215.160156 84.742188 215.105469 84.636719 214.964844 84.636719 C 214.839844 84.636719 213.15625 84.796875 212.890625 84.816406 C 212.691406 84.832031 212.515625 84.851562 212.515625 85.171875 C 212.515625 85.351562 212.65625 85.351562 212.90625 85.351562 C 213.746094 85.351562 213.800781 85.476562 213.800781 85.671875 C 213.800781 85.746094 213.765625 85.960938 213.746094 86.03125 L 212.175781 92.34375 C 212.175781 92.414062 212.226562 92.519531 212.351562 92.519531 L 212.726562 92.519531 C 212.976562 92.519531 215.695312 91.878906 217.789062 89.730469 C 220.09375 87.355469 220.414062 85.15625 220.414062 85.082031 Z M 220.414062 85.082031 "/>
<path style=" stroke:none;fill-rule:evenodd;fill:rgb(0%,0%,0%);fill-opacity:1;" d="M 238.058594 86.476562 C 238.058594 86.15625 237.753906 86.15625 237.449219 86.15625 L 227.453125 86.15625 C 227.152344 86.15625 226.847656 86.15625 226.847656 86.476562 C 226.847656 86.78125 227.117188 86.78125 227.382812 86.78125 L 237.519531 86.78125 C 237.789062 86.78125 238.058594 86.78125 238.058594 86.476562 Z M 238.058594 89.644531 C 238.058594 89.339844 237.789062 89.339844 237.519531 89.339844 L 227.382812 89.339844 C 227.117188 89.339844 226.847656 89.339844 226.847656 89.644531 C 226.847656 89.964844 227.152344 89.964844 227.453125 89.964844 L 237.449219 89.964844 C 237.753906 89.964844 238.058594 89.964844 238.058594 89.644531 Z M 238.058594 89.644531 "/>
<path style=" stroke:none;fill-rule:evenodd;fill:rgb(0%,0%,0%);fill-opacity:1;" d="M 251.378906 88.910156 C 251.378906 86.765625 249.984375 85.101562 248.25 85.101562 C 247.339844 85.101562 246.570312 85.441406 245.960938 86.085938 L 245.960938 82.0625 C 246.140625 82.132812 246.871094 82.367188 247.625 82.367188 C 249.285156 82.367188 250.199219 81.472656 250.71875 80.953125 C 250.71875 80.808594 250.71875 80.71875 250.609375 80.71875 C 250.609375 80.71875 250.554688 80.71875 250.414062 80.792969 C 249.789062 81.0625 249.054688 81.273438 248.160156 81.273438 C 247.625 81.273438 246.820312 81.203125 245.941406 80.808594 C 245.746094 80.71875 245.691406 80.71875 245.691406 80.71875 C 245.605469 80.71875 245.585938 80.738281 245.585938 81.097656 L 245.585938 86.28125 C 245.585938 86.601562 245.585938 86.691406 245.765625 86.691406 C 245.855469 86.691406 245.890625 86.65625 245.980469 86.53125 C 246.550781 85.726562 247.339844 85.386719 248.230469 85.386719 C 248.855469 85.386719 250.199219 85.78125 250.199219 88.839844 C 250.199219 89.410156 250.199219 90.449219 249.660156 91.269531 C 249.214844 92.003906 248.519531 92.378906 247.75 92.378906 C 246.570312 92.378906 245.371094 91.554688 245.050781 90.179688 C 245.121094 90.195312 245.261719 90.230469 245.335938 90.230469 C 245.566406 90.230469 246.015625 90.105469 246.015625 89.550781 C 246.015625 89.070312 245.675781 88.871094 245.335938 88.871094 C 244.925781 88.871094 244.65625 89.125 244.65625 89.625 C 244.65625 91.179688 245.890625 92.808594 247.785156 92.808594 C 249.625 92.808594 251.378906 91.214844 251.378906 88.910156 Z M 251.378906 88.910156 "/>
<path style="fill:none;stroke-width:0.5;stroke-linecap:square;stroke-linejoin:miter;stroke:rgb(40%,40%,40%);stroke-opacity:1;stroke-miterlimit:3.25;" d="M 388.921875 203.976562 L 61.53125 203.976562 "/>
<path style="fill:none;stroke-width:0.5;stroke-linecap:square;stroke-linejoin:miter;stroke:rgb(40%,40%,40%);stroke-opacity:1;stroke-miterlimit:3.25;" d="M 61.53125 203.976562 L 61.53125 1.640625 "/>
<path style="fill:none;stroke-width:0.5;stroke-linecap:square;stroke-linejoin:miter;stroke:rgb(40%,40%,40%);stroke-opacity:1;stroke-miterlimit:3.25;" d="M 61.53125 1.640625 L 388.921875 1.640625 "/>
<path style="fill:none;stroke-width:0.5;stroke-linecap:square;stroke-linejoin:miter;stroke:rgb(40%,40%,40%);stroke-opacity:1;stroke-miterlimit:3.25;" d="M 388.921875 1.640625 L 388.921875 203.976562 "/>
<path style="fill:none;stroke-width:0.5;stroke-linecap:butt;stroke-linejoin:miter;stroke:rgb(40%,40%,40%);stroke-opacity:1;stroke-miterlimit:3.25;" d="M 101.972656 203.976562 L 101.972656 200.117188 "/>
<path style=" stroke:none;fill-rule:evenodd;fill:rgb(0%,0%,0%);fill-opacity:1;" d="M 96.75 218.515625 C 96.75 218.160156 96.40625 218.160156 96.15625 218.160156 L 86.414062 218.160156 C 86.164062 218.160156 85.824219 218.160156 85.824219 218.515625 C 85.824219 218.875 86.164062 218.875 86.414062 218.875 L 96.15625 218.875 C 96.40625 218.875 96.75 218.875 96.75 218.515625 Z M 96.75 218.515625 "/>
<path style=" stroke:none;fill-rule:evenodd;fill:rgb(0%,0%,0%);fill-opacity:1;" d="M 105.746094 217.246094 C 105.746094 216.15625 105.730469 214.296875 104.980469 212.867188 C 104.316406 211.617188 103.261719 211.167969 102.332031 211.167969 C 101.472656 211.167969 100.382812 211.5625 99.703125 212.847656 C 98.988281 214.191406 98.917969 215.851562 98.917969 217.246094 C 98.917969 218.265625 98.933594 219.820312 99.488281 221.179688 C 100.257812 223.023438 101.636719 223.273438 102.332031 223.273438 C 103.15625 223.273438 104.40625 222.933594 105.140625 221.234375 C 105.675781 220 105.746094 218.550781 105.746094 217.246094 Z M 104.605469 217.050781 C 104.605469 218.214844 104.605469 219.644531 104.390625 220.699219 C 104.011719 222.648438 102.957031 222.988281 102.332031 222.988281 C 101.1875 222.988281 100.507812 222.003906 100.257812 220.644531 C 100.0625 219.589844 100.0625 218.050781 100.0625 217.050781 C 100.0625 215.675781 100.0625 214.53125 100.292969 213.4375 C 100.632812 211.917969 101.636719 211.453125 102.332031 211.453125 C 103.066406 211.453125 104.011719 211.9375 104.355469 213.402344 C 104.585938 214.421875 104.605469 215.621094 104.605469 217.050781 Z M 104.605469 217.050781 "/>
<path style=" stroke:none;fill-rule:evenodd;fill:rgb(0%,0%,0%);fill-opacity:1;" d="M 109.828125 222.128906 C 109.828125 221.609375 109.398438 221.253906 108.96875 221.253906 C 108.449219 221.253906 108.09375 221.683594 108.09375 222.109375 C 108.09375 222.628906 108.523438 222.988281 108.953125 222.988281 C 109.46875 222.988281 109.828125 222.558594 109.828125 222.128906 Z M 109.828125 222.128906 "/>
<path style=" stroke:none;fill-rule:evenodd;fill:rgb(0%,0%,0%);fill-opacity:1;" d="M 119.167969 219.949219 L 119.167969 219.480469 L 117.34375 219.480469 L 117.34375 211.417969 C 117.34375 211.042969 117.328125 211.023438 117.003906 211.023438 L 111.695312 219.480469 L 111.695312 219.949219 L 116.308594 219.949219 L 116.308594 221.699219 C 116.308594 222.34375 116.269531 222.519531 115.019531 222.519531 L 114.679688 222.519531 L 114.679688 222.988281 C 115.253906 222.949219 116.21875 222.949219 116.824219 222.949219 C 117.433594 222.949219 118.398438 222.949219 118.972656 222.988281 L 118.972656 222.519531 L 118.632812 222.519531 C 117.378906 222.519531 117.34375 222.34375 117.34375 221.699219 L 117.34375 219.949219 Z M 116.363281 219.480469 L 112.054688 219.480469 L 116.363281 212.597656 Z M 116.363281 219.480469 "/>
<path style="fill:none;stroke-width:0.5;stroke-linecap:butt;stroke-linejoin:miter;stroke:rgb(40%,40%,40%);stroke-opacity:1;stroke-miterlimit:3.25;" d="M 163.601562 203.976562 L 163.601562 200.117188 "/>
<path style=" stroke:none;fill-rule:evenodd;fill:rgb(0%,0%,0%);fill-opacity:1;" d="M 158.375 218.515625 C 158.375 218.160156 158.035156 218.160156 157.785156 218.160156 L 148.039062 218.160156 C 147.789062 218.160156 147.449219 218.160156 147.449219 218.515625 C 147.449219 218.875 147.789062 218.875 148.039062 218.875 L 157.785156 218.875 C 158.035156 218.875 158.375 218.875 158.375 218.515625 Z M 158.375 218.515625 "/>
<path style=" stroke:none;fill-rule:evenodd;fill:rgb(0%,0%,0%);fill-opacity:1;" d="M 167.375 217.246094 C 167.375 216.15625 167.355469 214.296875 166.605469 212.867188 C 165.945312 211.617188 164.890625 211.167969 163.960938 211.167969 C 163.101562 211.167969 162.011719 211.5625 161.332031 212.847656 C 160.617188 214.191406 160.546875 215.851562 160.546875 217.246094 C 160.546875 218.265625 160.5625 219.820312 161.117188 221.179688 C 161.886719 223.023438 163.261719 223.273438 163.960938 223.273438 C 164.78125 223.273438 166.035156 222.933594 166.765625 221.234375 C 167.304688 220 167.375 218.550781 167.375 217.246094 Z M 166.230469 217.050781 C 166.230469 218.214844 166.230469 219.644531 166.015625 220.699219 C 165.640625 222.648438 164.585938 222.988281 163.960938 222.988281 C 162.816406 222.988281 162.136719 222.003906 161.886719 220.644531 C 161.6875 219.589844 161.6875 218.050781 161.6875 217.050781 C 161.6875 215.675781 161.6875 214.53125 161.921875 213.4375 C 162.261719 211.917969 163.261719 211.453125 163.960938 211.453125 C 164.691406 211.453125 165.640625 211.9375 165.980469 213.402344 C 166.210938 214.421875 166.230469 215.621094 166.230469 217.050781 Z M 166.230469 217.050781 "/>
<path style=" stroke:none;fill-rule:evenodd;fill:rgb(0%,0%,0%);fill-opacity:1;" d="M 171.453125 222.128906 C 171.453125 221.609375 171.023438 221.253906 170.59375 221.253906 C 170.078125 221.253906 169.71875 221.683594 169.71875 222.109375 C 169.71875 222.628906 170.148438 222.988281 170.578125 222.988281 C 171.097656 222.988281 171.453125 222.558594 171.453125 222.128906 Z M 171.453125 222.128906 "/>
<path style=" stroke:none;fill-rule:evenodd;fill:rgb(0%,0%,0%);fill-opacity:1;" d="M 180.417969 220.214844 L 180.097656 220.214844 C 179.917969 221.484375 179.777344 221.699219 179.703125 221.808594 C 179.613281 221.949219 178.328125 221.949219 178.078125 221.949219 L 174.644531 221.949219 L 178.058594 218.515625 C 179.148438 217.480469 180.417969 216.261719 180.417969 214.492188 C 180.417969 212.382812 178.738281 211.167969 176.863281 211.167969 C 174.894531 211.167969 173.695312 212.902344 173.695312 214.511719 C 173.695312 215.210938 174.214844 215.296875 174.429688 215.296875 C 174.609375 215.296875 175.144531 215.191406 175.144531 214.566406 C 175.144531 214.011719 174.679688 213.851562 174.429688 213.851562 C 174.324219 213.851562 174.214844 213.867188 174.144531 213.90625 C 174.484375 212.382812 175.519531 211.632812 176.613281 211.632812 C 178.167969 211.632812 179.183594 212.867188 179.183594 214.492188 C 179.183594 216.050781 178.273438 217.390625 177.253906 218.550781 L 173.695312 222.574219 L 173.695312 222.988281 L 179.988281 222.988281 Z M 180.417969 220.214844 "/>
<path style="fill:none;stroke-width:0.5;stroke-linecap:butt;stroke-linejoin:miter;stroke:rgb(40%,40%,40%);stroke-opacity:1;stroke-miterlimit:3.25;" d="M 225.226562 203.976562 L 225.226562 200.117188 "/>
<path style=" stroke:none;fill-rule:evenodd;fill:rgb(0%,0%,0%);fill-opacity:1;" d="M 228.625 217.246094 C 228.625 216.15625 228.609375 214.296875 227.855469 212.867188 C 227.195312 211.613281 226.140625 211.167969 225.210938 211.167969 C 224.351562 211.167969 223.261719 211.5625 222.582031 212.847656 C 221.867188 214.1875 221.796875 215.851562 221.796875 217.246094 C 221.796875 218.265625 221.8125 219.820312 222.367188 221.175781 C 223.136719 223.019531 224.511719 223.269531 225.210938 223.269531 C 226.035156 223.269531 227.285156 222.929688 228.015625 221.230469 C 228.554688 219.996094 228.625 218.550781 228.625 217.246094 Z M 227.480469 217.050781 C 227.480469 218.210938 227.480469 219.640625 227.265625 220.695312 C 226.890625 222.644531 225.835938 222.984375 225.210938 222.984375 C 224.066406 222.984375 223.386719 222 223.136719 220.640625 C 222.941406 219.585938 222.941406 218.050781 222.941406 217.050781 C 222.941406 215.671875 222.941406 214.527344 223.171875 213.4375 C 223.511719 211.917969 224.511719 211.453125 225.210938 211.453125 C 225.945312 211.453125 226.890625 211.9375 227.230469 213.402344 C 227.460938 214.421875 227.480469 215.617188 227.480469 217.050781 Z M 227.480469 217.050781 "/>
<path style="fill:none;stroke-width:0.5;stroke-linecap:butt;stroke-linejoin:miter;stroke:rgb(40%,40%,40%);stroke-opacity:1;stroke-miterlimit:3.25;" d="M 286.851562 203.976562 L 286.851562 200.117188 "/>
<path style=" stroke:none;fill-rule:evenodd;fill:rgb(0%,0%,0%);fill-opacity:1;" d="M 283.703125 217.25 C 283.703125 216.15625 283.683594 214.296875 282.933594 212.867188 C 282.273438 211.617188 281.21875 211.167969 280.289062 211.167969 C 279.429688 211.167969 278.339844 211.5625 277.660156 212.847656 C 276.945312 214.191406 276.875 215.851562 276.875 217.25 C 276.875 218.265625 276.890625 219.820312 277.445312 221.179688 C 278.214844 223.023438 279.589844 223.273438 280.289062 223.273438 C 281.109375 223.273438 282.363281 222.933594 283.09375 221.234375 C 283.632812 220 283.703125 218.554688 283.703125 217.25 Z M 282.558594 217.050781 C 282.558594 218.214844 282.558594 219.644531 282.34375 220.699219 C 281.96875 222.648438 280.914062 222.988281 280.289062 222.988281 C 279.144531 222.988281 278.464844 222.003906 278.214844 220.644531 C 278.015625 219.589844 278.015625 218.054688 278.015625 217.050781 C 278.015625 215.675781 278.015625 214.53125 278.25 213.4375 C 278.589844 211.917969 279.589844 211.453125 280.289062 211.453125 C 281.023438 211.453125 281.96875 211.9375 282.308594 213.402344 C 282.539062 214.421875 282.558594 215.621094 282.558594 217.050781 Z M 282.558594 217.050781 "/>
<path style=" stroke:none;fill-rule:evenodd;fill:rgb(0%,0%,0%);fill-opacity:1;" d="M 287.683594 222.128906 C 287.683594 221.609375 287.253906 221.253906 286.824219 221.253906 C 286.304688 221.253906 285.949219 221.683594 285.949219 222.109375 C 285.949219 222.628906 286.378906 222.988281 286.808594 222.988281 C 287.324219 222.988281 287.683594 222.558594 287.683594 222.128906 Z M 287.683594 222.128906 "/>
<path style=" stroke:none;fill-rule:evenodd;fill:rgb(0%,0%,0%);fill-opacity:1;" d="M 296.75 220.214844 L 296.425781 220.214844 C 296.25 221.484375 296.105469 221.699219 296.035156 221.808594 C 295.945312 221.949219 294.65625 221.949219 294.40625 221.949219 L 290.972656 221.949219 L 294.386719 218.515625 C 295.480469 217.480469 296.75 216.265625 296.75 214.492188 C 296.75 212.382812 295.066406 211.167969 293.191406 211.167969 C 291.222656 211.167969 290.027344 212.902344 290.027344 214.511719 C 290.027344 215.210938 290.542969 215.296875 290.757812 215.296875 C 290.9375 215.296875 291.472656 215.191406 291.472656 214.566406 C 291.472656 214.011719 291.011719 213.851562 290.757812 213.851562 C 290.652344 213.851562 290.542969 213.867188 290.472656 213.90625 C 290.8125 212.382812 291.847656 211.632812 292.941406 211.632812 C 294.496094 211.632812 295.515625 212.867188 295.515625 214.492188 C 295.515625 216.050781 294.605469 217.390625 293.582031 218.554688 L 290.027344 222.574219 L 290.027344 222.988281 L 296.320312 222.988281 Z M 296.75 220.214844 "/>
<path style="fill:none;stroke-width:0.5;stroke-linecap:butt;stroke-linejoin:miter;stroke:rgb(40%,40%,40%);stroke-opacity:1;stroke-miterlimit:3.25;" d="M 348.480469 203.976562 L 348.480469 200.117188 "/>
<path style=" stroke:none;fill-rule:evenodd;fill:rgb(0%,0%,0%);fill-opacity:1;" d="M 345.328125 217.25 C 345.328125 216.15625 345.3125 214.296875 344.5625 212.867188 C 343.898438 211.617188 342.84375 211.167969 341.914062 211.167969 C 341.054688 211.167969 339.964844 211.5625 339.285156 212.847656 C 338.570312 214.191406 338.5 215.851562 338.5 217.25 C 338.5 218.265625 338.515625 219.820312 339.070312 221.179688 C 339.839844 223.023438 341.21875 223.273438 341.914062 223.273438 C 342.738281 223.273438 343.988281 222.933594 344.722656 221.234375 C 345.257812 220 345.328125 218.554688 345.328125 217.25 Z M 344.1875 217.050781 C 344.1875 218.214844 344.1875 219.644531 343.972656 220.699219 C 343.59375 222.648438 342.539062 222.988281 341.914062 222.988281 C 340.769531 222.988281 340.089844 222.003906 339.839844 220.644531 C 339.644531 219.589844 339.644531 218.054688 339.644531 217.050781 C 339.644531 215.675781 339.644531 214.53125 339.875 213.4375 C 340.214844 211.917969 341.21875 211.453125 341.914062 211.453125 C 342.648438 211.453125 343.59375 211.9375 343.9375 213.402344 C 344.167969 214.421875 344.1875 215.621094 344.1875 217.050781 Z M 344.1875 217.050781 "/>
<path style=" stroke:none;fill-rule:evenodd;fill:rgb(0%,0%,0%);fill-opacity:1;" d="M 349.308594 222.128906 C 349.308594 221.609375 348.878906 221.253906 348.449219 221.253906 C 347.933594 221.253906 347.574219 221.683594 347.574219 222.109375 C 347.574219 222.628906 348.003906 222.988281 348.433594 222.988281 C 348.953125 222.988281 349.308594 222.558594 349.308594 222.128906 Z M 349.308594 222.128906 "/>
<path style=" stroke:none;fill-rule:evenodd;fill:rgb(0%,0%,0%);fill-opacity:1;" d="M 358.75 219.949219 L 358.75 219.484375 L 356.925781 219.484375 L 356.925781 211.417969 C 356.925781 211.042969 356.910156 211.023438 356.589844 211.023438 L 351.277344 219.484375 L 351.277344 219.949219 L 355.890625 219.949219 L 355.890625 221.699219 C 355.890625 222.34375 355.855469 222.519531 354.601562 222.519531 L 354.261719 222.519531 L 354.261719 222.988281 C 354.835938 222.949219 355.800781 222.949219 356.410156 222.949219 C 357.015625 222.949219 357.980469 222.949219 358.554688 222.988281 L 358.554688 222.519531 L 358.214844 222.519531 C 356.964844 222.519531 356.925781 222.34375 356.925781 221.699219 L 356.925781 219.949219 Z M 355.945312 219.484375 L 351.636719 219.484375 L 355.945312 212.597656 Z M 355.945312 219.484375 "/>
<path style="fill:none;stroke-width:0.5;stroke-linecap:butt;stroke-linejoin:miter;stroke:rgb(40%,40%,40%);stroke-opacity:1;stroke-miterlimit:3.25;" d="M 61.53125 189.417969 L 65.390625 189.417969 "/>
<path style=" stroke:none;fill-rule:evenodd;fill:rgb(0%,0%,0%);fill-opacity:1;" d="M 56.820312 187.9375 C 56.820312 186.84375 56.804688 184.984375 56.050781 183.554688 C 55.390625 182.304688 54.335938 181.859375 53.40625 181.859375 C 52.546875 181.859375 51.457031 182.25 50.777344 183.535156 C 50.066406 184.878906 49.992188 186.539062 49.992188 187.9375 C 49.992188 188.953125 50.011719 190.507812 50.566406 191.867188 C 51.332031 193.710938 52.710938 193.957031 53.40625 193.957031 C 54.230469 193.957031 55.480469 193.621094 56.214844 191.921875 C 56.75 190.6875 56.820312 189.238281 56.820312 187.9375 Z M 55.675781 187.738281 C 55.675781 188.902344 55.675781 190.332031 55.464844 191.382812 C 55.085938 193.335938 54.03125 193.671875 53.40625 193.671875 C 52.261719 193.671875 51.582031 192.691406 51.332031 191.332031 C 51.136719 190.277344 51.136719 188.738281 51.136719 187.738281 C 51.136719 186.363281 51.136719 185.21875 51.371094 184.128906 C 51.707031 182.609375 52.710938 182.144531 53.40625 182.144531 C 54.140625 182.144531 55.085938 182.625 55.425781 184.089844 C 55.660156 185.109375 55.675781 186.308594 55.675781 187.738281 Z M 55.675781 187.738281 "/>
<path style="fill:none;stroke-width:0.5;stroke-linecap:butt;stroke-linejoin:miter;stroke:rgb(40%,40%,40%);stroke-opacity:1;stroke-miterlimit:3.25;" d="M 61.53125 145.003906 L 65.390625 145.003906 "/>
<path style=" stroke:none;fill-rule:evenodd;fill:rgb(0%,0%,0%);fill-opacity:1;" d="M 47.957031 149.257812 L 47.957031 148.792969 L 47.417969 148.792969 C 45.882812 148.792969 45.847656 148.597656 45.847656 147.953125 L 45.847656 137.832031 C 45.847656 137.457031 45.828125 137.4375 45.578125 137.4375 C 44.878906 138.28125 43.824219 138.546875 42.824219 138.582031 C 42.769531 138.582031 42.679688 138.582031 42.664062 138.617188 C 42.644531 138.65625 42.644531 138.691406 42.644531 139.066406 C 43.199219 139.066406 44.128906 138.957031 44.84375 138.53125 L 44.84375 147.953125 C 44.84375 148.578125 44.808594 148.792969 43.269531 148.792969 L 42.734375 148.792969 L 42.734375 149.257812 L 45.347656 149.222656 Z M 47.957031 149.257812 "/>
<path style=" stroke:none;fill-rule:evenodd;fill:rgb(0%,0%,0%);fill-opacity:1;" d="M 56.800781 143.519531 C 56.800781 142.429688 56.78125 140.566406 56.03125 139.136719 C 55.371094 137.886719 54.316406 137.4375 53.386719 137.4375 C 52.527344 137.4375 51.4375 137.832031 50.757812 139.117188 C 50.042969 140.460938 49.96875 142.125 49.96875 143.519531 C 49.96875 144.539062 49.988281 146.09375 50.542969 147.453125 C 51.3125 149.292969 52.6875 149.542969 53.386719 149.542969 C 54.207031 149.542969 55.460938 149.207031 56.191406 147.507812 C 56.730469 146.273438 56.800781 144.824219 56.800781 143.519531 Z M 55.65625 143.324219 C 55.65625 144.484375 55.65625 145.914062 55.441406 146.96875 C 55.066406 148.917969 54.011719 149.257812 53.386719 149.257812 C 52.242188 149.257812 51.5625 148.277344 51.3125 146.917969 C 51.113281 145.863281 51.113281 144.324219 51.113281 143.324219 C 51.113281 141.945312 51.113281 140.800781 51.347656 139.710938 C 51.6875 138.1875 52.6875 137.726562 53.386719 137.726562 C 54.117188 137.726562 55.066406 138.207031 55.40625 139.671875 C 55.636719 140.691406 55.65625 141.890625 55.65625 143.324219 Z M 55.65625 143.324219 "/>
<path style="fill:none;stroke-width:0.5;stroke-linecap:butt;stroke-linejoin:miter;stroke:rgb(40%,40%,40%);stroke-opacity:1;stroke-miterlimit:3.25;" d="M 61.53125 100.585938 L 65.390625 100.585938 "/>
<path style=" stroke:none;fill-rule:evenodd;fill:rgb(0%,0%,0%);fill-opacity:1;" d="M 48.546875 102.070312 L 48.222656 102.070312 C 48.046875 103.339844 47.902344 103.554688 47.832031 103.664062 C 47.742188 103.804688 46.453125 103.804688 46.203125 103.804688 L 42.769531 103.804688 L 46.183594 100.371094 C 47.277344 99.335938 48.546875 98.117188 48.546875 96.347656 C 48.546875 94.238281 46.863281 93.023438 44.988281 93.023438 C 43.019531 93.023438 41.824219 94.757812 41.824219 96.367188 C 41.824219 97.0625 42.339844 97.152344 42.554688 97.152344 C 42.734375 97.152344 43.269531 97.046875 43.269531 96.421875 C 43.269531 95.867188 42.808594 95.703125 42.554688 95.703125 C 42.449219 95.703125 42.339844 95.722656 42.269531 95.757812 C 42.609375 94.238281 43.644531 93.488281 44.738281 93.488281 C 46.292969 93.488281 47.3125 94.722656 47.3125 96.347656 C 47.3125 97.90625 46.402344 99.246094 45.378906 100.410156 L 41.824219 104.433594 L 41.824219 104.84375 L 48.117188 104.84375 Z M 48.546875 102.070312 "/>
<path style=" stroke:none;fill-rule:evenodd;fill:rgb(0%,0%,0%);fill-opacity:1;" d="M 56.800781 99.101562 C 56.800781 98.011719 56.78125 96.152344 56.03125 94.722656 C 55.371094 93.46875 54.316406 93.023438 53.386719 93.023438 C 52.527344 93.023438 51.4375 93.417969 50.757812 94.703125 C 50.042969 96.046875 49.96875 97.707031 49.96875 99.101562 C 49.96875 100.121094 49.988281 101.675781 50.542969 103.035156 C 51.3125 104.878906 52.6875 105.128906 53.386719 105.128906 C 54.207031 105.128906 55.460938 104.789062 56.191406 103.089844 C 56.730469 101.855469 56.800781 100.410156 56.800781 99.101562 Z M 55.65625 98.90625 C 55.65625 100.070312 55.65625 101.5 55.441406 102.554688 C 55.066406 104.503906 54.011719 104.84375 53.386719 104.84375 C 52.242188 104.84375 51.5625 103.859375 51.3125 102.5 C 51.113281 101.445312 51.113281 99.90625 51.113281 98.90625 C 51.113281 97.53125 51.113281 96.382812 51.347656 95.292969 C 51.6875 93.773438 52.6875 93.308594 53.386719 93.308594 C 54.117188 93.308594 55.066406 93.792969 55.40625 95.257812 C 55.636719 96.277344 55.65625 97.476562 55.65625 98.90625 Z M 55.65625 98.90625 "/>
<path style="fill:none;stroke-width:0.5;stroke-linecap:butt;stroke-linejoin:miter;stroke:rgb(40%,40%,40%);stroke-opacity:1;stroke-miterlimit:3.25;" d="M 61.53125 56.171875 L 65.390625 56.171875 "/>
<path style=" stroke:none;fill-rule:evenodd;fill:rgb(0%,0%,0%);fill-opacity:1;" d="M 48.691406 57.332031 C 48.691406 55.597656 47.257812 54.347656 45.558594 54.148438 C 46.917969 53.863281 48.222656 52.648438 48.222656 51.023438 C 48.222656 49.625 46.8125 48.609375 45.203125 48.609375 C 43.574219 48.609375 42.144531 49.609375 42.144531 51.039062 C 42.144531 51.664062 42.609375 51.773438 42.839844 51.773438 C 43.21875 51.773438 43.539062 51.539062 43.539062 51.074219 C 43.539062 50.609375 43.21875 50.378906 42.839844 50.378906 C 42.769531 50.378906 42.679688 50.378906 42.609375 50.414062 C 43.128906 49.234375 44.542969 49.019531 45.167969 49.019531 C 45.792969 49.019531 46.972656 49.324219 46.972656 51.039062 C 46.972656 51.539062 46.902344 52.433594 46.292969 53.21875 C 45.757812 53.917969 45.148438 53.953125 44.558594 54.007812 C 44.46875 54.007812 44.058594 54.042969 43.988281 54.042969 C 43.863281 54.0625 43.789062 54.078125 43.789062 54.203125 C 43.789062 54.328125 43.808594 54.347656 44.164062 54.347656 L 45.042969 54.347656 C 46.632812 54.347656 47.332031 55.722656 47.332031 57.316406 C 47.332031 59.460938 46.183594 60.285156 45.148438 60.285156 C 44.199219 60.285156 42.664062 59.820312 42.179688 58.441406 C 42.269531 58.476562 42.359375 58.476562 42.449219 58.476562 C 42.878906 58.476562 43.199219 58.191406 43.199219 57.726562 C 43.199219 57.207031 42.808594 56.976562 42.449219 56.976562 C 42.144531 56.976562 41.679688 57.117188 41.679688 57.78125 C 41.679688 59.425781 43.289062 60.714844 45.183594 60.714844 C 47.167969 60.714844 48.691406 59.160156 48.691406 57.332031 Z M 48.691406 57.332031 "/>
<path style=" stroke:none;fill-rule:evenodd;fill:rgb(0%,0%,0%);fill-opacity:1;" d="M 56.800781 54.6875 C 56.800781 53.597656 56.78125 51.734375 56.03125 50.304688 C 55.371094 49.054688 54.316406 48.609375 53.386719 48.609375 C 52.527344 48.609375 51.4375 49 50.757812 50.289062 C 50.042969 51.628906 49.96875 53.292969 49.96875 54.6875 C 49.96875 55.707031 49.988281 57.261719 50.542969 58.621094 C 51.3125 60.464844 52.6875 60.714844 53.386719 60.714844 C 54.207031 60.714844 55.460938 60.375 56.191406 58.675781 C 56.730469 57.441406 56.800781 55.992188 56.800781 54.6875 Z M 55.65625 54.492188 C 55.65625 55.652344 55.65625 57.082031 55.441406 58.136719 C 55.066406 60.089844 54.011719 60.425781 53.386719 60.425781 C 52.242188 60.425781 51.5625 59.445312 51.3125 58.085938 C 51.113281 57.03125 51.113281 55.492188 51.113281 54.492188 C 51.113281 53.113281 51.113281 51.96875 51.347656 50.878906 C 51.6875 49.359375 52.6875 48.894531 53.386719 48.894531 C 54.117188 48.894531 55.066406 49.375 55.40625 50.84375 C 55.636719 51.859375 55.65625 53.058594 55.65625 54.492188 Z M 55.65625 54.492188 "/>
<path style="fill:none;stroke-width:0.5;stroke-linecap:butt;stroke-linejoin:miter;stroke:rgb(40%,40%,40%);stroke-opacity:1;stroke-miterlimit:3.25;" d="M 61.53125 11.757812 L 65.390625 11.757812 "/>
<path style=" stroke:none;fill-rule:evenodd;fill:rgb(0%,0%,0%);fill-opacity:1;" d="M 48.921875 12.972656 L 48.921875 12.507812 L 47.097656 12.507812 L 47.097656 4.441406 C 47.097656 4.066406 47.082031 4.046875 46.757812 4.046875 L 41.449219 12.507812 L 41.449219 12.972656 L 46.058594 12.972656 L 46.058594 14.722656 C 46.058594 15.367188 46.023438 15.546875 44.773438 15.546875 L 44.433594 15.546875 L 44.433594 16.011719 C 45.003906 15.976562 45.972656 15.976562 46.578125 15.976562 C 47.1875 15.976562 48.152344 15.976562 48.726562 16.011719 L 48.726562 15.546875 L 48.386719 15.546875 C 47.132812 15.546875 47.097656 15.367188 47.097656 14.722656 L 47.097656 12.972656 Z M 46.113281 12.507812 L 41.804688 12.507812 L 46.113281 5.621094 Z M 46.113281 12.507812 "/>
<path style=" stroke:none;fill-rule:evenodd;fill:rgb(0%,0%,0%);fill-opacity:1;" d="M 56.800781 10.273438 C 56.800781 9.179688 56.78125 7.320312 56.03125 5.890625 C 55.371094 4.636719 54.316406 4.191406 53.386719 4.191406 C 52.527344 4.191406 51.4375 4.585938 50.757812 5.871094 C 50.042969 7.214844 49.96875 8.875 49.96875 10.273438 C 49.96875 11.289062 49.988281 12.84375 50.542969 14.203125 C 51.3125 16.046875 52.6875 16.296875 53.386719 16.296875 C 54.207031 16.296875 55.460938 15.957031 56.191406 14.257812 C 56.730469 13.023438 56.800781 11.578125 56.800781 10.273438 Z M 55.65625 10.074219 C 55.65625 11.238281 55.65625 12.667969 55.441406 13.722656 C 55.066406 15.671875 54.011719 16.011719 53.386719 16.011719 C 52.242188 16.011719 51.5625 15.027344 51.3125 13.667969 C 51.113281 12.613281 51.113281 11.078125 51.113281 10.074219 C 51.113281 8.699219 51.113281 7.554688 51.347656 6.460938 C 51.6875 4.941406 52.6875 4.476562 53.386719 4.476562 C 54.117188 4.476562 55.066406 4.960938 55.40625 6.425781 C 55.636719 7.445312 55.65625 8.644531 55.65625 10.074219 Z M 55.65625 10.074219 "/>
<path style=" stroke:none;fill-rule:evenodd;fill:rgb(0%,0%,0%);fill-opacity:1;" d="M 225.925781 249.941406 C 225.925781 249.851562 225.851562 249.78125 225.746094 249.78125 C 225.585938 249.78125 225.566406 249.851562 225.496094 250.136719 C 225.246094 251.066406 224.871094 252.320312 223.957031 252.320312 C 223.597656 252.320312 223.367188 252.140625 223.367188 251.460938 C 223.367188 251.121094 223.4375 250.726562 223.511719 250.457031 C 223.582031 250.136719 223.582031 250.117188 223.582031 249.90625 C 223.582031 248.847656 222.632812 248.261719 220.992188 248.046875 C 221.632812 247.652344 222.277344 246.953125 222.527344 246.6875 C 223.546875 245.542969 224.242188 244.96875 225.066406 244.96875 C 225.476562 244.96875 225.585938 245.078125 225.710938 245.183594 C 225.046875 245.253906 224.796875 245.722656 224.796875 246.078125 C 224.796875 246.507812 225.136719 246.652344 225.386719 246.652344 C 225.871094 246.652344 226.300781 246.238281 226.300781 245.667969 C 226.300781 245.148438 225.886719 244.613281 225.082031 244.613281 C 224.101562 244.613281 223.296875 245.308594 222.027344 246.738281 C 221.847656 246.953125 221.1875 247.632812 220.523438 247.886719 L 222.367188 240.535156 C 222.382812 240.464844 222.417969 240.355469 222.417969 240.269531 C 222.417969 240.089844 222.207031 240.089844 222.207031 240.089844 L 221.222656 240.175781 C 220.917969 240.195312 220.648438 240.230469 220.328125 240.25 C 219.898438 240.285156 219.773438 240.300781 219.773438 240.625 C 219.773438 240.804688 219.953125 240.804688 220.132812 240.804688 C 221.042969 240.804688 221.042969 240.964844 221.042969 241.144531 C 221.042969 241.214844 221.042969 241.25 220.953125 241.574219 L 218.398438 251.800781 C 218.324219 252.066406 218.324219 252.101562 218.324219 252.210938 C 218.324219 252.605469 218.628906 252.675781 218.808594 252.675781 C 219.308594 252.675781 219.414062 252.28125 219.558594 251.726562 C 219.71875 251.066406 219.648438 251.316406 220.398438 248.386719 C 221.6875 248.527344 222.457031 249.0625 222.457031 249.921875 C 222.457031 250.03125 222.457031 250.101562 222.402344 250.367188 C 222.332031 250.636719 222.332031 250.851562 222.332031 250.941406 C 222.332031 251.976562 223.011719 252.675781 223.921875 252.675781 C 224.746094 252.675781 225.171875 251.925781 225.316406 251.675781 C 225.691406 251.011719 225.925781 250.011719 225.925781 249.941406 Z M 225.925781 249.941406 "/>
<path style=" stroke:none;fill-rule:evenodd;fill:rgb(0%,0%,0%);fill-opacity:1;" d="M 231.578125 255.195312 L 231.578125 254.832031 L 231.191406 254.832031 C 230.089844 254.832031 230.050781 254.683594 230.050781 254.230469 L 230.050781 247.164062 C 230.050781 246.878906 230.050781 246.863281 229.800781 246.863281 C 229.5 247.203125 228.871094 247.667969 227.582031 247.667969 L 227.582031 248.027344 C 227.871094 248.027344 228.496094 248.027344 229.183594 247.703125 L 229.183594 254.230469 C 229.183594 254.683594 229.148438 254.832031 228.046875 254.832031 L 227.65625 254.832031 L 227.65625 255.195312 C 227.996094 255.171875 229.210938 255.171875 229.625 255.171875 C 230.039062 255.171875 231.242188 255.171875 231.578125 255.195312 Z M 231.578125 255.195312 "/>
<path style=" stroke:none;fill-rule:evenodd;fill:rgb(0%,0%,0%);fill-opacity:1;" d="M 16.757812 144.648438 L 16.757812 141.179688 C 16.757812 140.875 16.757812 140.675781 16.542969 140.675781 C 16.308594 140.675781 16.308594 140.894531 16.308594 141.230469 L 16.308594 144.539062 C 15.863281 144.414062 15.828125 144.414062 15.378906 144.308594 C 15.058594 144.21875 14.429688 144.058594 14.394531 144.058594 C 14.234375 144.058594 14.179688 144.164062 14.179688 144.308594 C 14.179688 144.648438 14.324219 146.058594 14.359375 146.488281 C 14.378906 146.632812 14.394531 146.828125 14.734375 146.828125 C 14.933594 146.828125 14.933594 146.652344 14.933594 146.398438 C 14.933594 145.542969 15.058594 145.503906 15.234375 145.503906 C 15.359375 145.503906 15.953125 145.667969 16.308594 145.753906 L 16.308594 146.757812 C 16.308594 147.113281 16.308594 147.3125 16.542969 147.3125 C 16.757812 147.3125 16.757812 147.152344 16.757812 146.8125 L 16.757812 145.863281 L 25.875 148.152344 C 26.144531 148.222656 26.179688 148.222656 26.285156 148.222656 C 26.679688 148.222656 26.785156 147.917969 26.785156 147.707031 C 26.785156 147.363281 26.535156 147.113281 26.304688 147.042969 C 26.214844 147.007812 25.410156 146.8125 24.964844 146.703125 L 23.371094 146.292969 C 23.101562 146.238281 22.425781 146.058594 22.15625 146.007812 C 21.871094 145.917969 21.316406 145.792969 21.261719 145.773438 C 20.957031 145.628906 19.082031 144.664062 19.082031 142.878906 C 19.082031 142.089844 19.726562 141.910156 20.3125 141.910156 C 21.421875 141.910156 23.605469 142.734375 24.425781 143.054688 C 24.710938 143.164062 24.964844 143.253906 25.300781 143.253906 C 26.230469 143.253906 26.785156 142.589844 26.785156 141.785156 C 26.785156 140.070312 24.140625 139.445312 24.035156 139.445312 C 23.855469 139.445312 23.855469 139.605469 23.855469 139.660156 C 23.855469 139.839844 23.90625 139.839844 24.175781 139.925781 C 26 140.445312 26.394531 141.25 26.394531 141.734375 C 26.394531 142.074219 26.179688 142.179688 25.800781 142.179688 C 25.355469 142.179688 24.855469 141.984375 24.550781 141.875 C 23.765625 141.574219 21.621094 140.769531 20.617188 140.769531 C 19.3125 140.769531 18.6875 141.589844 18.6875 142.824219 C 18.6875 143.378906 18.8125 144.449219 20.046875 145.46875 Z M 16.757812 144.648438 "/>
<path style=" stroke:none;fill-rule:evenodd;fill:rgb(0%,0%,0%);fill-opacity:1;" d="M 22.300781 126.335938 C 21.527344 126.136719 20.617188 125.90625 19.886719 125.90625 C 19.457031 125.90625 19.082031 125.992188 18.847656 126.226562 C 18.757812 126.335938 18.703125 126.476562 18.703125 126.621094 C 18.703125 126.816406 18.796875 127.011719 18.957031 127.171875 C 19.117188 127.335938 19.3125 127.425781 19.492188 127.425781 C 19.632812 127.425781 19.777344 127.371094 19.886719 127.261719 C 20.277344 126.835938 20.851562 126.621094 21.496094 126.621094 C 21.726562 126.621094 21.976562 126.65625 22.226562 126.710938 C 23.890625 127.121094 25.605469 128.121094 25.605469 129.570312 C 25.605469 130.605469 24.855469 131.179688 23.855469 131.304688 C 23.355469 131.089844 22.816406 130.910156 22.300781 130.785156 C 22.136719 130.75 21.957031 130.714844 21.796875 130.714844 C 21.582031 130.714844 21.421875 130.785156 21.421875 131 C 21.421875 131.320312 21.851562 131.464844 22.226562 131.554688 C 22.761719 131.699219 23.300781 131.785156 23.816406 131.804688 C 24.839844 132.394531 25.605469 133.253906 25.605469 134.273438 C 25.605469 135.34375 24.710938 135.808594 23.585938 135.808594 C 23.175781 135.808594 22.746094 135.738281 22.300781 135.628906 C 21.226562 135.363281 20.207031 134.753906 19.242188 134.058594 C 19.171875 134.019531 19.117188 134.003906 19.046875 134.003906 C 18.957031 134.003906 18.867188 134.039062 18.8125 134.128906 C 18.796875 134.183594 18.796875 134.253906 18.796875 134.253906 C 18.796875 134.363281 18.847656 134.46875 18.9375 134.539062 C 19.976562 135.273438 21.101562 135.738281 22.226562 136.023438 C 22.941406 136.203125 23.65625 136.292969 24.300781 136.292969 C 25.695312 136.292969 26.769531 135.808594 26.769531 134.488281 C 26.769531 133.339844 25.929688 132.429688 24.785156 131.75 C 25.945312 131.589844 26.769531 131 26.769531 129.785156 C 26.769531 127.941406 24.460938 126.871094 22.300781 126.335938 Z M 22.300781 126.335938 "/>
<path style=" stroke:none;fill-rule:evenodd;fill:rgb(0%,0%,0%);fill-opacity:1;" d="M 30.953125 119.4375 C 30.953125 119.4375 30.898438 119.4375 30.847656 119.492188 C 30.003906 120.3125 27.714844 122.511719 22.136719 122.511719 C 16.558594 122.511719 14.289062 120.347656 13.394531 119.472656 C 13.394531 119.472656 13.339844 119.4375 13.289062 119.4375 C 13.234375 119.4375 13.199219 119.492188 13.199219 119.5625 C 13.199219 119.757812 14.523438 121.277344 16.488281 122.15625 C 18.472656 123.046875 20.402344 123.296875 22.121094 123.296875 C 23.40625 123.296875 25.589844 123.171875 27.894531 122.101562 C 29.753906 121.242188 31.058594 119.777344 31.058594 119.5625 C 31.058594 119.472656 31.023438 119.4375 30.953125 119.4375 Z M 30.953125 119.4375 "/>
<path style=" stroke:none;fill-rule:evenodd;fill:rgb(0%,0%,0%);fill-opacity:1;" d="M 23.941406 108.414062 C 23.691406 108.414062 23.691406 108.683594 23.691406 108.84375 C 23.691406 109.167969 23.730469 109.203125 24.050781 109.292969 C 24.570312 109.433594 26.089844 109.863281 26.089844 110.777344 C 26.089844 111.0625 25.929688 111.242188 25.390625 111.242188 C 25.214844 111.242188 24.871094 111.203125 24.460938 111.097656 C 24.265625 111.042969 24.140625 111.042969 24.015625 111.042969 C 22.496094 111.042969 22.207031 112.851562 22.082031 114.136719 C 21.957031 113.960938 21.671875 113.53125 20.722656 112.546875 C 19.367188 111.167969 19.152344 110.417969 19.152344 109.882812 C 19.152344 109.542969 19.367188 109.417969 19.367188 109.417969 C 19.492188 110.3125 20.207031 110.652344 20.652344 110.652344 C 21.046875 110.652344 21.476562 110.347656 21.476562 109.757812 C 21.476562 109.417969 21.242188 108.46875 19.976562 108.46875 C 19.046875 108.46875 18.507812 109.058594 18.507812 109.828125 C 18.507812 110.917969 19.296875 111.902344 20.3125 112.957031 C 20.511719 113.136719 21.332031 113.996094 21.707031 114.671875 L 14.808594 112.957031 C 14.554688 112.886719 14.503906 112.886719 14.503906 112.886719 C 14.269531 112.886719 14.179688 113.082031 14.179688 113.28125 C 14.179688 113.351562 14.179688 113.367188 14.199219 113.40625 L 14.304688 115.710938 C 14.324219 115.960938 14.34375 116.28125 14.84375 116.28125 C 15.164062 116.28125 15.164062 115.945312 15.164062 115.820312 C 15.164062 115.621094 15.164062 115.300781 15.199219 115.066406 L 25.515625 117.640625 C 25.589844 117.660156 25.855469 117.714844 25.929688 117.714844 C 26.355469 117.714844 26.734375 117.375 26.734375 116.855469 C 26.734375 116.535156 26.574219 116.015625 26.019531 115.765625 L 22.746094 114.941406 C 22.78125 114.601562 22.996094 113.046875 24.085938 113.046875 C 24.210938 113.046875 24.265625 113.046875 24.460938 113.101562 C 24.695312 113.15625 24.710938 113.15625 24.890625 113.15625 C 26.054688 113.15625 26.734375 112.046875 26.734375 110.867188 C 26.734375 109.078125 24.085938 108.414062 23.941406 108.414062 Z M 23.941406 108.414062 "/>
<path style=" stroke:none;fill-rule:evenodd;fill:rgb(0%,0%,0%);fill-opacity:1;" d="M 22.136719 102.707031 C 20.851562 102.707031 18.667969 102.832031 16.363281 103.902344 C 14.503906 104.761719 13.199219 106.230469 13.199219 106.441406 C 13.199219 106.496094 13.214844 106.566406 13.304688 106.566406 C 13.304688 106.566406 13.359375 106.550781 13.394531 106.53125 C 14.289062 105.675781 16.558594 103.492188 22.121094 103.492188 C 27.699219 103.492188 29.96875 105.65625 30.863281 106.53125 C 30.898438 106.550781 30.953125 106.566406 30.953125 106.566406 C 31.042969 106.566406 31.058594 106.496094 31.058594 106.441406 C 31.058594 106.246094 29.738281 104.726562 27.769531 103.851562 C 25.785156 102.957031 23.855469 102.707031 22.136719 102.707031 Z M 22.136719 102.707031 "/>
<path style=" stroke:none;fill-rule:evenodd;fill:rgb(0%,0%,0%);fill-opacity:1;" d="M 13.519531 93.332031 C 13.304688 93.332031 13.179688 93.507812 13.179688 93.652344 C 13.179688 93.742188 13.179688 93.902344 13.574219 94.046875 L 30.398438 100.035156 L 30.71875 100.144531 C 30.933594 100.144531 31.058594 99.964844 31.058594 99.820312 C 31.058594 99.714844 31.042969 99.550781 30.667969 99.425781 L 13.84375 93.4375 Z M 13.519531 93.332031 "/>
<path style=" stroke:none;fill-rule:evenodd;fill:rgb(0%,0%,0%);fill-opacity:1;" d="M 30.953125 86.835938 C 30.953125 86.835938 30.898438 86.835938 30.847656 86.890625 C 30.003906 87.714844 27.714844 89.914062 22.136719 89.914062 C 16.558594 89.914062 14.289062 87.75 13.394531 86.875 C 13.394531 86.875 13.339844 86.835938 13.289062 86.835938 C 13.234375 86.835938 13.199219 86.890625 13.199219 86.960938 C 13.199219 87.160156 14.523438 88.679688 16.488281 89.554688 C 18.472656 90.449219 20.402344 90.699219 22.121094 90.699219 C 23.40625 90.699219 25.589844 90.574219 27.894531 89.5 C 29.753906 88.644531 31.058594 87.179688 31.058594 86.960938 C 31.058594 86.875 31.023438 86.835938 30.953125 86.835938 Z M 30.953125 86.835938 "/>
<path style=" stroke:none;fill-rule:evenodd;fill:rgb(0%,0%,0%);fill-opacity:1;" d="M 14.574219 74.941406 C 14.378906 74.941406 14.378906 75.101562 14.378906 75.171875 C 14.378906 75.476562 14.414062 75.816406 14.414062 76.140625 L 14.414062 77.125 L 14.378906 79.410156 C 14.378906 79.570312 14.378906 79.789062 14.699219 79.789062 C 14.878906 79.789062 14.898438 79.644531 14.898438 79.644531 L 14.898438 79.195312 C 14.898438 77.765625 15.039062 77.765625 15.308594 77.765625 C 15.308594 77.765625 15.453125 77.765625 15.738281 77.835938 L 23.90625 79.894531 C 25.730469 80.359375 26.605469 81.558594 26.605469 82.414062 C 26.605469 83.023438 26.320312 83.882812 25.375 84.097656 C 25.390625 84.023438 25.410156 83.9375 25.410156 83.863281 C 25.410156 83.273438 24.890625 82.808594 24.371094 82.808594 C 24.085938 82.808594 23.710938 82.988281 23.710938 83.523438 C 23.710938 83.84375 23.890625 84.597656 25.050781 84.597656 C 26.179688 84.597656 26.964844 83.667969 26.964844 82.378906 C 26.964844 80.753906 25.730469 79 24.035156 78.570312 L 15.613281 76.460938 C 15.074219 76.320312 14.898438 76.28125 14.898438 75.40625 C 14.898438 75.121094 14.898438 74.941406 14.574219 74.941406 Z M 14.574219 74.941406 "/>
<path style=" stroke:none;fill-rule:evenodd;fill:rgb(0%,0%,0%);fill-opacity:1;" d="M 22.496094 64.953125 C 21.746094 64.953125 21.082031 65.132812 20.421875 65.8125 C 20.046875 66.1875 19.957031 66.511719 19.527344 68.15625 C 19.207031 69.351562 19.152344 69.515625 18.867188 69.835938 C 18.5625 70.140625 18.132812 70.371094 17.523438 70.371094 C 16.023438 70.371094 14.484375 68.851562 14.484375 67.152344 C 14.484375 65.402344 15.558594 64.578125 17.257812 64.578125 C 17.722656 64.578125 18.203125 64.667969 18.277344 64.667969 C 18.4375 64.667969 18.4375 64.527344 18.4375 64.472656 C 18.4375 64.308594 18.382812 64.292969 18.097656 64.222656 L 14.164062 63.253906 C 14.003906 63.253906 14.003906 63.417969 14.003906 63.417969 C 14.003906 63.488281 14.019531 63.507812 14.289062 63.722656 L 15.359375 64.578125 C 14.199219 65.167969 14.003906 66.347656 14.003906 67.101562 C 14.003906 69.371094 16.078125 71.425781 18.097656 71.425781 C 19.4375 71.425781 20.222656 70.621094 20.527344 69.746094 C 20.597656 69.550781 20.886719 68.496094 21.011719 67.957031 C 21.261719 67.046875 21.332031 66.816406 21.726562 66.4375 C 21.816406 66.367188 22.226562 66.011719 23.066406 66.011719 C 24.730469 66.011719 26.445312 67.546875 26.445312 69.335938 C 26.445312 70.800781 25.820312 72.429688 23.816406 72.429688 C 23.480469 72.429688 23.050781 72.355469 22.871094 72.304688 C 22.816406 72.304688 22.691406 72.285156 22.691406 72.285156 C 22.621094 72.285156 22.53125 72.320312 22.53125 72.464844 C 22.53125 72.625 22.566406 72.640625 22.871094 72.714844 L 26.535156 73.625 L 26.804688 73.695312 C 26.964844 73.695312 26.964844 73.519531 26.964844 73.519531 C 26.964844 73.445312 26.949219 73.429688 26.679688 73.214844 L 25.605469 72.390625 C 26.25 71.960938 26.964844 71.03125 26.964844 69.371094 C 26.964844 67.066406 24.730469 64.953125 22.496094 64.953125 Z M 22.496094 64.953125 "/>
<path style=" stroke:none;fill-rule:evenodd;fill:rgb(0%,0%,0%);fill-opacity:1;" d="M 22.136719 58.105469 C 20.851562 58.105469 18.667969 58.230469 16.363281 59.304688 C 14.503906 60.164062 13.199219 61.628906 13.199219 61.84375 C 13.199219 61.898438 13.214844 61.96875 13.304688 61.96875 C 13.304688 61.96875 13.359375 61.953125 13.394531 61.933594 C 14.289062 61.074219 16.558594 58.894531 22.121094 58.894531 C 27.699219 58.894531 29.96875 61.058594 30.863281 61.933594 C 30.898438 61.953125 30.953125 61.96875 30.953125 61.96875 C 31.042969 61.96875 31.058594 61.898438 31.058594 61.84375 C 31.058594 61.648438 29.738281 60.128906 27.769531 59.253906 C 25.785156 58.359375 23.855469 58.105469 22.136719 58.105469 Z M 22.136719 58.105469 "/>
<path style=" stroke:none;fill-rule:evenodd;fill:rgb(0%,0%,0%);fill-opacity:1;" d="M 94.132812 32.371094 C 94.132812 31.996094 94.046875 31.800781 93.882812 31.800781 C 93.703125 31.800781 93.652344 32.085938 93.632812 32.265625 C 93.542969 34.105469 92.257812 34.964844 91.167969 34.964844 C 90.039062 34.964844 89.308594 34.320312 87.984375 33.140625 C 86.839844 32.121094 86.050781 31.78125 85.210938 31.78125 C 83.351562 31.78125 82.246094 33.675781 82.246094 35.375 C 82.246094 35.804688 82.371094 35.949219 82.496094 35.949219 C 82.691406 35.949219 82.746094 35.589844 82.746094 35.535156 C 82.835938 33.460938 84.265625 32.78125 85.210938 32.78125 C 86.339844 32.78125 87.074219 33.425781 88.394531 34.605469 C 89.539062 35.625 90.324219 35.964844 91.167969 35.964844 C 93.027344 35.964844 94.132812 34.070312 94.132812 32.371094 Z M 94.132812 32.371094 "/>
<path style=" stroke:none;fill-rule:evenodd;fill:rgb(0%,0%,0%);fill-opacity:1;" d="M 108.722656 35.789062 C 108.722656 35.695312 108.652344 35.625 108.546875 35.625 C 108.386719 35.625 108.367188 35.695312 108.292969 35.984375 C 108.042969 36.914062 107.667969 38.164062 106.757812 38.164062 C 106.398438 38.164062 106.167969 37.984375 106.167969 37.304688 C 106.167969 36.96875 106.238281 36.574219 106.308594 36.304688 C 106.382812 35.984375 106.382812 35.964844 106.382812 35.75 C 106.382812 34.695312 105.433594 34.105469 103.789062 33.890625 C 104.433594 33.5 105.074219 32.800781 105.328125 32.53125 C 106.347656 31.386719 107.042969 30.816406 107.867188 30.816406 C 108.277344 30.816406 108.386719 30.925781 108.511719 31.03125 C 107.847656 31.101562 107.597656 31.566406 107.597656 31.925781 C 107.597656 32.351562 107.9375 32.496094 108.1875 32.496094 C 108.671875 32.496094 109.097656 32.085938 109.097656 31.515625 C 109.097656 30.996094 108.6875 30.457031 107.882812 30.457031 C 106.902344 30.457031 106.097656 31.15625 104.824219 32.585938 C 104.648438 32.800781 103.984375 33.480469 103.324219 33.730469 L 105.167969 26.382812 C 105.183594 26.308594 105.21875 26.203125 105.21875 26.113281 C 105.21875 25.933594 105.003906 25.933594 105.003906 25.933594 L 104.019531 26.023438 C 103.71875 26.042969 103.449219 26.078125 103.128906 26.097656 C 102.699219 26.132812 102.574219 26.148438 102.574219 26.472656 C 102.574219 26.652344 102.753906 26.652344 102.929688 26.652344 C 103.84375 26.652344 103.84375 26.8125 103.84375 26.988281 C 103.84375 27.0625 103.84375 27.097656 103.753906 27.417969 L 101.195312 37.648438 C 101.125 37.914062 101.125 37.949219 101.125 38.058594 C 101.125 38.453125 101.429688 38.523438 101.605469 38.523438 C 102.109375 38.523438 102.214844 38.128906 102.359375 37.574219 C 102.519531 36.914062 102.449219 37.164062 103.199219 34.230469 C 104.488281 34.375 105.253906 34.910156 105.253906 35.769531 C 105.253906 35.875 105.253906 35.949219 105.203125 36.214844 C 105.128906 36.484375 105.128906 36.699219 105.128906 36.789062 C 105.128906 37.824219 105.808594 38.523438 106.722656 38.523438 C 107.542969 38.523438 107.972656 37.773438 108.117188 37.523438 C 108.492188 36.859375 108.722656 35.859375 108.722656 35.789062 Z M 108.722656 35.789062 "/>
<path style=" stroke:none;fill-rule:evenodd;fill:rgb(0%,0%,0%);fill-opacity:1;" d="M 115.453125 28.839844 L 115.179688 28.839844 C 115.140625 29.050781 115.039062 29.742188 114.914062 29.941406 C 114.828125 30.054688 114.113281 30.054688 113.738281 30.054688 L 111.417969 30.054688 C 111.757812 29.765625 112.523438 28.964844 112.847656 28.664062 C 114.753906 26.910156 115.453125 26.257812 115.453125 25.015625 C 115.453125 23.574219 114.3125 22.609375 112.859375 22.609375 C 111.40625 22.609375 110.554688 23.851562 110.554688 24.929688 C 110.554688 25.566406 111.105469 25.566406 111.144531 25.566406 C 111.40625 25.566406 111.734375 25.378906 111.734375 24.980469 C 111.734375 24.628906 111.496094 24.390625 111.144531 24.390625 C 111.03125 24.390625 111.007812 24.390625 110.96875 24.402344 C 111.207031 23.550781 111.882812 22.976562 112.695312 22.976562 C 113.761719 22.976562 114.414062 23.863281 114.414062 25.015625 C 114.414062 26.082031 113.800781 27.011719 113.085938 27.8125 L 110.554688 30.644531 L 110.554688 30.945312 L 115.128906 30.945312 Z M 115.453125 28.839844 "/>
<path style=" stroke:none;fill-rule:evenodd;fill:rgb(0%,0%,0%);fill-opacity:1;" d="M 114.476562 42.84375 L 114.476562 42.480469 L 114.089844 42.480469 C 112.988281 42.480469 112.949219 42.328125 112.949219 41.878906 L 112.949219 34.8125 C 112.949219 34.523438 112.949219 34.507812 112.699219 34.507812 C 112.398438 34.847656 111.773438 35.3125 110.480469 35.3125 L 110.480469 35.675781 C 110.769531 35.675781 111.394531 35.675781 112.085938 35.351562 L 112.085938 41.878906 C 112.085938 42.328125 112.046875 42.480469 110.945312 42.480469 L 110.554688 42.480469 L 110.554688 42.84375 C 110.894531 42.816406 112.109375 42.816406 112.523438 42.816406 C 112.9375 42.816406 114.140625 42.816406 114.476562 42.84375 Z M 114.476562 42.84375 "/>
<path style=" stroke:none;fill-rule:evenodd;fill:rgb(0%,0%,0%);fill-opacity:1;" d="M 335.058594 33.738281 C 335.058594 33.363281 334.96875 33.164062 334.808594 33.164062 C 334.628906 33.164062 334.574219 33.449219 334.554688 33.628906 C 334.464844 35.472656 333.179688 36.328125 332.089844 36.328125 C 330.960938 36.328125 330.230469 35.683594 328.90625 34.503906 C 327.761719 33.488281 326.972656 33.144531 326.132812 33.144531 C 324.273438 33.144531 323.167969 35.042969 323.167969 36.738281 C 323.167969 37.167969 323.292969 37.3125 323.417969 37.3125 C 323.613281 37.3125 323.667969 36.957031 323.667969 36.902344 C 323.753906 34.828125 325.1875 34.148438 326.132812 34.148438 C 327.261719 34.148438 327.996094 34.792969 329.316406 35.972656 C 330.460938 36.992188 331.246094 37.332031 332.089844 37.332031 C 333.949219 37.332031 335.058594 35.433594 335.058594 33.738281 Z M 335.058594 33.738281 "/>
<path style=" stroke:none;fill-rule:evenodd;fill:rgb(0%,0%,0%);fill-opacity:1;" d="M 348.644531 43.851562 C 349.199219 43.851562 349.21875 43.832031 349.398438 43.492188 L 359.175781 23.074219 C 359.304688 22.839844 359.304688 22.804688 359.304688 22.75 C 359.304688 22.554688 359.160156 22.394531 358.945312 22.394531 C 358.714844 22.394531 358.640625 22.554688 358.550781 22.75 L 349.324219 41.988281 L 345.515625 33.121094 L 343.03125 35.035156 L 343.300781 35.320312 L 344.570312 34.355469 Z M 348.644531 43.851562 "/>
<path style="fill:none;stroke-width:0.716987;stroke-linecap:square;stroke-linejoin:miter;stroke:rgb(0%,0%,0%);stroke-opacity:1;stroke-miterlimit:10;" d="M 359.023438 22.792969 L 374.796875 22.792969 "/>
<path style=" stroke:none;fill-rule:evenodd;fill:rgb(0%,0%,0%);fill-opacity:1;" d="M 367.648438 37.152344 C 367.648438 37.0625 367.574219 36.992188 367.46875 36.992188 C 367.308594 36.992188 367.289062 37.0625 367.21875 37.347656 C 366.96875 38.277344 366.59375 39.53125 365.679688 39.53125 C 365.320312 39.53125 365.089844 39.351562 365.089844 38.671875 C 365.089844 38.332031 365.160156 37.9375 365.234375 37.667969 C 365.304688 37.347656 365.304688 37.332031 365.304688 37.117188 C 365.304688 36.058594 364.355469 35.472656 362.710938 35.257812 C 363.355469 34.863281 364 34.164062 364.25 33.898438 C 365.269531 32.753906 365.964844 32.179688 366.789062 32.179688 C 367.199219 32.179688 367.308594 32.289062 367.433594 32.394531 C 366.769531 32.464844 366.519531 32.933594 366.519531 33.289062 C 366.519531 33.71875 366.859375 33.863281 367.109375 33.863281 C 367.59375 33.863281 368.023438 33.449219 368.023438 32.878906 C 368.023438 32.359375 367.609375 31.824219 366.804688 31.824219 C 365.824219 31.824219 365.019531 32.519531 363.75 33.949219 C 363.570312 34.164062 362.910156 34.84375 362.246094 35.097656 L 364.089844 27.746094 C 364.105469 27.675781 364.140625 27.566406 364.140625 27.480469 C 364.140625 27.300781 363.929688 27.300781 363.929688 27.300781 L 362.945312 27.386719 C 362.640625 27.40625 362.371094 27.445312 362.050781 27.460938 C 361.621094 27.496094 361.496094 27.511719 361.496094 27.835938 C 361.496094 28.015625 361.675781 28.015625 361.855469 28.015625 C 362.765625 28.015625 362.765625 28.175781 362.765625 28.355469 C 362.765625 28.425781 362.765625 28.460938 362.675781 28.785156 L 360.121094 39.011719 C 360.046875 39.277344 360.046875 39.316406 360.046875 39.421875 C 360.046875 39.816406 360.351562 39.886719 360.53125 39.886719 C 361.03125 39.886719 361.136719 39.496094 361.28125 38.941406 C 361.441406 38.277344 361.371094 38.527344 362.121094 35.597656 C 363.410156 35.738281 364.179688 36.277344 364.179688 37.132812 C 364.179688 37.242188 364.179688 37.3125 364.125 37.582031 C 364.054688 37.847656 364.054688 38.0625 364.054688 38.152344 C 364.054688 39.191406 364.734375 39.886719 365.644531 39.886719 C 366.46875 39.886719 366.894531 39.136719 367.039062 38.886719 C 367.414062 38.222656 367.648438 37.222656 367.648438 37.152344 Z M 367.648438 37.152344 "/>
<path style=" stroke:none;fill-rule:evenodd;fill:rgb(0%,0%,0%);fill-opacity:1;" d="M 373.300781 42.410156 L 373.300781 42.042969 L 372.914062 42.042969 C 371.8125 42.042969 371.773438 41.894531 371.773438 41.441406 L 371.773438 34.375 C 371.773438 34.089844 371.773438 34.074219 371.523438 34.074219 C 371.222656 34.414062 370.59375 34.878906 369.304688 34.878906 L 369.304688 35.238281 C 369.59375 35.238281 370.21875 35.238281 370.90625 34.914062 L 370.90625 41.441406 C 370.90625 41.894531 370.871094 42.042969 369.769531 42.042969 L 369.378906 42.042969 L 369.378906 42.410156 C 369.71875 42.382812 370.933594 42.382812 371.347656 42.382812 C 371.761719 42.382812 372.964844 42.382812 373.300781 42.410156 Z M 373.300781 42.410156 "/>
<path style=" stroke:none;fill-rule:evenodd;fill:rgb(0%,0%,0%);fill-opacity:1;" d="M 319.371094 107.753906 C 319.371094 107.378906 319.28125 107.183594 319.121094 107.183594 C 318.941406 107.183594 318.890625 107.46875 318.871094 107.644531 C 318.78125 109.488281 317.492188 110.347656 316.402344 110.347656 C 315.277344 110.347656 314.542969 109.703125 313.21875 108.523438 C 312.078125 107.503906 311.289062 107.164062 310.449219 107.164062 C 308.589844 107.164062 307.480469 109.058594 307.480469 110.757812 C 307.480469 111.1875 307.605469 111.332031 307.730469 111.332031 C 307.929688 111.332031 307.980469 110.972656 307.980469 110.917969 C 308.070312 108.84375 309.5 108.164062 310.449219 108.164062 C 311.574219 108.164062 312.308594 108.808594 313.632812 109.988281 C 314.777344 111.007812 315.5625 111.347656 316.402344 111.347656 C 318.261719 111.347656 319.371094 109.453125 319.371094 107.753906 Z M 319.371094 107.753906 "/>
<path style=" stroke:none;fill-rule:evenodd;fill:rgb(0%,0%,0%);fill-opacity:1;" d="M 333.960938 111.167969 C 333.960938 111.078125 333.890625 111.007812 333.78125 111.007812 C 333.621094 111.007812 333.601562 111.078125 333.53125 111.363281 C 333.28125 112.296875 332.90625 113.546875 331.996094 113.546875 C 331.636719 113.546875 331.40625 113.367188 331.40625 112.6875 C 331.40625 112.347656 331.476562 111.957031 331.546875 111.6875 C 331.621094 111.363281 331.621094 111.347656 331.621094 111.132812 C 331.621094 110.078125 330.671875 109.488281 329.027344 109.273438 C 329.667969 108.878906 330.3125 108.183594 330.566406 107.914062 C 331.582031 106.769531 332.28125 106.199219 333.101562 106.199219 C 333.515625 106.199219 333.621094 106.304688 333.746094 106.414062 C 333.085938 106.484375 332.835938 106.949219 332.835938 107.308594 C 332.835938 107.734375 333.171875 107.878906 333.425781 107.878906 C 333.90625 107.878906 334.335938 107.46875 334.335938 106.894531 C 334.335938 106.378906 333.925781 105.839844 333.121094 105.839844 C 332.136719 105.839844 331.332031 106.539062 330.0625 107.96875 C 329.886719 108.183594 329.222656 108.863281 328.5625 109.113281 L 330.402344 101.765625 C 330.421875 101.691406 330.457031 101.585938 330.457031 101.496094 C 330.457031 101.316406 330.242188 101.316406 330.242188 101.316406 L 329.257812 101.40625 C 328.957031 101.425781 328.6875 101.460938 328.363281 101.476562 C 327.933594 101.515625 327.808594 101.53125 327.808594 101.851562 C 327.808594 102.03125 327.988281 102.03125 328.167969 102.03125 C 329.082031 102.03125 329.082031 102.195312 329.082031 102.371094 C 329.082031 102.445312 329.082031 102.480469 328.992188 102.800781 L 326.433594 113.027344 C 326.363281 113.296875 326.363281 113.332031 326.363281 113.441406 C 326.363281 113.832031 326.667969 113.902344 326.84375 113.902344 C 327.347656 113.902344 327.453125 113.511719 327.597656 112.957031 C 327.757812 112.296875 327.683594 112.546875 328.4375 109.613281 C 329.722656 109.757812 330.492188 110.292969 330.492188 111.152344 C 330.492188 111.257812 330.492188 111.332031 330.441406 111.597656 C 330.367188 111.867188 330.367188 112.082031 330.367188 112.167969 C 330.367188 113.207031 331.046875 113.902344 331.957031 113.902344 C 332.78125 113.902344 333.210938 113.152344 333.351562 112.902344 C 333.726562 112.242188 333.960938 111.238281 333.960938 111.167969 Z M 333.960938 111.167969 "/>
<path style=" stroke:none;fill-rule:evenodd;fill:rgb(0%,0%,0%);fill-opacity:1;" d="M 339.714844 116.425781 L 339.714844 116.0625 L 339.328125 116.0625 C 338.226562 116.0625 338.1875 115.910156 338.1875 115.460938 L 338.1875 108.394531 C 338.1875 108.105469 338.1875 108.089844 337.9375 108.089844 C 337.636719 108.429688 337.007812 108.894531 335.71875 108.894531 L 335.71875 109.257812 C 336.007812 109.257812 336.632812 109.257812 337.320312 108.933594 L 337.320312 115.460938 C 337.320312 115.910156 337.285156 116.0625 336.183594 116.0625 L 335.792969 116.0625 L 335.792969 116.425781 C 336.132812 116.398438 337.347656 116.398438 337.761719 116.398438 C 338.175781 116.398438 339.378906 116.398438 339.714844 116.425781 Z M 339.714844 116.425781 "/>
</g>
</svg>
