<?xml version="1.0" encoding="UTF-8"?>
<svg xmlns="http://www.w3.org/2000/svg" xmlns:xlink="http://www.w3.org/1999/xlink" width="300pt" height="200pt" viewBox="0 0 300 200" version="1.1">
<defs>
<clipPath id="clip1">
  <path d="M 290 0.480469 L 291 0.480469 L 291 140.640625 L 290 140.640625 Z M 290 0.480469 "/>
</clipPath>
<clipPath id="clip2">
  <path d="M 99.359375 51 L 299.519531 51 L 299.519531 53 L 99.359375 53 Z M 99.359375 51 "/>
</clipPath>
<clipPath id="clip3">
  <path d="M 99.359375 31 L 276 31 L 276 140.640625 L 99.359375 140.640625 Z M 99.359375 31 "/>
</clipPath>
<clipPath id="clip4">
  <path d="M 99.359375 0.480469 L 299.519531 0.480469 L 299.519531 138 L 99.359375 138 Z M 99.359375 0.480469 "/>
</clipPath>
<clipPath id="clip5">
  <path d="M 294 0.480469 L 299.519531 0.480469 L 299.519531 140.640625 L 294 140.640625 Z M 294 0.480469 "/>
</clipPath>
<clipPath id="clip6">
  <path d="M 99.359375 34 L 299.519531 34 L 299.519531 140.640625 L 99.359375 140.640625 Z M 99.359375 34 "/>
</clipPath>
<clipPath id="clip7">
  <path d="M 118 126 L 138.238281 126 L 138.238281 128 L 118 128 Z M 118 126 "/>
</clipPath>
<clipPath id="clip8">
  <path d="M 118 106 L 138.238281 106 L 138.238281 108 L 118 108 Z M 118 106 "/>
</clipPath>
<clipPath id="clip9">
  <path d="M 118 86 L 138.238281 86 L 138.238281 88 L 118 88 Z M 118 86 "/>
</clipPath>
</defs>
<g id="surface17">
<g clip-path="url(#clip1)" clip-rule="nonzero">
<path style="fill:none;stroke-width:0.2;stroke-linecap:butt;stroke-linejoin:miter;stroke:rgb(50.000763%,50.000763%,50.000763%);stroke-opacity:0.4;stroke-miterlimit:3.25;" d="M 290.15625 140.484375 L 290.15625 0.5 "/>
</g>
<g clip-path="url(#clip2)" clip-rule="nonzero">
<path style="fill:none;stroke-width:0.2;stroke-linecap:butt;stroke-linejoin:miter;stroke:rgb(50.000763%,50.000763%,50.000763%);stroke-opacity:0.4;stroke-miterlimit:3.25;" d="M 99.523438 52.074219 L 299.5 52.074219 "/>
</g>
<g clip-path="url(#clip3)" clip-rule="nonzero">
<path style="fill:none;stroke-width:1.6;stroke-linecap:butt;stroke-linejoin:miter;stroke:rgb(90.000763%,36.00061%,5.400168%);stroke-opacity:1;stroke-miterlimit:3.25;" d="M 103.261719 52.074219 L 105.128906 54.714844 L 107 57.035156 L 108.867188 59.015625 L 110.734375 60.636719 L 112.605469 61.90625 L 114.472656 62.816406 L 116.34375 63.386719 L 118.210938 63.628906 L 120.082031 63.570312 L 121.949219 63.234375 L 123.820312 62.65625 L 125.6875 61.867188 L 127.558594 60.902344 L 129.425781 59.792969 L 131.292969 58.582031 L 133.164062 57.292969 L 135.03125 55.96875 L 136.902344 54.640625 L 138.769531 53.332031 L 140.640625 52.074219 L 142.507812 50.886719 L 144.378906 49.796875 L 146.246094 48.820312 L 148.113281 47.96875 L 149.984375 47.257812 L 151.851562 46.6875 L 153.722656 46.273438 L 155.589844 46.011719 L 157.460938 45.898438 L 159.328125 45.933594 L 161.199219 46.109375 L 163.066406 46.417969 L 164.9375 46.851562 L 166.804688 47.390625 L 168.671875 48.027344 L 170.542969 48.742188 L 172.410156 49.519531 L 174.28125 50.347656 L 176.148438 51.203125 L 178.019531 52.074219 L 179.886719 52.9375 L 181.757812 53.777344 L 183.625 54.582031 L 185.492188 55.332031 L 187.363281 56.007812 L 189.230469 56.605469 L 191.101562 57.105469 L 192.96875 57.496094 L 194.839844 57.769531 L 196.707031 57.921875 L 198.578125 57.9375 L 200.445312 57.820312 L 202.316406 57.5625 L 204.183594 57.164062 L 206.050781 56.628906 L 207.921875 55.957031 L 209.789062 55.160156 L 211.660156 54.238281 L 213.527344 53.203125 L 215.398438 52.074219 L 217.265625 50.855469 L 219.136719 49.574219 L 221.003906 48.242188 L 222.875 46.886719 L 224.742188 45.527344 L 226.609375 44.199219 L 228.480469 42.925781 L 230.347656 41.742188 L 232.21875 40.683594 L 234.085938 39.792969 L 235.957031 39.113281 L 237.824219 38.691406 L 239.695312 38.582031 L 241.5625 38.835938 L 243.429688 39.523438 L 245.300781 40.707031 L 247.167969 42.464844 L 249.039062 44.882812 L 250.90625 48.050781 L 252.777344 52.074219 L 254.644531 57.066406 L 256.515625 63.160156 L 258.382812 70.5 L 260.253906 79.257812 L 262.121094 89.625 L 263.988281 101.828125 L 265.859375 116.117188 L 267.726562 132.804688 L 268.464844 140.484375 "/>
</g>
<g clip-path="url(#clip4)" clip-rule="nonzero">
<path style="fill:none;stroke-width:1.6;stroke-linecap:butt;stroke-linejoin:miter;stroke:rgb(36.525521%,42.780194%,75.829709%);stroke-opacity:1;stroke-miterlimit:3.25;" d="M 103.261719 52.074219 L 105.128906 54.207031 L 107 56.085938 L 108.867188 57.6875 L 110.734375 59 L 112.605469 60.023438 L 114.472656 60.761719 L 116.34375 61.21875 L 118.210938 61.417969 L 120.082031 61.367188 L 121.949219 61.097656 L 123.820312 60.628906 L 125.6875 59.992188 L 127.558594 59.210938 L 129.425781 58.316406 L 131.292969 57.332031 L 133.164062 56.292969 L 135.03125 55.222656 L 136.902344 54.148438 L 138.769531 53.089844 L 140.640625 52.074219 L 142.507812 51.117188 L 144.378906 50.234375 L 146.246094 49.445312 L 148.113281 48.757812 L 149.984375 48.183594 L 151.851562 47.726562 L 153.722656 47.390625 L 155.589844 47.179688 L 157.460938 47.089844 L 159.328125 47.121094 L 161.199219 47.261719 L 163.066406 47.511719 L 164.9375 47.863281 L 166.804688 48.296875 L 168.671875 48.8125 L 170.542969 49.390625 L 172.410156 50.015625 L 174.28125 50.683594 L 176.148438 51.375 L 178.019531 52.074219 L 179.886719 52.769531 L 181.757812 53.445312 L 183.625 54.089844 L 185.492188 54.6875 L 187.363281 55.230469 L 189.230469 55.707031 L 191.101562 56.105469 L 192.96875 56.414062 L 194.839844 56.632812 L 196.707031 56.746094 L 198.578125 56.757812 L 200.445312 56.65625 L 202.316406 56.445312 L 204.183594 56.125 L 206.050781 55.691406 L 207.921875 55.15625 L 209.789062 54.515625 L 211.660156 53.785156 L 213.527344 52.964844 L 215.398438 52.074219 L 217.265625 51.117188 L 219.136719 50.117188 L 221.003906 49.082031 L 222.875 48.035156 L 224.742188 46.996094 L 226.609375 45.988281 L 228.480469 45.035156 L 230.347656 44.164062 L 232.21875 43.402344 L 234.085938 42.777344 L 235.957031 42.328125 L 237.824219 42.082031 L 239.695312 42.078125 L 241.5625 42.355469 L 243.429688 42.953125 L 245.300781 43.90625 L 247.167969 45.253906 L 249.039062 47.039062 L 250.90625 49.300781 L 252.777344 52.074219 L 254.644531 55.386719 L 256.515625 59.265625 L 258.382812 63.726562 L 260.253906 68.773438 L 262.121094 74.390625 L 263.988281 80.546875 L 265.859375 87.171875 L 267.726562 94.164062 L 269.597656 101.363281 L 271.464844 108.558594 L 273.335938 115.449219 L 275.203125 121.648438 L 277.074219 126.640625 L 278.941406 129.773438 L 280.808594 130.230469 L 282.679688 127.015625 L 284.546875 118.941406 L 286.417969 104.671875 L 288.285156 82.800781 L 290.15625 52.074219 L 292.023438 11.867188 L 292.460938 0.5 "/>
</g>
<g clip-path="url(#clip5)" clip-rule="nonzero">
<path style="fill:none;stroke-width:1.6;stroke-linecap:butt;stroke-linejoin:miter;stroke:rgb(36.525521%,42.780194%,75.829709%);stroke-opacity:1;stroke-miterlimit:3.25;" d="M 301.425781 0.5 L 302 140.484375 "/>
</g>
<g clip-path="url(#clip6)" clip-rule="nonzero">
<path style="fill:none;stroke-width:1.6;stroke-linecap:butt;stroke-linejoin:miter;stroke:rgb(94.51133%,59.389639%,0%);stroke-opacity:1;stroke-miterlimit:3.25;" d="M 103.261719 52.074219 L 105.128906 52.886719 L 107 53.601562 L 108.867188 54.214844 L 110.734375 54.714844 L 112.605469 55.105469 L 114.472656 55.382812 L 116.34375 55.558594 L 118.210938 55.632812 L 120.082031 55.613281 L 121.949219 55.511719 L 123.820312 55.332031 L 125.6875 55.085938 L 127.558594 54.789062 L 129.425781 54.449219 L 131.292969 54.074219 L 133.164062 53.679688 L 135.03125 53.269531 L 136.902344 52.859375 L 138.769531 52.460938 L 140.640625 52.074219 L 142.507812 51.710938 L 144.378906 51.375 L 146.246094 51.078125 L 148.113281 50.816406 L 149.984375 50.601562 L 151.851562 50.429688 L 153.722656 50.300781 L 155.589844 50.222656 L 157.460938 50.191406 L 159.328125 50.203125 L 161.199219 50.257812 L 163.066406 50.355469 L 164.9375 50.488281 L 166.804688 50.652344 L 168.671875 50.847656 L 170.542969 51.066406 L 172.410156 51.304688 L 174.28125 51.554688 L 176.148438 51.8125 L 178.019531 52.074219 L 179.886719 52.332031 L 181.757812 52.582031 L 183.625 52.820312 L 185.492188 53.039062 L 187.363281 53.238281 L 189.230469 53.410156 L 191.101562 53.550781 L 192.96875 53.660156 L 194.839844 53.734375 L 196.707031 53.769531 L 198.578125 53.769531 L 200.445312 53.726562 L 202.316406 53.640625 L 204.183594 53.519531 L 206.050781 53.359375 L 207.921875 53.164062 L 209.789062 52.933594 L 211.660156 52.671875 L 213.527344 52.382812 L 215.398438 52.074219 L 217.265625 51.746094 L 219.136719 51.410156 L 221.003906 51.070312 L 222.875 50.730469 L 224.742188 50.40625 L 226.609375 50.097656 L 228.480469 49.816406 L 230.347656 49.570312 L 232.21875 49.371094 L 234.085938 49.222656 L 235.957031 49.136719 L 237.824219 49.121094 L 239.695312 49.183594 L 241.5625 49.328125 L 243.429688 49.558594 L 245.300781 49.882812 L 247.167969 50.300781 L 249.039062 50.808594 L 250.90625 51.402344 L 252.777344 52.074219 L 254.644531 52.808594 L 256.515625 53.59375 L 258.382812 54.394531 L 260.253906 55.1875 L 262.121094 55.929688 L 263.988281 56.578125 L 265.859375 57.070312 L 267.726562 57.351562 L 269.597656 57.34375 L 271.464844 56.984375 L 273.335938 56.199219 L 275.203125 54.933594 L 277.074219 53.15625 L 278.941406 50.894531 L 280.808594 48.261719 L 282.679688 45.53125 L 284.546875 43.226562 L 286.417969 42.289062 L 288.285156 44.328125 L 290.15625 52.074219 L 292.023438 70.113281 L 293.894531 106.265625 L 294.835938 140.484375 "/>
</g>
<g clip-path="url(#clip7)" clip-rule="nonzero">
<path style="fill:none;stroke-width:1.6;stroke-linecap:butt;stroke-linejoin:miter;stroke:rgb(90.000763%,36.00061%,5.400168%);stroke-opacity:1;stroke-miterlimit:3.25;" d="M 118.816406 126.984375 L 137.214844 126.984375 "/>
</g>
<path style=" stroke:none;fill-rule:evenodd;fill:rgb(0%,0%,0%);fill-opacity:1;" d="M 153.597656 128.175781 C 153.597656 128.085938 153.527344 128.015625 153.421875 128.015625 C 153.257812 128.015625 153.242188 128.105469 153.1875 128.246094 C 152.703125 129.820312 151.667969 130.554688 150.863281 130.554688 C 150.238281 130.554688 149.898438 130.089844 149.898438 129.355469 C 149.898438 128.960938 149.96875 128.675781 150.253906 127.496094 L 150.882812 125.0625 C 151.148438 123.992188 151.757812 123.203125 152.578125 123.203125 C 152.578125 123.203125 153.117188 123.203125 153.492188 123.4375 C 152.917969 123.546875 152.703125 123.972656 152.703125 124.3125 C 152.703125 124.742188 153.042969 124.886719 153.292969 124.886719 C 153.832031 124.886719 154.207031 124.421875 154.207031 123.9375 C 154.207031 123.1875 153.347656 122.847656 152.597656 122.847656 C 151.507812 122.847656 150.898438 123.921875 150.738281 124.257812 C 150.328125 122.917969 149.21875 122.847656 148.894531 122.847656 C 147.070312 122.847656 146.105469 125.1875 146.105469 125.582031 C 146.105469 125.65625 146.179688 125.742188 146.304688 125.742188 C 146.445312 125.742188 146.480469 125.636719 146.515625 125.566406 C 147.125 123.582031 148.324219 123.203125 148.84375 123.203125 C 149.648438 123.203125 149.808594 123.957031 149.808594 124.386719 C 149.808594 124.777344 149.699219 125.1875 149.484375 126.046875 L 148.878906 128.5 C 148.609375 129.570312 148.089844 130.554688 147.144531 130.554688 C 147.054688 130.554688 146.605469 130.554688 146.230469 130.320312 C 146.875 130.195312 147.019531 129.660156 147.019531 129.445312 C 147.019531 129.085938 146.75 128.875 146.410156 128.875 C 145.980469 128.875 145.515625 129.25 145.515625 129.820312 C 145.515625 130.570312 146.355469 130.910156 147.125 130.910156 C 147.984375 130.910156 148.59375 130.234375 148.96875 129.5 C 149.253906 130.554688 150.148438 130.910156 150.808594 130.910156 C 152.632812 130.910156 153.597656 128.570312 153.597656 128.175781 Z M 153.597656 128.175781 "/>
<path style=" stroke:none;fill-rule:evenodd;fill:rgb(0%,0%,0%);fill-opacity:1;" d="M 172.050781 124.6875 C 172.050781 124.367188 171.746094 124.367188 171.441406 124.367188 L 161.445312 124.367188 C 161.140625 124.367188 160.835938 124.367188 160.835938 124.6875 C 160.835938 124.992188 161.105469 124.992188 161.375 124.992188 L 171.511719 124.992188 C 171.78125 124.992188 172.050781 124.992188 172.050781 124.6875 Z M 172.050781 127.855469 C 172.050781 127.550781 171.78125 127.550781 171.511719 127.550781 L 161.375 127.550781 C 161.105469 127.550781 160.835938 127.550781 160.835938 127.855469 C 160.835938 128.175781 161.140625 128.175781 161.445312 128.175781 L 171.441406 128.175781 C 171.746094 128.175781 172.050781 128.175781 172.050781 127.855469 Z M 172.050781 127.855469 "/>
<path style=" stroke:none;fill-rule:evenodd;fill:rgb(0%,0%,0%);fill-opacity:1;" d="M 185.324219 124.992188 C 185.324219 123.902344 185.308594 122.042969 184.554688 120.613281 C 183.894531 119.363281 182.839844 118.914062 181.910156 118.914062 C 181.050781 118.914062 179.960938 119.308594 179.28125 120.59375 C 178.566406 121.9375 178.496094 123.597656 178.496094 124.992188 C 178.496094 126.011719 178.511719 127.566406 179.066406 128.925781 C 179.835938 130.769531 181.210938 131.019531 181.910156 131.019531 C 182.730469 131.019531 183.984375 130.679688 184.714844 128.980469 C 185.253906 127.746094 185.324219 126.296875 185.324219 124.992188 Z M 184.179688 124.796875 C 184.179688 125.960938 184.179688 127.390625 183.964844 128.445312 C 183.589844 130.394531 182.535156 130.734375 181.910156 130.734375 C 180.765625 130.734375 180.085938 129.75 179.835938 128.390625 C 179.636719 127.335938 179.636719 125.796875 179.636719 124.796875 C 179.636719 123.421875 179.636719 122.273438 179.871094 121.183594 C 180.210938 119.664062 181.210938 119.199219 181.910156 119.199219 C 182.644531 119.199219 183.589844 119.683594 183.929688 121.148438 C 184.160156 122.167969 184.179688 123.367188 184.179688 124.796875 Z M 184.179688 124.796875 "/>
<g clip-path="url(#clip8)" clip-rule="nonzero">
<path style="fill:none;stroke-width:1.6;stroke-linecap:butt;stroke-linejoin:miter;stroke:rgb(36.525521%,42.780194%,75.829709%);stroke-opacity:1;stroke-miterlimit:3.25;" d="M 118.816406 106.984375 L 137.214844 106.984375 "/>
</g>
<path style=" stroke:none;fill-rule:evenodd;fill:rgb(0%,0%,0%);fill-opacity:1;" d="M 153.597656 108.179688 C 153.597656 108.089844 153.527344 108.019531 153.421875 108.019531 C 153.257812 108.019531 153.242188 108.105469 153.1875 108.25 C 152.703125 109.824219 151.667969 110.558594 150.863281 110.558594 C 150.238281 110.558594 149.898438 110.089844 149.898438 109.359375 C 149.898438 108.964844 149.96875 108.679688 150.253906 107.5 L 150.882812 105.066406 C 151.148438 103.996094 151.757812 103.207031 152.578125 103.207031 C 152.578125 103.207031 153.117188 103.207031 153.492188 103.441406 C 152.917969 103.546875 152.703125 103.976562 152.703125 104.316406 C 152.703125 104.746094 153.042969 104.886719 153.292969 104.886719 C 153.832031 104.886719 154.207031 104.421875 154.207031 103.941406 C 154.207031 103.191406 153.347656 102.847656 152.597656 102.847656 C 151.507812 102.847656 150.898438 103.921875 150.738281 104.261719 C 150.328125 102.921875 149.21875 102.847656 148.894531 102.847656 C 147.070312 102.847656 146.105469 105.191406 146.105469 105.585938 C 146.105469 105.65625 146.179688 105.746094 146.304688 105.746094 C 146.445312 105.746094 146.480469 105.640625 146.515625 105.566406 C 147.125 103.582031 148.324219 103.207031 148.84375 103.207031 C 149.648438 103.207031 149.808594 103.957031 149.808594 104.386719 C 149.808594 104.78125 149.699219 105.191406 149.484375 106.050781 L 148.878906 108.5 C 148.609375 109.574219 148.089844 110.558594 147.144531 110.558594 C 147.054688 110.558594 146.605469 110.558594 146.230469 110.324219 C 146.875 110.199219 147.019531 109.660156 147.019531 109.449219 C 147.019531 109.089844 146.75 108.875 146.410156 108.875 C 145.980469 108.875 145.515625 109.25 145.515625 109.824219 C 145.515625 110.574219 146.355469 110.914062 147.125 110.914062 C 147.984375 110.914062 148.59375 110.234375 148.96875 109.5 C 149.253906 110.558594 150.148438 110.914062 150.808594 110.914062 C 152.632812 110.914062 153.597656 108.570312 153.597656 108.179688 Z M 153.597656 108.179688 "/>
<path style=" stroke:none;fill-rule:evenodd;fill:rgb(0%,0%,0%);fill-opacity:1;" d="M 172.050781 104.691406 C 172.050781 104.371094 171.746094 104.371094 171.441406 104.371094 L 161.445312 104.371094 C 161.140625 104.371094 160.835938 104.371094 160.835938 104.691406 C 160.835938 104.996094 161.105469 104.996094 161.375 104.996094 L 171.511719 104.996094 C 171.78125 104.996094 172.050781 104.996094 172.050781 104.691406 Z M 172.050781 107.855469 C 172.050781 107.550781 171.78125 107.550781 171.511719 107.550781 L 161.375 107.550781 C 161.105469 107.550781 160.835938 107.550781 160.835938 107.855469 C 160.835938 108.179688 161.140625 108.179688 161.445312 108.179688 L 171.441406 108.179688 C 171.746094 108.179688 172.050781 108.179688 172.050781 107.855469 Z M 172.050781 107.855469 "/>
<path style=" stroke:none;fill-rule:evenodd;fill:rgb(0%,0%,0%);fill-opacity:1;" d="M 185.324219 104.996094 C 185.324219 103.90625 185.308594 102.042969 184.554688 100.613281 C 183.894531 99.363281 182.839844 98.917969 181.910156 98.917969 C 181.050781 98.917969 179.960938 99.308594 179.28125 100.597656 C 178.566406 101.9375 178.496094 103.601562 178.496094 104.996094 C 178.496094 106.015625 178.511719 107.570312 179.066406 108.929688 C 179.835938 110.769531 181.210938 111.019531 181.910156 111.019531 C 182.730469 111.019531 183.984375 110.683594 184.714844 108.984375 C 185.253906 107.75 185.324219 106.300781 185.324219 104.996094 Z M 184.179688 104.800781 C 184.179688 105.960938 184.179688 107.390625 183.964844 108.445312 C 183.589844 110.394531 182.535156 110.734375 181.910156 110.734375 C 180.765625 110.734375 180.085938 109.753906 179.835938 108.394531 C 179.636719 107.339844 179.636719 105.800781 179.636719 104.800781 C 179.636719 103.421875 179.636719 102.277344 179.871094 101.1875 C 180.210938 99.667969 181.210938 99.203125 181.910156 99.203125 C 182.644531 99.203125 183.589844 99.683594 183.929688 101.152344 C 184.160156 102.167969 184.179688 103.367188 184.179688 104.800781 Z M 184.179688 104.800781 "/>
<path style=" stroke:none;fill-rule:evenodd;fill:rgb(0%,0%,0%);fill-opacity:1;" d="M 189.40625 109.878906 C 189.40625 109.359375 188.976562 109 188.546875 109 C 188.027344 109 187.671875 109.429688 187.671875 109.859375 C 187.671875 110.378906 188.097656 110.734375 188.527344 110.734375 C 189.046875 110.734375 189.40625 110.304688 189.40625 109.878906 Z M 189.40625 109.878906 "/>
<path style=" stroke:none;fill-rule:evenodd;fill:rgb(0%,0%,0%);fill-opacity:1;" d="M 197.78125 110.734375 L 197.78125 110.269531 L 197.242188 110.269531 C 195.707031 110.269531 195.671875 110.074219 195.671875 109.429688 L 195.671875 99.308594 C 195.671875 98.933594 195.652344 98.917969 195.402344 98.917969 C 194.703125 99.757812 193.648438 100.023438 192.648438 100.058594 C 192.59375 100.058594 192.503906 100.058594 192.488281 100.097656 C 192.46875 100.132812 192.46875 100.167969 192.46875 100.542969 C 193.023438 100.542969 193.953125 100.433594 194.667969 100.007812 L 194.667969 109.429688 C 194.667969 110.054688 194.632812 110.269531 193.09375 110.269531 L 192.558594 110.269531 L 192.558594 110.734375 L 195.171875 110.699219 Z M 197.78125 110.734375 "/>
<g clip-path="url(#clip9)" clip-rule="nonzero">
<path style="fill:none;stroke-width:1.6;stroke-linecap:butt;stroke-linejoin:miter;stroke:rgb(94.51133%,59.389639%,0%);stroke-opacity:1;stroke-miterlimit:3.25;" d="M 118.816406 86.988281 L 137.214844 86.988281 "/>
</g>
<path style=" stroke:none;fill-rule:evenodd;fill:rgb(0%,0%,0%);fill-opacity:1;" d="M 153.597656 88.179688 C 153.597656 88.089844 153.527344 88.019531 153.421875 88.019531 C 153.257812 88.019531 153.242188 88.109375 153.1875 88.25 C 152.703125 89.824219 151.667969 90.558594 150.863281 90.558594 C 150.238281 90.558594 149.898438 90.09375 149.898438 89.359375 C 149.898438 88.96875 149.96875 88.679688 150.253906 87.5 L 150.882812 85.070312 C 151.148438 83.996094 151.757812 83.210938 152.578125 83.210938 C 152.578125 83.210938 153.117188 83.210938 153.492188 83.441406 C 152.917969 83.550781 152.703125 83.976562 152.703125 84.320312 C 152.703125 84.746094 153.042969 84.890625 153.292969 84.890625 C 153.832031 84.890625 154.207031 84.425781 154.207031 83.941406 C 154.207031 83.191406 153.347656 82.851562 152.597656 82.851562 C 151.507812 82.851562 150.898438 83.925781 150.738281 84.265625 C 150.328125 82.921875 149.21875 82.851562 148.894531 82.851562 C 147.070312 82.851562 146.105469 85.195312 146.105469 85.585938 C 146.105469 85.660156 146.179688 85.75 146.304688 85.75 C 146.445312 85.75 146.480469 85.640625 146.515625 85.570312 C 147.125 83.585938 148.324219 83.210938 148.84375 83.210938 C 149.648438 83.210938 149.808594 83.960938 149.808594 84.390625 C 149.808594 84.78125 149.699219 85.195312 149.484375 86.054688 L 148.878906 88.503906 C 148.609375 89.574219 148.089844 90.558594 147.144531 90.558594 C 147.054688 90.558594 146.605469 90.558594 146.230469 90.328125 C 146.875 90.203125 147.019531 89.664062 147.019531 89.449219 C 147.019531 89.09375 146.75 88.878906 146.410156 88.878906 C 145.980469 88.878906 145.515625 89.253906 145.515625 89.824219 C 145.515625 90.578125 146.355469 90.914062 147.125 90.914062 C 147.984375 90.914062 148.59375 90.238281 148.96875 89.503906 C 149.253906 90.558594 150.148438 90.914062 150.808594 90.914062 C 152.632812 90.914062 153.597656 88.574219 153.597656 88.179688 Z M 153.597656 88.179688 "/>
<path style=" stroke:none;fill-rule:evenodd;fill:rgb(0%,0%,0%);fill-opacity:1;" d="M 172.050781 84.695312 C 172.050781 84.371094 171.746094 84.371094 171.441406 84.371094 L 161.445312 84.371094 C 161.140625 84.371094 160.835938 84.371094 160.835938 84.695312 C 160.835938 85 161.105469 85 161.375 85 L 171.511719 85 C 171.78125 85 172.050781 85 172.050781 84.695312 Z M 172.050781 87.859375 C 172.050781 87.554688 171.78125 87.554688 171.511719 87.554688 L 161.375 87.554688 C 161.105469 87.554688 160.835938 87.554688 160.835938 87.859375 C 160.835938 88.179688 161.140625 88.179688 161.445312 88.179688 L 171.441406 88.179688 C 171.746094 88.179688 172.050781 88.179688 172.050781 87.859375 Z M 172.050781 87.859375 "/>
<path style=" stroke:none;fill-rule:evenodd;fill:rgb(0%,0%,0%);fill-opacity:1;" d="M 185.324219 85 C 185.324219 83.90625 185.308594 82.046875 184.554688 80.617188 C 183.894531 79.367188 182.839844 78.917969 181.910156 78.917969 C 181.050781 78.917969 179.960938 79.3125 179.28125 80.597656 C 178.566406 81.941406 178.496094 83.601562 178.496094 85 C 178.496094 86.015625 178.511719 87.570312 179.066406 88.929688 C 179.835938 90.773438 181.210938 91.023438 181.910156 91.023438 C 182.730469 91.023438 183.984375 90.683594 184.714844 88.984375 C 185.253906 87.75 185.324219 86.304688 185.324219 85 Z M 184.179688 84.800781 C 184.179688 85.964844 184.179688 87.394531 183.964844 88.449219 C 183.589844 90.398438 182.535156 90.738281 181.910156 90.738281 C 180.765625 90.738281 180.085938 89.753906 179.835938 88.394531 C 179.636719 87.339844 179.636719 85.804688 179.636719 84.800781 C 179.636719 83.425781 179.636719 82.28125 179.871094 81.1875 C 180.210938 79.667969 181.210938 79.203125 181.910156 79.203125 C 182.644531 79.203125 183.589844 79.6875 183.929688 81.152344 C 184.160156 82.171875 184.179688 83.371094 184.179688 84.800781 Z M 184.179688 84.800781 "/>
<path style=" stroke:none;fill-rule:evenodd;fill:rgb(0%,0%,0%);fill-opacity:1;" d="M 189.40625 89.878906 C 189.40625 89.359375 188.976562 89.003906 188.546875 89.003906 C 188.027344 89.003906 187.671875 89.433594 187.671875 89.859375 C 187.671875 90.378906 188.097656 90.738281 188.527344 90.738281 C 189.046875 90.738281 189.40625 90.308594 189.40625 89.878906 Z M 189.40625 89.878906 "/>
<path style=" stroke:none;fill-rule:evenodd;fill:rgb(0%,0%,0%);fill-opacity:1;" d="M 198.371094 87.964844 L 198.046875 87.964844 C 197.871094 89.234375 197.726562 89.449219 197.65625 89.558594 C 197.566406 89.699219 196.277344 89.699219 196.027344 89.699219 L 192.59375 89.699219 L 196.007812 86.265625 C 197.101562 85.230469 198.371094 84.015625 198.371094 82.242188 C 198.371094 80.132812 196.6875 78.917969 194.8125 78.917969 C 192.84375 78.917969 191.648438 80.652344 191.648438 82.261719 C 191.648438 82.960938 192.164062 83.046875 192.378906 83.046875 C 192.558594 83.046875 193.09375 82.941406 193.09375 82.316406 C 193.09375 81.761719 192.632812 81.601562 192.378906 81.601562 C 192.273438 81.601562 192.164062 81.617188 192.09375 81.65625 C 192.433594 80.132812 193.46875 79.382812 194.5625 79.382812 C 196.117188 79.382812 197.136719 80.617188 197.136719 82.242188 C 197.136719 83.800781 196.226562 85.140625 195.203125 86.304688 L 191.648438 90.328125 L 191.648438 90.738281 L 197.941406 90.738281 Z M 198.371094 87.964844 "/>
<path style="fill:none;stroke-width:0.5;stroke-linecap:square;stroke-linejoin:miter;stroke:rgb(40%,40%,40%);stroke-opacity:1;stroke-miterlimit:3.25;" d="M 299.5 140.484375 L 99.523438 140.484375 "/>
<path style="fill:none;stroke-width:0.5;stroke-linecap:square;stroke-linejoin:miter;stroke:rgb(40%,40%,40%);stroke-opacity:1;stroke-miterlimit:3.25;" d="M 99.523438 140.484375 L 99.523438 0.5 "/>
<path style="fill:none;stroke-width:0.5;stroke-linecap:square;stroke-linejoin:miter;stroke:rgb(40%,40%,40%);stroke-opacity:1;stroke-miterlimit:3.25;" d="M 99.523438 0.5 L 299.5 0.5 "/>
<path style="fill:none;stroke-width:0.5;stroke-linecap:square;stroke-linejoin:miter;stroke:rgb(40%,40%,40%);stroke-opacity:1;stroke-miterlimit:3.25;" d="M 299.5 0.5 L 299.5 140.484375 "/>
<path style="fill:none;stroke-width:0.5;stroke-linecap:butt;stroke-linejoin:miter;stroke:rgb(40%,40%,40%);stroke-opacity:1;stroke-miterlimit:3.25;" d="M 103.261719 140.484375 L 103.261719 137.972656 "/>
<path style=" stroke:none;fill-rule:evenodd;fill:rgb(0%,0%,0%);fill-opacity:1;" d="M 100.476562 155.023438 C 100.476562 154.664062 100.132812 154.664062 99.882812 154.664062 L 90.140625 154.664062 C 89.890625 154.664062 89.550781 154.664062 89.550781 155.023438 C 89.550781 155.382812 89.890625 155.382812 90.140625 155.382812 L 99.882812 155.382812 C 100.132812 155.382812 100.476562 155.382812 100.476562 155.023438 Z M 100.476562 155.023438 "/>
<path style=" stroke:none;fill-rule:evenodd;fill:rgb(0%,0%,0%);fill-opacity:1;" d="M 108.832031 159.492188 L 108.832031 159.027344 L 108.292969 159.027344 C 106.757812 159.027344 106.722656 158.832031 106.722656 158.1875 L 106.722656 148.070312 C 106.722656 147.691406 106.703125 147.675781 106.453125 147.675781 C 105.753906 148.515625 104.703125 148.785156 103.699219 148.820312 C 103.648438 148.820312 103.554688 148.820312 103.539062 148.855469 C 103.523438 148.890625 103.523438 148.925781 103.523438 149.300781 C 104.074219 149.300781 105.003906 149.195312 105.71875 148.765625 L 105.71875 158.1875 C 105.71875 158.8125 105.683594 159.027344 104.148438 159.027344 L 103.609375 159.027344 L 103.609375 159.492188 L 106.222656 159.457031 Z M 108.832031 159.492188 "/>
<path style=" stroke:none;fill-rule:evenodd;fill:rgb(0%,0%,0%);fill-opacity:1;" d="M 117.773438 153.753906 C 117.773438 152.664062 117.757812 150.804688 117.003906 149.375 C 116.34375 148.121094 115.289062 147.675781 114.359375 147.675781 C 113.5 147.675781 112.410156 148.070312 111.730469 149.355469 C 111.015625 150.695312 110.945312 152.359375 110.945312 153.753906 C 110.945312 154.773438 110.960938 156.328125 111.515625 157.6875 C 112.285156 159.53125 113.660156 159.78125 114.359375 159.78125 C 115.183594 159.78125 116.433594 159.441406 117.167969 157.742188 C 117.703125 156.507812 117.773438 155.058594 117.773438 153.753906 Z M 116.628906 153.558594 C 116.628906 154.71875 116.628906 156.148438 116.417969 157.203125 C 116.039062 159.15625 114.984375 159.492188 114.359375 159.492188 C 113.214844 159.492188 112.535156 158.511719 112.285156 157.152344 C 112.089844 156.097656 112.089844 154.558594 112.089844 153.558594 C 112.089844 152.179688 112.089844 151.035156 112.320312 149.945312 C 112.660156 148.425781 113.660156 147.960938 114.359375 147.960938 C 115.09375 147.960938 116.039062 148.445312 116.378906 149.910156 C 116.613281 150.929688 116.628906 152.125 116.628906 153.558594 Z M 116.628906 153.558594 "/>
<path style="fill:none;stroke-width:0.5;stroke-linecap:butt;stroke-linejoin:miter;stroke:rgb(40%,40%,40%);stroke-opacity:1;stroke-miterlimit:3.25;" d="M 140.640625 140.484375 L 140.640625 137.972656 "/>
<path style=" stroke:none;fill-rule:evenodd;fill:rgb(0%,0%,0%);fill-opacity:1;" d="M 141.964844 155.019531 C 141.964844 154.664062 141.621094 154.664062 141.371094 154.664062 L 131.628906 154.664062 C 131.378906 154.664062 131.039062 154.664062 131.039062 155.019531 C 131.039062 155.378906 131.378906 155.378906 131.628906 155.378906 L 141.371094 155.378906 C 141.621094 155.378906 141.964844 155.378906 141.964844 155.019531 Z M 141.964844 155.019531 "/>
<path style=" stroke:none;fill-rule:evenodd;fill:rgb(0%,0%,0%);fill-opacity:1;" d="M 151.050781 156.578125 C 151.050781 154.949219 149.960938 154.199219 149.246094 153.71875 C 148.996094 153.539062 148.851562 153.449219 148.316406 153.054688 C 149.441406 152.484375 150.585938 151.625 150.585938 150.25 C 150.585938 148.621094 149.011719 147.675781 147.566406 147.675781 C 145.9375 147.675781 144.507812 148.855469 144.507812 150.480469 C 144.507812 150.925781 144.617188 151.695312 145.3125 152.375 C 145.492188 152.554688 146.242188 153.089844 146.726562 153.429688 C 145.921875 153.84375 144.042969 154.824219 144.042969 156.792969 C 144.042969 158.632812 145.796875 159.777344 147.53125 159.777344 C 149.441406 159.777344 151.050781 158.398438 151.050781 156.578125 Z M 149.980469 150.25 C 149.980469 151.910156 148.121094 152.859375 148.03125 152.859375 C 148.03125 152.859375 147.996094 152.859375 147.851562 152.75 L 145.976562 151.480469 C 145.832031 151.390625 145.117188 150.839844 145.117188 149.996094 C 145.117188 148.90625 146.242188 148.085938 147.53125 148.085938 C 148.941406 148.085938 149.980469 149.085938 149.980469 150.25 Z M 150.390625 157.023438 C 150.390625 158.347656 149.066406 159.347656 147.566406 159.347656 C 145.9375 159.347656 144.703125 158.1875 144.703125 156.773438 C 144.703125 155.363281 145.796875 154.179688 147.03125 153.625 L 149.261719 155.144531 C 149.53125 155.34375 150.390625 155.933594 150.390625 157.023438 Z M 150.390625 157.023438 "/>
<path style="fill:none;stroke-width:0.5;stroke-linecap:butt;stroke-linejoin:miter;stroke:rgb(40%,40%,40%);stroke-opacity:1;stroke-miterlimit:3.25;" d="M 178.019531 140.484375 L 178.019531 137.972656 "/>
<path style=" stroke:none;fill-rule:evenodd;fill:rgb(0%,0%,0%);fill-opacity:1;" d="M 179.34375 155.019531 C 179.34375 154.664062 179 154.664062 178.75 154.664062 L 169.007812 154.664062 C 168.757812 154.664062 168.417969 154.664062 168.417969 155.019531 C 168.417969 155.378906 168.757812 155.378906 169.007812 155.378906 L 178.75 155.378906 C 179 155.378906 179.34375 155.378906 179.34375 155.019531 Z M 179.34375 155.019531 "/>
<path style=" stroke:none;fill-rule:evenodd;fill:rgb(0%,0%,0%);fill-opacity:1;" d="M 188.339844 155.824219 C 188.339844 153.59375 186.890625 151.964844 185.070312 151.964844 C 183.980469 151.964844 183.175781 152.679688 182.726562 153.929688 L 182.726562 153.324219 C 182.726562 149.050781 184.730469 148.085938 185.890625 148.085938 C 186.265625 148.085938 187.179688 148.15625 187.535156 148.855469 C 187.25 148.855469 186.714844 148.855469 186.714844 149.480469 C 186.714844 149.964844 187.109375 150.125 187.359375 150.125 C 187.519531 150.125 188 150.050781 188 149.445312 C 188 148.316406 187.109375 147.675781 185.875 147.675781 C 183.746094 147.675781 181.511719 149.890625 181.511719 153.84375 C 181.511719 158.703125 183.53125 159.777344 184.960938 159.777344 C 186.695312 159.777344 188.339844 158.222656 188.339844 155.824219 Z M 187.125 155.808594 C 187.125 156.773438 187.125 157.488281 186.75 158.203125 C 186.355469 158.9375 185.785156 159.347656 184.960938 159.347656 C 182.761719 159.347656 182.761719 156.058594 182.761719 155.394531 C 182.761719 154.109375 183.371094 152.25 185.035156 152.25 C 185.339844 152.25 186.214844 152.25 186.804688 153.484375 C 187.125 154.179688 187.125 154.914062 187.125 155.808594 Z M 187.125 155.808594 "/>
<path style="fill:none;stroke-width:0.5;stroke-linecap:butt;stroke-linejoin:miter;stroke:rgb(40%,40%,40%);stroke-opacity:1;stroke-miterlimit:3.25;" d="M 215.398438 140.484375 L 215.398438 137.972656 "/>
<path style=" stroke:none;fill-rule:evenodd;fill:rgb(0%,0%,0%);fill-opacity:1;" d="M 216.722656 155.019531 C 216.722656 154.664062 216.382812 154.664062 216.132812 154.664062 L 206.386719 154.664062 C 206.136719 154.664062 205.796875 154.664062 205.796875 155.019531 C 205.796875 155.378906 206.136719 155.378906 206.386719 155.378906 L 216.132812 155.378906 C 216.382812 155.378906 216.722656 155.378906 216.722656 155.019531 Z M 216.722656 155.019531 "/>
<path style=" stroke:none;fill-rule:evenodd;fill:rgb(0%,0%,0%);fill-opacity:1;" d="M 226.042969 156.453125 L 226.042969 155.988281 L 224.21875 155.988281 L 224.21875 147.925781 C 224.21875 147.550781 224.199219 147.53125 223.878906 147.53125 L 218.570312 155.988281 L 218.570312 156.453125 L 223.179688 156.453125 L 223.179688 158.203125 C 223.179688 158.847656 223.144531 159.023438 221.894531 159.023438 L 221.554688 159.023438 L 221.554688 159.492188 C 222.125 159.453125 223.09375 159.453125 223.699219 159.453125 C 224.308594 159.453125 225.273438 159.453125 225.84375 159.492188 L 225.84375 159.023438 L 225.503906 159.023438 C 224.253906 159.023438 224.21875 158.847656 224.21875 158.203125 L 224.21875 156.453125 Z M 223.234375 155.988281 L 218.925781 155.988281 L 223.234375 149.105469 Z M 223.234375 155.988281 "/>
<path style="fill:none;stroke-width:0.5;stroke-linecap:butt;stroke-linejoin:miter;stroke:rgb(40%,40%,40%);stroke-opacity:1;stroke-miterlimit:3.25;" d="M 252.777344 140.484375 L 252.777344 137.972656 "/>
<path style=" stroke:none;fill-rule:evenodd;fill:rgb(0%,0%,0%);fill-opacity:1;" d="M 254.101562 155.019531 C 254.101562 154.664062 253.761719 154.664062 253.511719 154.664062 L 243.765625 154.664062 C 243.515625 154.664062 243.179688 154.664062 243.179688 155.019531 C 243.179688 155.378906 243.515625 155.378906 243.765625 155.378906 L 253.511719 155.378906 C 253.761719 155.378906 254.101562 155.378906 254.101562 155.019531 Z M 254.101562 155.019531 "/>
<path style=" stroke:none;fill-rule:evenodd;fill:rgb(0%,0%,0%);fill-opacity:1;" d="M 263.046875 156.71875 L 262.722656 156.71875 C 262.546875 157.988281 262.402344 158.203125 262.328125 158.3125 C 262.242188 158.453125 260.953125 158.453125 260.703125 158.453125 L 257.273438 158.453125 L 260.683594 155.019531 C 261.773438 153.984375 263.046875 152.769531 263.046875 151 C 263.046875 148.890625 261.363281 147.675781 259.488281 147.675781 C 257.523438 147.675781 256.324219 149.410156 256.324219 151.019531 C 256.324219 151.714844 256.84375 151.804688 257.054688 151.804688 C 257.234375 151.804688 257.769531 151.695312 257.769531 151.070312 C 257.769531 150.515625 257.308594 150.355469 257.054688 150.355469 C 256.949219 150.355469 256.84375 150.375 256.769531 150.410156 C 257.109375 148.890625 258.144531 148.136719 259.238281 148.136719 C 260.792969 148.136719 261.8125 149.371094 261.8125 151 C 261.8125 152.554688 260.898438 153.894531 259.878906 155.058594 L 256.324219 159.078125 L 256.324219 159.492188 L 262.617188 159.492188 Z M 263.046875 156.71875 "/>
<path style="fill:none;stroke-width:0.5;stroke-linecap:butt;stroke-linejoin:miter;stroke:rgb(40%,40%,40%);stroke-opacity:1;stroke-miterlimit:3.25;" d="M 290.15625 140.484375 L 290.15625 137.972656 "/>
<path style=" stroke:none;fill-rule:evenodd;fill:rgb(0%,0%,0%);fill-opacity:1;" d="M 293.554688 153.753906 C 293.554688 152.660156 293.535156 150.800781 292.785156 149.371094 C 292.125 148.121094 291.070312 147.675781 290.140625 147.675781 C 289.28125 147.675781 288.191406 148.066406 287.511719 149.351562 C 286.796875 150.695312 286.726562 152.355469 286.726562 153.753906 C 286.726562 154.769531 286.742188 156.324219 287.296875 157.683594 C 288.066406 159.523438 289.441406 159.773438 290.140625 159.773438 C 290.960938 159.773438 292.214844 159.4375 292.945312 157.738281 C 293.484375 156.503906 293.554688 155.054688 293.554688 153.753906 Z M 292.410156 153.554688 C 292.410156 154.71875 292.410156 156.148438 292.195312 157.199219 C 291.820312 159.152344 290.765625 159.488281 290.140625 159.488281 C 288.996094 159.488281 288.316406 158.507812 288.066406 157.148438 C 287.871094 156.09375 287.871094 154.554688 287.871094 153.554688 C 287.871094 152.179688 287.871094 151.035156 288.101562 149.945312 C 288.441406 148.425781 289.441406 147.960938 290.140625 147.960938 C 290.875 147.960938 291.820312 148.441406 292.160156 149.90625 C 292.390625 150.925781 292.410156 152.125 292.410156 153.554688 Z M 292.410156 153.554688 "/>
<path style="fill:none;stroke-width:0.5;stroke-linecap:butt;stroke-linejoin:miter;stroke:rgb(40%,40%,40%);stroke-opacity:1;stroke-miterlimit:3.25;" d="M 99.523438 125.75 L 102.03125 125.75 "/>
<path style=" stroke:none;fill-rule:evenodd;fill:rgb(0%,0%,0%);fill-opacity:1;" d="M 64.441406 125.535156 C 64.441406 125.175781 64.101562 125.175781 63.851562 125.175781 L 54.105469 125.175781 C 53.855469 125.175781 53.515625 125.175781 53.515625 125.535156 C 53.515625 125.890625 53.855469 125.890625 54.105469 125.890625 L 63.851562 125.890625 C 64.101562 125.890625 64.441406 125.890625 64.441406 125.535156 Z M 64.441406 125.535156 "/>
<path style=" stroke:none;fill-rule:evenodd;fill:rgb(0%,0%,0%);fill-opacity:1;" d="M 73.441406 124.265625 C 73.441406 123.175781 73.425781 121.3125 72.671875 119.882812 C 72.011719 118.632812 70.957031 118.183594 70.027344 118.183594 C 69.167969 118.183594 68.078125 118.578125 67.398438 119.863281 C 66.683594 121.207031 66.613281 122.871094 66.613281 124.265625 C 66.613281 125.285156 66.628906 126.839844 67.183594 128.199219 C 67.953125 130.039062 69.328125 130.289062 70.027344 130.289062 C 70.847656 130.289062 72.101562 129.949219 72.832031 128.253906 C 73.371094 127.019531 73.441406 125.570312 73.441406 124.265625 Z M 72.296875 124.066406 C 72.296875 125.230469 72.296875 126.660156 72.082031 127.714844 C 71.707031 129.664062 70.652344 130.003906 70.027344 130.003906 C 68.882812 130.003906 68.203125 129.019531 67.953125 127.660156 C 67.753906 126.605469 67.753906 125.070312 67.753906 124.066406 C 67.753906 122.691406 67.753906 121.546875 67.988281 120.457031 C 68.328125 118.933594 69.328125 118.472656 70.027344 118.472656 C 70.761719 118.472656 71.707031 118.953125 72.046875 120.417969 C 72.277344 121.4375 72.296875 122.636719 72.296875 124.066406 Z M 72.296875 124.066406 "/>
<path style=" stroke:none;fill-rule:evenodd;fill:rgb(0%,0%,0%);fill-opacity:1;" d="M 77.523438 129.144531 C 77.523438 128.628906 77.09375 128.269531 76.664062 128.269531 C 76.144531 128.269531 75.789062 128.699219 75.789062 129.128906 C 75.789062 129.644531 76.214844 130.003906 76.644531 130.003906 C 77.164062 130.003906 77.523438 129.574219 77.523438 129.144531 Z M 77.523438 129.144531 "/>
<path style=" stroke:none;fill-rule:evenodd;fill:rgb(0%,0%,0%);fill-opacity:1;" d="M 85.898438 130.003906 L 85.898438 129.539062 L 85.363281 129.539062 C 83.824219 129.539062 83.789062 129.34375 83.789062 128.699219 L 83.789062 118.578125 C 83.789062 118.203125 83.769531 118.183594 83.519531 118.183594 C 82.824219 119.027344 81.769531 119.292969 80.765625 119.328125 C 80.714844 119.328125 80.621094 119.328125 80.605469 119.363281 C 80.589844 119.402344 80.589844 119.4375 80.589844 119.8125 C 81.140625 119.8125 82.070312 119.703125 82.785156 119.277344 L 82.785156 128.699219 C 82.785156 129.324219 82.75 129.539062 81.214844 129.539062 L 80.675781 129.539062 L 80.675781 130.003906 L 83.289062 129.96875 Z M 85.898438 130.003906 "/>
<path style=" stroke:none;fill-rule:evenodd;fill:rgb(0%,0%,0%);fill-opacity:1;" d="M 94.839844 124.265625 C 94.839844 123.175781 94.824219 121.3125 94.074219 119.882812 C 93.410156 118.632812 92.355469 118.183594 91.425781 118.183594 C 90.566406 118.183594 89.476562 118.578125 88.796875 119.863281 C 88.082031 121.207031 88.011719 122.871094 88.011719 124.265625 C 88.011719 125.285156 88.027344 126.839844 88.582031 128.199219 C 89.351562 130.039062 90.730469 130.289062 91.425781 130.289062 C 92.25 130.289062 93.5 129.949219 94.234375 128.253906 C 94.773438 127.019531 94.839844 125.570312 94.839844 124.265625 Z M 93.699219 124.066406 C 93.699219 125.230469 93.699219 126.660156 93.484375 127.714844 C 93.105469 129.664062 92.050781 130.003906 91.425781 130.003906 C 90.28125 130.003906 89.601562 129.019531 89.351562 127.660156 C 89.15625 126.605469 89.15625 125.070312 89.15625 124.066406 C 89.15625 122.691406 89.15625 121.546875 89.386719 120.457031 C 89.726562 118.933594 90.730469 118.472656 91.425781 118.472656 C 92.160156 118.472656 93.105469 118.953125 93.449219 120.417969 C 93.679688 121.4375 93.699219 122.636719 93.699219 124.066406 Z M 93.699219 124.066406 "/>
<path style="fill:none;stroke-width:0.5;stroke-linecap:butt;stroke-linejoin:miter;stroke:rgb(40%,40%,40%);stroke-opacity:1;stroke-miterlimit:3.25;" d="M 99.523438 88.910156 L 102.03125 88.910156 "/>
<path style=" stroke:none;fill-rule:evenodd;fill:rgb(0%,0%,0%);fill-opacity:1;" d="M 64.441406 88.695312 C 64.441406 88.339844 64.101562 88.339844 63.851562 88.339844 L 54.105469 88.339844 C 53.855469 88.339844 53.515625 88.339844 53.515625 88.695312 C 53.515625 89.054688 53.855469 89.054688 54.105469 89.054688 L 63.851562 89.054688 C 64.101562 89.054688 64.441406 89.054688 64.441406 88.695312 Z M 64.441406 88.695312 "/>
<path style=" stroke:none;fill-rule:evenodd;fill:rgb(0%,0%,0%);fill-opacity:1;" d="M 73.441406 87.425781 C 73.441406 86.335938 73.425781 84.476562 72.671875 83.046875 C 72.011719 81.792969 70.957031 81.347656 70.027344 81.347656 C 69.167969 81.347656 68.078125 81.742188 67.398438 83.027344 C 66.683594 84.371094 66.613281 86.03125 66.613281 87.425781 C 66.613281 88.445312 66.628906 90 67.183594 91.359375 C 67.953125 93.203125 69.328125 93.453125 70.027344 93.453125 C 70.847656 93.453125 72.101562 93.113281 72.832031 91.414062 C 73.371094 90.179688 73.441406 88.730469 73.441406 87.425781 Z M 72.296875 87.230469 C 72.296875 88.394531 72.296875 89.824219 72.082031 90.878906 C 71.707031 92.828125 70.652344 93.167969 70.027344 93.167969 C 68.882812 93.167969 68.203125 92.183594 67.953125 90.824219 C 67.753906 89.769531 67.753906 88.230469 67.753906 87.230469 C 67.753906 85.855469 67.753906 84.707031 67.988281 83.617188 C 68.328125 82.097656 69.328125 81.632812 70.027344 81.632812 C 70.761719 81.632812 71.707031 82.117188 72.046875 83.582031 C 72.277344 84.601562 72.296875 85.800781 72.296875 87.230469 Z M 72.296875 87.230469 "/>
<path style=" stroke:none;fill-rule:evenodd;fill:rgb(0%,0%,0%);fill-opacity:1;" d="M 77.523438 92.308594 C 77.523438 91.789062 77.09375 91.433594 76.664062 91.433594 C 76.144531 91.433594 75.789062 91.863281 75.789062 92.289062 C 75.789062 92.808594 76.214844 93.167969 76.644531 93.167969 C 77.164062 93.167969 77.523438 92.738281 77.523438 92.308594 Z M 77.523438 92.308594 "/>
<path style=" stroke:none;fill-rule:evenodd;fill:rgb(0%,0%,0%);fill-opacity:1;" d="M 86.542969 87.425781 C 86.542969 86.335938 86.523438 84.476562 85.773438 83.046875 C 85.113281 81.792969 84.058594 81.347656 83.128906 81.347656 C 82.269531 81.347656 81.175781 81.742188 80.496094 83.027344 C 79.785156 84.371094 79.710938 86.03125 79.710938 87.425781 C 79.710938 88.445312 79.730469 90 80.285156 91.359375 C 81.050781 93.203125 82.429688 93.453125 83.128906 93.453125 C 83.949219 93.453125 85.199219 93.113281 85.933594 91.414062 C 86.472656 90.179688 86.542969 88.730469 86.542969 87.425781 Z M 85.398438 87.230469 C 85.398438 88.394531 85.398438 89.824219 85.183594 90.878906 C 84.808594 92.828125 83.753906 93.167969 83.128906 93.167969 C 81.980469 93.167969 81.300781 92.183594 81.050781 90.824219 C 80.855469 89.769531 80.855469 88.230469 80.855469 87.230469 C 80.855469 85.855469 80.855469 84.707031 81.089844 83.617188 C 81.425781 82.097656 82.429688 81.632812 83.128906 81.632812 C 83.859375 81.632812 84.808594 82.117188 85.148438 83.582031 C 85.378906 84.601562 85.398438 85.800781 85.398438 87.230469 Z M 85.398438 87.230469 "/>
<path style=" stroke:none;fill-rule:evenodd;fill:rgb(0%,0%,0%);fill-opacity:1;" d="M 94.789062 89.554688 C 94.789062 87.410156 93.394531 85.746094 91.660156 85.746094 C 90.746094 85.746094 89.980469 86.085938 89.371094 86.730469 L 89.371094 82.707031 C 89.550781 82.777344 90.28125 83.007812 91.035156 83.007812 C 92.695312 83.007812 93.609375 82.117188 94.128906 81.597656 C 94.128906 81.453125 94.128906 81.363281 94.019531 81.363281 C 94.019531 81.363281 93.964844 81.363281 93.824219 81.4375 C 93.199219 81.707031 92.464844 81.917969 91.570312 81.917969 C 91.035156 81.917969 90.230469 81.847656 89.351562 81.453125 C 89.15625 81.363281 89.101562 81.363281 89.101562 81.363281 C 89.011719 81.363281 88.996094 81.382812 88.996094 81.742188 L 88.996094 86.925781 C 88.996094 87.246094 88.996094 87.335938 89.175781 87.335938 C 89.261719 87.335938 89.300781 87.300781 89.386719 87.175781 C 89.960938 86.371094 90.746094 86.03125 91.640625 86.03125 C 92.265625 86.03125 93.609375 86.425781 93.609375 89.484375 C 93.609375 90.054688 93.609375 91.09375 93.070312 91.914062 C 92.625 92.648438 91.925781 93.023438 91.160156 93.023438 C 89.980469 93.023438 88.78125 92.199219 88.457031 90.824219 C 88.53125 90.839844 88.671875 90.878906 88.746094 90.878906 C 88.976562 90.878906 89.425781 90.753906 89.425781 90.199219 C 89.425781 89.714844 89.082031 89.519531 88.746094 89.519531 C 88.332031 89.519531 88.066406 89.769531 88.066406 90.269531 C 88.066406 91.824219 89.300781 93.453125 91.195312 93.453125 C 93.035156 93.453125 94.789062 91.863281 94.789062 89.554688 Z M 94.789062 89.554688 "/>
<path style="fill:none;stroke-width:0.5;stroke-linecap:butt;stroke-linejoin:miter;stroke:rgb(40%,40%,40%);stroke-opacity:1;stroke-miterlimit:3.25;" d="M 99.523438 52.074219 L 102.03125 52.074219 "/>
<path style=" stroke:none;fill-rule:evenodd;fill:rgb(0%,0%,0%);fill-opacity:1;" d="M 94.8125 50.589844 C 94.8125 49.5 94.796875 47.640625 94.042969 46.210938 C 93.382812 44.957031 92.328125 44.511719 91.398438 44.511719 C 90.539062 44.511719 89.449219 44.90625 88.769531 46.191406 C 88.054688 47.53125 87.984375 49.195312 87.984375 50.589844 C 87.984375 51.609375 88 53.164062 88.554688 54.519531 C 89.324219 56.363281 90.699219 56.613281 91.398438 56.613281 C 92.222656 56.613281 93.472656 56.273438 94.203125 54.574219 C 94.742188 53.34375 94.8125 51.894531 94.8125 50.589844 Z M 93.667969 50.394531 C 93.667969 51.554688 93.667969 52.984375 93.453125 54.039062 C 93.078125 55.988281 92.023438 56.328125 91.398438 56.328125 C 90.253906 56.328125 89.574219 55.34375 89.324219 53.984375 C 89.128906 52.929688 89.128906 51.394531 89.128906 50.394531 C 89.128906 49.015625 89.128906 47.871094 89.359375 46.78125 C 89.699219 45.261719 90.699219 44.796875 91.398438 44.796875 C 92.132812 44.796875 93.078125 45.28125 93.417969 46.746094 C 93.648438 47.765625 93.667969 48.960938 93.667969 50.394531 Z M 93.667969 50.394531 "/>
<path style="fill:none;stroke-width:0.5;stroke-linecap:butt;stroke-linejoin:miter;stroke:rgb(40%,40%,40%);stroke-opacity:1;stroke-miterlimit:3.25;" d="M 99.523438 15.234375 L 102.03125 15.234375 "/>
<path style=" stroke:none;fill-rule:evenodd;fill:rgb(0%,0%,0%);fill-opacity:1;" d="M 73.488281 13.75 C 73.488281 12.660156 73.472656 10.800781 72.722656 9.371094 C 72.058594 8.117188 71.003906 7.671875 70.074219 7.671875 C 69.214844 7.671875 68.125 8.066406 67.445312 9.351562 C 66.730469 10.691406 66.660156 12.355469 66.660156 13.75 C 66.660156 14.769531 66.675781 16.324219 67.230469 17.683594 C 68 19.527344 69.378906 19.777344 70.074219 19.777344 C 70.898438 19.777344 72.148438 19.4375 72.882812 17.738281 C 73.417969 16.503906 73.488281 15.054688 73.488281 13.75 Z M 72.347656 13.554688 C 72.347656 14.714844 72.347656 16.144531 72.132812 17.203125 C 71.753906 19.152344 70.699219 19.492188 70.074219 19.492188 C 68.929688 19.492188 68.25 18.507812 68 17.148438 C 67.804688 16.09375 67.804688 14.554688 67.804688 13.554688 C 67.804688 12.175781 67.804688 11.03125 68.035156 9.941406 C 68.375 8.421875 69.378906 7.957031 70.074219 7.957031 C 70.808594 7.957031 71.753906 8.441406 72.097656 9.90625 C 72.328125 10.925781 72.347656 12.121094 72.347656 13.554688 Z M 72.347656 13.554688 "/>
<path style=" stroke:none;fill-rule:evenodd;fill:rgb(0%,0%,0%);fill-opacity:1;" d="M 77.472656 18.632812 C 77.472656 18.113281 77.042969 17.757812 76.613281 17.757812 C 76.09375 17.757812 75.738281 18.1875 75.738281 18.613281 C 75.738281 19.132812 76.164062 19.492188 76.59375 19.492188 C 77.113281 19.492188 77.472656 19.0625 77.472656 18.632812 Z M 77.472656 18.632812 "/>
<path style=" stroke:none;fill-rule:evenodd;fill:rgb(0%,0%,0%);fill-opacity:1;" d="M 86.589844 13.75 C 86.589844 12.660156 86.574219 10.800781 85.820312 9.371094 C 85.160156 8.117188 84.105469 7.671875 83.175781 7.671875 C 82.316406 7.671875 81.226562 8.066406 80.546875 9.351562 C 79.832031 10.691406 79.761719 12.355469 79.761719 13.75 C 79.761719 14.769531 79.777344 16.324219 80.332031 17.683594 C 81.101562 19.527344 82.476562 19.777344 83.175781 19.777344 C 84 19.777344 85.25 19.4375 85.984375 17.738281 C 86.519531 16.503906 86.589844 15.054688 86.589844 13.75 Z M 85.445312 13.554688 C 85.445312 14.714844 85.445312 16.144531 85.234375 17.203125 C 84.855469 19.152344 83.800781 19.492188 83.175781 19.492188 C 82.03125 19.492188 81.351562 18.507812 81.101562 17.148438 C 80.90625 16.09375 80.90625 14.554688 80.90625 13.554688 C 80.90625 12.175781 80.90625 11.03125 81.136719 9.941406 C 81.476562 8.421875 82.476562 7.957031 83.175781 7.957031 C 83.910156 7.957031 84.855469 8.441406 85.195312 9.90625 C 85.429688 10.925781 85.445312 12.121094 85.445312 13.554688 Z M 85.445312 13.554688 "/>
<path style=" stroke:none;fill-rule:evenodd;fill:rgb(0%,0%,0%);fill-opacity:1;" d="M 94.738281 15.878906 C 94.738281 13.730469 93.34375 12.070312 91.609375 12.070312 C 90.699219 12.070312 89.929688 12.410156 89.320312 13.050781 L 89.320312 9.027344 C 89.5 9.101562 90.230469 9.332031 90.984375 9.332031 C 92.644531 9.332031 93.558594 8.441406 94.078125 7.921875 C 94.078125 7.777344 94.078125 7.6875 93.96875 7.6875 C 93.96875 7.6875 93.917969 7.6875 93.773438 7.761719 C 93.148438 8.027344 92.414062 8.242188 91.519531 8.242188 C 90.984375 8.242188 90.179688 8.171875 89.300781 7.777344 C 89.105469 7.6875 89.050781 7.6875 89.050781 7.6875 C 88.964844 7.6875 88.945312 7.707031 88.945312 8.066406 L 88.945312 13.25 C 88.945312 13.570312 88.945312 13.660156 89.125 13.660156 C 89.214844 13.660156 89.25 13.625 89.339844 13.5 C 89.910156 12.695312 90.699219 12.355469 91.589844 12.355469 C 92.214844 12.355469 93.558594 12.75 93.558594 15.808594 C 93.558594 16.378906 93.558594 17.417969 93.019531 18.238281 C 92.574219 18.972656 91.878906 19.347656 91.109375 19.347656 C 89.929688 19.347656 88.730469 18.523438 88.410156 17.148438 C 88.480469 17.164062 88.621094 17.203125 88.695312 17.203125 C 88.925781 17.203125 89.375 17.078125 89.375 16.523438 C 89.375 16.039062 89.035156 15.84375 88.695312 15.84375 C 88.285156 15.84375 88.015625 16.09375 88.015625 16.59375 C 88.015625 18.148438 89.25 19.777344 91.144531 19.777344 C 92.988281 19.777344 94.738281 18.1875 94.738281 15.878906 Z M 94.738281 15.878906 "/>
<path style=" stroke:none;fill-rule:evenodd;fill:rgb(0%,0%,0%);fill-opacity:1;" d="M 203.800781 181.566406 C 203.800781 181.28125 203.570312 181.117188 203.335938 181.117188 C 202.820312 181.117188 202.695312 181.601562 202.65625 181.726562 C 201.601562 185.464844 199.152344 187.679688 196.777344 188.46875 L 198.546875 181.296875 C 198.546875 181.226562 198.492188 181.117188 198.347656 181.117188 C 198.222656 181.117188 196.542969 181.28125 196.273438 181.296875 C 196.078125 181.316406 195.898438 181.335938 195.898438 181.65625 C 195.898438 181.835938 196.042969 181.835938 196.292969 181.835938 C 197.132812 181.835938 197.1875 181.960938 197.1875 182.15625 C 197.1875 182.226562 197.148438 182.441406 197.132812 182.515625 L 195.558594 188.824219 C 195.558594 188.894531 195.613281 189.003906 195.738281 189.003906 L 196.113281 189.003906 C 196.363281 189.003906 199.082031 188.359375 201.171875 186.214844 C 203.480469 183.835938 203.800781 181.636719 203.800781 181.566406 Z M 203.800781 181.566406 "/>
<path style=" stroke:none;fill-rule:evenodd;fill:rgb(0%,0%,0%);fill-opacity:1;" d="M 22.742188 89.128906 C 22.6875 89.113281 22.5625 89.078125 22.488281 89.078125 C 22.398438 89.078125 22.3125 89.148438 22.3125 89.253906 C 22.3125 89.398438 22.328125 89.417969 22.773438 89.558594 C 25.082031 90.3125 26.476562 91.097656 26.476562 94.207031 L 26.476562 97.300781 L 15.375 87.484375 C 15.25 87.378906 15.140625 87.289062 14.960938 87.289062 C 14.835938 87.289062 14.820312 87.308594 14.820312 87.71875 L 14.820312 95.101562 C 14.820312 95.515625 14.835938 95.53125 15.15625 95.640625 L 18.375 96.621094 C 18.554688 96.675781 18.625 96.675781 18.625 96.675781 C 18.699219 96.675781 18.804688 96.621094 18.804688 96.496094 C 18.804688 96.355469 18.734375 96.320312 18.5 96.246094 C 16.570312 95.585938 15.335938 94.710938 15.335938 91.886719 L 15.335938 88.953125 L 26.421875 98.75 C 26.621094 98.910156 26.691406 98.984375 26.886719 98.984375 C 27.03125 98.984375 27.03125 98.894531 27.03125 98.554688 L 27.03125 90.917969 C 27.03125 90.507812 27.015625 90.488281 26.691406 90.382812 Z M 22.742188 89.128906 "/>
<path style=" stroke:none;fill-rule:evenodd;fill:rgb(0%,0%,0%);fill-opacity:1;" d="M 21.160156 87.011719 L 21.847656 87.050781 L 23.25 87.113281 L 23.953125 87.152344 L 23.953125 86.875 C 23.679688 86.863281 23.390625 86.8125 23.125 86.710938 C 22.925781 86.648438 22.738281 86.5625 22.5625 86.433594 C 22.425781 86.347656 22.289062 86.234375 22.175781 86.109375 C 21.875 85.785156 21.722656 85.371094 21.636719 84.945312 C 21.511719 84.316406 21.523438 83.679688 21.523438 83.050781 L 21.523438 82.125 C 23.554688 83.492188 25.609375 84.820312 27.652344 86.160156 C 28.125 86.488281 28.617188 86.800781 29.09375 87.113281 C 29.21875 87.199219 29.355469 87.324219 29.519531 87.324219 C 29.570312 87.324219 29.617188 87.324219 29.667969 87.300781 C 29.71875 87.261719 29.71875 87.199219 29.71875 87.152344 C 29.71875 87.035156 29.71875 86.9375 29.71875 86.824219 L 29.71875 79.628906 L 28.753906 79.566406 L 27.199219 79.480469 L 26.410156 79.429688 L 26.410156 79.707031 C 26.796875 79.71875 27.199219 79.769531 27.578125 79.882812 C 27.851562 79.957031 28.101562 80.058594 28.339844 80.207031 C 28.453125 80.28125 28.566406 80.371094 28.664062 80.472656 C 29.21875 81.046875 29.292969 81.863281 29.316406 82.613281 C 29.328125 82.789062 29.328125 82.953125 29.328125 83.128906 L 29.328125 84.683594 C 29.128906 84.566406 28.941406 84.429688 28.742188 84.292969 C 28.214844 83.953125 27.703125 83.617188 27.1875 83.277344 C 25.871094 82.414062 24.554688 81.5625 23.25 80.683594 C 22.765625 80.359375 22.289062 80.042969 21.796875 79.730469 C 21.671875 79.644531 21.523438 79.503906 21.359375 79.492188 C 21.308594 79.492188 21.257812 79.492188 21.222656 79.519531 C 21.171875 79.542969 21.160156 79.605469 21.160156 79.65625 C 21.160156 79.757812 21.160156 79.871094 21.160156 79.96875 Z M 21.523438 79.957031 L 22.050781 80.296875 L 23.101562 80.996094 L 27.273438 83.742188 L 28.765625 84.71875 L 29.15625 84.980469 L 29.316406 85.105469 L 29.328125 85.421875 L 29.328125 86.136719 L 29.015625 85.933594 L 28.589844 85.660156 L 27.3125 84.820312 L 23.429688 82.261719 L 22.0625 81.359375 L 21.699219 81.121094 L 21.535156 80.984375 L 21.523438 80.671875 Z M 21.523438 79.957031 "/>
<path style=" stroke:none;fill-rule:evenodd;fill:rgb(0%,0%,0%);fill-opacity:1;" d="M 29.78125 76.359375 C 29.054688 76.359375 28.515625 76.597656 28.515625 77.109375 C 28.515625 77.511719 28.84375 77.710938 29.117188 77.710938 C 29.390625 77.710938 29.730469 77.523438 29.730469 77.097656 C 29.730469 76.933594 29.679688 76.796875 29.570312 76.683594 C 29.542969 76.660156 29.542969 76.632812 29.542969 76.632812 C 29.542969 76.632812 29.71875 76.609375 29.78125 76.609375 C 30.195312 76.609375 31.007812 76.683594 31.824219 77.410156 C 31.976562 77.550781 32.023438 77.550781 32.023438 77.550781 C 32.085938 77.550781 32.148438 77.488281 32.148438 77.425781 C 32.148438 77.324219 31.222656 76.359375 29.78125 76.359375 Z M 29.78125 76.359375 "/>
<path style=" stroke:none;fill-rule:evenodd;fill:rgb(0%,0%,0%);fill-opacity:1;" d="M 24.519531 66.863281 C 24.316406 66.863281 24.203125 67.023438 24.203125 67.1875 C 24.203125 67.550781 24.542969 67.636719 24.632812 67.664062 C 27.25 68.402344 28.804688 70.121094 29.355469 71.785156 L 24.328125 70.546875 C 24.28125 70.546875 24.203125 70.582031 24.203125 70.683594 C 24.203125 70.769531 24.316406 71.949219 24.328125 72.136719 C 24.34375 72.273438 24.355469 72.402344 24.582031 72.402344 C 24.707031 72.402344 24.707031 72.300781 24.707031 72.125 C 24.707031 71.535156 24.792969 71.496094 24.929688 71.496094 C 24.980469 71.496094 25.132812 71.523438 25.183594 71.535156 L 29.605469 72.636719 C 29.65625 72.636719 29.730469 72.601562 29.730469 72.511719 L 29.730469 72.25 C 29.730469 72.074219 29.28125 70.167969 27.777344 68.703125 C 26.109375 67.085938 24.570312 66.863281 24.519531 66.863281 Z M 24.519531 66.863281 "/>
<path style=" stroke:none;fill-rule:evenodd;fill:rgb(0%,0%,0%);fill-opacity:1;" d="M 11.472656 60.308594 C 11.757812 60.308594 12.132812 60.308594 12.132812 59.933594 C 12.132812 59.542969 11.777344 59.542969 11.472656 59.542969 L 1.316406 59.542969 C 1.03125 59.542969 0.65625 59.542969 0.65625 59.917969 C 0.65625 60.308594 1.015625 60.308594 1.316406 60.308594 Z M 11.472656 60.308594 "/>
<path style=" stroke:none;fill-rule:evenodd;fill:rgb(0%,0%,0%);fill-opacity:1;" d="M 22.171875 60.308594 C 22.460938 60.308594 22.835938 60.308594 22.835938 59.933594 C 22.835938 59.542969 22.476562 59.542969 22.171875 59.542969 L 12.015625 59.542969 C 11.730469 59.542969 11.355469 59.542969 11.355469 59.917969 C 11.355469 60.308594 11.714844 60.308594 12.015625 60.308594 Z M 22.171875 60.308594 "/>
<path style=" stroke:none;fill-rule:evenodd;fill:rgb(0%,0%,0%);fill-opacity:1;" d="M 32.972656 60.308594 C 33.257812 60.308594 33.632812 60.308594 33.632812 59.933594 C 33.632812 59.542969 33.277344 59.542969 32.972656 59.542969 L 22.816406 59.542969 C 22.53125 59.542969 22.15625 59.542969 22.15625 59.917969 C 22.15625 60.308594 22.515625 60.308594 22.816406 60.308594 Z M 32.972656 60.308594 "/>
<path style=" stroke:none;fill-rule:evenodd;fill:rgb(0%,0%,0%);fill-opacity:1;" d="M 43.671875 60.308594 C 43.960938 60.308594 44.335938 60.308594 44.335938 59.933594 C 44.335938 59.542969 43.976562 59.542969 43.671875 59.542969 L 33.515625 59.542969 C 33.230469 59.542969 32.855469 59.542969 32.855469 59.917969 C 32.855469 60.308594 33.214844 60.308594 33.515625 60.308594 Z M 43.671875 60.308594 "/>
<path style=" stroke:none;fill-rule:evenodd;fill:rgb(0%,0%,0%);fill-opacity:1;" d="M 13.476562 48.320312 C 13.382812 48.320312 13.3125 48.390625 13.3125 48.496094 C 13.3125 48.65625 13.402344 48.675781 13.546875 48.730469 C 15.117188 49.210938 15.851562 50.25 15.851562 51.054688 C 15.851562 51.679688 15.386719 52.019531 14.65625 52.019531 C 14.261719 52.019531 13.976562 51.949219 12.796875 51.664062 L 10.363281 51.035156 C 9.289062 50.769531 8.503906 50.160156 8.503906 49.335938 C 8.503906 49.335938 8.503906 48.800781 8.734375 48.425781 C 8.84375 49 9.273438 49.210938 9.613281 49.210938 C 10.039062 49.210938 10.183594 48.875 10.183594 48.625 C 10.183594 48.085938 9.71875 47.710938 9.234375 47.710938 C 8.484375 47.710938 8.144531 48.570312 8.144531 49.320312 C 8.144531 50.410156 9.21875 51.019531 9.558594 51.179688 C 8.21875 51.589844 8.144531 52.699219 8.144531 53.023438 C 8.144531 54.84375 10.488281 55.8125 10.882812 55.8125 C 10.953125 55.8125 11.042969 55.738281 11.042969 55.613281 C 11.042969 55.472656 10.9375 55.4375 10.863281 55.398438 C 8.878906 54.792969 8.503906 53.59375 8.503906 53.074219 C 8.503906 52.269531 9.253906 52.109375 9.683594 52.109375 C 10.078125 52.109375 10.488281 52.21875 11.347656 52.433594 L 13.796875 53.039062 C 14.867188 53.308594 15.851562 53.828125 15.851562 54.773438 C 15.851562 54.863281 15.851562 55.3125 15.621094 55.6875 C 15.496094 55.042969 14.957031 54.898438 14.742188 54.898438 C 14.386719 54.898438 14.171875 55.167969 14.171875 55.507812 C 14.171875 55.9375 14.546875 56.402344 15.117188 56.402344 C 15.871094 56.402344 16.210938 55.5625 16.210938 54.792969 C 16.210938 53.933594 15.53125 53.324219 14.796875 52.949219 C 15.851562 52.664062 16.210938 51.769531 16.210938 51.109375 C 16.210938 49.285156 13.867188 48.320312 13.476562 48.320312 Z M 13.476562 48.320312 "/>
<path style=" stroke:none;fill-rule:evenodd;fill:rgb(0%,0%,0%);fill-opacity:1;" d="M 31.792969 48.59375 C 30.703125 48.59375 28.839844 48.609375 27.410156 49.359375 C 26.160156 50.023438 25.710938 51.078125 25.710938 52.007812 C 25.710938 52.867188 26.105469 53.957031 27.390625 54.636719 C 28.734375 55.351562 30.398438 55.421875 31.792969 55.421875 C 32.8125 55.421875 34.367188 55.40625 35.726562 54.851562 C 37.566406 54.082031 37.816406 52.703125 37.816406 52.007812 C 37.816406 51.183594 37.476562 49.933594 35.78125 49.199219 C 34.546875 48.664062 33.097656 48.59375 31.792969 48.59375 Z M 31.59375 49.734375 C 32.757812 49.734375 34.1875 49.734375 35.242188 49.949219 C 37.191406 50.328125 37.53125 51.382812 37.53125 52.007812 C 37.53125 53.152344 36.546875 53.832031 35.1875 54.082031 C 34.132812 54.277344 32.597656 54.277344 31.59375 54.277344 C 30.21875 54.277344 29.074219 54.277344 27.984375 54.046875 C 26.460938 53.707031 26 52.703125 26 52.007812 C 26 51.273438 26.480469 50.328125 27.945312 49.984375 C 28.964844 49.753906 30.164062 49.734375 31.59375 49.734375 Z M 31.59375 49.734375 "/>
<path style=" stroke:none;fill-rule:evenodd;fill:rgb(0%,0%,0%);fill-opacity:1;" d="M 11.472656 44.410156 C 11.757812 44.410156 12.132812 44.410156 12.132812 44.03125 C 12.132812 43.640625 11.777344 43.640625 11.472656 43.640625 L 1.316406 43.640625 C 1.03125 43.640625 0.65625 43.640625 0.65625 44.015625 C 0.65625 44.410156 1.015625 44.410156 1.316406 44.410156 Z M 11.472656 44.410156 "/>
<path style=" stroke:none;fill-rule:evenodd;fill:rgb(0%,0%,0%);fill-opacity:1;" d="M 22.171875 44.410156 C 22.460938 44.410156 22.835938 44.410156 22.835938 44.03125 C 22.835938 43.640625 22.476562 43.640625 22.171875 43.640625 L 12.015625 43.640625 C 11.730469 43.640625 11.355469 43.640625 11.355469 44.015625 C 11.355469 44.410156 11.714844 44.410156 12.015625 44.410156 Z M 22.171875 44.410156 "/>
<path style=" stroke:none;fill-rule:evenodd;fill:rgb(0%,0%,0%);fill-opacity:1;" d="M 32.972656 44.410156 C 33.257812 44.410156 33.632812 44.410156 33.632812 44.03125 C 33.632812 43.640625 33.277344 43.640625 32.972656 43.640625 L 22.816406 43.640625 C 22.53125 43.640625 22.15625 43.640625 22.15625 44.015625 C 22.15625 44.410156 22.515625 44.410156 22.816406 44.410156 Z M 32.972656 44.410156 "/>
<path style=" stroke:none;fill-rule:evenodd;fill:rgb(0%,0%,0%);fill-opacity:1;" d="M 43.671875 44.410156 C 43.960938 44.410156 44.335938 44.410156 44.335938 44.03125 C 44.335938 43.640625 43.976562 43.640625 43.671875 43.640625 L 33.515625 43.640625 C 33.230469 43.640625 32.855469 43.640625 32.855469 44.015625 C 32.855469 44.410156 33.214844 44.410156 33.515625 44.410156 Z M 43.671875 44.410156 "/>
</g>
</svg>
