<?xml version="1.0" encoding="UTF-8"?>
<svg xmlns="http://www.w3.org/2000/svg" xmlns:xlink="http://www.w3.org/1999/xlink" width="360pt" height="234pt" viewBox="0 0 360 234" version="1.1">
<defs>
<clipPath id="clip1">
  <path d="M 344 0.480469 L 345 0.480469 L 345 178.078125 L 344 178.078125 Z M 344 0.480469 "/>
</clipPath>
<clipPath id="clip2">
  <path d="M 102.71875 65 L 356.398438 65 L 356.398438 66 L 102.71875 66 Z M 102.71875 65 "/>
</clipPath>
<clipPath id="clip3">
  <path d="M 102.71875 41 L 324 41 L 324 178.078125 L 102.71875 178.078125 Z M 102.71875 41 "/>
</clipPath>
<clipPath id="clip4">
  <path d="M 102.71875 0.480469 L 355 0.480469 L 355 172 L 102.71875 172 Z M 102.71875 0.480469 "/>
</clipPath>
<clipPath id="clip5">
  <path d="M 351 0.480469 L 356.398438 0.480469 L 356.398438 178.078125 L 351 178.078125 Z M 351 0.480469 "/>
</clipPath>
<clipPath id="clip6">
  <path d="M 102.71875 46 L 356.398438 46 L 356.398438 178.078125 L 102.71875 178.078125 Z M 102.71875 46 "/>
</clipPath>
<clipPath id="clip7">
  <path d="M 111.839844 96 L 132 96 L 132 99 L 111.839844 99 Z M 111.839844 96 "/>
</clipPath>
<clipPath id="clip8">
  <path d="M 111.839844 129 L 132 129 L 132 132 L 111.839844 132 Z M 111.839844 129 "/>
</clipPath>
<clipPath id="clip9">
  <path d="M 111.839844 162 L 132 162 L 132 165 L 111.839844 165 Z M 111.839844 162 "/>
</clipPath>
</defs>
<g id="surface81">
<rect x="0" y="0" width="360" height="234" style="fill:rgb(100%,100%,100%);fill-opacity:1;stroke:none;"/>
<g clip-path="url(#clip1)" clip-rule="nonzero">
<path style="fill:none;stroke-width:0.2;stroke-linecap:butt;stroke-linejoin:miter;stroke:rgb(50.000763%,50.000763%,50.000763%);stroke-opacity:0.4;stroke-miterlimit:3.25;" d="M 344.433594 177.976562 L 344.433594 0.5 "/>
</g>
<g clip-path="url(#clip2)" clip-rule="nonzero">
<path style="fill:none;stroke-width:0.2;stroke-linecap:butt;stroke-linejoin:miter;stroke:rgb(50.000763%,50.000763%,50.000763%);stroke-opacity:0.4;stroke-miterlimit:3.25;" d="M 102.742188 65.886719 L 356.28125 65.886719 "/>
</g>
<g clip-path="url(#clip3)" clip-rule="nonzero">
<path style="fill:none;stroke-width:1.521237;stroke-linecap:butt;stroke-linejoin:miter;stroke:rgb(90.000763%,36.00061%,5.400168%);stroke-opacity:1;stroke-miterlimit:3.25;" d="M 107.480469 65.886719 L 109.851562 69.234375 L 112.21875 72.175781 L 114.589844 74.6875 L 116.957031 76.746094 L 119.328125 78.351562 L 121.699219 79.507812 L 124.066406 80.226562 L 126.4375 80.535156 L 128.804688 80.460938 L 131.175781 80.039062 L 133.546875 79.304688 L 135.914062 78.304688 L 138.285156 77.082031 L 140.652344 75.675781 L 143.023438 74.136719 L 145.394531 72.507812 L 147.761719 70.828125 L 150.132812 69.140625 L 152.5 67.480469 L 154.871094 65.886719 L 157.242188 64.382812 L 159.609375 63.003906 L 161.980469 61.761719 L 164.347656 60.683594 L 166.71875 59.78125 L 169.089844 59.0625 L 171.457031 58.535156 L 173.828125 58.199219 L 176.195312 58.058594 L 178.566406 58.101562 L 180.9375 58.328125 L 183.304688 58.71875 L 185.675781 59.265625 L 188.042969 59.949219 L 190.414062 60.753906 L 192.785156 61.664062 L 195.152344 62.652344 L 197.523438 63.699219 L 199.890625 64.785156 L 202.261719 65.886719 L 204.632812 66.980469 L 207 68.050781 L 209.371094 69.066406 L 211.738281 70.015625 L 214.109375 70.878906 L 216.480469 71.632812 L 218.847656 72.265625 L 221.21875 72.761719 L 223.585938 73.109375 L 225.957031 73.300781 L 228.328125 73.324219 L 230.695312 73.171875 L 233.066406 72.84375 L 235.433594 72.339844 L 237.804688 71.664062 L 240.175781 70.8125 L 242.542969 69.796875 L 244.914062 68.628906 L 247.28125 67.320312 L 249.652344 65.886719 L 252.023438 64.34375 L 254.390625 62.71875 L 256.761719 61.03125 L 259.128906 59.3125 L 261.5 57.589844 L 263.871094 55.902344 L 266.238281 54.289062 L 268.609375 52.785156 L 270.976562 51.445312 L 273.347656 50.316406 L 275.71875 49.457031 L 278.085938 48.921875 L 280.457031 48.78125 L 282.824219 49.105469 L 285.195312 49.976562 L 287.566406 51.476562 L 289.933594 53.707031 L 292.304688 56.769531 L 294.671875 60.789062 L 297.042969 65.886719 L 299.414062 72.214844 L 301.78125 79.941406 L 304.152344 89.25 L 306.519531 100.351562 L 308.890625 113.496094 L 311.261719 128.964844 L 313.628906 147.085938 L 316 168.242188 L 316.933594 177.976562 "/>
</g>
<g clip-path="url(#clip4)" clip-rule="nonzero">
<path style="fill:none;stroke-width:1.521237;stroke-linecap:butt;stroke-linejoin:miter;stroke:rgb(36.525521%,42.780194%,75.829709%);stroke-opacity:1;stroke-miterlimit:3.25;" d="M 107.480469 65.886719 L 109.851562 68.59375 L 112.21875 70.972656 L 114.589844 73.003906 L 116.957031 74.667969 L 119.328125 75.964844 L 121.699219 76.902344 L 124.066406 77.484375 L 126.4375 77.734375 L 128.804688 77.671875 L 131.175781 77.328125 L 133.546875 76.734375 L 135.914062 75.925781 L 138.285156 74.933594 L 140.652344 73.800781 L 143.023438 72.554688 L 145.394531 71.238281 L 147.761719 69.878906 L 150.132812 68.515625 L 152.5 67.175781 L 154.871094 65.886719 L 157.242188 64.671875 L 159.609375 63.554688 L 161.980469 62.554688 L 164.347656 61.683594 L 166.71875 60.953125 L 169.089844 60.375 L 171.457031 59.949219 L 173.828125 59.683594 L 176.195312 59.566406 L 178.566406 59.605469 L 180.9375 59.789062 L 183.304688 60.105469 L 185.675781 60.546875 L 188.042969 61.101562 L 190.414062 61.75 L 192.785156 62.484375 L 195.152344 63.28125 L 197.523438 64.125 L 199.890625 65 L 202.261719 65.886719 L 204.632812 66.765625 L 207 67.625 L 209.371094 68.441406 L 211.738281 69.203125 L 214.109375 69.890625 L 216.480469 70.492188 L 218.847656 70.996094 L 221.21875 71.390625 L 223.585938 71.664062 L 225.957031 71.8125 L 228.328125 71.824219 L 230.695312 71.699219 L 233.066406 71.429688 L 235.433594 71.023438 L 237.804688 70.476562 L 240.175781 69.792969 L 242.542969 68.984375 L 244.914062 68.054688 L 247.28125 67.019531 L 249.652344 65.886719 L 252.023438 64.675781 L 254.390625 63.40625 L 256.761719 62.09375 L 259.128906 60.769531 L 261.5 59.453125 L 263.871094 58.175781 L 266.238281 56.964844 L 268.609375 55.859375 L 270.976562 54.890625 L 273.347656 54.101562 L 275.71875 53.53125 L 278.085938 53.21875 L 280.457031 53.214844 L 282.824219 53.566406 L 285.195312 54.324219 L 287.566406 55.53125 L 289.933594 57.242188 L 292.304688 59.507812 L 294.671875 62.375 L 297.042969 65.886719 L 299.414062 70.085938 L 301.78125 75.003906 L 304.152344 80.660156 L 306.519531 87.058594 L 308.890625 94.183594 L 311.261719 101.988281 L 313.628906 110.386719 L 316 119.25 L 318.367188 128.378906 L 320.738281 137.5 L 323.109375 146.238281 L 325.476562 154.097656 L 327.847656 160.425781 L 330.214844 164.398438 L 332.585938 164.980469 L 334.957031 160.902344 L 337.324219 150.667969 L 339.695312 132.574219 L 342.0625 104.84375 L 344.433594 65.886719 L 346.804688 14.910156 L 347.355469 0.5 "/>
</g>
<g clip-path="url(#clip5)" clip-rule="nonzero">
<path style="fill:none;stroke-width:1.521237;stroke-linecap:butt;stroke-linejoin:miter;stroke:rgb(36.525521%,42.780194%,75.829709%);stroke-opacity:1;stroke-miterlimit:3.25;" d="M 358.722656 0.5 L 359.449219 177.976562 "/>
</g>
<g clip-path="url(#clip6)" clip-rule="nonzero">
<path style="fill:none;stroke-width:1.521237;stroke-linecap:butt;stroke-linejoin:miter;stroke:rgb(94.51133%,59.389639%,0%);stroke-opacity:1;stroke-miterlimit:3.25;" d="M 107.480469 65.886719 L 109.851562 66.917969 L 112.21875 67.828125 L 114.589844 68.601562 L 116.957031 69.234375 L 119.328125 69.730469 L 121.699219 70.085938 L 124.066406 70.304688 L 126.4375 70.398438 L 128.804688 70.375 L 131.175781 70.246094 L 133.546875 70.015625 L 135.914062 69.707031 L 138.285156 69.332031 L 140.652344 68.898438 L 143.023438 68.421875 L 145.394531 67.921875 L 147.761719 67.40625 L 150.132812 66.886719 L 152.5 66.375 L 154.871094 65.886719 L 157.242188 65.425781 L 159.609375 65.003906 L 161.980469 64.625 L 164.347656 64.292969 L 166.71875 64.019531 L 169.089844 63.800781 L 171.457031 63.640625 L 173.828125 63.542969 L 176.195312 63.5 L 178.566406 63.515625 L 180.9375 63.585938 L 183.304688 63.707031 L 185.675781 63.878906 L 188.042969 64.085938 L 190.414062 64.332031 L 192.785156 64.609375 L 195.152344 64.910156 L 197.523438 65.226562 L 199.890625 65.554688 L 202.261719 65.886719 L 204.632812 66.214844 L 207 66.53125 L 209.371094 66.832031 L 211.738281 67.113281 L 214.109375 67.363281 L 216.480469 67.582031 L 218.847656 67.761719 L 221.21875 67.898438 L 223.585938 67.992188 L 225.957031 68.039062 L 228.328125 68.035156 L 230.695312 67.980469 L 233.066406 67.875 L 235.433594 67.722656 L 237.804688 67.515625 L 240.175781 67.269531 L 242.542969 66.976562 L 244.914062 66.644531 L 247.28125 66.277344 L 249.652344 65.886719 L 252.023438 65.472656 L 254.390625 65.046875 L 256.761719 64.613281 L 259.128906 64.1875 L 261.5 63.773438 L 263.871094 63.382812 L 266.238281 63.027344 L 268.609375 62.714844 L 270.976562 62.460938 L 273.347656 62.273438 L 275.71875 62.164062 L 278.085938 62.144531 L 280.457031 62.222656 L 282.824219 62.40625 L 285.195312 62.699219 L 287.566406 63.109375 L 289.933594 63.636719 L 292.304688 64.28125 L 294.671875 65.035156 L 297.042969 65.886719 L 299.414062 66.820312 L 301.78125 67.8125 L 304.152344 68.832031 L 306.519531 69.835938 L 308.890625 70.777344 L 311.261719 71.597656 L 313.628906 72.222656 L 316 72.578125 L 318.367188 72.570312 L 320.738281 72.113281 L 323.109375 71.117188 L 325.476562 69.511719 L 327.847656 67.257812 L 330.214844 64.390625 L 332.585938 61.054688 L 334.957031 57.59375 L 337.324219 54.671875 L 339.695312 53.480469 L 342.0625 56.066406 L 344.433594 65.886719 L 346.804688 88.757812 L 349.171875 134.59375 L 350.367188 177.976562 "/>
</g>
<g clip-path="url(#clip7)" clip-rule="nonzero">
<path style="fill:none;stroke-width:1.949458;stroke-linecap:butt;stroke-linejoin:miter;stroke:rgb(90.000763%,36.00061%,5.400168%);stroke-opacity:1;stroke-miterlimit:3.25;" d="M 112.925781 97.445312 L 130.976562 97.445312 "/>
</g>
<path style=" stroke:none;fill-rule:evenodd;fill:rgb(0%,0%,0%);fill-opacity:1;" d="M 147.53125 98.636719 C 147.53125 98.546875 147.460938 98.476562 147.351562 98.476562 C 147.191406 98.476562 147.171875 98.566406 147.121094 98.707031 C 146.636719 100.28125 145.601562 101.015625 144.796875 101.015625 C 144.171875 101.015625 143.832031 100.550781 143.832031 99.816406 C 143.832031 99.421875 143.902344 99.136719 144.1875 97.957031 L 144.8125 95.523438 C 145.082031 94.453125 145.6875 93.667969 146.511719 93.667969 C 146.511719 93.667969 147.046875 93.667969 147.421875 93.898438 C 146.851562 94.007812 146.636719 94.433594 146.636719 94.777344 C 146.636719 95.203125 146.976562 95.347656 147.226562 95.347656 C 147.765625 95.347656 148.140625 94.882812 148.140625 94.398438 C 148.140625 93.648438 147.28125 93.308594 146.53125 93.308594 C 145.4375 93.308594 144.832031 94.382812 144.671875 94.722656 C 144.261719 93.378906 143.152344 93.308594 142.828125 93.308594 C 141.003906 93.308594 140.039062 95.648438 140.039062 96.042969 C 140.039062 96.117188 140.113281 96.203125 140.238281 96.203125 C 140.378906 96.203125 140.414062 96.097656 140.449219 96.027344 C 141.058594 94.042969 142.257812 93.667969 142.777344 93.667969 C 143.582031 93.667969 143.742188 94.417969 143.742188 94.847656 C 143.742188 95.238281 143.632812 95.648438 143.417969 96.507812 L 142.8125 98.960938 C 142.542969 100.03125 142.023438 101.015625 141.078125 101.015625 C 140.988281 101.015625 140.539062 101.015625 140.164062 100.78125 C 140.808594 100.65625 140.953125 100.121094 140.953125 99.90625 C 140.953125 99.546875 140.683594 99.335938 140.34375 99.335938 C 139.914062 99.335938 139.449219 99.710938 139.449219 100.28125 C 139.449219 101.03125 140.289062 101.371094 141.058594 101.371094 C 141.917969 101.371094 142.527344 100.695312 142.902344 99.960938 C 143.1875 101.015625 144.082031 101.371094 144.742188 101.371094 C 146.566406 101.371094 147.53125 99.03125 147.53125 98.636719 Z M 147.53125 98.636719 "/>
<path style=" stroke:none;fill-rule:evenodd;fill:rgb(0%,0%,0%);fill-opacity:1;" d="M 165.980469 95.148438 C 165.980469 94.828125 165.675781 94.828125 165.371094 94.828125 L 155.378906 94.828125 C 155.074219 94.828125 154.769531 94.828125 154.769531 95.148438 C 154.769531 95.453125 155.039062 95.453125 155.308594 95.453125 L 165.445312 95.453125 C 165.710938 95.453125 165.980469 95.453125 165.980469 95.148438 Z M 165.980469 98.316406 C 165.980469 98.011719 165.710938 98.011719 165.445312 98.011719 L 155.308594 98.011719 C 155.039062 98.011719 154.769531 98.011719 154.769531 98.316406 C 154.769531 98.636719 155.074219 98.636719 155.378906 98.636719 L 165.371094 98.636719 C 165.675781 98.636719 165.980469 98.636719 165.980469 98.316406 Z M 165.980469 98.316406 "/>
<path style=" stroke:none;fill-rule:evenodd;fill:rgb(0%,0%,0%);fill-opacity:1;" d="M 179.253906 95.453125 C 179.253906 94.363281 179.238281 92.503906 178.488281 91.074219 C 177.824219 89.824219 176.769531 89.375 175.839844 89.375 C 174.980469 89.375 173.890625 89.769531 173.210938 91.054688 C 172.5 92.398438 172.425781 94.058594 172.425781 95.453125 C 172.425781 96.472656 172.445312 98.027344 173 99.386719 C 173.765625 101.230469 175.144531 101.480469 175.839844 101.480469 C 176.664062 101.480469 177.914062 101.140625 178.648438 99.441406 C 179.183594 98.207031 179.253906 96.757812 179.253906 95.453125 Z M 178.113281 95.257812 C 178.113281 96.421875 178.113281 97.851562 177.898438 98.90625 C 177.519531 100.855469 176.464844 101.195312 175.839844 101.195312 C 174.695312 101.195312 174.015625 100.210938 173.765625 98.851562 C 173.570312 97.796875 173.570312 96.257812 173.570312 95.257812 C 173.570312 93.882812 173.570312 92.738281 173.804688 91.644531 C 174.140625 90.125 175.144531 89.660156 175.839844 89.660156 C 176.574219 89.660156 177.519531 90.144531 177.863281 91.609375 C 178.09375 92.628906 178.113281 93.828125 178.113281 95.257812 Z M 178.113281 95.257812 "/>
<g clip-path="url(#clip8)" clip-rule="nonzero">
<path style="fill:none;stroke-width:1.949458;stroke-linecap:butt;stroke-linejoin:miter;stroke:rgb(36.525521%,42.780194%,75.829709%);stroke-opacity:1;stroke-miterlimit:3.25;" d="M 112.925781 130.558594 L 130.976562 130.558594 "/>
</g>
<path style=" stroke:none;fill-rule:evenodd;fill:rgb(0%,0%,0%);fill-opacity:1;" d="M 147.53125 131.75 C 147.53125 131.660156 147.460938 131.589844 147.355469 131.589844 C 147.191406 131.589844 147.175781 131.675781 147.121094 131.820312 C 146.636719 133.394531 145.601562 134.128906 144.796875 134.128906 C 144.171875 134.128906 143.832031 133.660156 143.832031 132.929688 C 143.832031 132.535156 143.902344 132.25 144.1875 131.070312 L 144.816406 128.636719 C 145.082031 127.566406 145.691406 126.777344 146.511719 126.777344 C 146.511719 126.777344 147.050781 126.777344 147.425781 127.011719 C 146.851562 127.117188 146.636719 127.546875 146.636719 127.886719 C 146.636719 128.316406 146.976562 128.460938 147.226562 128.460938 C 147.765625 128.460938 148.140625 127.992188 148.140625 127.511719 C 148.140625 126.761719 147.28125 126.421875 146.53125 126.421875 C 145.441406 126.421875 144.832031 127.492188 144.671875 127.832031 C 144.261719 126.492188 143.152344 126.421875 142.828125 126.421875 C 141.003906 126.421875 140.039062 128.761719 140.039062 129.15625 C 140.039062 129.226562 140.113281 129.316406 140.238281 129.316406 C 140.378906 129.316406 140.414062 129.210938 140.449219 129.140625 C 141.058594 127.15625 142.257812 126.777344 142.777344 126.777344 C 143.582031 126.777344 143.742188 127.53125 143.742188 127.960938 C 143.742188 128.351562 143.632812 128.761719 143.417969 129.621094 L 142.8125 132.070312 C 142.542969 133.144531 142.023438 134.128906 141.078125 134.128906 C 140.988281 134.128906 140.539062 134.128906 140.164062 133.894531 C 140.808594 133.769531 140.953125 133.230469 140.953125 133.019531 C 140.953125 132.660156 140.683594 132.445312 140.34375 132.445312 C 139.914062 132.445312 139.449219 132.820312 139.449219 133.394531 C 139.449219 134.144531 140.289062 134.484375 141.058594 134.484375 C 141.917969 134.484375 142.527344 133.804688 142.902344 133.070312 C 143.1875 134.128906 144.082031 134.484375 144.742188 134.484375 C 146.566406 134.484375 147.53125 132.140625 147.53125 131.75 Z M 147.53125 131.75 "/>
<path style=" stroke:none;fill-rule:evenodd;fill:rgb(0%,0%,0%);fill-opacity:1;" d="M 165.984375 128.261719 C 165.984375 127.941406 165.679688 127.941406 165.375 127.941406 L 155.378906 127.941406 C 155.074219 127.941406 154.769531 127.941406 154.769531 128.261719 C 154.769531 128.566406 155.039062 128.566406 155.308594 128.566406 L 165.445312 128.566406 C 165.714844 128.566406 165.984375 128.566406 165.984375 128.261719 Z M 165.984375 131.425781 C 165.984375 131.121094 165.714844 131.121094 165.445312 131.121094 L 155.308594 131.121094 C 155.039062 131.121094 154.769531 131.121094 154.769531 131.425781 C 154.769531 131.75 155.074219 131.75 155.378906 131.75 L 165.375 131.75 C 165.679688 131.75 165.984375 131.75 165.984375 131.425781 Z M 165.984375 131.425781 "/>
<path style=" stroke:none;fill-rule:evenodd;fill:rgb(0%,0%,0%);fill-opacity:1;" d="M 179.257812 128.566406 C 179.257812 127.476562 179.242188 125.617188 178.488281 124.1875 C 177.828125 122.933594 176.773438 122.488281 175.84375 122.488281 C 174.984375 122.488281 173.894531 122.882812 173.214844 124.167969 C 172.5 125.507812 172.429688 127.171875 172.429688 128.566406 C 172.429688 129.585938 172.445312 131.140625 173 132.5 C 173.769531 134.339844 175.144531 134.589844 175.84375 134.589844 C 176.664062 134.589844 177.917969 134.253906 178.648438 132.554688 C 179.1875 131.320312 179.257812 129.871094 179.257812 128.566406 Z M 178.113281 128.371094 C 178.113281 129.53125 178.113281 130.960938 177.898438 132.015625 C 177.523438 133.964844 176.46875 134.304688 175.84375 134.304688 C 174.699219 134.304688 174.019531 133.324219 173.769531 131.964844 C 173.570312 130.910156 173.570312 129.371094 173.570312 128.371094 C 173.570312 126.992188 173.570312 125.847656 173.804688 124.757812 C 174.144531 123.238281 175.144531 122.773438 175.84375 122.773438 C 176.578125 122.773438 177.523438 123.257812 177.863281 124.722656 C 178.09375 125.742188 178.113281 126.9375 178.113281 128.371094 Z M 178.113281 128.371094 "/>
<path style=" stroke:none;fill-rule:evenodd;fill:rgb(0%,0%,0%);fill-opacity:1;" d="M 183.339844 133.449219 C 183.339844 132.929688 182.910156 132.570312 182.480469 132.570312 C 181.960938 132.570312 181.605469 133 181.605469 133.429688 C 181.605469 133.949219 182.03125 134.304688 182.460938 134.304688 C 182.980469 134.304688 183.339844 133.875 183.339844 133.449219 Z M 183.339844 133.449219 "/>
<path style=" stroke:none;fill-rule:evenodd;fill:rgb(0%,0%,0%);fill-opacity:1;" d="M 191.714844 134.304688 L 191.714844 133.839844 L 191.175781 133.839844 C 189.640625 133.839844 189.605469 133.644531 189.605469 133 L 189.605469 122.882812 C 189.605469 122.503906 189.585938 122.488281 189.335938 122.488281 C 188.636719 123.328125 187.582031 123.59375 186.582031 123.632812 C 186.527344 123.632812 186.4375 123.632812 186.421875 123.667969 C 186.402344 123.703125 186.402344 123.738281 186.402344 124.113281 C 186.957031 124.113281 187.886719 124.007812 188.601562 123.578125 L 188.601562 133 C 188.601562 133.625 188.566406 133.839844 187.027344 133.839844 L 186.492188 133.839844 L 186.492188 134.304688 L 189.105469 134.269531 Z M 191.714844 134.304688 "/>
<g clip-path="url(#clip9)" clip-rule="nonzero">
<path style="fill:none;stroke-width:1.949458;stroke-linecap:butt;stroke-linejoin:miter;stroke:rgb(94.51133%,59.389639%,0%);stroke-opacity:1;stroke-miterlimit:3.25;" d="M 112.925781 163.667969 L 130.976562 163.667969 "/>
</g>
<path style=" stroke:none;fill-rule:evenodd;fill:rgb(0%,0%,0%);fill-opacity:1;" d="M 147.53125 164.863281 C 147.53125 164.769531 147.460938 164.699219 147.355469 164.699219 C 147.191406 164.699219 147.175781 164.789062 147.121094 164.933594 C 146.636719 166.503906 145.601562 167.238281 144.796875 167.238281 C 144.171875 167.238281 143.832031 166.773438 143.832031 166.042969 C 143.832031 165.648438 143.902344 165.363281 144.1875 164.183594 L 144.816406 161.75 C 145.082031 160.675781 145.691406 159.890625 146.511719 159.890625 C 146.511719 159.890625 147.050781 159.890625 147.425781 160.121094 C 146.851562 160.230469 146.636719 160.660156 146.636719 161 C 146.636719 161.425781 146.976562 161.570312 147.226562 161.570312 C 147.765625 161.570312 148.140625 161.105469 148.140625 160.621094 C 148.140625 159.871094 147.28125 159.53125 146.53125 159.53125 C 145.441406 159.53125 144.832031 160.605469 144.671875 160.945312 C 144.261719 159.605469 143.152344 159.53125 142.828125 159.53125 C 141.003906 159.53125 140.039062 161.875 140.039062 162.269531 C 140.039062 162.339844 140.113281 162.429688 140.238281 162.429688 C 140.378906 162.429688 140.414062 162.324219 140.449219 162.25 C 141.058594 160.265625 142.257812 159.890625 142.777344 159.890625 C 143.582031 159.890625 143.742188 160.640625 143.742188 161.070312 C 143.742188 161.464844 143.632812 161.875 143.417969 162.734375 L 142.8125 165.183594 C 142.542969 166.253906 142.023438 167.238281 141.078125 167.238281 C 140.988281 167.238281 140.539062 167.238281 140.164062 167.007812 C 140.808594 166.882812 140.953125 166.34375 140.953125 166.128906 C 140.953125 165.773438 140.683594 165.558594 140.34375 165.558594 C 139.914062 165.558594 139.449219 165.933594 139.449219 166.503906 C 139.449219 167.257812 140.289062 167.59375 141.058594 167.59375 C 141.917969 167.59375 142.527344 166.917969 142.902344 166.183594 C 143.1875 167.238281 144.082031 167.59375 144.742188 167.59375 C 146.566406 167.59375 147.53125 165.253906 147.53125 164.863281 Z M 147.53125 164.863281 "/>
<path style=" stroke:none;fill-rule:evenodd;fill:rgb(0%,0%,0%);fill-opacity:1;" d="M 165.984375 161.375 C 165.984375 161.050781 165.679688 161.050781 165.375 161.050781 L 155.378906 161.050781 C 155.074219 161.050781 154.769531 161.050781 154.769531 161.375 C 154.769531 161.679688 155.039062 161.679688 155.308594 161.679688 L 165.445312 161.679688 C 165.714844 161.679688 165.984375 161.679688 165.984375 161.375 Z M 165.984375 164.539062 C 165.984375 164.234375 165.714844 164.234375 165.445312 164.234375 L 155.308594 164.234375 C 155.039062 164.234375 154.769531 164.234375 154.769531 164.539062 C 154.769531 164.863281 155.074219 164.863281 155.378906 164.863281 L 165.375 164.863281 C 165.679688 164.863281 165.984375 164.863281 165.984375 164.539062 Z M 165.984375 164.539062 "/>
<path style=" stroke:none;fill-rule:evenodd;fill:rgb(0%,0%,0%);fill-opacity:1;" d="M 179.257812 161.679688 C 179.257812 160.589844 179.242188 158.726562 178.488281 157.296875 C 177.828125 156.046875 176.773438 155.597656 175.84375 155.597656 C 174.984375 155.597656 173.894531 155.992188 173.214844 157.277344 C 172.5 158.621094 172.429688 160.285156 172.429688 161.679688 C 172.429688 162.699219 172.445312 164.253906 173 165.613281 C 173.769531 167.453125 175.144531 167.703125 175.84375 167.703125 C 176.664062 167.703125 177.917969 167.363281 178.648438 165.667969 C 179.1875 164.433594 179.257812 162.984375 179.257812 161.679688 Z M 178.113281 161.480469 C 178.113281 162.644531 178.113281 164.074219 177.898438 165.128906 C 177.523438 167.078125 176.46875 167.417969 175.84375 167.417969 C 174.699219 167.417969 174.019531 166.433594 173.769531 165.074219 C 173.570312 164.019531 173.570312 162.484375 173.570312 161.480469 C 173.570312 160.105469 173.570312 158.960938 173.804688 157.871094 C 174.144531 156.347656 175.144531 155.886719 175.84375 155.886719 C 176.578125 155.886719 177.523438 156.367188 177.863281 157.832031 C 178.09375 158.851562 178.113281 160.050781 178.113281 161.480469 Z M 178.113281 161.480469 "/>
<path style=" stroke:none;fill-rule:evenodd;fill:rgb(0%,0%,0%);fill-opacity:1;" d="M 183.339844 166.558594 C 183.339844 166.042969 182.910156 165.683594 182.480469 165.683594 C 181.960938 165.683594 181.605469 166.113281 181.605469 166.542969 C 181.605469 167.058594 182.03125 167.417969 182.460938 167.417969 C 182.980469 167.417969 183.339844 166.988281 183.339844 166.558594 Z M 183.339844 166.558594 "/>
<path style=" stroke:none;fill-rule:evenodd;fill:rgb(0%,0%,0%);fill-opacity:1;" d="M 192.304688 164.644531 L 191.980469 164.644531 C 191.804688 165.917969 191.660156 166.128906 191.589844 166.238281 C 191.5 166.378906 190.210938 166.378906 189.960938 166.378906 L 186.527344 166.378906 L 189.941406 162.949219 C 191.035156 161.910156 192.304688 160.695312 192.304688 158.925781 C 192.304688 156.816406 190.621094 155.597656 188.746094 155.597656 C 186.777344 155.597656 185.582031 157.332031 185.582031 158.941406 C 185.582031 159.640625 186.097656 159.730469 186.3125 159.730469 C 186.492188 159.730469 187.027344 159.621094 187.027344 158.996094 C 187.027344 158.441406 186.566406 158.28125 186.3125 158.28125 C 186.207031 158.28125 186.097656 158.300781 186.027344 158.335938 C 186.367188 156.816406 187.402344 156.0625 188.496094 156.0625 C 190.050781 156.0625 191.070312 157.296875 191.070312 158.925781 C 191.070312 160.480469 190.160156 161.820312 189.136719 162.984375 L 185.582031 167.007812 L 185.582031 167.417969 L 191.875 167.417969 Z M 192.304688 164.644531 "/>
<path style="fill:none;stroke-width:0.5;stroke-linecap:square;stroke-linejoin:miter;stroke:rgb(40%,40%,40%);stroke-opacity:1;stroke-miterlimit:3.25;" d="M 356.28125 177.976562 L 102.742188 177.976562 "/>
<path style="fill:none;stroke-width:0.5;stroke-linecap:square;stroke-linejoin:miter;stroke:rgb(40%,40%,40%);stroke-opacity:1;stroke-miterlimit:3.25;" d="M 102.742188 177.976562 L 102.742188 0.5 "/>
<path style="fill:none;stroke-width:0.5;stroke-linecap:square;stroke-linejoin:miter;stroke:rgb(40%,40%,40%);stroke-opacity:1;stroke-miterlimit:3.25;" d="M 102.742188 0.5 L 356.28125 0.5 "/>
<path style="fill:none;stroke-width:0.5;stroke-linecap:square;stroke-linejoin:miter;stroke:rgb(40%,40%,40%);stroke-opacity:1;stroke-miterlimit:3.25;" d="M 356.28125 0.5 L 356.28125 177.976562 "/>
<path style="fill:none;stroke-width:0.5;stroke-linecap:butt;stroke-linejoin:miter;stroke:rgb(40%,40%,40%);stroke-opacity:1;stroke-miterlimit:3.25;" d="M 107.480469 177.976562 L 107.480469 174.796875 "/>
<path style=" stroke:none;fill-rule:evenodd;fill:rgb(0%,0%,0%);fill-opacity:1;" d="M 104.695312 192.515625 C 104.695312 192.160156 104.355469 192.160156 104.105469 192.160156 L 94.359375 192.160156 C 94.109375 192.160156 93.769531 192.160156 93.769531 192.515625 C 93.769531 192.875 94.109375 192.875 94.359375 192.875 L 104.105469 192.875 C 104.355469 192.875 104.695312 192.875 104.695312 192.515625 Z M 104.695312 192.515625 "/>
<path style=" stroke:none;fill-rule:evenodd;fill:rgb(0%,0%,0%);fill-opacity:1;" d="M 113.050781 196.988281 L 113.050781 196.523438 L 112.515625 196.523438 C 110.976562 196.523438 110.941406 196.328125 110.941406 195.683594 L 110.941406 185.5625 C 110.941406 185.1875 110.925781 185.167969 110.671875 185.167969 C 109.976562 186.007812 108.921875 186.277344 107.917969 186.3125 C 107.867188 186.3125 107.777344 186.3125 107.757812 186.347656 C 107.742188 186.382812 107.742188 186.421875 107.742188 186.796875 C 108.292969 186.796875 109.222656 186.6875 109.941406 186.257812 L 109.941406 195.683594 C 109.941406 196.308594 109.902344 196.523438 108.367188 196.523438 L 107.832031 196.523438 L 107.832031 196.988281 L 110.441406 196.953125 Z M 113.050781 196.988281 "/>
<path style=" stroke:none;fill-rule:evenodd;fill:rgb(0%,0%,0%);fill-opacity:1;" d="M 121.996094 191.25 C 121.996094 190.15625 121.976562 188.296875 121.226562 186.867188 C 120.566406 185.617188 119.511719 185.167969 118.582031 185.167969 C 117.722656 185.167969 116.628906 185.5625 115.949219 186.847656 C 115.238281 188.191406 115.164062 189.851562 115.164062 191.25 C 115.164062 192.265625 115.183594 193.820312 115.738281 195.179688 C 116.503906 197.023438 117.882812 197.273438 118.582031 197.273438 C 119.402344 197.273438 120.652344 196.933594 121.386719 195.234375 C 121.925781 194 121.996094 192.554688 121.996094 191.25 Z M 120.851562 191.050781 C 120.851562 192.214844 120.851562 193.644531 120.636719 194.699219 C 120.261719 196.648438 119.207031 196.988281 118.582031 196.988281 C 117.433594 196.988281 116.753906 196.003906 116.503906 194.644531 C 116.308594 193.589844 116.308594 192.054688 116.308594 191.050781 C 116.308594 189.675781 116.308594 188.53125 116.542969 187.4375 C 116.878906 185.917969 117.882812 185.453125 118.582031 185.453125 C 119.3125 185.453125 120.261719 185.9375 120.601562 187.402344 C 120.832031 188.421875 120.851562 189.621094 120.851562 191.050781 Z M 120.851562 191.050781 "/>
<path style="fill:none;stroke-width:0.5;stroke-linecap:butt;stroke-linejoin:miter;stroke:rgb(40%,40%,40%);stroke-opacity:1;stroke-miterlimit:3.25;" d="M 154.871094 177.976562 L 154.871094 174.796875 "/>
<path style=" stroke:none;fill-rule:evenodd;fill:rgb(0%,0%,0%);fill-opacity:1;" d="M 156.195312 192.515625 C 156.195312 192.15625 155.855469 192.15625 155.605469 192.15625 L 145.863281 192.15625 C 145.613281 192.15625 145.273438 192.15625 145.273438 192.515625 C 145.273438 192.871094 145.613281 192.871094 145.863281 192.871094 L 155.605469 192.871094 C 155.855469 192.871094 156.195312 192.871094 156.195312 192.515625 Z M 156.195312 192.515625 "/>
<path style=" stroke:none;fill-rule:evenodd;fill:rgb(0%,0%,0%);fill-opacity:1;" d="M 165.285156 194.070312 C 165.285156 192.441406 164.191406 191.691406 163.476562 191.210938 C 163.226562 191.03125 163.085938 190.941406 162.546875 190.546875 C 163.675781 189.976562 164.816406 189.117188 164.816406 187.742188 C 164.816406 186.113281 163.246094 185.167969 161.796875 185.167969 C 160.171875 185.167969 158.738281 186.347656 158.738281 187.972656 C 158.738281 188.421875 158.847656 189.191406 159.542969 189.867188 C 159.722656 190.046875 160.472656 190.582031 160.957031 190.925781 C 160.152344 191.335938 158.277344 192.316406 158.277344 194.285156 C 158.277344 196.125 160.027344 197.269531 161.761719 197.269531 C 163.675781 197.269531 165.285156 195.894531 165.285156 194.070312 Z M 164.210938 187.742188 C 164.210938 189.40625 162.351562 190.351562 162.261719 190.351562 C 162.261719 190.351562 162.226562 190.351562 162.082031 190.246094 L 160.207031 188.976562 C 160.0625 188.886719 159.347656 188.332031 159.347656 187.492188 C 159.347656 186.402344 160.472656 185.578125 161.761719 185.578125 C 163.171875 185.578125 164.210938 186.582031 164.210938 187.742188 Z M 164.621094 194.515625 C 164.621094 195.839844 163.296875 196.839844 161.796875 196.839844 C 160.171875 196.839844 158.9375 195.679688 158.9375 194.265625 C 158.9375 192.855469 160.027344 191.675781 161.261719 191.121094 L 163.496094 192.640625 C 163.765625 192.835938 164.621094 193.425781 164.621094 194.515625 Z M 164.621094 194.515625 "/>
<path style="fill:none;stroke-width:0.5;stroke-linecap:butt;stroke-linejoin:miter;stroke:rgb(40%,40%,40%);stroke-opacity:1;stroke-miterlimit:3.25;" d="M 202.261719 177.976562 L 202.261719 174.796875 "/>
<path style=" stroke:none;fill-rule:evenodd;fill:rgb(0%,0%,0%);fill-opacity:1;" d="M 203.585938 192.515625 C 203.585938 192.15625 203.246094 192.15625 202.996094 192.15625 L 193.253906 192.15625 C 193.003906 192.15625 192.664062 192.15625 192.664062 192.515625 C 192.664062 192.871094 193.003906 192.871094 193.253906 192.871094 L 202.996094 192.871094 C 203.246094 192.871094 203.585938 192.871094 203.585938 192.515625 Z M 203.585938 192.515625 "/>
<path style=" stroke:none;fill-rule:evenodd;fill:rgb(0%,0%,0%);fill-opacity:1;" d="M 212.582031 193.320312 C 212.582031 191.085938 211.136719 189.457031 209.3125 189.457031 C 208.222656 189.457031 207.417969 190.171875 206.972656 191.425781 L 206.972656 190.816406 C 206.972656 186.542969 208.972656 185.578125 210.136719 185.578125 C 210.511719 185.578125 211.421875 185.652344 211.777344 186.347656 C 211.492188 186.347656 210.957031 186.347656 210.957031 186.972656 C 210.957031 187.457031 211.351562 187.617188 211.601562 187.617188 C 211.761719 187.617188 212.246094 187.546875 212.246094 186.9375 C 212.246094 185.8125 211.351562 185.167969 210.117188 185.167969 C 207.988281 185.167969 205.753906 187.382812 205.753906 191.335938 C 205.753906 196.195312 207.777344 197.269531 209.203125 197.269531 C 210.941406 197.269531 212.582031 195.714844 212.582031 193.320312 Z M 211.367188 193.300781 C 211.367188 194.265625 211.367188 194.980469 210.992188 195.695312 C 210.601562 196.429688 210.027344 196.839844 209.203125 196.839844 C 207.007812 196.839844 207.007812 193.550781 207.007812 192.890625 C 207.007812 191.601562 207.613281 189.742188 209.277344 189.742188 C 209.582031 189.742188 210.457031 189.742188 211.046875 190.976562 C 211.367188 191.675781 211.367188 192.40625 211.367188 193.300781 Z M 211.367188 193.300781 "/>
<path style="fill:none;stroke-width:0.5;stroke-linecap:butt;stroke-linejoin:miter;stroke:rgb(40%,40%,40%);stroke-opacity:1;stroke-miterlimit:3.25;" d="M 249.652344 177.976562 L 249.652344 174.796875 "/>
<path style=" stroke:none;fill-rule:evenodd;fill:rgb(0%,0%,0%);fill-opacity:1;" d="M 250.976562 192.515625 C 250.976562 192.15625 250.636719 192.15625 250.386719 192.15625 L 240.644531 192.15625 C 240.394531 192.15625 240.054688 192.15625 240.054688 192.515625 C 240.054688 192.871094 240.394531 192.871094 240.644531 192.871094 L 250.386719 192.871094 C 250.636719 192.871094 250.976562 192.871094 250.976562 192.515625 Z M 250.976562 192.515625 "/>
<path style=" stroke:none;fill-rule:evenodd;fill:rgb(0%,0%,0%);fill-opacity:1;" d="M 260.296875 193.945312 L 260.296875 193.480469 L 258.472656 193.480469 L 258.472656 185.417969 C 258.472656 185.042969 258.457031 185.023438 258.132812 185.023438 L 252.824219 193.480469 L 252.824219 193.945312 L 257.4375 193.945312 L 257.4375 195.695312 C 257.4375 196.339844 257.398438 196.519531 256.148438 196.519531 L 255.808594 196.519531 L 255.808594 196.984375 C 256.382812 196.949219 257.347656 196.949219 257.953125 196.949219 C 258.5625 196.949219 259.527344 196.949219 260.097656 196.984375 L 260.097656 196.519531 L 259.761719 196.519531 C 258.507812 196.519531 258.472656 196.339844 258.472656 195.695312 L 258.472656 193.945312 Z M 257.492188 193.480469 L 253.183594 193.480469 L 257.492188 186.597656 Z M 257.492188 193.480469 "/>
<path style="fill:none;stroke-width:0.5;stroke-linecap:butt;stroke-linejoin:miter;stroke:rgb(40%,40%,40%);stroke-opacity:1;stroke-miterlimit:3.25;" d="M 297.042969 177.976562 L 297.042969 174.796875 "/>
<path style=" stroke:none;fill-rule:evenodd;fill:rgb(0%,0%,0%);fill-opacity:1;" d="M 298.367188 192.515625 C 298.367188 192.15625 298.027344 192.15625 297.777344 192.15625 L 288.03125 192.15625 C 287.785156 192.15625 287.445312 192.15625 287.445312 192.515625 C 287.445312 192.871094 287.785156 192.871094 288.03125 192.871094 L 297.777344 192.871094 C 298.027344 192.871094 298.367188 192.871094 298.367188 192.515625 Z M 298.367188 192.515625 "/>
<path style=" stroke:none;fill-rule:evenodd;fill:rgb(0%,0%,0%);fill-opacity:1;" d="M 307.3125 194.210938 L 306.988281 194.210938 C 306.8125 195.484375 306.667969 195.695312 306.597656 195.804688 C 306.507812 195.945312 305.21875 195.945312 304.96875 195.945312 L 301.539062 195.945312 L 304.953125 192.515625 C 306.042969 191.476562 307.3125 190.261719 307.3125 188.492188 C 307.3125 186.382812 305.628906 185.167969 303.753906 185.167969 C 301.789062 185.167969 300.589844 186.902344 300.589844 188.511719 C 300.589844 189.207031 301.109375 189.296875 301.324219 189.296875 C 301.503906 189.296875 302.039062 189.191406 302.039062 188.5625 C 302.039062 188.007812 301.574219 187.847656 301.324219 187.847656 C 301.214844 187.847656 301.109375 187.867188 301.035156 187.902344 C 301.378906 186.382812 302.414062 185.632812 303.503906 185.632812 C 305.058594 185.632812 306.078125 186.867188 306.078125 188.492188 C 306.078125 190.046875 305.167969 191.386719 304.148438 192.550781 L 300.589844 196.574219 L 300.589844 196.984375 L 306.882812 196.984375 Z M 307.3125 194.210938 "/>
<path style="fill:none;stroke-width:0.5;stroke-linecap:butt;stroke-linejoin:miter;stroke:rgb(40%,40%,40%);stroke-opacity:1;stroke-miterlimit:3.25;" d="M 344.433594 177.976562 L 344.433594 174.796875 "/>
<path style=" stroke:none;fill-rule:evenodd;fill:rgb(0%,0%,0%);fill-opacity:1;" d="M 347.832031 191.246094 C 347.832031 190.15625 347.816406 188.292969 347.0625 186.867188 C 346.402344 185.613281 345.347656 185.167969 344.417969 185.167969 C 343.558594 185.167969 342.46875 185.5625 341.789062 186.847656 C 341.074219 188.1875 341.003906 189.851562 341.003906 191.246094 C 341.003906 192.265625 341.019531 193.816406 341.574219 195.175781 C 342.34375 197.019531 343.71875 197.269531 344.417969 197.269531 C 345.242188 197.269531 346.492188 196.929688 347.222656 195.230469 C 347.761719 193.996094 347.832031 192.550781 347.832031 191.246094 Z M 346.6875 191.046875 C 346.6875 192.210938 346.6875 193.640625 346.472656 194.695312 C 346.097656 196.644531 345.042969 196.984375 344.417969 196.984375 C 343.273438 196.984375 342.59375 196 342.34375 194.640625 C 342.148438 193.585938 342.148438 192.050781 342.148438 191.046875 C 342.148438 189.671875 342.148438 188.527344 342.378906 187.4375 C 342.71875 185.917969 343.71875 185.453125 344.417969 185.453125 C 345.152344 185.453125 346.097656 185.9375 346.4375 187.402344 C 346.667969 188.417969 346.6875 189.617188 346.6875 191.046875 Z M 346.6875 191.046875 "/>
<path style="fill:none;stroke-width:0.5;stroke-linecap:butt;stroke-linejoin:miter;stroke:rgb(40%,40%,40%);stroke-opacity:1;stroke-miterlimit:3.25;" d="M 102.742188 159.296875 L 105.921875 159.296875 "/>
<path style=" stroke:none;fill-rule:evenodd;fill:rgb(0%,0%,0%);fill-opacity:1;" d="M 67.660156 159.082031 C 67.660156 158.722656 67.320312 158.722656 67.070312 158.722656 L 57.324219 158.722656 C 57.074219 158.722656 56.734375 158.722656 56.734375 159.082031 C 56.734375 159.4375 57.074219 159.4375 57.324219 159.4375 L 67.070312 159.4375 C 67.320312 159.4375 67.660156 159.4375 67.660156 159.082031 Z M 67.660156 159.082031 "/>
<path style=" stroke:none;fill-rule:evenodd;fill:rgb(0%,0%,0%);fill-opacity:1;" d="M 76.660156 157.8125 C 76.660156 156.722656 76.644531 154.859375 75.890625 153.429688 C 75.230469 152.179688 74.175781 151.730469 73.246094 151.730469 C 72.386719 151.730469 71.296875 152.125 70.617188 153.410156 C 69.902344 154.753906 69.832031 156.417969 69.832031 157.8125 C 69.832031 158.832031 69.847656 160.386719 70.402344 161.746094 C 71.171875 163.585938 72.546875 163.835938 73.246094 163.835938 C 74.066406 163.835938 75.320312 163.496094 76.050781 161.800781 C 76.589844 160.566406 76.660156 159.117188 76.660156 157.8125 Z M 75.515625 157.613281 C 75.515625 158.777344 75.515625 160.207031 75.300781 161.261719 C 74.925781 163.210938 73.871094 163.550781 73.246094 163.550781 C 72.101562 163.550781 71.421875 162.566406 71.171875 161.207031 C 70.972656 160.152344 70.972656 158.617188 70.972656 157.613281 C 70.972656 156.238281 70.972656 155.09375 71.207031 154.003906 C 71.546875 152.480469 72.546875 152.019531 73.246094 152.019531 C 73.980469 152.019531 74.925781 152.5 75.265625 153.964844 C 75.496094 154.984375 75.515625 156.183594 75.515625 157.613281 Z M 75.515625 157.613281 "/>
<path style=" stroke:none;fill-rule:evenodd;fill:rgb(0%,0%,0%);fill-opacity:1;" d="M 80.742188 162.691406 C 80.742188 162.175781 80.3125 161.816406 79.882812 161.816406 C 79.363281 161.816406 79.007812 162.246094 79.007812 162.675781 C 79.007812 163.191406 79.433594 163.550781 79.863281 163.550781 C 80.382812 163.550781 80.742188 163.121094 80.742188 162.691406 Z M 80.742188 162.691406 "/>
<path style=" stroke:none;fill-rule:evenodd;fill:rgb(0%,0%,0%);fill-opacity:1;" d="M 89.117188 163.550781 L 89.117188 163.085938 L 88.582031 163.085938 C 87.042969 163.085938 87.007812 162.890625 87.007812 162.246094 L 87.007812 152.125 C 87.007812 151.75 86.992188 151.730469 86.738281 151.730469 C 86.042969 152.574219 84.988281 152.839844 83.984375 152.875 C 83.933594 152.875 83.839844 152.875 83.824219 152.910156 C 83.808594 152.949219 83.808594 152.984375 83.808594 153.359375 C 84.359375 153.359375 85.289062 153.25 86.007812 152.824219 L 86.007812 162.246094 C 86.007812 162.871094 85.96875 163.085938 84.433594 163.085938 L 83.894531 163.085938 L 83.894531 163.550781 L 86.507812 163.515625 Z M 89.117188 163.550781 "/>
<path style=" stroke:none;fill-rule:evenodd;fill:rgb(0%,0%,0%);fill-opacity:1;" d="M 98.0625 157.8125 C 98.0625 156.722656 98.042969 154.859375 97.292969 153.429688 C 96.632812 152.179688 95.578125 151.730469 94.648438 151.730469 C 93.789062 151.730469 92.695312 152.125 92.015625 153.410156 C 91.304688 154.753906 91.230469 156.417969 91.230469 157.8125 C 91.230469 158.832031 91.25 160.386719 91.804688 161.746094 C 92.570312 163.585938 93.949219 163.835938 94.648438 163.835938 C 95.46875 163.835938 96.71875 163.496094 97.453125 161.800781 C 97.992188 160.566406 98.0625 159.117188 98.0625 157.8125 Z M 96.917969 157.613281 C 96.917969 158.777344 96.917969 160.207031 96.703125 161.261719 C 96.328125 163.210938 95.273438 163.550781 94.648438 163.550781 C 93.5 163.550781 92.820312 162.566406 92.570312 161.207031 C 92.375 160.152344 92.375 158.617188 92.375 157.613281 C 92.375 156.238281 92.375 155.09375 92.609375 154.003906 C 92.945312 152.480469 93.949219 152.019531 94.648438 152.019531 C 95.378906 152.019531 96.328125 152.5 96.667969 153.964844 C 96.898438 154.984375 96.917969 156.183594 96.917969 157.613281 Z M 96.917969 157.613281 "/>
<path style="fill:none;stroke-width:0.5;stroke-linecap:butt;stroke-linejoin:miter;stroke:rgb(40%,40%,40%);stroke-opacity:1;stroke-miterlimit:3.25;" d="M 102.742188 112.589844 L 105.921875 112.589844 "/>
<path style=" stroke:none;fill-rule:evenodd;fill:rgb(0%,0%,0%);fill-opacity:1;" d="M 67.660156 112.375 C 67.660156 112.019531 67.320312 112.019531 67.070312 112.019531 L 57.324219 112.019531 C 57.074219 112.019531 56.734375 112.019531 56.734375 112.375 C 56.734375 112.734375 57.074219 112.734375 57.324219 112.734375 L 67.070312 112.734375 C 67.320312 112.734375 67.660156 112.734375 67.660156 112.375 Z M 67.660156 112.375 "/>
<path style=" stroke:none;fill-rule:evenodd;fill:rgb(0%,0%,0%);fill-opacity:1;" d="M 76.660156 111.105469 C 76.660156 110.015625 76.644531 108.15625 75.890625 106.726562 C 75.230469 105.472656 74.175781 105.027344 73.246094 105.027344 C 72.386719 105.027344 71.296875 105.421875 70.617188 106.707031 C 69.902344 108.050781 69.832031 109.710938 69.832031 111.105469 C 69.832031 112.125 69.847656 113.679688 70.402344 115.039062 C 71.171875 116.882812 72.546875 117.132812 73.246094 117.132812 C 74.066406 117.132812 75.320312 116.792969 76.050781 115.09375 C 76.589844 113.859375 76.660156 112.410156 76.660156 111.105469 Z M 75.515625 110.910156 C 75.515625 112.074219 75.515625 113.503906 75.300781 114.558594 C 74.925781 116.507812 73.871094 116.847656 73.246094 116.847656 C 72.101562 116.847656 71.421875 115.863281 71.171875 114.503906 C 70.972656 113.449219 70.972656 111.910156 70.972656 110.910156 C 70.972656 109.535156 70.972656 108.386719 71.207031 107.296875 C 71.546875 105.777344 72.546875 105.3125 73.246094 105.3125 C 73.980469 105.3125 74.925781 105.796875 75.265625 107.261719 C 75.496094 108.28125 75.515625 109.480469 75.515625 110.910156 Z M 75.515625 110.910156 "/>
<path style=" stroke:none;fill-rule:evenodd;fill:rgb(0%,0%,0%);fill-opacity:1;" d="M 80.742188 115.988281 C 80.742188 115.46875 80.3125 115.113281 79.882812 115.113281 C 79.363281 115.113281 79.007812 115.542969 79.007812 115.96875 C 79.007812 116.488281 79.433594 116.847656 79.863281 116.847656 C 80.382812 116.847656 80.742188 116.417969 80.742188 115.988281 Z M 80.742188 115.988281 "/>
<path style=" stroke:none;fill-rule:evenodd;fill:rgb(0%,0%,0%);fill-opacity:1;" d="M 89.761719 111.105469 C 89.761719 110.015625 89.742188 108.15625 88.992188 106.726562 C 88.332031 105.472656 87.277344 105.027344 86.347656 105.027344 C 85.488281 105.027344 84.398438 105.421875 83.714844 106.707031 C 83.003906 108.050781 82.929688 109.710938 82.929688 111.105469 C 82.929688 112.125 82.949219 113.679688 83.503906 115.039062 C 84.269531 116.882812 85.648438 117.132812 86.347656 117.132812 C 87.167969 117.132812 88.421875 116.792969 89.152344 115.09375 C 89.691406 113.859375 89.761719 112.410156 89.761719 111.105469 Z M 88.617188 110.910156 C 88.617188 112.074219 88.617188 113.503906 88.402344 114.558594 C 88.027344 116.507812 86.972656 116.847656 86.347656 116.847656 C 85.203125 116.847656 84.523438 115.863281 84.269531 114.503906 C 84.074219 113.449219 84.074219 111.910156 84.074219 110.910156 C 84.074219 109.535156 84.074219 108.386719 84.308594 107.296875 C 84.648438 105.777344 85.648438 105.3125 86.347656 105.3125 C 87.078125 105.3125 88.027344 105.796875 88.367188 107.261719 C 88.597656 108.28125 88.617188 109.480469 88.617188 110.910156 Z M 88.617188 110.910156 "/>
<path style=" stroke:none;fill-rule:evenodd;fill:rgb(0%,0%,0%);fill-opacity:1;" d="M 98.007812 113.234375 C 98.007812 111.089844 96.613281 109.425781 94.878906 109.425781 C 93.96875 109.425781 93.199219 109.765625 92.589844 110.410156 L 92.589844 106.386719 C 92.769531 106.457031 93.5 106.691406 94.253906 106.691406 C 95.914062 106.691406 96.828125 105.796875 97.347656 105.277344 C 97.347656 105.132812 97.347656 105.042969 97.238281 105.042969 C 97.238281 105.042969 97.1875 105.042969 97.042969 105.117188 C 96.417969 105.386719 95.683594 105.597656 94.789062 105.597656 C 94.253906 105.597656 93.449219 105.527344 92.570312 105.132812 C 92.375 105.042969 92.320312 105.042969 92.320312 105.042969 C 92.234375 105.042969 92.214844 105.0625 92.214844 105.421875 L 92.214844 110.605469 C 92.214844 110.925781 92.214844 111.015625 92.394531 111.015625 C 92.484375 111.015625 92.519531 110.980469 92.609375 110.855469 C 93.179688 110.050781 93.96875 109.710938 94.859375 109.710938 C 95.484375 109.710938 96.828125 110.105469 96.828125 113.164062 C 96.828125 113.734375 96.828125 114.773438 96.289062 115.59375 C 95.84375 116.328125 95.148438 116.703125 94.378906 116.703125 C 93.199219 116.703125 92 115.878906 91.679688 114.503906 C 91.75 114.519531 91.890625 114.558594 91.964844 114.558594 C 92.195312 114.558594 92.644531 114.433594 92.644531 113.878906 C 92.644531 113.394531 92.304688 113.199219 91.964844 113.199219 C 91.554688 113.199219 91.285156 113.449219 91.285156 113.949219 C 91.285156 115.503906 92.519531 117.132812 94.414062 117.132812 C 96.257812 117.132812 98.007812 115.542969 98.007812 113.234375 Z M 98.007812 113.234375 "/>
<path style="fill:none;stroke-width:0.5;stroke-linecap:butt;stroke-linejoin:miter;stroke:rgb(40%,40%,40%);stroke-opacity:1;stroke-miterlimit:3.25;" d="M 102.742188 65.886719 L 105.921875 65.886719 "/>
<path style=" stroke:none;fill-rule:evenodd;fill:rgb(0%,0%,0%);fill-opacity:1;" d="M 98.03125 64.402344 C 98.03125 63.3125 98.015625 61.453125 97.261719 60.023438 C 96.601562 58.773438 95.546875 58.324219 94.617188 58.324219 C 93.757812 58.324219 92.667969 58.71875 91.988281 60.003906 C 91.277344 61.347656 91.203125 63.007812 91.203125 64.402344 C 91.203125 65.421875 91.222656 66.976562 91.777344 68.335938 C 92.542969 70.175781 93.921875 70.425781 94.617188 70.425781 C 95.441406 70.425781 96.691406 70.085938 97.421875 68.390625 C 97.960938 67.15625 98.03125 65.707031 98.03125 64.402344 Z M 96.886719 64.207031 C 96.886719 65.367188 96.886719 66.796875 96.675781 67.851562 C 96.296875 69.800781 95.242188 70.140625 94.617188 70.140625 C 93.472656 70.140625 92.792969 69.15625 92.542969 67.796875 C 92.347656 66.746094 92.347656 65.207031 92.347656 64.207031 C 92.347656 62.828125 92.347656 61.683594 92.578125 60.59375 C 92.917969 59.074219 93.921875 58.609375 94.617188 58.609375 C 95.351562 58.609375 96.296875 59.09375 96.636719 60.558594 C 96.871094 61.578125 96.886719 62.773438 96.886719 64.207031 Z M 96.886719 64.207031 "/>
<path style="fill:none;stroke-width:0.5;stroke-linecap:butt;stroke-linejoin:miter;stroke:rgb(40%,40%,40%);stroke-opacity:1;stroke-miterlimit:3.25;" d="M 102.742188 19.183594 L 105.921875 19.183594 "/>
<path style=" stroke:none;fill-rule:evenodd;fill:rgb(0%,0%,0%);fill-opacity:1;" d="M 76.710938 17.699219 C 76.710938 16.605469 76.691406 14.746094 75.941406 13.316406 C 75.277344 12.0625 74.222656 11.617188 73.292969 11.617188 C 72.433594 11.617188 71.34375 12.011719 70.664062 13.296875 C 69.949219 14.640625 69.878906 16.300781 69.878906 17.699219 C 69.878906 18.714844 69.894531 20.269531 70.449219 21.628906 C 71.21875 23.472656 72.597656 23.722656 73.292969 23.722656 C 74.117188 23.722656 75.367188 23.382812 76.101562 21.683594 C 76.640625 20.449219 76.710938 19.003906 76.710938 17.699219 Z M 75.566406 17.5 C 75.566406 18.664062 75.566406 20.09375 75.351562 21.148438 C 74.972656 23.097656 73.917969 23.4375 73.292969 23.4375 C 72.148438 23.4375 71.46875 22.453125 71.21875 21.09375 C 71.023438 20.039062 71.023438 18.503906 71.023438 17.5 C 71.023438 16.125 71.023438 14.980469 71.253906 13.886719 C 71.59375 12.367188 72.597656 11.902344 73.292969 11.902344 C 74.027344 11.902344 74.972656 12.386719 75.316406 13.851562 C 75.546875 14.871094 75.566406 16.070312 75.566406 17.5 Z M 75.566406 17.5 "/>
<path style=" stroke:none;fill-rule:evenodd;fill:rgb(0%,0%,0%);fill-opacity:1;" d="M 80.691406 22.578125 C 80.691406 22.058594 80.261719 21.703125 79.832031 21.703125 C 79.3125 21.703125 78.957031 22.132812 78.957031 22.5625 C 78.957031 23.078125 79.382812 23.4375 79.8125 23.4375 C 80.332031 23.4375 80.691406 23.007812 80.691406 22.578125 Z M 80.691406 22.578125 "/>
<path style=" stroke:none;fill-rule:evenodd;fill:rgb(0%,0%,0%);fill-opacity:1;" d="M 89.808594 17.699219 C 89.808594 16.605469 89.792969 14.746094 89.042969 13.316406 C 88.378906 12.0625 87.324219 11.617188 86.394531 11.617188 C 85.535156 11.617188 84.445312 12.011719 83.765625 13.296875 C 83.050781 14.640625 82.980469 16.300781 82.980469 17.699219 C 82.980469 18.714844 82.996094 20.269531 83.550781 21.628906 C 84.320312 23.472656 85.699219 23.722656 86.394531 23.722656 C 87.21875 23.722656 88.46875 23.382812 89.203125 21.683594 C 89.738281 20.449219 89.808594 19.003906 89.808594 17.699219 Z M 88.667969 17.5 C 88.667969 18.664062 88.667969 20.09375 88.453125 21.148438 C 88.074219 23.097656 87.019531 23.4375 86.394531 23.4375 C 85.25 23.4375 84.570312 22.453125 84.320312 21.09375 C 84.125 20.039062 84.125 18.503906 84.125 17.5 C 84.125 16.125 84.125 14.980469 84.355469 13.886719 C 84.695312 12.367188 85.699219 11.902344 86.394531 11.902344 C 87.128906 11.902344 88.074219 12.386719 88.417969 13.851562 C 88.648438 14.871094 88.667969 16.070312 88.667969 17.5 Z M 88.667969 17.5 "/>
<path style=" stroke:none;fill-rule:evenodd;fill:rgb(0%,0%,0%);fill-opacity:1;" d="M 97.957031 19.824219 C 97.957031 17.679688 96.5625 16.015625 94.828125 16.015625 C 93.917969 16.015625 93.148438 16.355469 92.539062 17 L 92.539062 12.976562 C 92.71875 13.046875 93.449219 13.28125 94.203125 13.28125 C 95.867188 13.28125 96.777344 12.386719 97.296875 11.867188 C 97.296875 11.722656 97.296875 11.632812 97.1875 11.632812 C 97.1875 11.632812 97.136719 11.632812 96.992188 11.707031 C 96.367188 11.976562 95.632812 12.1875 94.738281 12.1875 C 94.203125 12.1875 93.398438 12.117188 92.519531 11.722656 C 92.324219 11.632812 92.269531 11.632812 92.269531 11.632812 C 92.183594 11.632812 92.164062 11.652344 92.164062 12.011719 L 92.164062 17.195312 C 92.164062 17.519531 92.164062 17.605469 92.34375 17.605469 C 92.433594 17.605469 92.46875 17.570312 92.558594 17.445312 C 93.128906 16.640625 93.917969 16.300781 94.808594 16.300781 C 95.433594 16.300781 96.777344 16.695312 96.777344 19.753906 C 96.777344 20.324219 96.777344 21.363281 96.242188 22.183594 C 95.792969 22.917969 95.097656 23.292969 94.328125 23.292969 C 93.148438 23.292969 91.949219 22.472656 91.628906 21.09375 C 91.699219 21.113281 91.839844 21.148438 91.914062 21.148438 C 92.144531 21.148438 92.59375 21.023438 92.59375 20.46875 C 92.59375 19.984375 92.253906 19.789062 91.914062 19.789062 C 91.503906 19.789062 91.234375 20.039062 91.234375 20.539062 C 91.234375 22.097656 92.46875 23.722656 94.363281 23.722656 C 96.207031 23.722656 97.957031 22.132812 97.957031 19.824219 Z M 97.957031 19.824219 "/>
<path style=" stroke:none;fill-rule:evenodd;fill:rgb(0%,0%,0%);fill-opacity:1;" d="M 233.800781 219.058594 C 233.800781 218.773438 233.570312 218.613281 233.335938 218.613281 C 232.820312 218.613281 232.695312 219.09375 232.65625 219.21875 C 231.601562 222.957031 229.152344 225.175781 226.777344 225.960938 L 228.546875 218.792969 C 228.546875 218.71875 228.492188 218.613281 228.347656 218.613281 C 228.222656 218.613281 226.542969 218.773438 226.273438 218.792969 C 226.078125 218.808594 225.898438 218.828125 225.898438 219.148438 C 225.898438 219.328125 226.042969 219.328125 226.292969 219.328125 C 227.132812 219.328125 227.1875 219.453125 227.1875 219.648438 C 227.1875 219.722656 227.148438 219.933594 227.132812 220.007812 L 225.558594 226.320312 C 225.558594 226.390625 225.613281 226.496094 225.738281 226.496094 L 226.113281 226.496094 C 226.363281 226.496094 229.082031 225.855469 231.171875 223.707031 C 233.480469 221.332031 233.800781 219.128906 233.800781 219.058594 Z M 233.800781 219.058594 "/>
<path style=" stroke:none;fill-rule:evenodd;fill:rgb(0%,0%,0%);fill-opacity:1;" d="M 25.960938 107.878906 C 25.90625 107.859375 25.78125 107.824219 25.707031 107.824219 C 25.617188 107.824219 25.53125 107.894531 25.53125 108.003906 C 25.53125 108.144531 25.546875 108.164062 25.992188 108.308594 C 28.300781 109.058594 29.695312 109.84375 29.695312 112.957031 L 29.695312 116.050781 L 18.59375 106.230469 C 18.46875 106.125 18.359375 106.035156 18.179688 106.035156 C 18.054688 106.035156 18.039062 106.054688 18.039062 106.464844 L 18.039062 113.847656 C 18.039062 114.261719 18.054688 114.277344 18.375 114.386719 L 21.59375 115.371094 C 21.773438 115.421875 21.84375 115.421875 21.84375 115.421875 C 21.917969 115.421875 22.023438 115.371094 22.023438 115.246094 C 22.023438 115.101562 21.953125 115.066406 21.71875 114.996094 C 19.789062 114.332031 18.554688 113.457031 18.554688 110.632812 L 18.554688 107.699219 L 29.644531 117.496094 C 29.839844 117.660156 29.910156 117.730469 30.105469 117.730469 C 30.25 117.730469 30.25 117.640625 30.25 117.300781 L 30.25 109.667969 C 30.25 109.253906 30.234375 109.238281 29.910156 109.128906 Z M 25.960938 107.878906 "/>
<path style=" stroke:none;fill-rule:evenodd;fill:rgb(0%,0%,0%);fill-opacity:1;" d="M 24.378906 105.757812 L 25.066406 105.796875 L 26.46875 105.859375 L 27.171875 105.898438 L 27.171875 105.621094 C 26.898438 105.609375 26.609375 105.558594 26.34375 105.457031 C 26.144531 105.394531 25.957031 105.308594 25.78125 105.183594 C 25.644531 105.09375 25.507812 104.980469 25.394531 104.855469 C 25.09375 104.53125 24.941406 104.117188 24.855469 103.691406 C 24.730469 103.066406 24.742188 102.425781 24.742188 101.800781 L 24.742188 100.871094 C 26.773438 102.238281 28.828125 103.566406 30.871094 104.90625 C 31.347656 105.234375 31.835938 105.546875 32.3125 105.859375 C 32.4375 105.949219 32.574219 106.074219 32.738281 106.074219 C 32.789062 106.074219 32.839844 106.074219 32.886719 106.046875 C 32.9375 106.011719 32.9375 105.949219 32.9375 105.898438 C 32.9375 105.785156 32.9375 105.683594 32.9375 105.570312 L 32.9375 98.378906 L 31.972656 98.316406 L 30.417969 98.226562 L 29.628906 98.175781 L 29.628906 98.453125 C 30.019531 98.464844 30.417969 98.515625 30.796875 98.628906 C 31.070312 98.703125 31.320312 98.804688 31.558594 98.953125 C 31.671875 99.027344 31.785156 99.117188 31.886719 99.21875 C 32.4375 99.792969 32.511719 100.609375 32.535156 101.359375 C 32.550781 101.535156 32.550781 101.699219 32.550781 101.875 L 32.550781 103.429688 C 32.347656 103.316406 32.160156 103.175781 31.960938 103.039062 C 31.433594 102.699219 30.921875 102.363281 30.40625 102.023438 C 29.089844 101.160156 27.773438 100.308594 26.46875 99.429688 C 25.984375 99.105469 25.507812 98.792969 25.015625 98.480469 C 24.890625 98.390625 24.742188 98.253906 24.578125 98.238281 C 24.527344 98.238281 24.476562 98.238281 24.441406 98.265625 C 24.390625 98.289062 24.378906 98.351562 24.378906 98.402344 C 24.378906 98.503906 24.378906 98.617188 24.378906 98.714844 Z M 24.742188 98.703125 L 25.269531 99.042969 L 26.320312 99.746094 L 30.492188 102.488281 L 31.984375 103.464844 L 32.375 103.730469 L 32.535156 103.855469 L 32.550781 104.167969 L 32.550781 104.882812 L 32.238281 104.683594 L 31.808594 104.40625 L 30.53125 103.566406 L 26.648438 101.011719 L 25.28125 100.105469 L 24.917969 99.871094 L 24.753906 99.730469 L 24.742188 99.417969 Z M 24.742188 98.703125 "/>
<path style=" stroke:none;fill-rule:evenodd;fill:rgb(0%,0%,0%);fill-opacity:1;" d="M 33 95.105469 C 32.273438 95.105469 31.734375 95.34375 31.734375 95.855469 C 31.734375 96.257812 32.0625 96.457031 32.335938 96.457031 C 32.613281 96.457031 32.949219 96.269531 32.949219 95.84375 C 32.949219 95.683594 32.902344 95.542969 32.789062 95.433594 C 32.761719 95.40625 32.761719 95.378906 32.761719 95.378906 C 32.761719 95.378906 32.9375 95.355469 33 95.355469 C 33.414062 95.355469 34.230469 95.433594 35.042969 96.160156 C 35.195312 96.296875 35.246094 96.296875 35.246094 96.296875 C 35.308594 96.296875 35.371094 96.234375 35.371094 96.171875 C 35.371094 96.070312 34.441406 95.105469 33 95.105469 Z M 33 95.105469 "/>
<path style=" stroke:none;fill-rule:evenodd;fill:rgb(0%,0%,0%);fill-opacity:1;" d="M 27.738281 85.609375 C 27.535156 85.609375 27.421875 85.769531 27.421875 85.933594 C 27.421875 86.296875 27.761719 86.382812 27.851562 86.410156 C 30.46875 87.148438 32.023438 88.867188 32.574219 90.535156 L 27.546875 89.292969 C 27.5 89.292969 27.421875 89.328125 27.421875 89.429688 C 27.421875 89.515625 27.535156 90.695312 27.546875 90.882812 C 27.5625 91.019531 27.574219 91.148438 27.800781 91.148438 C 27.925781 91.148438 27.925781 91.046875 27.925781 90.871094 C 27.925781 90.28125 28.011719 90.242188 28.148438 90.242188 C 28.199219 90.242188 28.351562 90.269531 28.402344 90.28125 L 32.824219 91.382812 C 32.875 91.382812 32.949219 91.347656 32.949219 91.257812 L 32.949219 90.996094 C 32.949219 90.820312 32.5 88.914062 30.996094 87.449219 C 29.328125 85.832031 27.789062 85.609375 27.738281 85.609375 Z M 27.738281 85.609375 "/>
<path style=" stroke:none;fill-rule:evenodd;fill:rgb(0%,0%,0%);fill-opacity:1;" d="M 14.691406 79.054688 C 14.976562 79.054688 15.351562 79.054688 15.351562 78.679688 C 15.351562 78.289062 14.996094 78.289062 14.691406 78.289062 L 4.535156 78.289062 C 4.25 78.289062 3.875 78.289062 3.875 78.664062 C 3.875 79.054688 4.234375 79.054688 4.535156 79.054688 Z M 14.691406 79.054688 "/>
<path style=" stroke:none;fill-rule:evenodd;fill:rgb(0%,0%,0%);fill-opacity:1;" d="M 25.390625 79.054688 C 25.679688 79.054688 26.054688 79.054688 26.054688 78.679688 C 26.054688 78.289062 25.695312 78.289062 25.390625 78.289062 L 15.234375 78.289062 C 14.949219 78.289062 14.574219 78.289062 14.574219 78.664062 C 14.574219 79.054688 14.933594 79.054688 15.234375 79.054688 Z M 25.390625 79.054688 "/>
<path style=" stroke:none;fill-rule:evenodd;fill:rgb(0%,0%,0%);fill-opacity:1;" d="M 36.191406 79.054688 C 36.480469 79.054688 36.855469 79.054688 36.855469 78.679688 C 36.855469 78.289062 36.496094 78.289062 36.191406 78.289062 L 26.035156 78.289062 C 25.75 78.289062 25.375 78.289062 25.375 78.664062 C 25.375 79.054688 25.734375 79.054688 26.035156 79.054688 Z M 36.191406 79.054688 "/>
<path style=" stroke:none;fill-rule:evenodd;fill:rgb(0%,0%,0%);fill-opacity:1;" d="M 46.894531 79.054688 C 47.179688 79.054688 47.554688 79.054688 47.554688 78.679688 C 47.554688 78.289062 47.199219 78.289062 46.894531 78.289062 L 36.738281 78.289062 C 36.449219 78.289062 36.074219 78.289062 36.074219 78.664062 C 36.074219 79.054688 36.433594 79.054688 36.738281 79.054688 Z M 46.894531 79.054688 "/>
<path style=" stroke:none;fill-rule:evenodd;fill:rgb(0%,0%,0%);fill-opacity:1;" d="M 16.695312 67.066406 C 16.601562 67.066406 16.53125 67.136719 16.53125 67.242188 C 16.53125 67.40625 16.621094 67.421875 16.765625 67.476562 C 18.335938 67.960938 19.070312 68.996094 19.070312 69.800781 C 19.070312 70.425781 18.605469 70.765625 17.875 70.765625 C 17.480469 70.765625 17.195312 70.695312 16.015625 70.410156 L 13.582031 69.78125 C 12.507812 69.515625 11.722656 68.90625 11.722656 68.085938 C 11.722656 68.085938 11.722656 67.546875 11.953125 67.171875 C 12.0625 67.746094 12.492188 67.960938 12.832031 67.960938 C 13.257812 67.960938 13.402344 67.621094 13.402344 67.371094 C 13.402344 66.832031 12.9375 66.457031 12.453125 66.457031 C 11.703125 66.457031 11.363281 67.316406 11.363281 68.066406 C 11.363281 69.15625 12.4375 69.765625 12.777344 69.925781 C 11.4375 70.335938 11.363281 71.445312 11.363281 71.769531 C 11.363281 73.59375 13.707031 74.558594 14.101562 74.558594 C 14.171875 74.558594 14.261719 74.484375 14.261719 74.359375 C 14.261719 74.21875 14.15625 74.183594 14.082031 74.148438 C 12.097656 73.539062 11.722656 72.339844 11.722656 71.820312 C 11.722656 71.015625 12.472656 70.855469 12.902344 70.855469 C 13.296875 70.855469 13.707031 70.964844 14.566406 71.179688 L 17.015625 71.785156 C 18.085938 72.054688 19.070312 72.574219 19.070312 73.519531 C 19.070312 73.609375 19.070312 74.058594 18.839844 74.433594 C 18.714844 73.789062 18.175781 73.644531 17.960938 73.644531 C 17.605469 73.644531 17.390625 73.914062 17.390625 74.253906 C 17.390625 74.683594 17.765625 75.148438 18.335938 75.148438 C 19.089844 75.148438 19.429688 74.308594 19.429688 73.539062 C 19.429688 72.679688 18.75 72.070312 18.015625 71.695312 C 19.070312 71.410156 19.429688 70.515625 19.429688 69.855469 C 19.429688 68.03125 17.085938 67.066406 16.695312 67.066406 Z M 16.695312 67.066406 "/>
<path style=" stroke:none;fill-rule:evenodd;fill:rgb(0%,0%,0%);fill-opacity:1;" d="M 35.011719 67.339844 C 33.921875 67.339844 32.058594 67.355469 30.628906 68.109375 C 29.378906 68.769531 28.929688 69.824219 28.929688 70.753906 C 28.929688 71.613281 29.324219 72.703125 30.609375 73.382812 C 31.953125 74.097656 33.617188 74.167969 35.011719 74.167969 C 36.03125 74.167969 37.585938 74.152344 38.945312 73.597656 C 40.785156 72.828125 41.035156 71.453125 41.035156 70.753906 C 41.035156 69.929688 40.699219 68.679688 39 67.945312 C 37.765625 67.410156 36.316406 67.339844 35.011719 67.339844 Z M 34.816406 68.484375 C 35.976562 68.484375 37.40625 68.484375 38.460938 68.695312 C 40.410156 69.074219 40.75 70.128906 40.75 70.753906 C 40.75 71.898438 39.769531 72.578125 38.410156 72.828125 C 37.355469 73.023438 35.816406 73.023438 34.816406 73.023438 C 33.4375 73.023438 32.292969 73.023438 31.203125 72.792969 C 29.679688 72.453125 29.21875 71.453125 29.21875 70.753906 C 29.21875 70.019531 29.699219 69.074219 31.167969 68.734375 C 32.183594 68.5 33.382812 68.484375 34.816406 68.484375 Z M 34.816406 68.484375 "/>
<path style=" stroke:none;fill-rule:evenodd;fill:rgb(0%,0%,0%);fill-opacity:1;" d="M 14.691406 63.15625 C 14.976562 63.15625 15.351562 63.15625 15.351562 62.78125 C 15.351562 62.386719 14.996094 62.386719 14.691406 62.386719 L 4.535156 62.386719 C 4.25 62.386719 3.875 62.386719 3.875 62.761719 C 3.875 63.15625 4.234375 63.15625 4.535156 63.15625 Z M 14.691406 63.15625 "/>
<path style=" stroke:none;fill-rule:evenodd;fill:rgb(0%,0%,0%);fill-opacity:1;" d="M 25.390625 63.15625 C 25.679688 63.15625 26.054688 63.15625 26.054688 62.78125 C 26.054688 62.386719 25.695312 62.386719 25.390625 62.386719 L 15.234375 62.386719 C 14.949219 62.386719 14.574219 62.386719 14.574219 62.761719 C 14.574219 63.15625 14.933594 63.15625 15.234375 63.15625 Z M 25.390625 63.15625 "/>
<path style=" stroke:none;fill-rule:evenodd;fill:rgb(0%,0%,0%);fill-opacity:1;" d="M 36.191406 63.15625 C 36.480469 63.15625 36.855469 63.15625 36.855469 62.78125 C 36.855469 62.386719 36.496094 62.386719 36.191406 62.386719 L 26.035156 62.386719 C 25.75 62.386719 25.375 62.386719 25.375 62.761719 C 25.375 63.15625 25.734375 63.15625 26.035156 63.15625 Z M 36.191406 63.15625 "/>
<path style=" stroke:none;fill-rule:evenodd;fill:rgb(0%,0%,0%);fill-opacity:1;" d="M 46.894531 63.15625 C 47.179688 63.15625 47.554688 63.15625 47.554688 62.78125 C 47.554688 62.386719 47.199219 62.386719 46.894531 62.386719 L 36.738281 62.386719 C 36.449219 62.386719 36.074219 62.386719 36.074219 62.761719 C 36.074219 63.15625 36.433594 63.15625 36.738281 63.15625 Z M 46.894531 63.15625 "/>
<path style=" stroke:none;fill-rule:evenodd;fill:rgb(0%,0%,0%);fill-opacity:1;" d="M 109.730469 65.886719 C 109.730469 66.484375 109.492188 67.054688 109.070312 67.476562 C 108.648438 67.898438 108.078125 68.136719 107.480469 68.136719 C 106.882812 68.136719 106.3125 67.898438 105.890625 67.476562 C 105.46875 67.054688 105.230469 66.484375 105.230469 65.886719 C 105.230469 65.289062 105.46875 64.71875 105.890625 64.296875 C 106.3125 63.875 106.882812 63.636719 107.480469 63.636719 C 108.078125 63.636719 108.648438 63.875 109.070312 64.296875 C 109.492188 64.71875 109.730469 65.289062 109.730469 65.886719 Z M 109.730469 65.886719 "/>
<path style=" stroke:none;fill-rule:evenodd;fill:rgb(0%,0%,0%);fill-opacity:1;" d="M 110.878906 50.390625 C 110.878906 49.300781 110.863281 47.441406 110.109375 46.011719 C 109.449219 44.761719 108.394531 44.3125 107.464844 44.3125 C 106.605469 44.3125 105.515625 44.707031 104.835938 45.992188 C 104.125 47.335938 104.050781 48.996094 104.050781 50.390625 C 104.050781 51.410156 104.070312 52.964844 104.621094 54.324219 C 105.390625 56.164062 106.769531 56.414062 107.464844 56.414062 C 108.289062 56.414062 109.539062 56.074219 110.269531 54.378906 C 110.808594 53.144531 110.878906 51.695312 110.878906 50.390625 Z M 109.734375 50.195312 C 109.734375 51.355469 109.734375 52.785156 109.519531 53.839844 C 109.144531 55.789062 108.089844 56.128906 107.464844 56.128906 C 106.320312 56.128906 105.640625 55.144531 105.390625 53.789062 C 105.195312 52.734375 105.195312 51.195312 105.195312 50.195312 C 105.195312 48.820312 105.195312 47.671875 105.425781 46.582031 C 105.765625 45.0625 106.769531 44.597656 107.464844 44.597656 C 108.199219 44.597656 109.144531 45.082031 109.484375 46.546875 C 109.714844 47.566406 109.734375 48.765625 109.734375 50.195312 Z M 109.734375 50.195312 "/>
<path style=" stroke:none;fill-rule:evenodd;fill:rgb(0%,0%,0%);fill-opacity:1;" d="M 133.425781 80.039062 C 133.425781 80.636719 133.1875 81.207031 132.765625 81.628906 C 132.34375 82.050781 131.773438 82.289062 131.175781 82.289062 C 130.578125 82.289062 130.007812 82.050781 129.585938 81.628906 C 129.164062 81.207031 128.925781 80.636719 128.925781 80.039062 C 128.925781 79.441406 129.164062 78.871094 129.585938 78.449219 C 130.007812 78.027344 130.578125 77.789062 131.175781 77.789062 C 131.773438 77.789062 132.34375 78.027344 132.765625 78.449219 C 133.1875 78.871094 133.425781 79.441406 133.425781 80.039062 Z M 133.425781 80.039062 "/>
<path style=" stroke:none;fill-rule:evenodd;fill:rgb(0%,0%,0%);fill-opacity:1;" d="M 127.195312 47.5 C 127.195312 47.144531 126.855469 47.144531 126.605469 47.144531 L 116.859375 47.144531 C 116.609375 47.144531 116.269531 47.144531 116.269531 47.5 C 116.269531 47.859375 116.609375 47.859375 116.859375 47.859375 L 126.605469 47.859375 C 126.855469 47.859375 127.195312 47.859375 127.195312 47.5 Z M 127.195312 47.5 "/>
<path style=" stroke:none;fill-rule:evenodd;fill:rgb(0%,0%,0%);fill-opacity:1;" d="M 140.953125 39.871094 L 140.953125 39.40625 L 140.414062 39.40625 C 138.878906 39.40625 138.84375 39.210938 138.84375 38.566406 L 138.84375 28.449219 C 138.84375 28.070312 138.824219 28.054688 138.574219 28.054688 C 137.875 28.894531 136.820312 29.160156 135.820312 29.199219 C 135.765625 29.199219 135.675781 29.199219 135.660156 29.234375 C 135.640625 29.269531 135.640625 29.304688 135.640625 29.679688 C 136.195312 29.679688 137.125 29.574219 137.839844 29.144531 L 137.839844 38.566406 C 137.839844 39.191406 137.804688 39.40625 136.265625 39.40625 L 135.730469 39.40625 L 135.730469 39.871094 L 138.34375 39.835938 Z M 140.953125 39.871094 "/>
<path style="fill:none;stroke-width:0.716986;stroke-linecap:square;stroke-linejoin:miter;stroke:rgb(0%,0%,0%);stroke-opacity:1;stroke-miterlimit:10;" d="M 129.925781 47.492188 L 146.375 47.492188 "/>
<path style=" stroke:none;fill-rule:evenodd;fill:rgb(0%,0%,0%);fill-opacity:1;" d="M 137.394531 60.605469 C 137.394531 58.371094 135.945312 56.742188 134.125 56.742188 C 133.03125 56.742188 132.226562 57.460938 131.78125 58.710938 L 131.78125 58.101562 C 131.78125 53.828125 133.785156 52.863281 134.945312 52.863281 C 135.320312 52.863281 136.234375 52.9375 136.589844 53.632812 C 136.304688 53.632812 135.769531 53.632812 135.769531 54.257812 C 135.769531 54.742188 136.164062 54.902344 136.414062 54.902344 C 136.574219 54.902344 137.054688 54.832031 137.054688 54.222656 C 137.054688 53.097656 136.164062 52.453125 134.929688 52.453125 C 132.800781 52.453125 130.566406 54.671875 130.566406 58.621094 C 130.566406 63.484375 132.585938 64.558594 134.015625 64.558594 C 135.75 64.558594 137.394531 63.003906 137.394531 60.605469 Z M 136.179688 60.589844 C 136.179688 61.554688 136.179688 62.269531 135.804688 62.984375 C 135.410156 63.71875 134.839844 64.128906 134.015625 64.128906 C 131.816406 64.128906 131.816406 60.839844 131.816406 60.175781 C 131.816406 58.890625 132.425781 57.03125 134.085938 57.03125 C 134.390625 57.03125 135.269531 57.03125 135.859375 58.265625 C 136.179688 58.960938 136.179688 59.695312 136.179688 60.589844 Z M 136.179688 60.589844 "/>
<path style=" stroke:none;fill-rule:evenodd;fill:rgb(0%,0%,0%);fill-opacity:1;" d="M 145.695312 60.605469 C 145.695312 58.371094 144.246094 56.742188 142.421875 56.742188 C 141.332031 56.742188 140.527344 57.460938 140.082031 58.710938 L 140.082031 58.101562 C 140.082031 53.828125 142.085938 52.863281 143.246094 52.863281 C 143.621094 52.863281 144.53125 52.9375 144.890625 53.632812 C 144.605469 53.632812 144.066406 53.632812 144.066406 54.257812 C 144.066406 54.742188 144.460938 54.902344 144.710938 54.902344 C 144.871094 54.902344 145.355469 54.832031 145.355469 54.222656 C 145.355469 53.097656 144.460938 52.453125 143.226562 52.453125 C 141.101562 52.453125 138.867188 54.671875 138.867188 58.621094 C 138.867188 63.484375 140.886719 64.558594 142.316406 64.558594 C 144.050781 64.558594 145.695312 63.003906 145.695312 60.605469 Z M 144.480469 60.589844 C 144.480469 61.554688 144.480469 62.269531 144.105469 62.984375 C 143.710938 63.71875 143.136719 64.128906 142.316406 64.128906 C 140.117188 64.128906 140.117188 60.839844 140.117188 60.175781 C 140.117188 58.890625 140.726562 57.03125 142.386719 57.03125 C 142.691406 57.03125 143.570312 57.03125 144.15625 58.265625 C 144.480469 58.960938 144.480469 59.695312 144.480469 60.589844 Z M 144.480469 60.589844 "/>
<path style=" stroke:none;fill-rule:evenodd;fill:rgb(0%,0%,0%);fill-opacity:1;" d="M 157.121094 65.886719 C 157.121094 66.484375 156.882812 67.054688 156.460938 67.476562 C 156.039062 67.898438 155.46875 68.136719 154.871094 68.136719 C 154.273438 68.136719 153.703125 67.898438 153.28125 67.476562 C 152.859375 67.054688 152.621094 66.484375 152.621094 65.886719 C 152.621094 65.289062 152.859375 64.71875 153.28125 64.296875 C 153.703125 63.875 154.273438 63.636719 154.871094 63.636719 C 155.46875 63.636719 156.039062 63.875 156.460938 64.296875 C 156.882812 64.71875 157.121094 65.289062 157.121094 65.886719 Z M 157.121094 65.886719 "/>
<path style=" stroke:none;fill-rule:evenodd;fill:rgb(0%,0%,0%);fill-opacity:1;" d="M 158.269531 50.390625 C 158.269531 49.300781 158.253906 47.441406 157.5 46.011719 C 156.839844 44.761719 155.785156 44.3125 154.855469 44.3125 C 153.996094 44.3125 152.90625 44.707031 152.226562 45.992188 C 151.511719 47.335938 151.441406 48.996094 151.441406 50.390625 C 151.441406 51.410156 151.460938 52.964844 152.011719 54.324219 C 152.78125 56.164062 154.15625 56.414062 154.855469 56.414062 C 155.679688 56.414062 156.929688 56.074219 157.660156 54.378906 C 158.199219 53.144531 158.269531 51.695312 158.269531 50.390625 Z M 157.125 50.195312 C 157.125 51.355469 157.125 52.785156 156.910156 53.839844 C 156.535156 55.789062 155.480469 56.128906 154.855469 56.128906 C 153.710938 56.128906 153.03125 55.144531 152.78125 53.789062 C 152.585938 52.734375 152.585938 51.195312 152.585938 50.195312 C 152.585938 48.820312 152.585938 47.671875 152.816406 46.582031 C 153.15625 45.0625 154.15625 44.597656 154.855469 44.597656 C 155.589844 44.597656 156.535156 45.082031 156.875 46.546875 C 157.105469 47.566406 157.125 48.765625 157.125 50.195312 Z M 157.125 50.195312 "/>
<path style=" stroke:none;fill-rule:evenodd;fill:rgb(0%,0%,0%);fill-opacity:1;" d="M 180.816406 58.101562 C 180.816406 58.699219 180.578125 59.269531 180.15625 59.695312 C 179.734375 60.117188 179.164062 60.351562 178.566406 60.351562 C 177.96875 60.351562 177.398438 60.117188 176.976562 59.695312 C 176.554688 59.269531 176.316406 58.699219 176.316406 58.101562 C 176.316406 57.503906 176.554688 56.933594 176.976562 56.511719 C 177.398438 56.089844 177.96875 55.851562 178.566406 55.851562 C 179.164062 55.851562 179.734375 56.089844 180.15625 56.511719 C 180.578125 56.933594 180.816406 57.503906 180.816406 58.101562 Z M 180.816406 58.101562 "/>
<path style=" stroke:none;fill-rule:evenodd;fill:rgb(0%,0%,0%);fill-opacity:1;" d="M 181.300781 23.539062 L 181.300781 23.074219 L 180.765625 23.074219 C 179.226562 23.074219 179.191406 22.878906 179.191406 22.234375 L 179.191406 12.117188 C 179.191406 11.738281 179.175781 11.722656 178.921875 11.722656 C 178.226562 12.5625 177.171875 12.832031 176.171875 12.867188 C 176.117188 12.867188 176.027344 12.867188 176.011719 12.902344 C 175.992188 12.9375 175.992188 12.972656 175.992188 13.347656 C 176.546875 13.347656 177.476562 13.242188 178.191406 12.8125 L 178.191406 22.234375 C 178.191406 22.859375 178.15625 23.074219 176.617188 23.074219 L 176.082031 23.074219 L 176.082031 23.539062 L 178.691406 23.503906 Z M 181.300781 23.539062 "/>
<path style="fill:none;stroke-width:0.716917;stroke-linecap:square;stroke-linejoin:miter;stroke:rgb(0%,0%,0%);stroke-opacity:1;stroke-miterlimit:10;" d="M 166.230469 31.160156 L 190.898438 31.160156 "/>
<path style=" stroke:none;fill-rule:evenodd;fill:rgb(0%,0%,0%);fill-opacity:1;" d="M 173.101562 47.9375 L 173.101562 47.472656 L 172.566406 47.472656 C 171.03125 47.472656 170.992188 47.277344 170.992188 46.632812 L 170.992188 36.515625 C 170.992188 36.136719 170.976562 36.121094 170.726562 36.121094 C 170.027344 36.960938 168.972656 37.226562 167.972656 37.265625 C 167.917969 37.265625 167.828125 37.265625 167.8125 37.300781 C 167.792969 37.335938 167.792969 37.371094 167.792969 37.746094 C 168.347656 37.746094 169.277344 37.640625 169.992188 37.210938 L 169.992188 46.632812 C 169.992188 47.257812 169.957031 47.472656 168.417969 47.472656 L 167.882812 47.472656 L 167.882812 47.9375 L 170.492188 47.902344 Z M 173.101562 47.9375 "/>
<path style=" stroke:none;fill-rule:evenodd;fill:rgb(0%,0%,0%);fill-opacity:1;" d="M 181.890625 45.164062 L 181.570312 45.164062 C 181.390625 46.4375 181.25 46.648438 181.175781 46.757812 C 181.085938 46.898438 179.800781 46.898438 179.550781 46.898438 L 176.117188 46.898438 L 179.53125 43.46875 C 180.621094 42.429688 181.890625 41.214844 181.890625 39.445312 C 181.890625 37.335938 180.210938 36.121094 178.335938 36.121094 C 176.367188 36.121094 175.167969 37.855469 175.167969 39.464844 C 175.167969 40.160156 175.6875 40.25 175.902344 40.25 C 176.082031 40.25 176.617188 40.144531 176.617188 39.515625 C 176.617188 38.960938 176.152344 38.800781 175.902344 38.800781 C 175.796875 38.800781 175.6875 38.820312 175.617188 38.855469 C 175.957031 37.335938 176.992188 36.585938 178.085938 36.585938 C 179.640625 36.585938 180.65625 37.820312 180.65625 39.445312 C 180.65625 41 179.746094 42.339844 178.726562 43.503906 L 175.167969 47.527344 L 175.167969 47.9375 L 181.460938 47.9375 Z M 181.890625 45.164062 "/>
<path style=" stroke:none;fill-rule:evenodd;fill:rgb(0%,0%,0%);fill-opacity:1;" d="M 190.144531 42.199219 C 190.144531 41.109375 190.128906 39.246094 189.375 37.820312 C 188.714844 36.566406 187.660156 36.121094 186.730469 36.121094 C 185.871094 36.121094 184.78125 36.515625 184.101562 37.800781 C 183.386719 39.140625 183.316406 40.804688 183.316406 42.199219 C 183.316406 43.21875 183.332031 44.773438 183.886719 46.132812 C 184.65625 47.972656 186.03125 48.222656 186.730469 48.222656 C 187.550781 48.222656 188.804688 47.882812 189.535156 46.1875 C 190.074219 44.953125 190.144531 43.503906 190.144531 42.199219 Z M 189 42.003906 C 189 43.164062 189 44.59375 188.785156 45.648438 C 188.410156 47.597656 187.355469 47.9375 186.730469 47.9375 C 185.585938 47.9375 184.90625 46.953125 184.65625 45.59375 C 184.460938 44.542969 184.460938 43.003906 184.460938 42.003906 C 184.460938 40.625 184.460938 39.480469 184.691406 38.390625 C 185.03125 36.871094 186.03125 36.40625 186.730469 36.40625 C 187.464844 36.40625 188.410156 36.890625 188.75 38.355469 C 188.980469 39.371094 189 40.570312 189 42.003906 Z M 189 42.003906 "/>
<path style=" stroke:none;fill-rule:evenodd;fill:rgb(0%,0%,0%);fill-opacity:1;" d="M 204.511719 65.886719 C 204.511719 66.484375 204.273438 67.054688 203.851562 67.476562 C 203.429688 67.898438 202.859375 68.136719 202.261719 68.136719 C 201.664062 68.136719 201.09375 67.898438 200.671875 67.476562 C 200.25 67.054688 200.011719 66.484375 200.011719 65.886719 C 200.011719 65.289062 200.25 64.71875 200.671875 64.296875 C 201.09375 63.875 201.664062 63.636719 202.261719 63.636719 C 202.859375 63.636719 203.429688 63.875 203.851562 64.296875 C 204.273438 64.71875 204.511719 65.289062 204.511719 65.886719 Z M 204.511719 65.886719 "/>
<path style=" stroke:none;fill-rule:evenodd;fill:rgb(0%,0%,0%);fill-opacity:1;" d="M 205.660156 50.390625 C 205.660156 49.300781 205.644531 47.441406 204.890625 46.011719 C 204.230469 44.761719 203.175781 44.3125 202.246094 44.3125 C 201.386719 44.3125 200.296875 44.707031 199.617188 45.992188 C 198.902344 47.335938 198.832031 48.996094 198.832031 50.390625 C 198.832031 51.410156 198.847656 52.964844 199.402344 54.324219 C 200.171875 56.164062 201.546875 56.414062 202.246094 56.414062 C 203.070312 56.414062 204.320312 56.074219 205.050781 54.378906 C 205.589844 53.144531 205.660156 51.695312 205.660156 50.390625 Z M 204.515625 50.195312 C 204.515625 51.355469 204.515625 52.785156 204.300781 53.839844 C 203.925781 55.789062 202.871094 56.128906 202.246094 56.128906 C 201.101562 56.128906 200.421875 55.144531 200.171875 53.789062 C 199.976562 52.734375 199.976562 51.195312 199.976562 50.195312 C 199.976562 48.820312 199.976562 47.671875 200.207031 46.582031 C 200.546875 45.0625 201.546875 44.597656 202.246094 44.597656 C 202.980469 44.597656 203.925781 45.082031 204.265625 46.546875 C 204.496094 47.566406 204.515625 48.765625 204.515625 50.195312 Z M 204.515625 50.195312 "/>
<path style=" stroke:none;fill-rule:evenodd;fill:rgb(0%,0%,0%);fill-opacity:1;" d="M 228.207031 73.300781 C 228.207031 73.898438 227.96875 74.46875 227.546875 74.890625 C 227.125 75.3125 226.554688 75.550781 225.957031 75.550781 C 225.359375 75.550781 224.789062 75.3125 224.367188 74.890625 C 223.945312 74.46875 223.707031 73.898438 223.707031 73.300781 C 223.707031 72.703125 223.945312 72.132812 224.367188 71.707031 C 224.789062 71.285156 225.359375 71.050781 225.957031 71.050781 C 226.554688 71.050781 227.125 71.285156 227.546875 71.707031 C 227.96875 72.132812 228.207031 72.703125 228.207031 73.300781 Z M 228.207031 73.300781 "/>
<path style=" stroke:none;fill-rule:evenodd;fill:rgb(0%,0%,0%);fill-opacity:1;" d="M 217.867188 46.367188 C 217.867188 46.007812 217.527344 46.007812 217.277344 46.007812 L 207.53125 46.007812 C 207.28125 46.007812 206.941406 46.007812 206.941406 46.367188 C 206.941406 46.726562 207.28125 46.726562 207.53125 46.726562 L 217.277344 46.726562 C 217.527344 46.726562 217.867188 46.726562 217.867188 46.367188 Z M 217.867188 46.367188 "/>
<path style=" stroke:none;fill-rule:evenodd;fill:rgb(0%,0%,0%);fill-opacity:1;" d="M 235.722656 38.738281 L 235.722656 38.273438 L 235.1875 38.273438 C 233.648438 38.273438 233.613281 38.078125 233.613281 37.433594 L 233.613281 27.3125 C 233.613281 26.9375 233.597656 26.917969 233.34375 26.917969 C 232.648438 27.757812 231.59375 28.027344 230.589844 28.0625 C 230.539062 28.0625 230.449219 28.0625 230.429688 28.097656 C 230.414062 28.132812 230.414062 28.171875 230.414062 28.546875 C 230.964844 28.546875 231.894531 28.4375 232.613281 28.007812 L 232.613281 37.433594 C 232.613281 38.058594 232.574219 38.273438 231.039062 38.273438 L 230.503906 38.273438 L 230.503906 38.738281 L 233.113281 38.703125 Z M 235.722656 38.738281 "/>
<path style="fill:none;stroke-width:0.716986;stroke-linecap:square;stroke-linejoin:miter;stroke:rgb(0%,0%,0%);stroke-opacity:1;stroke-miterlimit:10;" d="M 220.597656 46.355469 L 245.269531 46.355469 "/>
<path style=" stroke:none;fill-rule:evenodd;fill:rgb(0%,0%,0%);fill-opacity:1;" d="M 227.421875 63.136719 L 227.421875 62.671875 L 226.886719 62.671875 C 225.347656 62.671875 225.3125 62.476562 225.3125 61.832031 L 225.3125 51.710938 C 225.3125 51.335938 225.296875 51.316406 225.042969 51.316406 C 224.347656 52.160156 223.292969 52.425781 222.292969 52.460938 C 222.238281 52.460938 222.148438 52.460938 222.128906 52.496094 C 222.113281 52.535156 222.113281 52.570312 222.113281 52.945312 C 222.667969 52.945312 223.597656 52.835938 224.3125 52.410156 L 224.3125 61.832031 C 224.3125 62.457031 224.277344 62.671875 222.738281 62.671875 L 222.203125 62.671875 L 222.203125 63.136719 L 224.8125 63.101562 Z M 227.421875 63.136719 "/>
<path style=" stroke:none;fill-rule:evenodd;fill:rgb(0%,0%,0%);fill-opacity:1;" d="M 236.3125 60.363281 L 235.992188 60.363281 C 235.8125 61.636719 235.667969 61.847656 235.597656 61.957031 C 235.507812 62.097656 234.222656 62.097656 233.972656 62.097656 L 230.539062 62.097656 L 233.953125 58.667969 C 235.042969 57.628906 236.3125 56.414062 236.3125 54.644531 C 236.3125 52.535156 234.632812 51.316406 232.753906 51.316406 C 230.789062 51.316406 229.589844 53.050781 229.589844 54.660156 C 229.589844 55.359375 230.109375 55.449219 230.324219 55.449219 C 230.503906 55.449219 231.039062 55.339844 231.039062 54.714844 C 231.039062 54.160156 230.574219 54 230.324219 54 C 230.214844 54 230.109375 54.019531 230.035156 54.054688 C 230.378906 52.535156 231.414062 51.78125 232.503906 51.78125 C 234.058594 51.78125 235.078125 53.015625 235.078125 54.644531 C 235.078125 56.199219 234.167969 57.539062 233.148438 58.703125 L 229.589844 62.726562 L 229.589844 63.136719 L 235.882812 63.136719 Z M 236.3125 60.363281 "/>
<path style=" stroke:none;fill-rule:evenodd;fill:rgb(0%,0%,0%);fill-opacity:1;" d="M 244.566406 59.472656 C 244.566406 57.238281 243.117188 55.609375 241.292969 55.609375 C 240.203125 55.609375 239.398438 56.324219 238.953125 57.574219 L 238.953125 56.96875 C 238.953125 52.695312 240.953125 51.730469 242.117188 51.730469 C 242.492188 51.730469 243.402344 51.800781 243.761719 52.496094 C 243.476562 52.496094 242.9375 52.496094 242.9375 53.125 C 242.9375 53.605469 243.332031 53.769531 243.582031 53.769531 C 243.742188 53.769531 244.226562 53.695312 244.226562 53.089844 C 244.226562 51.960938 243.332031 51.316406 242.097656 51.316406 C 239.972656 51.316406 237.738281 53.535156 237.738281 57.488281 C 237.738281 62.347656 239.757812 63.421875 241.1875 63.421875 C 242.921875 63.421875 244.566406 61.867188 244.566406 59.472656 Z M 243.351562 59.453125 C 243.351562 60.417969 243.351562 61.132812 242.976562 61.847656 C 242.582031 62.582031 242.007812 62.992188 241.1875 62.992188 C 238.988281 62.992188 238.988281 59.703125 238.988281 59.042969 C 238.988281 57.753906 239.597656 55.894531 241.257812 55.894531 C 241.5625 55.894531 242.4375 55.894531 243.027344 57.128906 C 243.351562 57.824219 243.351562 58.558594 243.351562 59.453125 Z M 243.351562 59.453125 "/>
<path style=" stroke:none;fill-rule:evenodd;fill:rgb(0%,0%,0%);fill-opacity:1;" d="M 251.902344 65.886719 C 251.902344 66.484375 251.664062 67.054688 251.242188 67.476562 C 250.820312 67.898438 250.25 68.136719 249.652344 68.136719 C 249.054688 68.136719 248.484375 67.898438 248.0625 67.476562 C 247.640625 67.054688 247.402344 66.484375 247.402344 65.886719 C 247.402344 65.289062 247.640625 64.71875 248.0625 64.296875 C 248.484375 63.875 249.054688 63.636719 249.652344 63.636719 C 250.25 63.636719 250.820312 63.875 251.242188 64.296875 C 251.664062 64.71875 251.902344 65.289062 251.902344 65.886719 Z M 251.902344 65.886719 "/>
<path style=" stroke:none;fill-rule:evenodd;fill:rgb(0%,0%,0%);fill-opacity:1;" d="M 253.050781 50.390625 C 253.050781 49.300781 253.035156 47.441406 252.28125 46.011719 C 251.621094 44.761719 250.566406 44.3125 249.636719 44.3125 C 248.777344 44.3125 247.6875 44.707031 247.007812 45.992188 C 246.292969 47.335938 246.222656 48.996094 246.222656 50.390625 C 246.222656 51.410156 246.238281 52.964844 246.792969 54.324219 C 247.5625 56.164062 248.9375 56.414062 249.636719 56.414062 C 250.460938 56.414062 251.710938 56.074219 252.441406 54.378906 C 252.980469 53.144531 253.050781 51.695312 253.050781 50.390625 Z M 251.90625 50.195312 C 251.90625 51.355469 251.90625 52.785156 251.691406 53.839844 C 251.316406 55.789062 250.261719 56.128906 249.636719 56.128906 C 248.492188 56.128906 247.8125 55.144531 247.5625 53.789062 C 247.367188 52.734375 247.367188 51.195312 247.367188 50.195312 C 247.367188 48.820312 247.367188 47.671875 247.597656 46.582031 C 247.9375 45.0625 248.9375 44.597656 249.636719 44.597656 C 250.371094 44.597656 251.316406 45.082031 251.65625 46.546875 C 251.886719 47.566406 251.90625 48.765625 251.90625 50.195312 Z M 251.90625 50.195312 "/>
<path style=" stroke:none;fill-rule:evenodd;fill:rgb(0%,0%,0%);fill-opacity:1;" d="M 275.597656 50.316406 C 275.597656 50.914062 275.359375 51.488281 274.9375 51.910156 C 274.515625 52.332031 273.945312 52.566406 273.347656 52.566406 C 272.75 52.566406 272.179688 52.332031 271.757812 51.910156 C 271.335938 51.488281 271.097656 50.914062 271.097656 50.316406 C 271.097656 49.722656 271.335938 49.148438 271.757812 48.726562 C 272.179688 48.304688 272.75 48.066406 273.347656 48.066406 C 273.945312 48.066406 274.515625 48.304688 274.9375 48.726562 C 275.359375 49.148438 275.597656 49.722656 275.597656 50.316406 Z M 275.597656 50.316406 "/>
<path style=" stroke:none;fill-rule:evenodd;fill:rgb(0%,0%,0%);fill-opacity:1;" d="M 276.097656 15.753906 L 276.097656 15.289062 L 275.5625 15.289062 C 274.023438 15.289062 273.988281 15.09375 273.988281 14.449219 L 273.988281 4.332031 C 273.988281 3.953125 273.972656 3.9375 273.71875 3.9375 C 273.023438 4.777344 271.96875 5.046875 270.96875 5.082031 C 270.914062 5.082031 270.824219 5.082031 270.804688 5.117188 C 270.789062 5.152344 270.789062 5.1875 270.789062 5.5625 C 271.34375 5.5625 272.273438 5.457031 272.988281 5.027344 L 272.988281 14.449219 C 272.988281 15.074219 272.953125 15.289062 271.414062 15.289062 L 270.878906 15.289062 L 270.878906 15.753906 L 273.488281 15.71875 Z M 276.097656 15.753906 "/>
<path style="fill:none;stroke-width:0.716986;stroke-linecap:square;stroke-linejoin:miter;stroke:rgb(0%,0%,0%);stroke-opacity:1;stroke-miterlimit:10;" d="M 265.125 23.375 L 281.574219 23.375 "/>
<path style=" stroke:none;fill-rule:evenodd;fill:rgb(0%,0%,0%);fill-opacity:1;" d="M 272.640625 36.488281 C 272.640625 34.253906 271.195312 32.628906 269.371094 32.628906 C 268.28125 32.628906 267.476562 33.34375 267.027344 34.59375 L 267.027344 33.988281 C 267.027344 29.714844 269.03125 28.746094 270.195312 28.746094 C 270.570312 28.746094 271.480469 28.820312 271.835938 29.515625 C 271.550781 29.515625 271.015625 29.515625 271.015625 30.144531 C 271.015625 30.625 271.410156 30.785156 271.660156 30.785156 C 271.820312 30.785156 272.304688 30.714844 272.304688 30.105469 C 272.304688 28.980469 271.410156 28.335938 270.175781 28.335938 C 268.046875 28.335938 265.8125 30.554688 265.8125 34.503906 C 265.8125 39.367188 267.832031 40.441406 269.261719 40.441406 C 271 40.441406 272.640625 38.886719 272.640625 36.488281 Z M 271.425781 36.472656 C 271.425781 37.4375 271.425781 38.152344 271.050781 38.867188 C 270.65625 39.601562 270.085938 40.011719 269.261719 40.011719 C 267.0625 40.011719 267.0625 36.722656 267.0625 36.058594 C 267.0625 34.773438 267.671875 32.914062 269.335938 32.914062 C 269.640625 32.914062 270.515625 32.914062 271.105469 34.148438 C 271.425781 34.84375 271.425781 35.578125 271.425781 36.472656 Z M 271.425781 36.472656 "/>
<path style=" stroke:none;fill-rule:evenodd;fill:rgb(0%,0%,0%);fill-opacity:1;" d="M 280.839844 34.417969 C 280.839844 33.324219 280.824219 31.464844 280.074219 30.035156 C 279.410156 28.785156 278.355469 28.335938 277.425781 28.335938 C 276.566406 28.335938 275.476562 28.730469 274.796875 30.015625 C 274.085938 31.359375 274.011719 33.019531 274.011719 34.417969 C 274.011719 35.433594 274.03125 36.988281 274.585938 38.347656 C 275.351562 40.191406 276.730469 40.441406 277.425781 40.441406 C 278.25 40.441406 279.5 40.101562 280.234375 38.402344 C 280.769531 37.167969 280.839844 35.722656 280.839844 34.417969 Z M 279.699219 34.21875 C 279.699219 35.382812 279.699219 36.8125 279.484375 37.867188 C 279.105469 39.816406 278.050781 40.15625 277.425781 40.15625 C 276.28125 40.15625 275.601562 39.171875 275.351562 37.8125 C 275.15625 36.757812 275.15625 35.222656 275.15625 34.21875 C 275.15625 32.84375 275.15625 31.699219 275.390625 30.605469 C 275.726562 29.085938 276.730469 28.621094 277.425781 28.621094 C 278.160156 28.621094 279.105469 29.105469 279.449219 30.570312 C 279.679688 31.589844 279.699219 32.789062 279.699219 34.21875 Z M 279.699219 34.21875 "/>
<path style=" stroke:none;fill-rule:evenodd;fill:rgb(0%,0%,0%);fill-opacity:1;" d="M 299.292969 65.886719 C 299.292969 66.484375 299.054688 67.054688 298.632812 67.476562 C 298.210938 67.898438 297.640625 68.136719 297.042969 68.136719 C 296.445312 68.136719 295.875 67.898438 295.453125 67.476562 C 295.03125 67.054688 294.792969 66.484375 294.792969 65.886719 C 294.792969 65.289062 295.03125 64.71875 295.453125 64.296875 C 295.875 63.875 296.445312 63.636719 297.042969 63.636719 C 297.640625 63.636719 298.210938 63.875 298.632812 64.296875 C 299.054688 64.71875 299.292969 65.289062 299.292969 65.886719 Z M 299.292969 65.886719 "/>
<path style=" stroke:none;fill-rule:evenodd;fill:rgb(0%,0%,0%);fill-opacity:1;" d="M 300.441406 50.390625 C 300.441406 49.300781 300.425781 47.441406 299.671875 46.011719 C 299.011719 44.761719 297.957031 44.3125 297.027344 44.3125 C 296.167969 44.3125 295.078125 44.707031 294.398438 45.992188 C 293.683594 47.335938 293.613281 48.996094 293.613281 50.390625 C 293.613281 51.410156 293.628906 52.964844 294.183594 54.324219 C 294.953125 56.164062 296.328125 56.414062 297.027344 56.414062 C 297.851562 56.414062 299.101562 56.074219 299.832031 54.378906 C 300.371094 53.144531 300.441406 51.695312 300.441406 50.390625 Z M 299.296875 50.195312 C 299.296875 51.355469 299.296875 52.785156 299.082031 53.839844 C 298.707031 55.789062 297.652344 56.128906 297.027344 56.128906 C 295.882812 56.128906 295.203125 55.144531 294.953125 53.789062 C 294.757812 52.734375 294.757812 51.195312 294.757812 50.195312 C 294.757812 48.820312 294.757812 47.671875 294.988281 46.582031 C 295.328125 45.0625 296.328125 44.597656 297.027344 44.597656 C 297.761719 44.597656 298.707031 45.082031 299.046875 46.546875 C 299.277344 47.566406 299.296875 48.765625 299.296875 50.195312 Z M 299.296875 50.195312 "/>
</g>
</svg>
