<?xml version="1.0" encoding="UTF-8"?>
<svg xmlns="http://www.w3.org/2000/svg" xmlns:xlink="http://www.w3.org/1999/xlink" width="400pt" height="260pt" viewBox="0 0 400 260" version="1.1">
<defs>
<clipPath id="clip1">
  <path d="M 381 0.480469 L 382 0.480469 L 382 204 L 381 204 Z M 381 0.480469 "/>
</clipPath>
<clipPath id="clip2">
  <path d="M 104.160156 75 L 395 75 L 395 76 L 104.160156 76 Z M 104.160156 75 "/>
</clipPath>
<clipPath id="clip3">
  <path d="M 104.160156 47 L 358 47 L 358 204 L 104.160156 204 Z M 104.160156 47 "/>
</clipPath>
<clipPath id="clip4">
  <path d="M 104.160156 0.480469 L 393 0.480469 L 393 198 L 104.160156 198 Z M 104.160156 0.480469 "/>
</clipPath>
<clipPath id="clip5">
  <path d="M 389 0.480469 L 395.039062 0.480469 L 395.039062 204 L 389 204 Z M 389 0.480469 "/>
</clipPath>
<clipPath id="clip6">
  <path d="M 104.160156 53 L 395.039062 53 L 395.039062 204 L 104.160156 204 Z M 104.160156 53 "/>
</clipPath>
<clipPath id="clip7">
  <path d="M 120.71875 115 L 140.878906 115 L 140.878906 118 L 120.71875 118 Z M 120.71875 115 "/>
</clipPath>
<clipPath id="clip8">
  <path d="M 120.71875 148 L 140.878906 148 L 140.878906 151 L 120.71875 151 Z M 120.71875 148 "/>
</clipPath>
<clipPath id="clip9">
  <path d="M 120.71875 181 L 140.878906 181 L 140.878906 184 L 120.71875 184 Z M 120.71875 181 "/>
</clipPath>
</defs>
<g id="surface71">
<rect x="0" y="0" width="400" height="260" style="fill:rgb(100%,100%,100%);fill-opacity:1;stroke:none;"/>
<g clip-path="url(#clip1)" clip-rule="nonzero">
<path style="fill:none;stroke-width:0.2;stroke-linecap:butt;stroke-linejoin:miter;stroke:rgb(50.000763%,50.000763%,50.000763%);stroke-opacity:0.4;stroke-miterlimit:3.25;" d="M 381.269531 203.976562 L 381.269531 0.5 "/>
</g>
<g clip-path="url(#clip2)" clip-rule="nonzero">
<path style="fill:none;stroke-width:0.2;stroke-linecap:butt;stroke-linejoin:miter;stroke:rgb(50.000763%,50.000763%,50.000763%);stroke-opacity:0.4;stroke-miterlimit:3.25;" d="M 104.171875 75.464844 L 394.851562 75.464844 "/>
</g>
<g clip-path="url(#clip3)" clip-rule="nonzero">
<path style="fill:none;stroke-width:1.744094;stroke-linecap:butt;stroke-linejoin:miter;stroke:rgb(90.000763%,36.00061%,5.400168%);stroke-opacity:1;stroke-miterlimit:3.25;" d="M 109.601562 75.464844 L 112.320312 79.304688 L 115.035156 82.675781 L 117.753906 85.554688 L 120.46875 87.917969 L 123.1875 89.757812 L 125.902344 91.082031 L 128.621094 91.910156 L 131.335938 92.261719 L 134.054688 92.175781 L 136.769531 91.691406 L 139.488281 90.851562 L 142.203125 89.703125 L 144.917969 88.300781 L 147.636719 86.6875 L 150.351562 84.925781 L 153.070312 83.054688 L 155.785156 81.128906 L 158.503906 79.195312 L 161.21875 77.292969 L 163.9375 75.464844 L 166.652344 73.742188 L 169.371094 72.160156 L 172.085938 70.738281 L 174.804688 69.5 L 177.519531 68.464844 L 180.238281 67.640625 L 182.953125 67.035156 L 185.667969 66.652344 L 188.386719 66.488281 L 191.101562 66.539062 L 193.820312 66.796875 L 196.535156 67.246094 L 199.253906 67.875 L 201.96875 68.660156 L 204.6875 69.582031 L 207.402344 70.621094 L 210.121094 71.753906 L 212.835938 72.957031 L 215.554688 74.203125 L 218.269531 75.464844 L 220.984375 76.722656 L 223.703125 77.945312 L 226.417969 79.113281 L 229.136719 80.199219 L 231.851562 81.1875 L 234.570312 82.054688 L 237.285156 82.777344 L 240.003906 83.347656 L 242.71875 83.746094 L 245.4375 83.964844 L 248.152344 83.992188 L 250.871094 83.816406 L 253.585938 83.445312 L 256.304688 82.867188 L 259.019531 82.085938 L 261.734375 81.113281 L 264.453125 79.949219 L 267.167969 78.609375 L 269.886719 77.109375 L 272.601562 75.464844 L 275.320312 73.699219 L 278.035156 71.832031 L 280.753906 69.898438 L 283.46875 67.925781 L 286.1875 65.953125 L 288.902344 64.019531 L 291.621094 62.167969 L 294.335938 60.445312 L 297.050781 58.910156 L 299.769531 57.617188 L 302.484375 56.628906 L 305.203125 56.015625 L 307.917969 55.855469 L 310.636719 56.226562 L 313.351562 57.222656 L 316.070312 58.945312 L 318.785156 61.5 L 321.503906 65.015625 L 324.21875 69.621094 L 326.9375 75.464844 L 329.652344 82.722656 L 332.371094 91.578125 L 335.085938 102.25 L 337.800781 114.980469 L 340.519531 130.050781 L 343.234375 147.785156 L 345.953125 168.558594 L 348.667969 192.816406 L 349.742188 203.976562 "/>
</g>
<g clip-path="url(#clip4)" clip-rule="nonzero">
<path style="fill:none;stroke-width:1.744094;stroke-linecap:butt;stroke-linejoin:miter;stroke:rgb(36.525521%,42.780194%,75.829709%);stroke-opacity:1;stroke-miterlimit:3.25;" d="M 109.601562 75.464844 L 112.320312 78.570312 L 115.035156 81.296875 L 117.753906 83.625 L 120.46875 85.535156 L 123.1875 87.023438 L 125.902344 88.09375 L 128.621094 88.761719 L 131.335938 89.046875 L 134.054688 88.976562 L 136.769531 88.585938 L 139.488281 87.90625 L 142.203125 86.976562 L 144.917969 85.839844 L 147.636719 84.539062 L 150.351562 83.109375 L 153.070312 81.601562 L 155.785156 80.042969 L 158.503906 78.480469 L 161.21875 76.945312 L 163.9375 75.464844 L 166.652344 74.074219 L 169.371094 72.792969 L 172.085938 71.644531 L 174.804688 70.648438 L 177.519531 69.8125 L 180.238281 69.148438 L 182.953125 68.660156 L 185.667969 68.351562 L 188.386719 68.222656 L 191.101562 68.265625 L 193.820312 68.472656 L 196.535156 68.835938 L 199.253906 69.34375 L 201.96875 69.976562 L 204.6875 70.722656 L 207.402344 71.5625 L 210.121094 72.476562 L 212.835938 73.445312 L 215.554688 74.449219 L 218.269531 75.464844 L 220.984375 76.476562 L 223.703125 77.457031 L 226.417969 78.394531 L 229.136719 79.265625 L 231.851562 80.058594 L 234.570312 80.746094 L 237.285156 81.324219 L 240.003906 81.777344 L 242.71875 82.089844 L 245.4375 82.257812 L 248.152344 82.273438 L 250.871094 82.128906 L 253.585938 81.820312 L 256.304688 81.355469 L 259.019531 80.726562 L 261.734375 79.945312 L 264.453125 79.015625 L 267.167969 77.953125 L 269.886719 76.761719 L 272.601562 75.464844 L 275.320312 74.078125 L 278.035156 72.621094 L 280.753906 71.117188 L 283.46875 69.597656 L 286.1875 68.089844 L 288.902344 66.621094 L 291.621094 65.238281 L 294.335938 63.96875 L 297.050781 62.859375 L 299.769531 61.953125 L 302.484375 61.296875 L 305.203125 60.941406 L 307.917969 60.9375 L 310.636719 61.34375 L 313.351562 62.207031 L 316.070312 63.59375 L 318.785156 65.554688 L 321.503906 68.152344 L 324.21875 71.4375 L 326.9375 75.464844 L 329.652344 80.28125 L 332.371094 85.917969 L 335.085938 92.402344 L 337.800781 99.742188 L 340.519531 107.910156 L 343.234375 116.855469 L 345.953125 126.484375 L 348.667969 136.644531 L 351.386719 147.113281 L 354.101562 157.570312 L 356.820312 167.589844 L 359.535156 176.601562 L 362.253906 183.855469 L 364.96875 188.410156 L 367.6875 189.074219 L 370.402344 184.398438 L 373.117188 172.664062 L 375.835938 151.925781 L 378.550781 120.132812 L 381.269531 75.464844 L 383.984375 17.019531 L 384.621094 0.5 "/>
</g>
<g clip-path="url(#clip5)" clip-rule="nonzero">
<path style="fill:none;stroke-width:1.744094;stroke-linecap:butt;stroke-linejoin:miter;stroke:rgb(36.525521%,42.780194%,75.829709%);stroke-opacity:1;stroke-miterlimit:3.25;" d="M 397.648438 0.5 L 398.484375 203.976562 "/>
</g>
<g clip-path="url(#clip6)" clip-rule="nonzero">
<path style="fill:none;stroke-width:1.744094;stroke-linecap:butt;stroke-linejoin:miter;stroke:rgb(94.51133%,59.389639%,0%);stroke-opacity:1;stroke-miterlimit:3.25;" d="M 109.601562 75.464844 L 112.320312 76.648438 L 115.035156 77.6875 L 117.753906 78.578125 L 120.46875 79.304688 L 123.1875 79.871094 L 125.902344 80.277344 L 128.621094 80.53125 L 131.335938 80.640625 L 134.054688 80.613281 L 136.769531 80.460938 L 139.488281 80.203125 L 142.203125 79.847656 L 144.917969 79.414062 L 147.636719 78.917969 L 150.351562 78.375 L 153.070312 77.796875 L 155.785156 77.207031 L 158.503906 76.609375 L 161.21875 76.027344 L 163.9375 75.464844 L 166.652344 74.9375 L 169.371094 74.453125 L 172.085938 74.015625 L 174.804688 73.640625 L 177.519531 73.324219 L 180.238281 73.074219 L 182.953125 72.890625 L 185.667969 72.777344 L 188.386719 72.730469 L 191.101562 72.746094 L 193.820312 72.828125 L 196.535156 72.96875 L 199.253906 73.160156 L 201.96875 73.402344 L 204.6875 73.683594 L 207.402344 74.003906 L 210.121094 74.347656 L 212.835938 74.710938 L 215.554688 75.085938 L 218.269531 75.464844 L 220.984375 75.839844 L 223.703125 76.207031 L 226.417969 76.550781 L 229.136719 76.871094 L 231.851562 77.160156 L 234.570312 77.410156 L 237.285156 77.613281 L 240.003906 77.773438 L 242.71875 77.882812 L 245.4375 77.933594 L 248.152344 77.929688 L 250.871094 77.867188 L 253.585938 77.746094 L 256.304688 77.570312 L 259.019531 77.335938 L 261.734375 77.050781 L 264.453125 76.714844 L 267.167969 76.332031 L 269.886719 75.914062 L 272.601562 75.464844 L 275.320312 74.992188 L 278.035156 74.503906 L 280.753906 74.007812 L 283.46875 73.515625 L 286.1875 73.042969 L 288.902344 72.59375 L 291.621094 72.1875 L 294.335938 71.828125 L 297.050781 71.539062 L 299.769531 71.324219 L 302.484375 71.199219 L 305.203125 71.175781 L 307.917969 71.265625 L 310.636719 71.472656 L 313.351562 71.8125 L 316.070312 72.28125 L 318.785156 72.886719 L 321.503906 73.625 L 324.21875 74.488281 L 326.9375 75.464844 L 329.652344 76.535156 L 332.371094 77.671875 L 335.085938 78.839844 L 337.800781 79.992188 L 340.519531 81.074219 L 343.234375 82.011719 L 345.953125 82.730469 L 348.667969 83.136719 L 351.386719 83.128906 L 354.101562 82.605469 L 356.820312 81.464844 L 359.535156 79.621094 L 362.253906 77.039062 L 364.96875 73.75 L 367.6875 69.925781 L 370.402344 65.957031 L 373.117188 62.605469 L 375.835938 61.242188 L 378.550781 64.207031 L 381.269531 75.464844 L 383.984375 101.6875 L 386.703125 154.238281 L 388.070312 203.976562 "/>
</g>
<g clip-path="url(#clip7)" clip-rule="nonzero">
<path style="fill:none;stroke-width:1.949458;stroke-linecap:butt;stroke-linejoin:miter;stroke:rgb(90.000763%,36.00061%,5.400168%);stroke-opacity:1;stroke-miterlimit:3.25;" d="M 121.78125 116.425781 L 139.832031 116.425781 "/>
</g>
<path style=" stroke:none;fill-rule:evenodd;fill:rgb(0%,0%,0%);fill-opacity:1;" d="M 156.386719 117.617188 C 156.386719 117.527344 156.316406 117.457031 156.210938 117.457031 C 156.050781 117.457031 156.03125 117.546875 155.976562 117.6875 C 155.496094 119.261719 154.457031 119.996094 153.652344 119.996094 C 153.027344 119.996094 152.6875 119.53125 152.6875 118.796875 C 152.6875 118.402344 152.757812 118.117188 153.046875 116.9375 L 153.671875 114.503906 C 153.9375 113.433594 154.546875 112.644531 155.371094 112.644531 C 155.371094 112.644531 155.90625 112.644531 156.28125 112.878906 C 155.707031 112.988281 155.496094 113.414062 155.496094 113.753906 C 155.496094 114.183594 155.832031 114.328125 156.082031 114.328125 C 156.621094 114.328125 156.996094 113.863281 156.996094 113.378906 C 156.996094 112.628906 156.136719 112.289062 155.386719 112.289062 C 154.296875 112.289062 153.6875 113.363281 153.527344 113.699219 C 153.117188 112.359375 152.007812 112.289062 151.6875 112.289062 C 149.863281 112.289062 148.898438 114.628906 148.898438 115.023438 C 148.898438 115.097656 148.96875 115.183594 149.09375 115.183594 C 149.234375 115.183594 149.273438 115.078125 149.308594 115.007812 C 149.914062 113.023438 151.113281 112.644531 151.632812 112.644531 C 152.4375 112.644531 152.597656 113.398438 152.597656 113.828125 C 152.597656 114.21875 152.492188 114.628906 152.277344 115.488281 L 151.667969 117.941406 C 151.398438 119.011719 150.882812 119.996094 149.933594 119.996094 C 149.84375 119.996094 149.398438 119.996094 149.023438 119.761719 C 149.664062 119.636719 149.808594 119.101562 149.808594 118.886719 C 149.808594 118.527344 149.539062 118.316406 149.203125 118.316406 C 148.773438 118.316406 148.304688 118.6875 148.304688 119.261719 C 148.304688 120.011719 149.148438 120.351562 149.914062 120.351562 C 150.773438 120.351562 151.382812 119.671875 151.757812 118.9375 C 152.042969 119.996094 152.9375 120.351562 153.601562 120.351562 C 155.421875 120.351562 156.386719 118.011719 156.386719 117.617188 Z M 156.386719 117.617188 "/>
<path style=" stroke:none;fill-rule:evenodd;fill:rgb(0%,0%,0%);fill-opacity:1;" d="M 174.839844 114.128906 C 174.839844 113.808594 174.535156 113.808594 174.230469 113.808594 L 164.234375 113.808594 C 163.933594 113.808594 163.628906 113.808594 163.628906 114.128906 C 163.628906 114.433594 163.894531 114.433594 164.164062 114.433594 L 174.300781 114.433594 C 174.570312 114.433594 174.839844 114.433594 174.839844 114.128906 Z M 174.839844 117.296875 C 174.839844 116.992188 174.570312 116.992188 174.300781 116.992188 L 164.164062 116.992188 C 163.894531 116.992188 163.628906 116.992188 163.628906 117.296875 C 163.628906 117.617188 163.933594 117.617188 164.234375 117.617188 L 174.230469 117.617188 C 174.535156 117.617188 174.839844 117.617188 174.839844 117.296875 Z M 174.839844 117.296875 "/>
<path style=" stroke:none;fill-rule:evenodd;fill:rgb(0%,0%,0%);fill-opacity:1;" d="M 188.113281 114.433594 C 188.113281 113.34375 188.09375 111.484375 187.34375 110.054688 C 186.683594 108.800781 185.628906 108.355469 184.699219 108.355469 C 183.839844 108.355469 182.75 108.75 182.070312 110.035156 C 181.355469 111.378906 181.285156 113.039062 181.285156 114.433594 C 181.285156 115.453125 181.300781 117.007812 181.855469 118.367188 C 182.625 120.210938 184 120.460938 184.699219 120.460938 C 185.519531 120.460938 186.773438 120.121094 187.503906 118.421875 C 188.042969 117.1875 188.113281 115.738281 188.113281 114.433594 Z M 186.96875 114.238281 C 186.96875 115.402344 186.96875 116.832031 186.753906 117.886719 C 186.378906 119.835938 185.324219 120.171875 184.699219 120.171875 C 183.554688 120.171875 182.875 119.191406 182.625 117.832031 C 182.425781 116.777344 182.425781 115.238281 182.425781 114.238281 C 182.425781 112.863281 182.425781 111.714844 182.660156 110.625 C 183 109.105469 184 108.640625 184.699219 108.640625 C 185.429688 108.640625 186.378906 109.125 186.71875 110.589844 C 186.949219 111.609375 186.96875 112.808594 186.96875 114.238281 Z M 186.96875 114.238281 "/>
<g clip-path="url(#clip8)" clip-rule="nonzero">
<path style="fill:none;stroke-width:1.949458;stroke-linecap:butt;stroke-linejoin:miter;stroke:rgb(36.525521%,42.780194%,75.829709%);stroke-opacity:1;stroke-miterlimit:3.25;" d="M 121.78125 149.535156 L 139.832031 149.535156 "/>
</g>
<path style=" stroke:none;fill-rule:evenodd;fill:rgb(0%,0%,0%);fill-opacity:1;" d="M 156.390625 150.730469 C 156.390625 150.640625 156.316406 150.570312 156.210938 150.570312 C 156.050781 150.570312 156.03125 150.65625 155.976562 150.800781 C 155.496094 152.375 154.457031 153.109375 153.652344 153.109375 C 153.027344 153.109375 152.6875 152.640625 152.6875 151.910156 C 152.6875 151.515625 152.757812 151.230469 153.046875 150.050781 L 153.671875 147.617188 C 153.9375 146.546875 154.546875 145.757812 155.371094 145.757812 C 155.371094 145.757812 155.90625 145.757812 156.28125 145.992188 C 155.710938 146.097656 155.496094 146.527344 155.496094 146.867188 C 155.496094 147.296875 155.835938 147.4375 156.085938 147.4375 C 156.621094 147.4375 156.996094 146.972656 156.996094 146.492188 C 156.996094 145.742188 156.140625 145.398438 155.386719 145.398438 C 154.296875 145.398438 153.6875 146.472656 153.527344 146.8125 C 153.117188 145.472656 152.007812 145.398438 151.6875 145.398438 C 149.863281 145.398438 148.898438 147.742188 148.898438 148.136719 C 148.898438 148.207031 148.96875 148.296875 149.09375 148.296875 C 149.234375 148.296875 149.273438 148.191406 149.308594 148.117188 C 149.914062 146.132812 151.113281 145.757812 151.632812 145.757812 C 152.4375 145.757812 152.597656 146.507812 152.597656 146.9375 C 152.597656 147.332031 152.492188 147.742188 152.277344 148.601562 L 151.667969 151.050781 C 151.398438 152.125 150.882812 153.109375 149.933594 153.109375 C 149.84375 153.109375 149.398438 153.109375 149.023438 152.875 C 149.664062 152.75 149.808594 152.210938 149.808594 152 C 149.808594 151.640625 149.539062 151.425781 149.203125 151.425781 C 148.773438 151.425781 148.304688 151.800781 148.304688 152.375 C 148.304688 153.125 149.148438 153.464844 149.914062 153.464844 C 150.773438 153.464844 151.382812 152.785156 151.757812 152.050781 C 152.042969 153.109375 152.9375 153.464844 153.601562 153.464844 C 155.421875 153.464844 156.390625 151.121094 156.390625 150.730469 Z M 156.390625 150.730469 "/>
<path style=" stroke:none;fill-rule:evenodd;fill:rgb(0%,0%,0%);fill-opacity:1;" d="M 174.839844 147.242188 C 174.839844 146.921875 174.535156 146.921875 174.230469 146.921875 L 164.234375 146.921875 C 163.933594 146.921875 163.628906 146.921875 163.628906 147.242188 C 163.628906 147.546875 163.898438 147.546875 164.164062 147.546875 L 174.300781 147.546875 C 174.570312 147.546875 174.839844 147.546875 174.839844 147.242188 Z M 174.839844 150.40625 C 174.839844 150.101562 174.570312 150.101562 174.300781 150.101562 L 164.164062 150.101562 C 163.898438 150.101562 163.628906 150.101562 163.628906 150.40625 C 163.628906 150.730469 163.933594 150.730469 164.234375 150.730469 L 174.230469 150.730469 C 174.535156 150.730469 174.839844 150.730469 174.839844 150.40625 Z M 174.839844 150.40625 "/>
<path style=" stroke:none;fill-rule:evenodd;fill:rgb(0%,0%,0%);fill-opacity:1;" d="M 188.113281 147.546875 C 188.113281 146.457031 188.097656 144.59375 187.347656 143.164062 C 186.683594 141.914062 185.628906 141.46875 184.699219 141.46875 C 183.839844 141.46875 182.75 141.859375 182.070312 143.148438 C 181.355469 144.488281 181.285156 146.152344 181.285156 147.546875 C 181.285156 148.566406 181.300781 150.121094 181.855469 151.480469 C 182.625 153.320312 184.003906 153.570312 184.699219 153.570312 C 185.523438 153.570312 186.773438 153.234375 187.507812 151.535156 C 188.042969 150.300781 188.113281 148.851562 188.113281 147.546875 Z M 186.972656 147.351562 C 186.972656 148.511719 186.972656 149.941406 186.757812 150.996094 C 186.378906 152.945312 185.324219 153.285156 184.699219 153.285156 C 183.554688 153.285156 182.875 152.304688 182.625 150.945312 C 182.429688 149.890625 182.429688 148.351562 182.429688 147.351562 C 182.429688 145.972656 182.429688 144.828125 182.660156 143.738281 C 183 142.21875 184.003906 141.753906 184.699219 141.753906 C 185.433594 141.753906 186.378906 142.234375 186.722656 143.703125 C 186.953125 144.71875 186.972656 145.917969 186.972656 147.351562 Z M 186.972656 147.351562 "/>
<path style=" stroke:none;fill-rule:evenodd;fill:rgb(0%,0%,0%);fill-opacity:1;" d="M 192.195312 152.429688 C 192.195312 151.910156 191.765625 151.550781 191.335938 151.550781 C 190.816406 151.550781 190.460938 151.980469 190.460938 152.410156 C 190.460938 152.929688 190.890625 153.285156 191.320312 153.285156 C 191.839844 153.285156 192.195312 152.855469 192.195312 152.429688 Z M 192.195312 152.429688 "/>
<path style=" stroke:none;fill-rule:evenodd;fill:rgb(0%,0%,0%);fill-opacity:1;" d="M 200.570312 153.285156 L 200.570312 152.820312 L 200.035156 152.820312 C 198.496094 152.820312 198.460938 152.625 198.460938 151.980469 L 198.460938 141.859375 C 198.460938 141.484375 198.445312 141.46875 198.191406 141.46875 C 197.496094 142.308594 196.441406 142.574219 195.441406 142.609375 C 195.386719 142.609375 195.296875 142.609375 195.277344 142.648438 C 195.261719 142.683594 195.261719 142.71875 195.261719 143.09375 C 195.816406 143.09375 196.746094 142.984375 197.460938 142.558594 L 197.460938 151.980469 C 197.460938 152.605469 197.425781 152.820312 195.886719 152.820312 L 195.351562 152.820312 L 195.351562 153.285156 L 197.960938 153.25 Z M 200.570312 153.285156 "/>
<g clip-path="url(#clip9)" clip-rule="nonzero">
<path style="fill:none;stroke-width:1.949458;stroke-linecap:butt;stroke-linejoin:miter;stroke:rgb(94.51133%,59.389639%,0%);stroke-opacity:1;stroke-miterlimit:3.25;" d="M 121.78125 182.648438 L 139.832031 182.648438 "/>
</g>
<path style=" stroke:none;fill-rule:evenodd;fill:rgb(0%,0%,0%);fill-opacity:1;" d="M 156.390625 183.839844 C 156.390625 183.75 156.316406 183.679688 156.210938 183.679688 C 156.050781 183.679688 156.03125 183.769531 155.976562 183.910156 C 155.496094 185.484375 154.457031 186.21875 153.652344 186.21875 C 153.027344 186.21875 152.6875 185.753906 152.6875 185.019531 C 152.6875 184.628906 152.757812 184.339844 153.046875 183.160156 L 153.671875 180.730469 C 153.9375 179.65625 154.546875 178.871094 155.371094 178.871094 C 155.371094 178.871094 155.90625 178.871094 156.28125 179.101562 C 155.710938 179.210938 155.496094 179.636719 155.496094 179.980469 C 155.496094 180.40625 155.835938 180.550781 156.085938 180.550781 C 156.621094 180.550781 156.996094 180.085938 156.996094 179.601562 C 156.996094 178.851562 156.140625 178.511719 155.386719 178.511719 C 154.296875 178.511719 153.6875 179.585938 153.527344 179.925781 C 153.117188 178.582031 152.007812 178.511719 151.6875 178.511719 C 149.863281 178.511719 148.898438 180.855469 148.898438 181.246094 C 148.898438 181.320312 148.96875 181.410156 149.09375 181.410156 C 149.234375 181.410156 149.273438 181.300781 149.308594 181.230469 C 149.914062 179.246094 151.113281 178.871094 151.632812 178.871094 C 152.4375 178.871094 152.597656 179.621094 152.597656 180.050781 C 152.597656 180.441406 152.492188 180.855469 152.277344 181.714844 L 151.667969 184.164062 C 151.398438 185.234375 150.882812 186.21875 149.933594 186.21875 C 149.84375 186.21875 149.398438 186.21875 149.023438 185.988281 C 149.664062 185.863281 149.808594 185.324219 149.808594 185.109375 C 149.808594 184.753906 149.539062 184.539062 149.203125 184.539062 C 148.773438 184.539062 148.304688 184.914062 148.304688 185.484375 C 148.304688 186.238281 149.148438 186.574219 149.914062 186.574219 C 150.773438 186.574219 151.382812 185.898438 151.757812 185.164062 C 152.042969 186.21875 152.9375 186.574219 153.601562 186.574219 C 155.421875 186.574219 156.390625 184.234375 156.390625 183.839844 Z M 156.390625 183.839844 "/>
<path style=" stroke:none;fill-rule:evenodd;fill:rgb(0%,0%,0%);fill-opacity:1;" d="M 174.839844 180.355469 C 174.839844 180.03125 174.535156 180.03125 174.230469 180.03125 L 164.234375 180.03125 C 163.933594 180.03125 163.628906 180.03125 163.628906 180.355469 C 163.628906 180.660156 163.898438 180.660156 164.164062 180.660156 L 174.300781 180.660156 C 174.570312 180.660156 174.839844 180.660156 174.839844 180.355469 Z M 174.839844 183.519531 C 174.839844 183.214844 174.570312 183.214844 174.300781 183.214844 L 164.164062 183.214844 C 163.898438 183.214844 163.628906 183.214844 163.628906 183.519531 C 163.628906 183.839844 163.933594 183.839844 164.234375 183.839844 L 174.230469 183.839844 C 174.535156 183.839844 174.839844 183.839844 174.839844 183.519531 Z M 174.839844 183.519531 "/>
<path style=" stroke:none;fill-rule:evenodd;fill:rgb(0%,0%,0%);fill-opacity:1;" d="M 188.113281 180.660156 C 188.113281 179.566406 188.097656 177.707031 187.347656 176.277344 C 186.683594 175.027344 185.628906 174.578125 184.699219 174.578125 C 183.839844 174.578125 182.75 174.972656 182.070312 176.257812 C 181.355469 177.601562 181.285156 179.261719 181.285156 180.660156 C 181.285156 181.675781 181.300781 183.230469 181.855469 184.589844 C 182.625 186.433594 184.003906 186.683594 184.699219 186.683594 C 185.523438 186.683594 186.773438 186.34375 187.507812 184.644531 C 188.042969 183.410156 188.113281 181.964844 188.113281 180.660156 Z M 186.972656 180.460938 C 186.972656 181.625 186.972656 183.054688 186.757812 184.109375 C 186.378906 186.058594 185.324219 186.398438 184.699219 186.398438 C 183.554688 186.398438 182.875 185.414062 182.625 184.054688 C 182.429688 183 182.429688 181.464844 182.429688 180.460938 C 182.429688 179.085938 182.429688 177.941406 182.660156 176.847656 C 183 175.328125 184.003906 174.863281 184.699219 174.863281 C 185.433594 174.863281 186.378906 175.347656 186.722656 176.8125 C 186.953125 177.832031 186.972656 179.03125 186.972656 180.460938 Z M 186.972656 180.460938 "/>
<path style=" stroke:none;fill-rule:evenodd;fill:rgb(0%,0%,0%);fill-opacity:1;" d="M 192.195312 185.539062 C 192.195312 185.019531 191.765625 184.664062 191.335938 184.664062 C 190.816406 184.664062 190.460938 185.09375 190.460938 185.519531 C 190.460938 186.039062 190.890625 186.398438 191.320312 186.398438 C 191.839844 186.398438 192.195312 185.96875 192.195312 185.539062 Z M 192.195312 185.539062 "/>
<path style=" stroke:none;fill-rule:evenodd;fill:rgb(0%,0%,0%);fill-opacity:1;" d="M 201.160156 183.625 L 200.839844 183.625 C 200.660156 184.894531 200.515625 185.109375 200.445312 185.21875 C 200.355469 185.359375 199.070312 185.359375 198.820312 185.359375 L 195.386719 185.359375 L 198.800781 181.925781 C 199.890625 180.890625 201.160156 179.675781 201.160156 177.902344 C 201.160156 175.792969 199.480469 174.578125 197.601562 174.578125 C 195.636719 174.578125 194.4375 176.3125 194.4375 177.921875 C 194.4375 178.621094 194.957031 178.707031 195.171875 178.707031 C 195.351562 178.707031 195.886719 178.601562 195.886719 177.976562 C 195.886719 177.421875 195.421875 177.261719 195.171875 177.261719 C 195.066406 177.261719 194.957031 177.277344 194.886719 177.316406 C 195.226562 175.792969 196.261719 175.042969 197.351562 175.042969 C 198.90625 175.042969 199.925781 176.277344 199.925781 177.902344 C 199.925781 179.460938 199.015625 180.800781 197.996094 181.964844 L 194.4375 185.988281 L 194.4375 186.398438 L 200.730469 186.398438 Z M 201.160156 183.625 "/>
<path style="fill:none;stroke-width:0.5;stroke-linecap:square;stroke-linejoin:miter;stroke:rgb(40%,40%,40%);stroke-opacity:1;stroke-miterlimit:3.25;" d="M 394.851562 203.976562 L 104.171875 203.976562 "/>
<path style="fill:none;stroke-width:0.5;stroke-linecap:square;stroke-linejoin:miter;stroke:rgb(40%,40%,40%);stroke-opacity:1;stroke-miterlimit:3.25;" d="M 104.171875 203.976562 L 104.171875 0.5 "/>
<path style="fill:none;stroke-width:0.5;stroke-linecap:square;stroke-linejoin:miter;stroke:rgb(40%,40%,40%);stroke-opacity:1;stroke-miterlimit:3.25;" d="M 104.171875 0.5 L 394.851562 0.5 "/>
<path style="fill:none;stroke-width:0.5;stroke-linecap:square;stroke-linejoin:miter;stroke:rgb(40%,40%,40%);stroke-opacity:1;stroke-miterlimit:3.25;" d="M 394.851562 0.5 L 394.851562 203.976562 "/>
<path style="fill:none;stroke-width:0.5;stroke-linecap:butt;stroke-linejoin:miter;stroke:rgb(40%,40%,40%);stroke-opacity:1;stroke-miterlimit:3.25;" d="M 109.601562 203.976562 L 109.601562 200.328125 "/>
<path style=" stroke:none;fill-rule:evenodd;fill:rgb(0%,0%,0%);fill-opacity:1;" d="M 106.816406 218.515625 C 106.816406 218.160156 106.476562 218.160156 106.226562 218.160156 L 96.480469 218.160156 C 96.230469 218.160156 95.894531 218.160156 95.894531 218.515625 C 95.894531 218.875 96.230469 218.875 96.480469 218.875 L 106.226562 218.875 C 106.476562 218.875 106.816406 218.875 106.816406 218.515625 Z M 106.816406 218.515625 "/>
<path style=" stroke:none;fill-rule:evenodd;fill:rgb(0%,0%,0%);fill-opacity:1;" d="M 115.171875 222.988281 L 115.171875 222.523438 L 114.636719 222.523438 C 113.101562 222.523438 113.066406 222.328125 113.066406 221.683594 L 113.066406 211.5625 C 113.066406 211.1875 113.046875 211.167969 112.796875 211.167969 C 112.097656 212.007812 111.042969 212.277344 110.042969 212.3125 C 109.988281 212.3125 109.898438 212.3125 109.882812 212.347656 C 109.863281 212.382812 109.863281 212.421875 109.863281 212.796875 C 110.417969 212.796875 111.347656 212.6875 112.0625 212.257812 L 112.0625 221.683594 C 112.0625 222.308594 112.027344 222.523438 110.488281 222.523438 L 109.953125 222.523438 L 109.953125 222.988281 L 112.566406 222.953125 Z M 115.171875 222.988281 "/>
<path style=" stroke:none;fill-rule:evenodd;fill:rgb(0%,0%,0%);fill-opacity:1;" d="M 124.117188 217.25 C 124.117188 216.15625 124.101562 214.296875 123.347656 212.867188 C 122.6875 211.617188 121.632812 211.167969 120.703125 211.167969 C 119.84375 211.167969 118.753906 211.5625 118.074219 212.847656 C 117.359375 214.191406 117.289062 215.851562 117.289062 217.25 C 117.289062 218.265625 117.304688 219.820312 117.859375 221.179688 C 118.628906 223.023438 120.003906 223.273438 120.703125 223.273438 C 121.523438 223.273438 122.777344 222.933594 123.507812 221.234375 C 124.046875 220 124.117188 218.554688 124.117188 217.25 Z M 122.972656 217.050781 C 122.972656 218.214844 122.972656 219.644531 122.757812 220.699219 C 122.382812 222.648438 121.328125 222.988281 120.703125 222.988281 C 119.558594 222.988281 118.878906 222.003906 118.628906 220.644531 C 118.429688 219.589844 118.429688 218.054688 118.429688 217.050781 C 118.429688 215.675781 118.429688 214.53125 118.664062 213.4375 C 119.003906 211.917969 120.003906 211.453125 120.703125 211.453125 C 121.4375 211.453125 122.382812 211.9375 122.722656 213.402344 C 122.953125 214.421875 122.972656 215.621094 122.972656 217.050781 Z M 122.972656 217.050781 "/>
<path style="fill:none;stroke-width:0.5;stroke-linecap:butt;stroke-linejoin:miter;stroke:rgb(40%,40%,40%);stroke-opacity:1;stroke-miterlimit:3.25;" d="M 163.9375 203.976562 L 163.9375 200.328125 "/>
<path style=" stroke:none;fill-rule:evenodd;fill:rgb(0%,0%,0%);fill-opacity:1;" d="M 165.261719 218.515625 C 165.261719 218.15625 164.921875 218.15625 164.671875 218.15625 L 154.925781 218.15625 C 154.675781 218.15625 154.339844 218.15625 154.339844 218.515625 C 154.339844 218.871094 154.675781 218.871094 154.925781 218.871094 L 164.671875 218.871094 C 164.921875 218.871094 165.261719 218.871094 165.261719 218.515625 Z M 165.261719 218.515625 "/>
<path style=" stroke:none;fill-rule:evenodd;fill:rgb(0%,0%,0%);fill-opacity:1;" d="M 174.347656 220.070312 C 174.347656 218.441406 173.257812 217.691406 172.542969 217.210938 C 172.292969 217.03125 172.148438 216.941406 171.613281 216.546875 C 172.738281 215.976562 173.882812 215.117188 173.882812 213.742188 C 173.882812 212.113281 172.308594 211.167969 170.863281 211.167969 C 169.234375 211.167969 167.804688 212.347656 167.804688 213.972656 C 167.804688 214.421875 167.914062 215.191406 168.609375 215.867188 C 168.789062 216.046875 169.539062 216.582031 170.023438 216.925781 C 169.21875 217.335938 167.339844 218.316406 167.339844 220.285156 C 167.339844 222.125 169.09375 223.269531 170.828125 223.269531 C 172.738281 223.269531 174.347656 221.894531 174.347656 220.070312 Z M 173.277344 213.742188 C 173.277344 215.40625 171.417969 216.351562 171.328125 216.351562 C 171.328125 216.351562 171.292969 216.351562 171.148438 216.246094 L 169.273438 214.976562 C 169.128906 214.886719 168.414062 214.332031 168.414062 213.492188 C 168.414062 212.402344 169.539062 211.578125 170.828125 211.578125 C 172.238281 211.578125 173.277344 212.582031 173.277344 213.742188 Z M 173.6875 220.515625 C 173.6875 221.839844 172.363281 222.839844 170.863281 222.839844 C 169.234375 222.839844 168.003906 221.679688 168.003906 220.265625 C 168.003906 218.855469 169.09375 217.675781 170.328125 217.121094 L 172.558594 218.640625 C 172.828125 218.835938 173.6875 219.425781 173.6875 220.515625 Z M 173.6875 220.515625 "/>
<path style="fill:none;stroke-width:0.5;stroke-linecap:butt;stroke-linejoin:miter;stroke:rgb(40%,40%,40%);stroke-opacity:1;stroke-miterlimit:3.25;" d="M 218.269531 203.976562 L 218.269531 200.328125 "/>
<path style=" stroke:none;fill-rule:evenodd;fill:rgb(0%,0%,0%);fill-opacity:1;" d="M 219.59375 218.515625 C 219.59375 218.15625 219.253906 218.15625 219.003906 218.15625 L 209.261719 218.15625 C 209.011719 218.15625 208.671875 218.15625 208.671875 218.515625 C 208.671875 218.871094 209.011719 218.871094 209.261719 218.871094 L 219.003906 218.871094 C 219.253906 218.871094 219.59375 218.871094 219.59375 218.515625 Z M 219.59375 218.515625 "/>
<path style=" stroke:none;fill-rule:evenodd;fill:rgb(0%,0%,0%);fill-opacity:1;" d="M 228.589844 219.320312 C 228.589844 217.085938 227.144531 215.457031 225.320312 215.457031 C 224.230469 215.457031 223.425781 216.171875 222.980469 217.425781 L 222.980469 216.816406 C 222.980469 212.542969 224.980469 211.578125 226.144531 211.578125 C 226.519531 211.578125 227.429688 211.652344 227.789062 212.347656 C 227.5 212.347656 226.964844 212.347656 226.964844 212.972656 C 226.964844 213.457031 227.359375 213.617188 227.609375 213.617188 C 227.769531 213.617188 228.253906 213.546875 228.253906 212.9375 C 228.253906 211.8125 227.359375 211.167969 226.125 211.167969 C 223.996094 211.167969 221.761719 213.382812 221.761719 217.335938 C 221.761719 222.195312 223.785156 223.269531 225.210938 223.269531 C 226.949219 223.269531 228.589844 221.714844 228.589844 219.320312 Z M 227.375 219.300781 C 227.375 220.265625 227.375 220.980469 227 221.695312 C 226.609375 222.429688 226.035156 222.839844 225.210938 222.839844 C 223.015625 222.839844 223.015625 219.550781 223.015625 218.890625 C 223.015625 217.601562 223.621094 215.742188 225.285156 215.742188 C 225.589844 215.742188 226.464844 215.742188 227.054688 216.976562 C 227.375 217.675781 227.375 218.40625 227.375 219.300781 Z M 227.375 219.300781 "/>
<path style="fill:none;stroke-width:0.5;stroke-linecap:butt;stroke-linejoin:miter;stroke:rgb(40%,40%,40%);stroke-opacity:1;stroke-miterlimit:3.25;" d="M 272.601562 203.976562 L 272.601562 200.328125 "/>
<path style=" stroke:none;fill-rule:evenodd;fill:rgb(0%,0%,0%);fill-opacity:1;" d="M 273.925781 218.515625 C 273.925781 218.15625 273.585938 218.15625 273.335938 218.15625 L 263.59375 218.15625 C 263.34375 218.15625 263.003906 218.15625 263.003906 218.515625 C 263.003906 218.871094 263.34375 218.871094 263.59375 218.871094 L 273.335938 218.871094 C 273.585938 218.871094 273.925781 218.871094 273.925781 218.515625 Z M 273.925781 218.515625 "/>
<path style=" stroke:none;fill-rule:evenodd;fill:rgb(0%,0%,0%);fill-opacity:1;" d="M 283.246094 219.945312 L 283.246094 219.480469 L 281.421875 219.480469 L 281.421875 211.417969 C 281.421875 211.042969 281.40625 211.023438 281.085938 211.023438 L 275.773438 219.480469 L 275.773438 219.945312 L 280.386719 219.945312 L 280.386719 221.695312 C 280.386719 222.339844 280.351562 222.519531 279.097656 222.519531 L 278.761719 222.519531 L 278.761719 222.984375 C 279.332031 222.949219 280.296875 222.949219 280.90625 222.949219 C 281.511719 222.949219 282.476562 222.949219 283.050781 222.984375 L 283.050781 222.519531 L 282.710938 222.519531 C 281.460938 222.519531 281.421875 222.339844 281.421875 221.695312 L 281.421875 219.945312 Z M 280.441406 219.480469 L 276.132812 219.480469 L 280.441406 212.597656 Z M 280.441406 219.480469 "/>
<path style="fill:none;stroke-width:0.5;stroke-linecap:butt;stroke-linejoin:miter;stroke:rgb(40%,40%,40%);stroke-opacity:1;stroke-miterlimit:3.25;" d="M 326.9375 203.976562 L 326.9375 200.328125 "/>
<path style=" stroke:none;fill-rule:evenodd;fill:rgb(0%,0%,0%);fill-opacity:1;" d="M 328.261719 218.515625 C 328.261719 218.15625 327.917969 218.15625 327.667969 218.15625 L 317.925781 218.15625 C 317.675781 218.15625 317.335938 218.15625 317.335938 218.515625 C 317.335938 218.871094 317.675781 218.871094 317.925781 218.871094 L 327.667969 218.871094 C 327.917969 218.871094 328.261719 218.871094 328.261719 218.515625 Z M 328.261719 218.515625 "/>
<path style=" stroke:none;fill-rule:evenodd;fill:rgb(0%,0%,0%);fill-opacity:1;" d="M 337.203125 220.210938 L 336.882812 220.210938 C 336.703125 221.484375 336.5625 221.695312 336.488281 221.804688 C 336.402344 221.945312 335.113281 221.945312 334.863281 221.945312 L 331.429688 221.945312 L 334.84375 218.515625 C 335.933594 217.476562 337.203125 216.261719 337.203125 214.492188 C 337.203125 212.382812 335.523438 211.167969 333.648438 211.167969 C 331.679688 211.167969 330.484375 212.902344 330.484375 214.511719 C 330.484375 215.207031 331 215.296875 331.214844 215.296875 C 331.394531 215.296875 331.929688 215.191406 331.929688 214.5625 C 331.929688 214.007812 331.46875 213.847656 331.214844 213.847656 C 331.109375 213.847656 331 213.867188 330.929688 213.902344 C 331.269531 212.382812 332.304688 211.632812 333.398438 211.632812 C 334.953125 211.632812 335.972656 212.867188 335.972656 214.492188 C 335.972656 216.046875 335.058594 217.386719 334.039062 218.550781 L 330.484375 222.574219 L 330.484375 222.984375 L 336.773438 222.984375 Z M 337.203125 220.210938 "/>
<path style="fill:none;stroke-width:0.5;stroke-linecap:butt;stroke-linejoin:miter;stroke:rgb(40%,40%,40%);stroke-opacity:1;stroke-miterlimit:3.25;" d="M 381.269531 203.976562 L 381.269531 200.328125 "/>
<path style=" stroke:none;fill-rule:evenodd;fill:rgb(0%,0%,0%);fill-opacity:1;" d="M 384.667969 217.246094 C 384.667969 216.15625 384.648438 214.292969 383.898438 212.867188 C 383.238281 211.613281 382.183594 211.167969 381.253906 211.167969 C 380.394531 211.167969 379.304688 211.5625 378.625 212.847656 C 377.910156 214.1875 377.839844 215.851562 377.839844 217.246094 C 377.839844 218.265625 377.855469 219.816406 378.410156 221.175781 C 379.179688 223.019531 380.554688 223.269531 381.253906 223.269531 C 382.074219 223.269531 383.328125 222.929688 384.058594 221.230469 C 384.597656 219.996094 384.667969 218.550781 384.667969 217.246094 Z M 383.523438 217.046875 C 383.523438 218.210938 383.523438 219.640625 383.308594 220.695312 C 382.933594 222.644531 381.878906 222.984375 381.253906 222.984375 C 380.109375 222.984375 379.429688 222 379.179688 220.640625 C 378.984375 219.585938 378.984375 218.050781 378.984375 217.046875 C 378.984375 215.671875 378.984375 214.527344 379.214844 213.4375 C 379.554688 211.917969 380.554688 211.453125 381.253906 211.453125 C 381.988281 211.453125 382.933594 211.9375 383.273438 213.402344 C 383.503906 214.417969 383.523438 215.617188 383.523438 217.046875 Z M 383.523438 217.046875 "/>
<path style="fill:none;stroke-width:0.5;stroke-linecap:butt;stroke-linejoin:miter;stroke:rgb(40%,40%,40%);stroke-opacity:1;stroke-miterlimit:3.25;" d="M 104.171875 182.558594 L 107.816406 182.558594 "/>
<path style=" stroke:none;fill-rule:evenodd;fill:rgb(0%,0%,0%);fill-opacity:1;" d="M 69.089844 182.34375 C 69.089844 181.984375 68.75 181.984375 68.5 181.984375 L 58.753906 181.984375 C 58.503906 181.984375 58.164062 181.984375 58.164062 182.34375 C 58.164062 182.703125 58.503906 182.703125 58.753906 182.703125 L 68.5 182.703125 C 68.75 182.703125 69.089844 182.703125 69.089844 182.34375 Z M 69.089844 182.34375 "/>
<path style=" stroke:none;fill-rule:evenodd;fill:rgb(0%,0%,0%);fill-opacity:1;" d="M 78.089844 181.074219 C 78.089844 179.984375 78.070312 178.125 77.320312 176.695312 C 76.660156 175.441406 75.605469 174.996094 74.675781 174.996094 C 73.816406 174.996094 72.726562 175.390625 72.046875 176.675781 C 71.332031 178.015625 71.257812 179.679688 71.257812 181.074219 C 71.257812 182.09375 71.277344 183.648438 71.832031 185.007812 C 72.601562 186.851562 73.976562 187.101562 74.675781 187.101562 C 75.496094 187.101562 76.75 186.761719 77.480469 185.0625 C 78.019531 183.828125 78.089844 182.378906 78.089844 181.074219 Z M 76.945312 180.878906 C 76.945312 182.039062 76.945312 183.46875 76.730469 184.523438 C 76.355469 186.476562 75.300781 186.8125 74.675781 186.8125 C 73.53125 186.8125 72.851562 185.832031 72.601562 184.472656 C 72.402344 183.417969 72.402344 181.878906 72.402344 180.878906 C 72.402344 179.5 72.402344 178.355469 72.636719 177.265625 C 72.976562 175.746094 73.976562 175.28125 74.675781 175.28125 C 75.40625 175.28125 76.355469 175.765625 76.695312 177.230469 C 76.925781 178.25 76.945312 179.445312 76.945312 180.878906 Z M 76.945312 180.878906 "/>
<path style=" stroke:none;fill-rule:evenodd;fill:rgb(0%,0%,0%);fill-opacity:1;" d="M 82.171875 185.957031 C 82.171875 185.4375 81.742188 185.078125 81.3125 185.078125 C 80.792969 185.078125 80.4375 185.507812 80.4375 185.9375 C 80.4375 186.457031 80.863281 186.8125 81.292969 186.8125 C 81.8125 186.8125 82.171875 186.382812 82.171875 185.957031 Z M 82.171875 185.957031 "/>
<path style=" stroke:none;fill-rule:evenodd;fill:rgb(0%,0%,0%);fill-opacity:1;" d="M 90.546875 186.8125 L 90.546875 186.347656 L 90.007812 186.347656 C 88.472656 186.347656 88.4375 186.152344 88.4375 185.507812 L 88.4375 175.390625 C 88.4375 175.011719 88.417969 174.996094 88.167969 174.996094 C 87.46875 175.835938 86.414062 176.101562 85.414062 176.140625 C 85.359375 176.140625 85.269531 176.140625 85.253906 176.175781 C 85.234375 176.210938 85.234375 176.246094 85.234375 176.621094 C 85.789062 176.621094 86.71875 176.515625 87.433594 176.085938 L 87.433594 185.507812 C 87.433594 186.132812 87.398438 186.347656 85.859375 186.347656 L 85.324219 186.347656 L 85.324219 186.8125 L 87.9375 186.777344 Z M 90.546875 186.8125 "/>
<path style=" stroke:none;fill-rule:evenodd;fill:rgb(0%,0%,0%);fill-opacity:1;" d="M 99.488281 181.074219 C 99.488281 179.984375 99.472656 178.125 98.71875 176.695312 C 98.058594 175.441406 97.003906 174.996094 96.074219 174.996094 C 95.214844 174.996094 94.125 175.390625 93.445312 176.675781 C 92.730469 178.015625 92.660156 179.679688 92.660156 181.074219 C 92.660156 182.09375 92.675781 183.648438 93.230469 185.007812 C 94 186.851562 95.375 187.101562 96.074219 187.101562 C 96.898438 187.101562 98.148438 186.761719 98.882812 185.0625 C 99.417969 183.828125 99.488281 182.378906 99.488281 181.074219 Z M 98.34375 180.878906 C 98.34375 182.039062 98.34375 183.46875 98.132812 184.523438 C 97.753906 186.476562 96.699219 186.8125 96.074219 186.8125 C 94.929688 186.8125 94.25 185.832031 94 184.472656 C 93.804688 183.417969 93.804688 181.878906 93.804688 180.878906 C 93.804688 179.5 93.804688 178.355469 94.035156 177.265625 C 94.375 175.746094 95.375 175.28125 96.074219 175.28125 C 96.808594 175.28125 97.753906 175.765625 98.09375 177.230469 C 98.328125 178.25 98.34375 179.445312 98.34375 180.878906 Z M 98.34375 180.878906 "/>
<path style="fill:none;stroke-width:0.5;stroke-linecap:butt;stroke-linejoin:miter;stroke:rgb(40%,40%,40%);stroke-opacity:1;stroke-miterlimit:3.25;" d="M 104.171875 129.011719 L 107.816406 129.011719 "/>
<path style=" stroke:none;fill-rule:evenodd;fill:rgb(0%,0%,0%);fill-opacity:1;" d="M 69.089844 128.796875 C 69.089844 128.4375 68.75 128.4375 68.5 128.4375 L 58.753906 128.4375 C 58.503906 128.4375 58.164062 128.4375 58.164062 128.796875 C 58.164062 129.15625 58.503906 129.15625 58.753906 129.15625 L 68.5 129.15625 C 68.75 129.15625 69.089844 129.15625 69.089844 128.796875 Z M 69.089844 128.796875 "/>
<path style=" stroke:none;fill-rule:evenodd;fill:rgb(0%,0%,0%);fill-opacity:1;" d="M 78.089844 127.527344 C 78.089844 126.4375 78.070312 124.578125 77.320312 123.148438 C 76.660156 121.894531 75.605469 121.449219 74.675781 121.449219 C 73.816406 121.449219 72.726562 121.84375 72.046875 123.128906 C 71.332031 124.46875 71.257812 126.132812 71.257812 127.527344 C 71.257812 128.546875 71.277344 130.101562 71.832031 131.460938 C 72.601562 133.304688 73.976562 133.554688 74.675781 133.554688 C 75.496094 133.554688 76.75 133.214844 77.480469 131.515625 C 78.019531 130.28125 78.089844 128.832031 78.089844 127.527344 Z M 76.945312 127.332031 C 76.945312 128.492188 76.945312 129.921875 76.730469 130.976562 C 76.355469 132.929688 75.300781 133.265625 74.675781 133.265625 C 73.53125 133.265625 72.851562 132.285156 72.601562 130.925781 C 72.402344 129.871094 72.402344 128.332031 72.402344 127.332031 C 72.402344 125.953125 72.402344 124.808594 72.636719 123.71875 C 72.976562 122.199219 73.976562 121.734375 74.675781 121.734375 C 75.40625 121.734375 76.355469 122.21875 76.695312 123.683594 C 76.925781 124.703125 76.945312 125.898438 76.945312 127.332031 Z M 76.945312 127.332031 "/>
<path style=" stroke:none;fill-rule:evenodd;fill:rgb(0%,0%,0%);fill-opacity:1;" d="M 82.171875 132.410156 C 82.171875 131.890625 81.742188 131.53125 81.3125 131.53125 C 80.792969 131.53125 80.4375 131.960938 80.4375 132.390625 C 80.4375 132.910156 80.863281 133.265625 81.292969 133.265625 C 81.8125 133.265625 82.171875 132.835938 82.171875 132.410156 Z M 82.171875 132.410156 "/>
<path style=" stroke:none;fill-rule:evenodd;fill:rgb(0%,0%,0%);fill-opacity:1;" d="M 91.1875 127.527344 C 91.1875 126.4375 91.171875 124.578125 90.421875 123.148438 C 89.757812 121.894531 88.703125 121.449219 87.773438 121.449219 C 86.914062 121.449219 85.824219 121.84375 85.144531 123.128906 C 84.429688 124.46875 84.359375 126.132812 84.359375 127.527344 C 84.359375 128.546875 84.375 130.101562 84.929688 131.460938 C 85.699219 133.304688 87.078125 133.554688 87.773438 133.554688 C 88.597656 133.554688 89.847656 133.214844 90.582031 131.515625 C 91.117188 130.28125 91.1875 128.832031 91.1875 127.527344 Z M 90.046875 127.332031 C 90.046875 128.492188 90.046875 129.921875 89.832031 130.976562 C 89.453125 132.929688 88.398438 133.265625 87.773438 133.265625 C 86.628906 133.265625 85.949219 132.285156 85.699219 130.925781 C 85.503906 129.871094 85.503906 128.332031 85.503906 127.332031 C 85.503906 125.953125 85.503906 124.808594 85.734375 123.71875 C 86.074219 122.199219 87.078125 121.734375 87.773438 121.734375 C 88.507812 121.734375 89.453125 122.21875 89.796875 123.683594 C 90.027344 124.703125 90.046875 125.898438 90.046875 127.332031 Z M 90.046875 127.332031 "/>
<path style=" stroke:none;fill-rule:evenodd;fill:rgb(0%,0%,0%);fill-opacity:1;" d="M 99.4375 129.65625 C 99.4375 127.507812 98.039062 125.847656 96.304688 125.847656 C 95.394531 125.847656 94.625 126.1875 94.019531 126.828125 L 94.019531 122.804688 C 94.195312 122.878906 94.929688 123.109375 95.679688 123.109375 C 97.34375 123.109375 98.257812 122.21875 98.773438 121.699219 C 98.773438 121.554688 98.773438 121.464844 98.667969 121.464844 C 98.667969 121.464844 98.613281 121.464844 98.46875 121.539062 C 97.84375 121.804688 97.109375 122.019531 96.21875 122.019531 C 95.679688 122.019531 94.875 121.949219 94 121.554688 C 93.804688 121.464844 93.75 121.464844 93.75 121.464844 C 93.660156 121.464844 93.640625 121.484375 93.640625 121.84375 L 93.640625 127.027344 C 93.640625 127.347656 93.640625 127.4375 93.820312 127.4375 C 93.910156 127.4375 93.945312 127.402344 94.035156 127.277344 C 94.609375 126.472656 95.394531 126.132812 96.289062 126.132812 C 96.914062 126.132812 98.257812 126.527344 98.257812 129.585938 C 98.257812 130.15625 98.257812 131.195312 97.71875 132.015625 C 97.273438 132.75 96.574219 133.125 95.804688 133.125 C 94.625 133.125 93.429688 132.300781 93.105469 130.925781 C 93.179688 130.941406 93.320312 130.976562 93.390625 130.976562 C 93.625 130.976562 94.070312 130.851562 94.070312 130.296875 C 94.070312 129.816406 93.730469 129.617188 93.390625 129.617188 C 92.980469 129.617188 92.710938 129.871094 92.710938 130.371094 C 92.710938 131.925781 93.945312 133.554688 95.84375 133.554688 C 97.683594 133.554688 99.4375 131.960938 99.4375 129.65625 Z M 99.4375 129.65625 "/>
<path style="fill:none;stroke-width:0.5;stroke-linecap:butt;stroke-linejoin:miter;stroke:rgb(40%,40%,40%);stroke-opacity:1;stroke-miterlimit:3.25;" d="M 104.171875 75.464844 L 107.816406 75.464844 "/>
<path style=" stroke:none;fill-rule:evenodd;fill:rgb(0%,0%,0%);fill-opacity:1;" d="M 99.460938 73.980469 C 99.460938 72.890625 99.441406 71.03125 98.691406 69.601562 C 98.03125 68.351562 96.976562 67.902344 96.046875 67.902344 C 95.1875 67.902344 94.097656 68.296875 93.417969 69.582031 C 92.703125 70.925781 92.632812 72.585938 92.632812 73.980469 C 92.632812 75 92.648438 76.554688 93.203125 77.914062 C 93.972656 79.753906 95.347656 80.003906 96.046875 80.003906 C 96.867188 80.003906 98.121094 79.667969 98.851562 77.96875 C 99.390625 76.734375 99.460938 75.285156 99.460938 73.980469 Z M 98.316406 73.785156 C 98.316406 74.945312 98.316406 76.375 98.101562 77.429688 C 97.726562 79.378906 96.671875 79.71875 96.046875 79.71875 C 94.902344 79.71875 94.222656 78.738281 93.972656 77.378906 C 93.777344 76.324219 93.777344 74.785156 93.777344 73.785156 C 93.777344 72.410156 93.777344 71.265625 94.007812 70.171875 C 94.347656 68.652344 95.347656 68.191406 96.046875 68.191406 C 96.78125 68.191406 97.726562 68.671875 98.066406 70.136719 C 98.296875 71.15625 98.316406 72.355469 98.316406 73.785156 Z M 98.316406 73.785156 "/>
<path style="fill:none;stroke-width:0.5;stroke-linecap:butt;stroke-linejoin:miter;stroke:rgb(40%,40%,40%);stroke-opacity:1;stroke-miterlimit:3.25;" d="M 104.171875 21.917969 L 107.816406 21.917969 "/>
<path style=" stroke:none;fill-rule:evenodd;fill:rgb(0%,0%,0%);fill-opacity:1;" d="M 78.136719 20.433594 C 78.136719 19.34375 78.121094 17.484375 77.367188 16.054688 C 76.707031 14.800781 75.652344 14.355469 74.722656 14.355469 C 73.863281 14.355469 72.773438 14.75 72.09375 16.035156 C 71.378906 17.375 71.308594 19.039062 71.308594 20.433594 C 71.308594 21.453125 71.324219 23.007812 71.878906 24.367188 C 72.648438 26.210938 74.023438 26.460938 74.722656 26.460938 C 75.546875 26.460938 76.796875 26.121094 77.53125 24.421875 C 78.066406 23.1875 78.136719 21.738281 78.136719 20.433594 Z M 76.992188 20.238281 C 76.992188 21.398438 76.992188 22.828125 76.78125 23.886719 C 76.402344 25.835938 75.347656 26.175781 74.722656 26.175781 C 73.578125 26.175781 72.898438 25.191406 72.648438 23.832031 C 72.453125 22.777344 72.453125 21.238281 72.453125 20.238281 C 72.453125 18.859375 72.453125 17.714844 72.683594 16.625 C 73.023438 15.105469 74.023438 14.640625 74.722656 14.640625 C 75.457031 14.640625 76.402344 15.125 76.742188 16.589844 C 76.976562 17.609375 76.992188 18.804688 76.992188 20.238281 Z M 76.992188 20.238281 "/>
<path style=" stroke:none;fill-rule:evenodd;fill:rgb(0%,0%,0%);fill-opacity:1;" d="M 82.121094 25.316406 C 82.121094 24.796875 81.6875 24.441406 81.261719 24.441406 C 80.742188 24.441406 80.382812 24.871094 80.382812 25.296875 C 80.382812 25.816406 80.8125 26.175781 81.242188 26.175781 C 81.761719 26.175781 82.121094 25.746094 82.121094 25.316406 Z M 82.121094 25.316406 "/>
<path style=" stroke:none;fill-rule:evenodd;fill:rgb(0%,0%,0%);fill-opacity:1;" d="M 91.238281 20.433594 C 91.238281 19.34375 91.222656 17.484375 90.46875 16.054688 C 89.808594 14.800781 88.753906 14.355469 87.824219 14.355469 C 86.964844 14.355469 85.875 14.75 85.195312 16.035156 C 84.480469 17.375 84.410156 19.039062 84.410156 20.433594 C 84.410156 21.453125 84.425781 23.007812 84.980469 24.367188 C 85.75 26.210938 87.125 26.460938 87.824219 26.460938 C 88.644531 26.460938 89.898438 26.121094 90.628906 24.421875 C 91.167969 23.1875 91.238281 21.738281 91.238281 20.433594 Z M 90.09375 20.238281 C 90.09375 21.398438 90.09375 22.828125 89.878906 23.886719 C 89.503906 25.835938 88.449219 26.175781 87.824219 26.175781 C 86.679688 26.175781 86 25.191406 85.75 23.832031 C 85.550781 22.777344 85.550781 21.238281 85.550781 20.238281 C 85.550781 18.859375 85.550781 17.714844 85.785156 16.625 C 86.125 15.105469 87.125 14.640625 87.824219 14.640625 C 88.558594 14.640625 89.503906 15.125 89.84375 16.589844 C 90.074219 17.609375 90.09375 18.804688 90.09375 20.238281 Z M 90.09375 20.238281 "/>
<path style=" stroke:none;fill-rule:evenodd;fill:rgb(0%,0%,0%);fill-opacity:1;" d="M 99.386719 22.5625 C 99.386719 20.414062 97.992188 18.753906 96.257812 18.753906 C 95.34375 18.753906 94.578125 19.09375 93.96875 19.734375 L 93.96875 15.710938 C 94.148438 15.785156 94.878906 16.015625 95.632812 16.015625 C 97.292969 16.015625 98.207031 15.125 98.726562 14.605469 C 98.726562 14.460938 98.726562 14.371094 98.617188 14.371094 C 98.617188 14.371094 98.5625 14.371094 98.421875 14.445312 C 97.796875 14.710938 97.0625 14.925781 96.167969 14.925781 C 95.632812 14.925781 94.828125 14.855469 93.949219 14.460938 C 93.753906 14.371094 93.699219 14.371094 93.699219 14.371094 C 93.609375 14.371094 93.59375 14.390625 93.59375 14.75 L 93.59375 19.933594 C 93.59375 20.253906 93.59375 20.34375 93.773438 20.34375 C 93.859375 20.34375 93.898438 20.308594 93.984375 20.183594 C 94.558594 19.378906 95.34375 19.039062 96.238281 19.039062 C 96.863281 19.039062 98.207031 19.433594 98.207031 22.492188 C 98.207031 23.0625 98.207031 24.101562 97.667969 24.921875 C 97.222656 25.65625 96.523438 26.03125 95.757812 26.03125 C 94.578125 26.03125 93.378906 25.207031 93.054688 23.832031 C 93.128906 23.847656 93.269531 23.886719 93.34375 23.886719 C 93.574219 23.886719 94.023438 23.761719 94.023438 23.203125 C 94.023438 22.722656 93.679688 22.523438 93.34375 22.523438 C 92.929688 22.523438 92.664062 22.777344 92.664062 23.277344 C 92.664062 24.832031 93.898438 26.460938 95.792969 26.460938 C 97.632812 26.460938 99.386719 24.871094 99.386719 22.5625 Z M 99.386719 22.5625 "/>
<path style=" stroke:none;fill-rule:evenodd;fill:rgb(0%,0%,0%);fill-opacity:1;" d="M 253.800781 245.058594 C 253.800781 244.773438 253.570312 244.613281 253.335938 244.613281 C 252.820312 244.613281 252.695312 245.09375 252.65625 245.21875 C 251.601562 248.957031 249.152344 251.175781 246.777344 251.960938 L 248.546875 244.792969 C 248.546875 244.71875 248.492188 244.613281 248.347656 244.613281 C 248.222656 244.613281 246.542969 244.773438 246.273438 244.792969 C 246.078125 244.808594 245.898438 244.828125 245.898438 245.148438 C 245.898438 245.328125 246.042969 245.328125 246.292969 245.328125 C 247.132812 245.328125 247.1875 245.453125 247.1875 245.648438 C 247.1875 245.722656 247.148438 245.933594 247.132812 246.007812 L 245.558594 252.320312 C 245.558594 252.390625 245.613281 252.496094 245.738281 252.496094 L 246.113281 252.496094 C 246.363281 252.496094 249.082031 251.855469 251.171875 249.707031 C 253.480469 247.332031 253.800781 245.128906 253.800781 245.058594 Z M 253.800781 245.058594 "/>
<path style=" stroke:none;fill-rule:evenodd;fill:rgb(0%,0%,0%);fill-opacity:1;" d="M 27.386719 120.878906 C 27.332031 120.859375 27.207031 120.824219 27.136719 120.824219 C 27.046875 120.824219 26.957031 120.894531 26.957031 121.003906 C 26.957031 121.144531 26.976562 121.164062 27.421875 121.308594 C 29.730469 122.058594 31.125 122.84375 31.125 125.957031 L 31.125 129.050781 L 20.019531 119.230469 C 19.894531 119.125 19.789062 119.035156 19.609375 119.035156 C 19.484375 119.035156 19.464844 119.054688 19.464844 119.464844 L 19.464844 126.847656 C 19.464844 127.261719 19.484375 127.277344 19.804688 127.386719 L 23.023438 128.371094 C 23.203125 128.421875 23.273438 128.421875 23.273438 128.421875 C 23.347656 128.421875 23.453125 128.371094 23.453125 128.246094 C 23.453125 128.101562 23.382812 128.066406 23.148438 127.996094 C 21.21875 127.332031 19.984375 126.457031 19.984375 123.632812 L 19.984375 120.699219 L 31.070312 130.496094 C 31.269531 130.660156 31.339844 130.730469 31.535156 130.730469 C 31.679688 130.730469 31.679688 130.640625 31.679688 130.300781 L 31.679688 122.667969 C 31.679688 122.253906 31.660156 122.238281 31.339844 122.128906 Z M 27.386719 120.878906 "/>
<path style=" stroke:none;fill-rule:evenodd;fill:rgb(0%,0%,0%);fill-opacity:1;" d="M 25.808594 118.757812 L 26.496094 118.796875 L 27.898438 118.859375 L 28.601562 118.898438 L 28.601562 118.621094 C 28.324219 118.609375 28.039062 118.558594 27.773438 118.457031 C 27.574219 118.394531 27.386719 118.308594 27.210938 118.183594 C 27.074219 118.09375 26.933594 117.980469 26.824219 117.855469 C 26.519531 117.53125 26.371094 117.117188 26.285156 116.691406 C 26.160156 116.066406 26.171875 115.425781 26.171875 114.800781 L 26.171875 113.871094 C 28.199219 115.238281 30.253906 116.566406 32.300781 117.90625 C 32.773438 118.234375 33.261719 118.546875 33.738281 118.859375 C 33.863281 118.949219 34.003906 119.074219 34.167969 119.074219 C 34.214844 119.074219 34.265625 119.074219 34.316406 119.046875 C 34.367188 119.011719 34.367188 118.949219 34.367188 118.898438 C 34.367188 118.785156 34.367188 118.683594 34.367188 118.570312 L 34.367188 111.378906 L 33.402344 111.316406 L 31.847656 111.226562 L 31.058594 111.175781 L 31.058594 111.453125 C 31.445312 111.464844 31.847656 111.515625 32.222656 111.628906 C 32.5 111.703125 32.75 111.804688 32.988281 111.953125 C 33.101562 112.027344 33.214844 112.117188 33.3125 112.21875 C 33.863281 112.792969 33.941406 113.609375 33.964844 114.359375 C 33.976562 114.535156 33.976562 114.699219 33.976562 114.875 L 33.976562 116.429688 C 33.777344 116.316406 33.589844 116.175781 33.386719 116.039062 C 32.863281 115.699219 32.347656 115.363281 31.835938 115.023438 C 30.519531 114.160156 29.203125 113.308594 27.898438 112.429688 C 27.410156 112.105469 26.933594 111.792969 26.445312 111.480469 C 26.320312 111.390625 26.171875 111.253906 26.007812 111.238281 C 25.957031 111.238281 25.90625 111.238281 25.871094 111.265625 C 25.820312 111.289062 25.808594 111.351562 25.808594 111.402344 C 25.808594 111.503906 25.808594 111.617188 25.808594 111.714844 Z M 26.171875 111.703125 L 26.699219 112.042969 L 27.75 112.746094 L 31.921875 115.488281 L 33.414062 116.464844 L 33.800781 116.730469 L 33.964844 116.855469 L 33.976562 117.167969 L 33.976562 117.882812 L 33.664062 117.683594 L 33.238281 117.40625 L 31.960938 116.566406 L 28.074219 114.011719 L 26.710938 113.105469 L 26.347656 112.871094 L 26.183594 112.730469 L 26.171875 112.417969 Z M 26.171875 111.703125 "/>
<path style=" stroke:none;fill-rule:evenodd;fill:rgb(0%,0%,0%);fill-opacity:1;" d="M 34.429688 108.105469 C 33.703125 108.105469 33.164062 108.34375 33.164062 108.855469 C 33.164062 109.257812 33.488281 109.457031 33.765625 109.457031 C 34.039062 109.457031 34.378906 109.269531 34.378906 108.84375 C 34.378906 108.683594 34.328125 108.542969 34.214844 108.433594 C 34.191406 108.40625 34.191406 108.378906 34.191406 108.378906 C 34.191406 108.378906 34.367188 108.355469 34.429688 108.355469 C 34.84375 108.355469 35.65625 108.433594 36.472656 109.160156 C 36.621094 109.296875 36.671875 109.296875 36.671875 109.296875 C 36.734375 109.296875 36.796875 109.234375 36.796875 109.171875 C 36.796875 109.070312 35.871094 108.105469 34.429688 108.105469 Z M 34.429688 108.105469 "/>
<path style=" stroke:none;fill-rule:evenodd;fill:rgb(0%,0%,0%);fill-opacity:1;" d="M 29.167969 98.609375 C 28.964844 98.609375 28.851562 98.769531 28.851562 98.933594 C 28.851562 99.296875 29.191406 99.382812 29.277344 99.410156 C 31.898438 100.148438 33.449219 101.867188 34.003906 103.535156 L 28.976562 102.292969 C 28.925781 102.292969 28.851562 102.328125 28.851562 102.429688 C 28.851562 102.515625 28.964844 103.695312 28.976562 103.882812 C 28.988281 104.019531 29.003906 104.148438 29.230469 104.148438 C 29.355469 104.148438 29.355469 104.046875 29.355469 103.871094 C 29.355469 103.28125 29.441406 103.242188 29.578125 103.242188 C 29.628906 103.242188 29.78125 103.269531 29.832031 103.28125 L 34.253906 104.382812 C 34.304688 104.382812 34.378906 104.347656 34.378906 104.257812 L 34.378906 103.996094 C 34.378906 103.820312 33.925781 101.914062 32.425781 100.449219 C 30.757812 98.832031 29.214844 98.609375 29.167969 98.609375 Z M 29.167969 98.609375 "/>
<path style=" stroke:none;fill-rule:evenodd;fill:rgb(0%,0%,0%);fill-opacity:1;" d="M 16.121094 92.054688 C 16.40625 92.054688 16.78125 92.054688 16.78125 91.679688 C 16.78125 91.289062 16.425781 91.289062 16.121094 91.289062 L 5.964844 91.289062 C 5.679688 91.289062 5.304688 91.289062 5.304688 91.664062 C 5.304688 92.054688 5.660156 92.054688 5.964844 92.054688 Z M 16.121094 92.054688 "/>
<path style=" stroke:none;fill-rule:evenodd;fill:rgb(0%,0%,0%);fill-opacity:1;" d="M 26.820312 92.054688 C 27.105469 92.054688 27.480469 92.054688 27.480469 91.679688 C 27.480469 91.289062 27.125 91.289062 26.820312 91.289062 L 16.664062 91.289062 C 16.378906 91.289062 16.003906 91.289062 16.003906 91.664062 C 16.003906 92.054688 16.363281 92.054688 16.664062 92.054688 Z M 26.820312 92.054688 "/>
<path style=" stroke:none;fill-rule:evenodd;fill:rgb(0%,0%,0%);fill-opacity:1;" d="M 37.621094 92.054688 C 37.90625 92.054688 38.28125 92.054688 38.28125 91.679688 C 38.28125 91.289062 37.925781 91.289062 37.621094 91.289062 L 27.464844 91.289062 C 27.179688 91.289062 26.804688 91.289062 26.804688 91.664062 C 26.804688 92.054688 27.160156 92.054688 27.464844 92.054688 Z M 37.621094 92.054688 "/>
<path style=" stroke:none;fill-rule:evenodd;fill:rgb(0%,0%,0%);fill-opacity:1;" d="M 48.320312 92.054688 C 48.605469 92.054688 48.980469 92.054688 48.980469 91.679688 C 48.980469 91.289062 48.625 91.289062 48.320312 91.289062 L 38.164062 91.289062 C 37.878906 91.289062 37.503906 91.289062 37.503906 91.664062 C 37.503906 92.054688 37.863281 92.054688 38.164062 92.054688 Z M 48.320312 92.054688 "/>
<path style=" stroke:none;fill-rule:evenodd;fill:rgb(0%,0%,0%);fill-opacity:1;" d="M 18.121094 80.066406 C 18.03125 80.066406 17.960938 80.136719 17.960938 80.242188 C 17.960938 80.40625 18.050781 80.421875 18.191406 80.476562 C 19.765625 80.960938 20.5 81.996094 20.5 82.800781 C 20.5 83.425781 20.035156 83.765625 19.300781 83.765625 C 18.910156 83.765625 18.621094 83.695312 17.441406 83.410156 L 15.011719 82.78125 C 13.9375 82.515625 13.152344 81.90625 13.152344 81.085938 C 13.152344 81.085938 13.152344 80.546875 13.382812 80.171875 C 13.492188 80.746094 13.917969 80.960938 14.261719 80.960938 C 14.6875 80.960938 14.832031 80.621094 14.832031 80.371094 C 14.832031 79.832031 14.367188 79.457031 13.882812 79.457031 C 13.132812 79.457031 12.792969 80.316406 12.792969 81.066406 C 12.792969 82.15625 13.867188 82.765625 14.207031 82.925781 C 12.863281 83.335938 12.792969 84.445312 12.792969 84.769531 C 12.792969 86.59375 15.136719 87.558594 15.527344 87.558594 C 15.601562 87.558594 15.691406 87.484375 15.691406 87.359375 C 15.691406 87.21875 15.582031 87.183594 15.511719 87.148438 C 13.527344 86.539062 13.152344 85.339844 13.152344 84.820312 C 13.152344 84.015625 13.902344 83.855469 14.332031 83.855469 C 14.722656 83.855469 15.136719 83.964844 15.996094 84.179688 L 18.445312 84.785156 C 19.515625 85.054688 20.5 85.574219 20.5 86.519531 C 20.5 86.609375 20.5 87.058594 20.269531 87.433594 C 20.144531 86.789062 19.605469 86.644531 19.390625 86.644531 C 19.035156 86.644531 18.820312 86.914062 18.820312 87.253906 C 18.820312 87.683594 19.195312 88.148438 19.765625 88.148438 C 20.519531 88.148438 20.855469 87.308594 20.855469 86.539062 C 20.855469 85.679688 20.179688 85.070312 19.445312 84.695312 C 20.5 84.410156 20.855469 83.515625 20.855469 82.855469 C 20.855469 81.03125 18.515625 80.066406 18.121094 80.066406 Z M 18.121094 80.066406 "/>
<path style=" stroke:none;fill-rule:evenodd;fill:rgb(0%,0%,0%);fill-opacity:1;" d="M 36.441406 80.339844 C 35.347656 80.339844 33.488281 80.355469 32.058594 81.109375 C 30.808594 81.769531 30.359375 82.824219 30.359375 83.753906 C 30.359375 84.613281 30.753906 85.703125 32.039062 86.382812 C 33.382812 87.097656 35.042969 87.167969 36.441406 87.167969 C 37.457031 87.167969 39.011719 87.152344 40.371094 86.597656 C 42.214844 85.828125 42.464844 84.453125 42.464844 83.753906 C 42.464844 82.929688 42.125 81.679688 40.425781 80.945312 C 39.191406 80.410156 37.746094 80.339844 36.441406 80.339844 Z M 36.242188 81.484375 C 37.40625 81.484375 38.835938 81.484375 39.890625 81.695312 C 41.839844 82.074219 42.179688 83.128906 42.179688 83.753906 C 42.179688 84.898438 41.195312 85.578125 39.835938 85.828125 C 38.78125 86.023438 37.246094 86.023438 36.242188 86.023438 C 34.867188 86.023438 33.722656 86.023438 32.628906 85.792969 C 31.109375 85.453125 30.644531 84.453125 30.644531 83.753906 C 30.644531 83.019531 31.128906 82.074219 32.59375 81.734375 C 33.613281 81.5 34.8125 81.484375 36.242188 81.484375 Z M 36.242188 81.484375 "/>
<path style=" stroke:none;fill-rule:evenodd;fill:rgb(0%,0%,0%);fill-opacity:1;" d="M 16.121094 76.15625 C 16.40625 76.15625 16.78125 76.15625 16.78125 75.78125 C 16.78125 75.386719 16.425781 75.386719 16.121094 75.386719 L 5.964844 75.386719 C 5.679688 75.386719 5.304688 75.386719 5.304688 75.761719 C 5.304688 76.15625 5.660156 76.15625 5.964844 76.15625 Z M 16.121094 76.15625 "/>
<path style=" stroke:none;fill-rule:evenodd;fill:rgb(0%,0%,0%);fill-opacity:1;" d="M 26.820312 76.15625 C 27.105469 76.15625 27.480469 76.15625 27.480469 75.78125 C 27.480469 75.386719 27.125 75.386719 26.820312 75.386719 L 16.664062 75.386719 C 16.378906 75.386719 16.003906 75.386719 16.003906 75.761719 C 16.003906 76.15625 16.363281 76.15625 16.664062 76.15625 Z M 26.820312 76.15625 "/>
<path style=" stroke:none;fill-rule:evenodd;fill:rgb(0%,0%,0%);fill-opacity:1;" d="M 37.621094 76.15625 C 37.90625 76.15625 38.28125 76.15625 38.28125 75.78125 C 38.28125 75.386719 37.925781 75.386719 37.621094 75.386719 L 27.464844 75.386719 C 27.179688 75.386719 26.804688 75.386719 26.804688 75.761719 C 26.804688 76.15625 27.160156 76.15625 27.464844 76.15625 Z M 37.621094 76.15625 "/>
<path style=" stroke:none;fill-rule:evenodd;fill:rgb(0%,0%,0%);fill-opacity:1;" d="M 48.320312 76.15625 C 48.605469 76.15625 48.980469 76.15625 48.980469 75.78125 C 48.980469 75.386719 48.625 75.386719 48.320312 75.386719 L 38.164062 75.386719 C 37.878906 75.386719 37.503906 75.386719 37.503906 75.761719 C 37.503906 76.15625 37.863281 76.15625 38.164062 76.15625 Z M 48.320312 76.15625 "/>
<path style=" stroke:none;fill-rule:evenodd;fill:rgb(0%,0%,0%);fill-opacity:1;" d="M 111.851562 75.464844 C 111.851562 76.0625 111.617188 76.632812 111.195312 77.054688 C 110.773438 77.476562 110.199219 77.714844 109.601562 77.714844 C 109.007812 77.714844 108.433594 77.476562 108.011719 77.054688 C 107.589844 76.632812 107.351562 76.0625 107.351562 75.464844 C 107.351562 74.867188 107.589844 74.296875 108.011719 73.875 C 108.433594 73.453125 109.007812 73.214844 109.601562 73.214844 C 110.199219 73.214844 110.773438 73.453125 111.195312 73.875 C 111.617188 74.296875 111.851562 74.867188 111.851562 75.464844 Z M 111.851562 75.464844 "/>
<path style=" stroke:none;fill-rule:evenodd;fill:rgb(0%,0%,0%);fill-opacity:1;" d="M 113 57.917969 C 113 56.828125 112.984375 54.96875 112.234375 53.539062 C 111.574219 52.285156 110.519531 51.839844 109.589844 51.839844 C 108.730469 51.839844 107.640625 52.234375 106.960938 53.519531 C 106.246094 54.859375 106.175781 56.523438 106.175781 57.917969 C 106.175781 58.9375 106.191406 60.492188 106.746094 61.847656 C 107.515625 63.691406 108.890625 63.941406 109.589844 63.941406 C 110.410156 63.941406 111.660156 63.601562 112.394531 61.902344 C 112.929688 60.671875 113 59.222656 113 57.917969 Z M 111.859375 57.722656 C 111.859375 58.882812 111.859375 60.3125 111.644531 61.367188 C 111.269531 63.316406 110.214844 63.65625 109.589844 63.65625 C 108.445312 63.65625 107.765625 62.671875 107.515625 61.3125 C 107.316406 60.257812 107.316406 58.722656 107.316406 57.722656 C 107.316406 56.34375 107.316406 55.199219 107.550781 54.109375 C 107.890625 52.589844 108.890625 52.125 109.589844 52.125 C 110.320312 52.125 111.269531 52.609375 111.609375 54.074219 C 111.839844 55.09375 111.859375 56.289062 111.859375 57.722656 Z M 111.859375 57.722656 "/>
<path style=" stroke:none;fill-rule:evenodd;fill:rgb(0%,0%,0%);fill-opacity:1;" d="M 139.019531 91.691406 C 139.019531 92.289062 138.78125 92.859375 138.359375 93.28125 C 137.9375 93.703125 137.367188 93.941406 136.769531 93.941406 C 136.171875 93.941406 135.601562 93.703125 135.179688 93.28125 C 134.757812 92.859375 134.519531 92.289062 134.519531 91.691406 C 134.519531 91.09375 134.757812 90.523438 135.179688 90.101562 C 135.601562 89.679688 136.171875 89.441406 136.769531 89.441406 C 137.367188 89.441406 137.9375 89.679688 138.359375 90.101562 C 138.78125 90.523438 139.019531 91.09375 139.019531 91.691406 Z M 139.019531 91.691406 "/>
<path style=" stroke:none;fill-rule:evenodd;fill:rgb(0%,0%,0%);fill-opacity:1;" d="M 132.789062 54.226562 C 132.789062 53.871094 132.449219 53.871094 132.199219 53.871094 L 122.453125 53.871094 C 122.203125 53.871094 121.863281 53.871094 121.863281 54.226562 C 121.863281 54.585938 122.203125 54.585938 122.453125 54.585938 L 132.199219 54.585938 C 132.449219 54.585938 132.789062 54.585938 132.789062 54.226562 Z M 132.789062 54.226562 "/>
<path style=" stroke:none;fill-rule:evenodd;fill:rgb(0%,0%,0%);fill-opacity:1;" d="M 146.546875 46.597656 L 146.546875 46.132812 L 146.007812 46.132812 C 144.472656 46.132812 144.4375 45.9375 144.4375 45.292969 L 144.4375 35.171875 C 144.4375 34.796875 144.417969 34.78125 144.167969 34.78125 C 143.46875 35.621094 142.414062 35.886719 141.414062 35.921875 C 141.359375 35.921875 141.269531 35.921875 141.253906 35.960938 C 141.234375 35.996094 141.234375 36.03125 141.234375 36.40625 C 141.789062 36.40625 142.71875 36.296875 143.433594 35.871094 L 143.433594 45.292969 C 143.433594 45.917969 143.398438 46.132812 141.859375 46.132812 L 141.324219 46.132812 L 141.324219 46.597656 L 143.9375 46.5625 Z M 146.546875 46.597656 "/>
<path style="fill:none;stroke-width:0.716986;stroke-linecap:square;stroke-linejoin:miter;stroke:rgb(0%,0%,0%);stroke-opacity:1;stroke-miterlimit:10;" d="M 135.519531 54.21875 L 151.96875 54.21875 "/>
<path style=" stroke:none;fill-rule:evenodd;fill:rgb(0%,0%,0%);fill-opacity:1;" d="M 142.988281 67.332031 C 142.988281 65.097656 141.539062 63.46875 139.71875 63.46875 C 138.625 63.46875 137.820312 64.183594 137.375 65.4375 L 137.375 64.828125 C 137.375 60.554688 139.378906 59.589844 140.539062 59.589844 C 140.914062 59.589844 141.828125 59.660156 142.183594 60.359375 C 141.898438 60.359375 141.363281 60.359375 141.363281 60.984375 C 141.363281 61.46875 141.757812 61.628906 142.007812 61.628906 C 142.167969 61.628906 142.648438 61.558594 142.648438 60.949219 C 142.648438 59.824219 141.757812 59.179688 140.523438 59.179688 C 138.394531 59.179688 136.160156 61.394531 136.160156 65.347656 C 136.160156 70.210938 138.179688 71.285156 139.609375 71.285156 C 141.34375 71.285156 142.988281 69.730469 142.988281 67.332031 Z M 141.773438 67.316406 C 141.773438 68.28125 141.773438 68.996094 141.398438 69.710938 C 141.003906 70.441406 140.433594 70.855469 139.609375 70.855469 C 137.410156 70.855469 137.410156 67.566406 137.410156 66.902344 C 137.410156 65.613281 138.019531 63.753906 139.679688 63.753906 C 139.984375 63.753906 140.863281 63.753906 141.453125 64.988281 C 141.773438 65.6875 141.773438 66.417969 141.773438 67.316406 Z M 141.773438 67.316406 "/>
<path style=" stroke:none;fill-rule:evenodd;fill:rgb(0%,0%,0%);fill-opacity:1;" d="M 151.289062 67.332031 C 151.289062 65.097656 149.839844 63.46875 148.015625 63.46875 C 146.925781 63.46875 146.121094 64.183594 145.675781 65.4375 L 145.675781 64.828125 C 145.675781 60.554688 147.679688 59.589844 148.839844 59.589844 C 149.214844 59.589844 150.125 59.660156 150.484375 60.359375 C 150.199219 60.359375 149.664062 60.359375 149.664062 60.984375 C 149.664062 61.46875 150.054688 61.628906 150.304688 61.628906 C 150.46875 61.628906 150.949219 61.558594 150.949219 60.949219 C 150.949219 59.824219 150.054688 59.179688 148.820312 59.179688 C 146.695312 59.179688 144.460938 61.394531 144.460938 65.347656 C 144.460938 70.210938 146.480469 71.285156 147.910156 71.285156 C 149.644531 71.285156 151.289062 69.730469 151.289062 67.332031 Z M 150.074219 67.316406 C 150.074219 68.28125 150.074219 68.996094 149.699219 69.710938 C 149.304688 70.441406 148.734375 70.855469 147.910156 70.855469 C 145.710938 70.855469 145.710938 67.566406 145.710938 66.902344 C 145.710938 65.613281 146.320312 63.753906 147.980469 63.753906 C 148.285156 63.753906 149.164062 63.753906 149.75 64.988281 C 150.074219 65.6875 150.074219 66.417969 150.074219 67.316406 Z M 150.074219 67.316406 "/>
<path style=" stroke:none;fill-rule:evenodd;fill:rgb(0%,0%,0%);fill-opacity:1;" d="M 166.1875 75.464844 C 166.1875 76.0625 165.949219 76.632812 165.527344 77.054688 C 165.105469 77.476562 164.535156 77.714844 163.9375 77.714844 C 163.339844 77.714844 162.765625 77.476562 162.34375 77.054688 C 161.921875 76.632812 161.6875 76.0625 161.6875 75.464844 C 161.6875 74.867188 161.921875 74.296875 162.34375 73.875 C 162.765625 73.453125 163.339844 73.214844 163.9375 73.214844 C 164.535156 73.214844 165.105469 73.453125 165.527344 73.875 C 165.949219 74.296875 166.1875 74.867188 166.1875 75.464844 Z M 166.1875 75.464844 "/>
<path style=" stroke:none;fill-rule:evenodd;fill:rgb(0%,0%,0%);fill-opacity:1;" d="M 167.335938 57.917969 C 167.335938 56.828125 167.316406 54.96875 166.566406 53.539062 C 165.90625 52.285156 164.851562 51.839844 163.921875 51.839844 C 163.0625 51.839844 161.972656 52.234375 161.292969 53.519531 C 160.578125 54.859375 160.507812 56.523438 160.507812 57.917969 C 160.507812 58.9375 160.523438 60.492188 161.078125 61.847656 C 161.847656 63.691406 163.222656 63.941406 163.921875 63.941406 C 164.742188 63.941406 165.996094 63.601562 166.726562 61.902344 C 167.265625 60.671875 167.335938 59.222656 167.335938 57.917969 Z M 166.191406 57.722656 C 166.191406 58.882812 166.191406 60.3125 165.976562 61.367188 C 165.601562 63.316406 164.546875 63.65625 163.921875 63.65625 C 162.777344 63.65625 162.097656 62.671875 161.847656 61.3125 C 161.652344 60.257812 161.652344 58.722656 161.652344 57.722656 C 161.652344 56.34375 161.652344 55.199219 161.882812 54.109375 C 162.222656 52.589844 163.222656 52.125 163.921875 52.125 C 164.65625 52.125 165.601562 52.609375 165.941406 54.074219 C 166.171875 55.09375 166.191406 56.289062 166.191406 57.722656 Z M 166.191406 57.722656 "/>
<path style=" stroke:none;fill-rule:evenodd;fill:rgb(0%,0%,0%);fill-opacity:1;" d="M 193.351562 66.539062 C 193.351562 67.136719 193.117188 67.710938 192.695312 68.132812 C 192.273438 68.554688 191.699219 68.789062 191.101562 68.789062 C 190.507812 68.789062 189.933594 68.554688 189.511719 68.132812 C 189.089844 67.710938 188.851562 67.136719 188.851562 66.539062 C 188.851562 65.945312 189.089844 65.371094 189.511719 64.949219 C 189.933594 64.527344 190.507812 64.289062 191.101562 64.289062 C 191.699219 64.289062 192.273438 64.527344 192.695312 64.949219 C 193.117188 65.371094 193.351562 65.945312 193.351562 66.539062 Z M 193.351562 66.539062 "/>
<path style=" stroke:none;fill-rule:evenodd;fill:rgb(0%,0%,0%);fill-opacity:1;" d="M 193.839844 27.875 L 193.839844 27.40625 L 193.300781 27.40625 C 191.765625 27.40625 191.730469 27.210938 191.730469 26.570312 L 191.730469 16.449219 C 191.730469 16.074219 191.710938 16.054688 191.460938 16.054688 C 190.765625 16.898438 189.710938 17.164062 188.707031 17.199219 C 188.65625 17.199219 188.5625 17.199219 188.546875 17.234375 C 188.53125 17.273438 188.53125 17.308594 188.53125 17.683594 C 189.082031 17.683594 190.011719 17.574219 190.726562 17.148438 L 190.726562 26.570312 C 190.726562 27.195312 190.691406 27.40625 189.15625 27.40625 L 188.617188 27.40625 L 188.617188 27.875 L 191.230469 27.835938 Z M 193.839844 27.875 "/>
<path style="fill:none;stroke-width:0.716917;stroke-linecap:square;stroke-linejoin:miter;stroke:rgb(0%,0%,0%);stroke-opacity:1;stroke-miterlimit:10;" d="M 178.765625 35.492188 L 203.4375 35.492188 "/>
<path style=" stroke:none;fill-rule:evenodd;fill:rgb(0%,0%,0%);fill-opacity:1;" d="M 185.640625 52.269531 L 185.640625 51.804688 L 185.101562 51.804688 C 183.566406 51.804688 183.53125 51.609375 183.53125 50.964844 L 183.53125 40.847656 C 183.53125 40.46875 183.511719 40.453125 183.261719 40.453125 C 182.566406 41.292969 181.511719 41.5625 180.507812 41.597656 C 180.457031 41.597656 180.363281 41.597656 180.347656 41.632812 C 180.332031 41.667969 180.332031 41.703125 180.332031 42.078125 C 180.882812 42.078125 181.8125 41.972656 182.527344 41.542969 L 182.527344 50.964844 C 182.527344 51.589844 182.492188 51.804688 180.957031 51.804688 L 180.417969 51.804688 L 180.417969 52.269531 L 183.03125 52.234375 Z M 185.640625 52.269531 "/>
<path style=" stroke:none;fill-rule:evenodd;fill:rgb(0%,0%,0%);fill-opacity:1;" d="M 194.429688 49.5 L 194.105469 49.5 C 193.929688 50.769531 193.785156 50.984375 193.714844 51.089844 C 193.625 51.234375 192.335938 51.234375 192.085938 51.234375 L 188.65625 51.234375 L 192.066406 47.800781 C 193.160156 46.765625 194.429688 45.546875 194.429688 43.777344 C 194.429688 41.667969 192.746094 40.453125 190.871094 40.453125 C 188.90625 40.453125 187.707031 42.1875 187.707031 43.796875 C 187.707031 44.492188 188.226562 44.582031 188.4375 44.582031 C 188.617188 44.582031 189.15625 44.476562 189.15625 43.851562 C 189.15625 43.296875 188.691406 43.132812 188.4375 43.132812 C 188.332031 43.132812 188.226562 43.152344 188.152344 43.1875 C 188.492188 41.667969 189.53125 40.917969 190.621094 40.917969 C 192.175781 40.917969 193.195312 42.152344 193.195312 43.777344 C 193.195312 45.335938 192.285156 46.675781 191.261719 47.835938 L 187.707031 51.859375 L 187.707031 52.269531 L 194 52.269531 Z M 194.429688 49.5 "/>
<path style=" stroke:none;fill-rule:evenodd;fill:rgb(0%,0%,0%);fill-opacity:1;" d="M 202.679688 46.53125 C 202.679688 45.441406 202.664062 43.582031 201.914062 42.152344 C 201.25 40.898438 200.195312 40.453125 199.265625 40.453125 C 198.40625 40.453125 197.316406 40.847656 196.636719 42.132812 C 195.925781 43.476562 195.851562 45.136719 195.851562 46.53125 C 195.851562 47.550781 195.871094 49.105469 196.425781 50.464844 C 197.191406 52.308594 198.570312 52.558594 199.265625 52.558594 C 200.089844 52.558594 201.339844 52.21875 202.074219 50.519531 C 202.609375 49.285156 202.679688 47.835938 202.679688 46.53125 Z M 201.539062 46.335938 C 201.539062 47.496094 201.539062 48.925781 201.324219 49.980469 C 200.945312 51.933594 199.890625 52.269531 199.265625 52.269531 C 198.121094 52.269531 197.441406 51.289062 197.191406 49.929688 C 196.996094 48.875 196.996094 47.335938 196.996094 46.335938 C 196.996094 44.960938 196.996094 43.8125 197.230469 42.722656 C 197.566406 41.203125 198.570312 40.738281 199.265625 40.738281 C 200 40.738281 200.945312 41.222656 201.289062 42.6875 C 201.519531 43.707031 201.539062 44.90625 201.539062 46.335938 Z M 201.539062 46.335938 "/>
<path style=" stroke:none;fill-rule:evenodd;fill:rgb(0%,0%,0%);fill-opacity:1;" d="M 220.519531 75.464844 C 220.519531 76.0625 220.28125 76.632812 219.859375 77.054688 C 219.4375 77.476562 218.867188 77.714844 218.269531 77.714844 C 217.671875 77.714844 217.101562 77.476562 216.679688 77.054688 C 216.257812 76.632812 216.019531 76.0625 216.019531 75.464844 C 216.019531 74.867188 216.257812 74.296875 216.679688 73.875 C 217.101562 73.453125 217.671875 73.214844 218.269531 73.214844 C 218.867188 73.214844 219.4375 73.453125 219.859375 73.875 C 220.28125 74.296875 220.519531 74.867188 220.519531 75.464844 Z M 220.519531 75.464844 "/>
<path style=" stroke:none;fill-rule:evenodd;fill:rgb(0%,0%,0%);fill-opacity:1;" d="M 221.667969 57.917969 C 221.667969 56.828125 221.652344 54.96875 220.898438 53.539062 C 220.238281 52.285156 219.183594 51.839844 218.253906 51.839844 C 217.394531 51.839844 216.304688 52.234375 215.625 53.519531 C 214.914062 54.859375 214.839844 56.523438 214.839844 57.917969 C 214.839844 58.9375 214.859375 60.492188 215.410156 61.847656 C 216.179688 63.691406 217.558594 63.941406 218.253906 63.941406 C 219.078125 63.941406 220.328125 63.601562 221.058594 61.902344 C 221.597656 60.671875 221.667969 59.222656 221.667969 57.917969 Z M 220.523438 57.722656 C 220.523438 58.882812 220.523438 60.3125 220.3125 61.367188 C 219.933594 63.316406 218.878906 63.65625 218.253906 63.65625 C 217.109375 63.65625 216.429688 62.671875 216.179688 61.3125 C 215.984375 60.257812 215.984375 58.722656 215.984375 57.722656 C 215.984375 56.34375 215.984375 55.199219 216.214844 54.109375 C 216.554688 52.589844 217.558594 52.125 218.253906 52.125 C 218.988281 52.125 219.933594 52.609375 220.273438 54.074219 C 220.503906 55.09375 220.523438 56.289062 220.523438 57.722656 Z M 220.523438 57.722656 "/>
<path style=" stroke:none;fill-rule:evenodd;fill:rgb(0%,0%,0%);fill-opacity:1;" d="M 247.6875 83.964844 C 247.6875 84.5625 247.449219 85.132812 247.027344 85.554688 C 246.605469 85.976562 246.03125 86.214844 245.4375 86.214844 C 244.839844 86.214844 244.265625 85.976562 243.84375 85.554688 C 243.421875 85.132812 243.1875 84.5625 243.1875 83.964844 C 243.1875 83.367188 243.421875 82.796875 243.84375 82.375 C 244.265625 81.953125 244.839844 81.714844 245.4375 81.714844 C 246.03125 81.714844 246.605469 81.953125 247.027344 82.375 C 247.449219 82.796875 247.6875 83.367188 247.6875 83.964844 Z M 247.6875 83.964844 "/>
<path style=" stroke:none;fill-rule:evenodd;fill:rgb(0%,0%,0%);fill-opacity:1;" d="M 237.347656 52.925781 C 237.347656 52.570312 237.003906 52.570312 236.753906 52.570312 L 227.011719 52.570312 C 226.761719 52.570312 226.421875 52.570312 226.421875 52.925781 C 226.421875 53.285156 226.761719 53.285156 227.011719 53.285156 L 236.753906 53.285156 C 237.003906 53.285156 237.347656 53.285156 237.347656 52.925781 Z M 237.347656 52.925781 "/>
<path style=" stroke:none;fill-rule:evenodd;fill:rgb(0%,0%,0%);fill-opacity:1;" d="M 255.203125 45.296875 L 255.203125 44.832031 L 254.664062 44.832031 C 253.128906 44.832031 253.09375 44.636719 253.09375 43.992188 L 253.09375 33.871094 C 253.09375 33.496094 253.074219 33.476562 252.824219 33.476562 C 252.125 34.320312 251.070312 34.585938 250.070312 34.621094 C 250.015625 34.621094 249.925781 34.621094 249.910156 34.65625 C 249.890625 34.695312 249.890625 34.730469 249.890625 35.105469 C 250.445312 35.105469 251.375 34.996094 252.089844 34.570312 L 252.089844 43.992188 C 252.089844 44.617188 252.054688 44.832031 250.515625 44.832031 L 249.980469 44.832031 L 249.980469 45.296875 L 252.59375 45.261719 Z M 255.203125 45.296875 "/>
<path style="fill:none;stroke-width:0.716986;stroke-linecap:square;stroke-linejoin:miter;stroke:rgb(0%,0%,0%);stroke-opacity:1;stroke-miterlimit:10;" d="M 240.074219 52.917969 L 264.75 52.917969 "/>
<path style=" stroke:none;fill-rule:evenodd;fill:rgb(0%,0%,0%);fill-opacity:1;" d="M 246.902344 69.695312 L 246.902344 69.230469 L 246.367188 69.230469 C 244.828125 69.230469 244.792969 69.035156 244.792969 68.390625 L 244.792969 58.273438 C 244.792969 57.894531 244.773438 57.878906 244.523438 57.878906 C 243.828125 58.71875 242.773438 58.984375 241.769531 59.023438 C 241.71875 59.023438 241.625 59.023438 241.609375 59.058594 C 241.59375 59.09375 241.59375 59.128906 241.59375 59.503906 C 242.144531 59.503906 243.074219 59.398438 243.789062 58.96875 L 243.789062 68.390625 C 243.789062 69.015625 243.753906 69.230469 242.21875 69.230469 L 241.679688 69.230469 L 241.679688 69.695312 L 244.292969 69.660156 Z M 246.902344 69.695312 "/>
<path style=" stroke:none;fill-rule:evenodd;fill:rgb(0%,0%,0%);fill-opacity:1;" d="M 255.792969 66.925781 L 255.46875 66.925781 C 255.292969 68.195312 255.148438 68.410156 255.078125 68.515625 C 254.988281 68.660156 253.699219 68.660156 253.449219 68.660156 L 250.015625 68.660156 L 253.429688 65.226562 C 254.523438 64.1875 255.792969 62.972656 255.792969 61.203125 C 255.792969 59.09375 254.109375 57.878906 252.234375 57.878906 C 250.265625 57.878906 249.070312 59.613281 249.070312 61.222656 C 249.070312 61.917969 249.585938 62.007812 249.800781 62.007812 C 249.980469 62.007812 250.515625 61.902344 250.515625 61.273438 C 250.515625 60.71875 250.054688 60.558594 249.800781 60.558594 C 249.695312 60.558594 249.585938 60.578125 249.515625 60.613281 C 249.855469 59.09375 250.890625 58.34375 251.984375 58.34375 C 253.539062 58.34375 254.558594 59.578125 254.558594 61.203125 C 254.558594 62.757812 253.648438 64.101562 252.625 65.261719 L 249.070312 69.285156 L 249.070312 69.695312 L 255.363281 69.695312 Z M 255.792969 66.925781 "/>
<path style=" stroke:none;fill-rule:evenodd;fill:rgb(0%,0%,0%);fill-opacity:1;" d="M 264.046875 66.03125 C 264.046875 63.796875 262.597656 62.167969 260.773438 62.167969 C 259.683594 62.167969 258.878906 62.882812 258.429688 64.136719 L 258.429688 63.527344 C 258.429688 59.253906 260.433594 58.289062 261.597656 58.289062 C 261.972656 58.289062 262.882812 58.359375 263.242188 59.058594 C 262.953125 59.058594 262.417969 59.058594 262.417969 59.683594 C 262.417969 60.167969 262.8125 60.328125 263.0625 60.328125 C 263.222656 60.328125 263.707031 60.257812 263.707031 59.648438 C 263.707031 58.523438 262.8125 57.878906 261.578125 57.878906 C 259.449219 57.878906 257.214844 60.09375 257.214844 64.046875 C 257.214844 68.910156 259.234375 69.984375 260.664062 69.984375 C 262.402344 69.984375 264.046875 68.429688 264.046875 66.03125 Z M 262.828125 66.015625 C 262.828125 66.980469 262.828125 67.695312 262.453125 68.410156 C 262.0625 69.140625 261.488281 69.554688 260.664062 69.554688 C 258.46875 69.554688 258.46875 66.265625 258.46875 65.601562 C 258.46875 64.3125 259.074219 62.453125 260.738281 62.453125 C 261.042969 62.453125 261.917969 62.453125 262.507812 63.6875 C 262.828125 64.386719 262.828125 65.117188 262.828125 66.015625 Z M 262.828125 66.015625 "/>
<path style=" stroke:none;fill-rule:evenodd;fill:rgb(0%,0%,0%);fill-opacity:1;" d="M 274.851562 75.464844 C 274.851562 76.0625 274.617188 76.632812 274.195312 77.054688 C 273.773438 77.476562 273.199219 77.714844 272.601562 77.714844 C 272.007812 77.714844 271.433594 77.476562 271.011719 77.054688 C 270.589844 76.632812 270.351562 76.0625 270.351562 75.464844 C 270.351562 74.867188 270.589844 74.296875 271.011719 73.875 C 271.433594 73.453125 272.007812 73.214844 272.601562 73.214844 C 273.199219 73.214844 273.773438 73.453125 274.195312 73.875 C 274.617188 74.296875 274.851562 74.867188 274.851562 75.464844 Z M 274.851562 75.464844 "/>
<path style=" stroke:none;fill-rule:evenodd;fill:rgb(0%,0%,0%);fill-opacity:1;" d="M 276 57.917969 C 276 56.828125 275.984375 54.96875 275.234375 53.539062 C 274.570312 52.285156 273.515625 51.839844 272.589844 51.839844 C 271.730469 51.839844 270.640625 52.234375 269.960938 53.519531 C 269.246094 54.859375 269.171875 56.523438 269.171875 57.917969 C 269.171875 58.9375 269.191406 60.492188 269.746094 61.847656 C 270.515625 63.691406 271.890625 63.941406 272.589844 63.941406 C 273.410156 63.941406 274.660156 63.601562 275.394531 61.902344 C 275.929688 60.671875 276 59.222656 276 57.917969 Z M 274.859375 57.722656 C 274.859375 58.882812 274.859375 60.3125 274.644531 61.367188 C 274.265625 63.316406 273.214844 63.65625 272.589844 63.65625 C 271.441406 63.65625 270.761719 62.671875 270.515625 61.3125 C 270.316406 60.257812 270.316406 58.722656 270.316406 57.722656 C 270.316406 56.34375 270.316406 55.199219 270.550781 54.109375 C 270.886719 52.589844 271.890625 52.125 272.589844 52.125 C 273.320312 52.125 274.265625 52.609375 274.609375 54.074219 C 274.839844 55.09375 274.859375 56.289062 274.859375 57.722656 Z M 274.859375 57.722656 "/>
<path style=" stroke:none;fill-rule:evenodd;fill:rgb(0%,0%,0%);fill-opacity:1;" d="M 302.019531 57.617188 C 302.019531 58.214844 301.78125 58.785156 301.359375 59.207031 C 300.9375 59.628906 300.367188 59.867188 299.769531 59.867188 C 299.171875 59.867188 298.601562 59.628906 298.179688 59.207031 C 297.757812 58.785156 297.519531 58.214844 297.519531 57.617188 C 297.519531 57.019531 297.757812 56.449219 298.179688 56.027344 C 298.601562 55.605469 299.171875 55.367188 299.769531 55.367188 C 300.367188 55.367188 300.9375 55.605469 301.359375 56.027344 C 301.78125 56.449219 302.019531 57.019531 302.019531 57.617188 Z M 302.019531 57.617188 "/>
<path style=" stroke:none;fill-rule:evenodd;fill:rgb(0%,0%,0%);fill-opacity:1;" d="M 302.519531 18.949219 L 302.519531 18.484375 L 301.984375 18.484375 C 300.445312 18.484375 300.410156 18.289062 300.410156 17.644531 L 300.410156 7.523438 C 300.410156 7.148438 300.394531 7.128906 300.140625 7.128906 C 299.445312 7.972656 298.390625 8.238281 297.390625 8.273438 C 297.335938 8.273438 297.246094 8.273438 297.226562 8.308594 C 297.210938 8.347656 297.210938 8.382812 297.210938 8.757812 C 297.765625 8.757812 298.695312 8.648438 299.410156 8.222656 L 299.410156 17.644531 C 299.410156 18.269531 299.375 18.484375 297.835938 18.484375 L 297.300781 18.484375 L 297.300781 18.949219 L 299.910156 18.914062 Z M 302.519531 18.949219 "/>
<path style="fill:none;stroke-width:0.716986;stroke-linecap:square;stroke-linejoin:miter;stroke:rgb(0%,0%,0%);stroke-opacity:1;stroke-miterlimit:10;" d="M 291.546875 26.570312 L 307.996094 26.570312 "/>
<path style=" stroke:none;fill-rule:evenodd;fill:rgb(0%,0%,0%);fill-opacity:1;" d="M 299.0625 39.683594 C 299.0625 37.449219 297.617188 35.820312 295.792969 35.820312 C 294.703125 35.820312 293.898438 36.535156 293.449219 37.789062 L 293.449219 37.179688 C 293.449219 32.90625 295.453125 31.941406 296.617188 31.941406 C 296.992188 31.941406 297.902344 32.011719 298.257812 32.710938 C 297.972656 32.710938 297.4375 32.710938 297.4375 33.335938 C 297.4375 33.820312 297.832031 33.980469 298.082031 33.980469 C 298.242188 33.980469 298.726562 33.90625 298.726562 33.300781 C 298.726562 32.171875 297.832031 31.53125 296.597656 31.53125 C 294.46875 31.53125 292.234375 33.746094 292.234375 37.699219 C 292.234375 42.5625 294.253906 43.632812 295.683594 43.632812 C 297.421875 43.632812 299.0625 42.078125 299.0625 39.683594 Z M 297.847656 39.664062 C 297.847656 40.632812 297.847656 41.34375 297.472656 42.0625 C 297.078125 42.792969 296.507812 43.203125 295.683594 43.203125 C 293.484375 43.203125 293.484375 39.914062 293.484375 39.253906 C 293.484375 37.964844 294.09375 36.105469 295.757812 36.105469 C 296.0625 36.105469 296.9375 36.105469 297.527344 37.339844 C 297.847656 38.039062 297.847656 38.769531 297.847656 39.664062 Z M 297.847656 39.664062 "/>
<path style=" stroke:none;fill-rule:evenodd;fill:rgb(0%,0%,0%);fill-opacity:1;" d="M 307.261719 37.609375 C 307.261719 36.519531 307.246094 34.65625 306.496094 33.226562 C 305.832031 31.976562 304.777344 31.53125 303.847656 31.53125 C 302.988281 31.53125 301.898438 31.921875 301.21875 33.210938 C 300.507812 34.550781 300.433594 36.214844 300.433594 37.609375 C 300.433594 38.628906 300.453125 40.183594 301.007812 41.542969 C 301.773438 43.382812 303.152344 43.632812 303.847656 43.632812 C 304.671875 43.632812 305.921875 43.296875 306.65625 41.597656 C 307.191406 40.363281 307.261719 38.914062 307.261719 37.609375 Z M 306.121094 37.414062 C 306.121094 38.574219 306.121094 40.003906 305.90625 41.058594 C 305.527344 43.007812 304.472656 43.347656 303.847656 43.347656 C 302.703125 43.347656 302.023438 42.367188 301.773438 41.007812 C 301.578125 39.953125 301.578125 38.414062 301.578125 37.414062 C 301.578125 36.035156 301.578125 34.890625 301.8125 33.800781 C 302.148438 32.28125 303.152344 31.816406 303.847656 31.816406 C 304.582031 31.816406 305.527344 32.296875 305.871094 33.765625 C 306.101562 34.78125 306.121094 35.980469 306.121094 37.414062 Z M 306.121094 37.414062 "/>
<path style=" stroke:none;fill-rule:evenodd;fill:rgb(0%,0%,0%);fill-opacity:1;" d="M 329.1875 75.464844 C 329.1875 76.0625 328.949219 76.632812 328.527344 77.054688 C 328.105469 77.476562 327.53125 77.714844 326.9375 77.714844 C 326.339844 77.714844 325.765625 77.476562 325.34375 77.054688 C 324.921875 76.632812 324.6875 76.0625 324.6875 75.464844 C 324.6875 74.867188 324.921875 74.296875 325.34375 73.875 C 325.765625 73.453125 326.339844 73.214844 326.9375 73.214844 C 327.53125 73.214844 328.105469 73.453125 328.527344 73.875 C 328.949219 74.296875 329.1875 74.867188 329.1875 75.464844 Z M 329.1875 75.464844 "/>
<path style=" stroke:none;fill-rule:evenodd;fill:rgb(0%,0%,0%);fill-opacity:1;" d="M 330.335938 57.917969 C 330.335938 56.828125 330.316406 54.96875 329.566406 53.539062 C 328.90625 52.285156 327.851562 51.839844 326.921875 51.839844 C 326.0625 51.839844 324.972656 52.234375 324.292969 53.519531 C 323.578125 54.859375 323.507812 56.523438 323.507812 57.917969 C 323.507812 58.9375 323.523438 60.492188 324.078125 61.847656 C 324.847656 63.691406 326.222656 63.941406 326.921875 63.941406 C 327.742188 63.941406 328.992188 63.601562 329.726562 61.902344 C 330.265625 60.671875 330.335938 59.222656 330.335938 57.917969 Z M 329.191406 57.722656 C 329.191406 58.882812 329.191406 60.3125 328.976562 61.367188 C 328.601562 63.316406 327.546875 63.65625 326.921875 63.65625 C 325.777344 63.65625 325.097656 62.671875 324.847656 61.3125 C 324.648438 60.257812 324.648438 58.722656 324.648438 57.722656 C 324.648438 56.34375 324.648438 55.199219 324.882812 54.109375 C 325.222656 52.589844 326.222656 52.125 326.921875 52.125 C 327.652344 52.125 328.601562 52.609375 328.941406 54.074219 C 329.171875 55.09375 329.191406 56.289062 329.191406 57.722656 Z M 329.191406 57.722656 "/>
</g>
</svg>
