<?xml version="1.0" standalone="no"?>
<!DOCTYPE svg PUBLIC "-//W3C//DTD SVG 20010904//EN"
 "http://www.w3.org/TR/2001/REC-SVG-20010904/DTD/svg10.dtd">
<svg version="1.0" xmlns="http://www.w3.org/2000/svg"
 width="32.000000pt" height="32.000000pt" viewBox="0 0 32.000000 32.000000"
 preserveAspectRatio="xMidYMid meet">
<metadata>
Created by potrace 1.16, written by Peter Selinger 2001-2019
</metadata>
<g transform="translate(0.000000,32.000000) scale(0.100000,-0.100000)"
fill="#000000" stroke="none">
<path d="M125 249 c-16 -11 -38 -22 -47 -25 -24 -8 -26 -109 -3 -118 13 -5 14
-2 5 15 -9 16 -8 26 4 43 9 15 11 27 5 33 -6 6 -5 14 5 22 14 12 16 5 15 -55
-1 -91 0 -99 8 -91 3 4 14 0 24 -9 19 -17 44 -10 33 8 -4 7 -2 8 5 4 7 -5 27
2 46 16 32 21 35 27 35 76 0 28 -4 52 -10 52 -6 0 -8 -18 -6 -42 3 -44 -7 -78
-24 -78 -17 0 -12 70 6 77 15 5 15 7 0 15 -9 5 -16 16 -16 24 0 8 5 12 10 9 6
-3 10 -4 10 0 0 6 -62 45 -70 44 -3 0 -18 -9 -35 -20z m30 -9 c-4 -11 -2 -20
4 -20 6 0 11 7 11 16 0 9 6 14 13 12 6 -3 12 -13 12 -24 0 -13 -8 -20 -27 -22
-25 -3 -28 -7 -28 -43 0 -36 2 -39 28 -38 l27 0 -25 11 c-21 9 -22 12 -7 15
21 5 23 23 2 23 -25 0 -17 17 10 22 25 5 25 4 24 -48 -2 -39 -6 -54 -16 -54
-8 0 -12 4 -9 8 2 4 -3 8 -13 8 -10 0 -18 -6 -18 -13 0 -7 4 -10 9 -7 4 3 8 0
8 -5 0 -15 -15 -14 -27 2 -17 21 -13 140 4 160 21 22 26 22 18 -3z"/>
<path d="M80 140 c0 -5 5 -10 10 -10 6 0 10 5 10 10 0 6 -4 10 -10 10 -5 0
-10 -4 -10 -10z"/>
<path d="M220 140 c0 -5 5 -10 10 -10 6 0 10 5 10 10 0 6 -4 10 -10 10 -5 0
-10 -4 -10 -10z"/>
</g>
</svg>
